<?xml version="1.0" encoding="utf-8"?>
<!-- Generator: Adobe Illustrator 19.0.0, SVG Export Plug-In . SVG Version: 6.00 Build 0)  -->
<svg version="1.1" id="Layer_1" xmlns="http://www.w3.org/2000/svg" xmlns:xlink="http://www.w3.org/1999/xlink" x="0px" y="0px"
	 viewBox="0 0 400 328.5" style="enable-background:new 0 0 400 328.5;" xml:space="preserve">
<style type="text/css">
	.st0{fill:#61ABFF;}
	.st1{fill:#6BBAFF;}
	.st2{fill:#FFAC4D;}
	.st3{fill:#FFDD57;}
	.st4{fill:#FFD152;}
	.st5{fill:#5C92FF;}
	.st6{fill:#333333;}
	.st7{fill:#FFFFFF;}
	.st8{fill:#E6E6E6;}
</style>
<g>
	<g>
		<path class="st0" d="M0-711.2h15.7l22.8,41.5l22.6-41.5h15.8v73.4H61.1v-45.7l-22.6,41.5l-22.8-41.5v45.7H0V-711.2z"/>
		<path class="st1" d="M85.2-665.5c0-15.7,13.8-28.8,30.2-28.8c16.3,0,30,13.1,30,28.8s-13.7,29-30,29
			C99-636.6,85.2-649.8,85.2-665.5z M130.6-665.5c0-8.5-6.9-15.7-15.2-15.7c-8.3,0-15.3,7.2-15.3,15.7s6.9,15.8,15.3,15.8
			C123.7-649.7,130.6-657,130.6-665.5z"/>
		<path class="st0" d="M206.3-673v35.1h-15.1v-31.8c0-6.8-4.3-11.5-10.5-11.5c-6.5,0-11.5,4.7-11.5,10.7l-0.1-0.3v33h-15.6v-55.2
			h15.6v6.9c3.3-5,9.5-8.2,16.7-8.2C197.8-694.4,206.3-685.5,206.3-673z"/>
		<path class="st1" d="M255.7-655.3l9.9,10.1c-4.9,5.1-14.4,8.5-22.5,8.5c-16.5,0-29.3-12.1-29.3-29.1c0-16.7,12.3-28.7,28.4-28.7
			c17.3,0,27.5,13.1,27.5,34h-39.8c1.8,6,6.6,10,13.1,10C247.4-650.3,252.7-652.4,255.7-655.3z M230.1-671.6h24.7
			c-1.5-5.4-5.6-9-11.9-9C237-680.6,232.1-677.2,230.1-671.6z"/>
		<path class="st0" d="M308.6-641.4c-3.2,2.9-8.2,4.8-12.7,4.8c-9.7,0-16.6-6.9-16.6-16.9v-27h-7.6v-12.6h7.6v-15.2h15v15.2h12v12.6
			h-12v24.6c0,3.6,2.4,6.2,5.2,6.2c2.1,0,4.3-0.7,5.3-1.8L308.6-641.4z"/>
		<path class="st1" d="M342.9-641.4c-3.2,2.9-8.2,4.8-12.7,4.8c-9.7,0-16.6-6.9-16.6-16.9v-27h-7.6v-12.6h7.6v-15.2h15v15.2h12v12.6
			h-12v24.6c0,3.6,2.4,6.2,5.2,6.2c2.1,0,4.3-0.7,5.3-1.8L342.9-641.4z"/>
		<path class="st0" d="M400-670.8v33h-15.1v-5.6c-4,4.5-10.3,6.8-16.2,6.8c-11.8,0-20.8-7.1-20.8-17.6c0-10.9,10.1-18.4,23-18.4
			c4.5,0,9.4,1,14.1,2.8v-1.1c0-5.9-3.6-11-12.7-11c-5.1,0-9.9,1.7-14.3,4l-5.2-10.4c7.8-4,15.4-6.1,23.1-6.1
			C390.2-694.4,400-685.3,400-670.8z M384.9-655.3v-5.1c-3.5-1.3-7.6-2-11.9-2c-5.7,0-10.1,3.3-10.1,7.8c0,4.5,4,7.3,9.3,7.3
			C378.2-647.3,383.9-650.1,384.9-655.3z"/>
	</g>
	<g>
		<path class="st2" d="M153.1-938.5l-50.6,29.2c-1.8,1-1.8,3.6,0,4.6l44.7,25.8c1.2,0.7,2.8,0.7,4,0l48.8-28.2l-46.8-27
			C151.5-935,151.5-937.4,153.1-938.5z"/>
		<path class="st3" d="M246.7-938.7c1.8,1,1.8,3.6,0,4.6l-46.7,27l48.8,28.2c1.2,0.7,2.8,0.7,4,0l44.7-25.8c1.8-1,1.8-3.6,0-4.6
			L246.7-938.7z"/>
		<path class="st4" d="M246.7-938.7L202-964.5c-1.2-0.7-2.8-0.7-4,0l-45,26c-1.6,1.1-1.5,3.5,0.2,4.5l46.8,27l46.7-27
			C248.5-935.1,248.5-937.6,246.7-938.7z"/>
		<g>
			<path class="st5" d="M89-834.3v58.7c0,1.4,0.8,2.7,2,3.5l44.7,25.8c1.8,1,4-0.3,4-2.3v-54.1L91-830.9
				C89.7-831.6,89-832.9,89-834.3z"/>
		</g>
		<path class="st1" d="M188.5-833.2L138-862.3c1.1,0.7,1.7,1.9,1.7,3.2v56.4l46.8,27.1c1.8,1,4-0.3,4-2.3v-51.8
			C190.5-831.1,189.8-832.5,188.5-833.2z"/>
		<path class="st0" d="M138-862.3l-28-16.1l-17-9.8c-1.8-1-4,0.3-4,2.3v51.6c0,1.4,0.8,2.7,2,3.5l48.7,28.2v-56.4
			C139.7-860.4,139-861.6,138-862.3z"/>
		<g>
			<path class="st5" d="M309-830.9l-48.7,28.2v54.1c0,2.1,2.2,3.3,4,2.3l44.7-25.8c1.2-0.7,2-2,2-3.5l0-58.7
				C311-832.9,310.3-831.6,309-830.9z"/>
		</g>
		<path class="st1" d="M262-862.3l-50.5,29.2c-1.2,0.7-2,2-2,3.5v51.8c0,2.1,2.2,3.3,4,2.3l46.8-27.1v-56.4
			C260.3-860.4,261-861.6,262-862.3z"/>
		<path class="st0" d="M307-888.3l-17.1,9.8L262-862.3c-1.1,0.7-1.7,1.9-1.7,3.2v56.4l48.7-28.2c1.2-0.7,2-2,2-3.5V-886
			C311-888,308.8-889.3,307-888.3z"/>
	</g>
</g>
<g>
	<g>
		<path class="st6" d="M246.7-457.5L202-483.4c-0.6-0.4-1.3-0.5-2-0.5s-1.4,0.2-2,0.5l-45,26c-1.6,1.1-1.5,3.5,0.2,4.5l46.8,27
			l46.7-27C248.5-453.9,248.5-456.5,246.7-457.5z"/>
		<path class="st6" d="M89-353.2c0,1.4,0.8,2.7,2,3.5l48.7,28.2V-378c0-1.3-0.7-2.5-1.7-3.2l-28-16.1l-17-9.8
			c-0.4-0.2-0.9-0.4-1.3-0.4c-1.4,0-2.7,1.1-2.7,2.7V-353.2z"/>
		<g>
			<path class="st6" d="M297.5-428.2L250-455.6c0,0.1,0,0.3,0,0.4c0,1.7-0.9,3.2-2.3,4L202-424.8l46.8,27c1.2,0.7,2.8,0.7,4,0
				l44.7-25.8C299.3-424.6,299.3-427.2,297.5-428.2z"/>
		</g>
		<g>
			<g>
				<path class="st6" d="M138.7-380.6c-0.2-0.2-0.5-0.5-0.7-0.6l0,0C138.2-381,138.5-380.8,138.7-380.6z"/>
			</g>
			<g>
				<path class="st6" d="M188.5-352l-47-27.1c0.1,0.4,0.1,0.8,0.1,1.2v56.4v1.2l44.8,25.9c1.8,1,4-0.3,4-2.3v-51.8
					C190.5-350,189.8-351.3,188.5-352z"/>
			</g>
		</g>
		<g>
			<g>
				<path class="st6" d="M153.2-452.9l23.4,13.5L153.2-452.9c-0.4-0.2-0.7-0.6-1-1C152.5-453.5,152.8-453.2,153.2-452.9z"/>
			</g>
			<g>
				<path class="st6" d="M152.2-451.2c-1.4-0.8-2.2-2.2-2.3-3.8c0-0.2,0-0.4,0-0.6l-47.4,27.4c-1.8,1-1.8,3.6,0,4.6l44.7,25.8
					c1.2,0.7,2.8,0.7,4,0l46.8-27L152.2-451.2z"/>
			</g>
		</g>
		<g>
			<path class="st6" d="M138.7-319.8L90-348c-0.4-0.2-0.7-0.5-1-0.7v54.3c0,1.4,0.8,2.7,2,3.5l44.7,25.8c1.8,1,4-0.3,4-2.3v-51.8
				L138.7-319.8z"/>
		</g>
		<path class="st6" d="M311-353.2c0,1.4-0.8,2.7-2,3.5l-48.7,28.2V-378c0-1.3,0.7-2.5,1.7-3.2l28-16.1l17-9.8
			c0.4-0.2,0.9-0.4,1.3-0.4c1.4,0,2.7,1.1,2.7,2.7V-353.2z"/>
		<g>
			<g>
				<path class="st6" d="M261.3-380.6c0.2-0.2,0.5-0.5,0.7-0.6l0,0C261.8-381,261.5-380.8,261.3-380.6z"/>
			</g>
			<g>
				<path class="st6" d="M211.5-352l47-27.1c-0.1,0.4-0.1,0.8-0.1,1.2v56.4v1.2l-44.8,25.9c-1.8,1-4-0.3-4-2.3v-51.8
					C209.5-350,210.2-351.3,211.5-352z"/>
			</g>
		</g>
		<g>
			<path class="st6" d="M261.3-319.8L310-348c0.4-0.2,0.7-0.5,1-0.7v54.3c0,1.4-0.8,2.7-2,3.5l-44.7,25.8c-1.8,1-4-0.3-4-2.3v-51.8
				L261.3-319.8z"/>
		</g>
	</g>
	<g>
		<path class="st6" d="M0-230.1h15.7l22.8,41.5l22.6-41.5h15.8v73.4H61.1v-45.7L38.5-161l-22.8-41.5v45.7H0V-230.1z"/>
		<path class="st6" d="M85.2-184.4c0-15.7,13.8-28.8,30.2-28.8c16.3,0,30,13.1,30,28.8s-13.7,29-30,29
			C99-155.4,85.2-168.7,85.2-184.4z M130.6-184.4c0-8.5-6.9-15.7-15.2-15.7c-8.3,0-15.3,7.2-15.3,15.7c0,8.5,6.9,15.8,15.3,15.8
			C123.7-168.6,130.6-175.8,130.6-184.4z"/>
		<path class="st6" d="M206.3-191.9v35.1h-15.1v-31.8c0-6.8-4.3-11.5-10.5-11.5c-6.5,0-11.5,4.7-11.5,10.7l-0.1-0.3v33h-15.6v-55.2
			h15.6v6.9c3.3-5,9.5-8.2,16.7-8.2C197.8-213.2,206.3-204.4,206.3-191.9z"/>
		<path class="st6" d="M255.7-174.1l9.9,10.1c-4.9,5.1-14.4,8.5-22.5,8.5c-16.5,0-29.3-12.1-29.3-29.1c0-16.7,12.3-28.7,28.4-28.7
			c17.3,0,27.5,13.1,27.5,34h-39.8c1.8,6,6.6,10,13.1,10C247.4-169.2,252.7-171.2,255.7-174.1z M230.1-190.5h24.7
			c-1.5-5.4-5.6-9-11.9-9C237-199.4,232.1-196,230.1-190.5z"/>
		<path class="st6" d="M308.6-160.2c-3.2,2.9-8.2,4.8-12.7,4.8c-9.7,0-16.6-6.9-16.6-16.9v-27h-7.6v-12.6h7.6v-15.2h15v15.2h12v12.6
			h-12v24.6c0,3.6,2.4,6.2,5.2,6.2c2.1,0,4.3-0.7,5.3-1.8L308.6-160.2z"/>
		<path class="st6" d="M342.9-160.2c-3.2,2.9-8.2,4.8-12.7,4.8c-9.7,0-16.6-6.9-16.6-16.9v-27h-7.6v-12.6h7.6v-15.2h15v15.2h12v12.6
			h-12v24.6c0,3.6,2.4,6.2,5.2,6.2c2.1,0,4.3-0.7,5.3-1.8L342.9-160.2z"/>
		<path class="st6" d="M400-189.7v33h-15.1v-5.6c-4,4.5-10.3,6.8-16.2,6.8c-11.8,0-20.8-7.1-20.8-17.6c0-10.9,10.1-18.4,23-18.4
			c4.5,0,9.4,1,14.1,2.8v-1.1c0-5.9-3.6-11-12.7-11c-5.1,0-9.9,1.7-14.3,4l-5.2-10.4c7.8-4,15.4-6.1,23.1-6.1
			C390.2-213.2,400-204.1,400-189.7z M384.9-174.1v-5.1c-3.5-1.3-7.6-2-11.9-2c-5.7,0-10.1,3.3-10.1,7.8c0,4.5,4,7.3,9.3,7.3
			C378.2-166.2,383.9-169,384.9-174.1z"/>
	</g>
</g>
<g>
	<g>
		<path class="st0" d="M982.1-886h20.6l29.9,54.5l29.8-54.5h20.8v96.4h-20.8v-60.1l-29.8,54.5l-29.9-54.5v60.1h-20.6V-886z"/>
		<path class="st1" d="M1094.1-825.9c0-20.6,18.1-37.9,39.7-37.9c21.5,0,39.4,17.3,39.4,37.9s-18,38-39.4,38
			C1112.2-787.9,1094.1-805.3,1094.1-825.9z M1153.7-825.9c0-11.2-9.1-20.6-19.9-20.6c-10.9,0-20.1,9.4-20.1,20.6
			c0,11.2,9.1,20.8,20.1,20.8C1144.6-805.1,1153.7-814.7,1153.7-825.9z"/>
		<path class="st0" d="M1253.2-835.7v46.2h-19.8v-41.8c0-9-5.6-15.2-13.8-15.2c-8.6,0-15.2,6.2-15.2,14l-0.1-0.4v43.4h-20.5v-72.6
			h20.5v9.1c4.3-6.6,12.5-10.8,21.9-10.8C1242-863.8,1253.2-852.2,1253.2-835.7z"/>
		<path class="st1" d="M1318.1-812.4l13.1,13.3c-6.5,6.7-18.9,11.2-29.6,11.2c-21.6,0-38.5-15.9-38.5-38.2
			c0-21.9,16.1-37.8,37.3-37.8c22.7,0,36.1,17.3,36.1,44.6h-52.4c2.4,7.9,8.7,13.2,17.3,13.2C1307.2-806,1314.2-808.6,1318.1-812.4z
			 M1284.5-833.9h32.4c-2-7.2-7.3-11.8-15.6-11.8C1293.6-845.7,1287.1-841.2,1284.5-833.9z"/>
		<path class="st0" d="M1387.6-794.2c-4.2,3.8-10.8,6.3-16.7,6.3c-12.8,0-21.8-9.1-21.8-22.2v-35.5h-10v-16.6h10V-882h19.7v19.9
			h15.7v16.6h-15.7v32.3c0,4.8,3.1,8.1,6.9,8.1c2.8,0,5.6-1,7-2.4L1387.6-794.2z"/>
		<path class="st1" d="M1432.7-794.2c-4.2,3.8-10.8,6.3-16.7,6.3c-12.8,0-21.8-9.1-21.8-22.2v-35.5h-10v-16.6h10V-882h19.7v19.9
			h15.7v16.6h-15.7v32.3c0,4.8,3.1,8.1,6.9,8.1c2.8,0,5.6-1,7-2.4L1432.7-794.2z"/>
		<path class="st0" d="M1507.7-832.9v43.4h-19.8v-7.3c-5.2,5.9-13.5,9-21.3,9c-15.4,0-27.4-9.3-27.4-23.2
			c0-14.3,13.3-24.1,30.2-24.1c5.9,0,12.4,1.3,18.5,3.7v-1.4c0-7.7-4.8-14.5-16.7-14.5c-6.7,0-13.1,2.2-18.8,5.2l-6.9-13.6
			c10.2-5.2,20.2-8,30.3-8C1494.8-863.8,1507.7-851.9,1507.7-832.9z M1487.9-812.4v-6.7c-4.6-1.7-10-2.7-15.6-2.7
			c-7.4,0-13.3,4.3-13.3,10.2c0,5.9,5.2,9.5,12.2,9.5C1479.1-802,1486.5-805.7,1487.9-812.4z"/>
	</g>
	<g>
		<path class="st2" d="M773.5-938.5l-50.6,29.2c-1.8,1-1.8,3.6,0,4.6l44.7,25.8c1.2,0.7,2.8,0.7,4,0l48.8-28.2l-46.8-27
			C772-935,771.9-937.4,773.5-938.5z"/>
		<path class="st3" d="M867.1-938.7c1.8,1,1.8,3.6,0,4.6l-46.7,27l48.8,28.2c1.2,0.7,2.8,0.7,4,0l44.7-25.8c1.8-1,1.8-3.6,0-4.6
			L867.1-938.7z"/>
		<path class="st4" d="M867.1-938.7l-44.7-25.8c-1.2-0.7-2.8-0.7-4,0l-45,26c-1.6,1.1-1.5,3.5,0.2,4.5l46.8,27l46.7-27
			C868.9-935.1,868.9-937.6,867.1-938.7z"/>
		<g>
			<path class="st5" d="M709.4-834.3v58.7c0,1.4,0.8,2.7,2,3.5l44.7,25.8c1.8,1,4-0.3,4-2.3v-54.1l-48.7-28.2
				C710.2-831.6,709.4-832.9,709.4-834.3z"/>
		</g>
		<path class="st1" d="M808.9-833.2l-50.5-29.2c1.1,0.7,1.7,1.9,1.7,3.2v56.4l46.8,27.1c1.8,1,4-0.3,4-2.3v-51.8
			C810.9-831.1,810.2-832.5,808.9-833.2z"/>
		<path class="st0" d="M758.4-862.3l-28-16.1l-17-9.8c-1.8-1-4,0.3-4,2.3v51.6c0,1.4,0.8,2.7,2,3.5l48.7,28.2v-56.4
			C760.1-860.4,759.5-861.6,758.4-862.3z"/>
		<g>
			<path class="st5" d="M929.4-830.9l-48.7,28.2v54.1c0,2.1,2.2,3.3,4,2.3l44.7-25.8c1.2-0.7,2-2,2-3.5l0-58.7
				C931.4-832.9,930.7-831.6,929.4-830.9z"/>
		</g>
		<path class="st1" d="M882.4-862.3l-50.5,29.2c-1.2,0.7-2,2-2,3.5v51.8c0,2.1,2.2,3.3,4,2.3l46.8-27.1v-56.4
			C880.7-860.4,881.4-861.6,882.4-862.3z"/>
		<path class="st0" d="M927.4-888.3l-17.1,9.8l-27.9,16.1c-1.1,0.7-1.7,1.9-1.7,3.2v56.4l48.7-28.2c1.2-0.7,2-2,2-3.5V-886
			C931.4-888,929.2-889.3,927.4-888.3z"/>
	</g>
	<g>
		<path class="st1" d="M993.6-762.3h8.3v8c-1.9,1.9-5,3.1-7.9,3.1c-5.6,0-10.4-4.7-10.4-10.4s4.8-10.3,10.4-10.3
			c2.8,0,6,1.2,7.9,3.1l-2.1,2c-1.4-1.5-3.7-2.4-5.8-2.4c-4,0-7.4,3.5-7.4,7.6c0,4.2,3.4,7.7,7.4,7.7c1.7,0,3.6-0.6,4.9-1.7v-4.2
			h-5.4V-762.3z"/>
		<path class="st1" d="M1015.9-755.4l1.8,1.9c-1.3,1.4-4,2.3-6.1,2.3c-4.2,0-7.7-3.3-7.7-7.9c0-4.5,3.3-7.8,7.5-7.8
			c4.6,0,7.2,3.5,7.2,8.9h-11.8c0.4,2.5,2.2,4.3,4.8,4.3C1013.2-753.8,1015-754.5,1015.9-755.4z M1006.8-760.4h9
			c-0.3-2.3-1.7-4-4.3-4C1009.2-764.4,1007.3-762.8,1006.8-760.4z"/>
		<path class="st1" d="M1028.9-752.3c-0.8,0.7-1.9,1.1-3,1.1c-2.3,0-4-1.7-4-4.1v-8.8h-2.3v-2.4h2.3v-4.1h2.8v4.1h3.6v2.4h-3.6v8.6
			c0,1,0.7,1.8,1.5,1.8c0.6,0,1.2-0.2,1.5-0.6L1028.9-752.3z"/>
		<path class="st1" d="M1060.1-761.1v9.6h-2.8v-9.1c0-2.2-1.3-3.8-3.2-3.8c-2.2,0-3.7,1.4-3.7,3.5v9.4h-2.8v-9.1
			c0-2.2-1.3-3.8-3.2-3.8c-2.2,0-3.7,1.4-3.7,3.5v9.4h-2.9v-15h2.9v2.1c0.8-1.5,2.3-2.4,4.2-2.4c2.2,0,4,1.2,4.8,3
			c0.7-1.9,2.6-3,4.9-3C1057.8-766.9,1060.1-764.5,1060.1-761.1z"/>
		<path class="st1" d="M1062.2-759.1c0-4.3,3.6-7.9,7.9-7.9c4.3,0,7.9,3.6,7.9,7.9c0,4.3-3.6,7.9-7.9,7.9
			C1065.9-751.2,1062.2-754.8,1062.2-759.1z M1075.2-759.1c0-2.9-2.3-5.4-5-5.4c-2.8,0-5.1,2.4-5.1,5.4c0,2.9,2.3,5.4,5.1,5.4
			C1072.9-753.7,1075.2-756.2,1075.2-759.1z"/>
		<path class="st1" d="M1088.9-766.9v2.5c-3.1,0-5.3,1.7-5.6,4.3v8.6h-2.9v-15h2.9v2.9C1084.3-765.7,1086.3-766.9,1088.9-766.9z"/>
		<path class="st1" d="M1101.7-755.4l1.8,1.9c-1.3,1.4-4,2.3-6.1,2.3c-4.2,0-7.7-3.3-7.7-7.9c0-4.5,3.3-7.8,7.5-7.8
			c4.6,0,7.2,3.5,7.2,8.9h-11.8c0.4,2.5,2.2,4.3,4.8,4.3C1099-753.8,1100.8-754.5,1101.7-755.4z M1092.7-760.4h9
			c-0.3-2.3-1.7-4-4.3-4C1095-764.4,1093.1-762.8,1092.7-760.4z"/>
		<path class="st1" d="M1113-759.1c0-4.3,3.6-7.9,7.9-7.9c4.3,0,7.9,3.6,7.9,7.9c0,4.3-3.6,7.9-7.9,7.9
			C1116.6-751.2,1113-754.8,1113-759.1z M1125.9-759.1c0-2.9-2.3-5.4-5-5.4c-2.8,0-5.1,2.4-5.1,5.4c0,2.9,2.3,5.4,5.1,5.4
			C1123.6-753.7,1125.9-756.2,1125.9-759.1z"/>
		<path class="st1" d="M1144.3-766.6v15h-2.9v-2.2c-0.9,1.5-2.7,2.5-4.8,2.5c-3.3,0-5.6-2.4-5.6-5.8v-9.6h2.8v9.1
			c0,2.2,1.4,3.8,3.5,3.8c2.1,0,3.9-1.4,4.1-3.1v-9.7H1144.3z"/>
		<path class="st1" d="M1155.4-752.3c-0.8,0.7-1.9,1.1-3,1.1c-2.3,0-4-1.7-4-4.1v-8.8h-2.3v-2.4h2.3v-4.1h2.8v4.1h3.6v2.4h-3.6v8.6
			c0,1,0.7,1.8,1.5,1.8c0.6,0,1.2-0.2,1.5-0.6L1155.4-752.3z"/>
		<path class="st1" d="M1163.5-759.1c0-4.3,3.6-7.9,7.9-7.9c4.3,0,7.9,3.6,7.9,7.9c0,4.3-3.6,7.9-7.9,7.9
			C1167.1-751.2,1163.5-754.8,1163.5-759.1z M1176.4-759.1c0-2.9-2.3-5.4-5-5.4c-2.8,0-5.1,2.4-5.1,5.4c0,2.9,2.3,5.4,5.1,5.4
			C1174.1-753.7,1176.4-756.2,1176.4-759.1z"/>
		<path class="st1" d="M1185.5-766.6h3.5v2.4h-3.5v12.6h-2.8v-12.6h-2.3v-2.4h2.3v-1.8c0-2.4,1.6-4.1,4-4.1c1.1,0,2.2,0.4,3,1.1
			l-1,1.9c-0.3-0.3-0.9-0.6-1.5-0.6c-0.8,0-1.5,0.8-1.5,1.8V-766.6z"/>
		<path class="st1" d="M1220.2-761.1v9.6h-2.8v-9.1c0-2.2-1.3-3.8-3.2-3.8c-2.2,0-3.7,1.4-3.7,3.5v9.4h-2.8v-9.1
			c0-2.2-1.3-3.8-3.2-3.8c-2.2,0-3.7,1.4-3.7,3.5v9.4h-2.9v-15h2.9v2.1c0.8-1.5,2.3-2.4,4.2-2.4c2.2,0,4,1.2,4.8,3
			c0.7-1.9,2.6-3,4.9-3C1218-766.9,1220.2-764.5,1220.2-761.1z"/>
		<path class="st1" d="M1234.4-755.4l1.8,1.9c-1.3,1.4-4,2.3-6.1,2.3c-4.2,0-7.7-3.3-7.7-7.9c0-4.5,3.3-7.8,7.5-7.8
			c4.6,0,7.2,3.5,7.2,8.9h-11.8c0.4,2.5,2.2,4.3,4.8,4.3C1231.7-753.8,1233.5-754.5,1234.4-755.4z M1225.3-760.4h9
			c-0.3-2.3-1.7-4-4.3-4C1227.7-764.4,1225.8-762.8,1225.3-760.4z"/>
		<path class="st1" d="M1250.5-755.4l1.8,1.9c-1.3,1.4-4,2.3-6.1,2.3c-4.2,0-7.7-3.3-7.7-7.9c0-4.5,3.3-7.8,7.5-7.8
			c4.6,0,7.2,3.5,7.2,8.9h-11.8c0.4,2.5,2.2,4.3,4.8,4.3C1247.8-753.8,1249.6-754.5,1250.5-755.4z M1241.4-760.4h9
			c-0.3-2.3-1.7-4-4.3-4C1243.8-764.4,1241.9-762.8,1241.4-760.4z"/>
		<path class="st1" d="M1263.5-752.3c-0.8,0.7-1.9,1.1-3,1.1c-2.3,0-4-1.7-4-4.1v-8.8h-2.3v-2.4h2.3v-4.1h2.8v4.1h3.6v2.4h-3.6v8.6
			c0,1,0.7,1.8,1.5,1.8c0.6,0,1.2-0.2,1.5-0.6L1263.5-752.3z"/>
		<path class="st1" d="M1265-770.8c0-0.9,0.8-1.7,1.7-1.7c0.9,0,1.7,0.8,1.7,1.7c0,0.9-0.8,1.7-1.7,1.7
			C1265.7-769.1,1265-769.9,1265-770.8z M1265.2-766.6h2.9v15h-2.9V-766.6z"/>
		<path class="st1" d="M1284.4-761.1v9.6h-2.8v-9.1c0-2.2-1.4-3.8-3.5-3.8c-2.1,0-3.9,1.4-4.1,3.1v9.7h-2.9v-15h2.9v2.2
			c0.9-1.5,2.7-2.5,4.8-2.5C1282.1-766.9,1284.4-764.5,1284.4-761.1z"/>
		<path class="st1" d="M1301.7-766.6v13.4c0,3.9-3.2,6.6-7.6,6.6c-2.5,0-4.9-0.8-6.3-2l1.1-2.2c1.1,1,2.9,1.7,4.7,1.7
			c3.2,0,5.2-1.5,5.2-4.2v-2.2c-1.2,1.7-3.1,2.7-5.3,2.7c-4,0-6.8-3-6.8-7.2c0-4.2,2.9-7.1,6.8-7.1c2.3,0,4.2,1.1,5.3,2.8v-2.4
			H1301.7z M1298.8-759.8c0-2.7-1.9-4.6-4.6-4.6c-2.7,0-4.6,1.9-4.6,4.6c0,2.7,1.9,4.7,4.6,4.7
			C1296.9-755.2,1298.8-757.1,1298.8-759.8z"/>
		<path class="st1" d="M1303.9-753.4l1.4-2.1c1.6,1.2,3.3,1.8,5.1,1.8c1.7,0,2.9-0.8,2.9-1.9c0-1.4-1.5-1.8-3.4-2.4
			c-3.5-1-5.2-1.9-5.2-4.4c0-2.8,2.3-4.6,5.5-4.6c1.9,0,3.9,0.7,5.6,1.7l-1.3,2.1c-1.5-0.9-3-1.4-4.3-1.4c-1.5,0-2.6,0.6-2.6,1.8
			c0,1.2,0.9,1.5,3.5,2.3c2.5,0.7,5.1,1.5,5.1,4.5c0,2.9-2.4,4.7-5.7,4.7C1308.1-751.2,1305.7-752,1303.9-753.4z"/>
		<path class="st1" d="M1318.4-748.5c0.8-0.9,1.4-1.8,1.6-2.7c-1,0-1.9-0.9-1.9-1.9c0-1,0.8-1.9,1.9-1.9c1.3,0,2.1,1.2,2.1,2.8
			c0,1.4-0.7,2.6-2.5,4.7L1318.4-748.5z"/>
		<path class="st1" d="M1347.4-759.1c0,4.6-3,7.9-6.9,7.9c-2.3,0-4.2-1.1-5.4-3v2.6h-2.9v-20.3h2.9v7.9c1.2-1.8,3-2.9,5.4-2.9
			C1344.4-766.9,1347.4-763.7,1347.4-759.1z M1344.5-759.1c0-3.1-2-5.4-4.7-5.4c-2.7,0-4.7,2.2-4.7,5.4c0,3.1,2,5.4,4.7,5.4
			C1342.5-753.7,1344.5-755.9,1344.5-759.1z"/>
		<path class="st1" d="M1349.5-747l0.6-2.2c0.6,0.3,1.3,0.5,1.8,0.5c0.9,0,1.6-0.3,2.1-1.2l0.8-1.6l-6.5-15.1h3.1l4.8,11.9l4.6-11.9
			h3l-6.6,16.4c-1.1,2.7-2.7,3.8-4.8,3.9C1351.4-746.3,1350.3-746.5,1349.5-747z"/>
		<path class="st1" d="M1387.5-771.9v20.3h-2.9v-2.6c-1.2,1.9-3,3-5.4,3c-4,0-6.9-3.3-6.9-7.9c0-4.6,3-7.9,6.9-7.9
			c2.3,0,4.2,1.1,5.4,2.9v-7.9H1387.5z M1384.6-759.1c0-3.1-1.9-5.4-4.7-5.4c-2.8,0-4.7,2.2-4.7,5.4c0,3.1,1.9,5.4,4.7,5.4
			C1382.7-753.7,1384.6-755.9,1384.6-759.1z"/>
		<path class="st1" d="M1389.8-759.1c0-4.3,3.6-7.9,7.9-7.9c4.3,0,7.9,3.6,7.9,7.9c0,4.3-3.6,7.9-7.9,7.9
			C1393.5-751.2,1389.8-754.8,1389.8-759.1z M1402.8-759.1c0-2.9-2.3-5.4-5-5.4c-2.8,0-5.1,2.4-5.1,5.4c0,2.9,2.3,5.4,5.1,5.4
			C1400.5-753.7,1402.8-756.2,1402.8-759.1z"/>
		<path class="st1" d="M1407.6-770.8c0-0.9,0.8-1.7,1.7-1.7c0.9,0,1.7,0.8,1.7,1.7c0,0.9-0.8,1.7-1.7,1.7
			C1408.3-769.1,1407.6-769.9,1407.6-770.8z M1407.8-766.6h2.9v15h-2.9V-766.6z"/>
		<path class="st1" d="M1427-761.1v9.6h-2.8v-9.1c0-2.2-1.4-3.8-3.5-3.8c-2.1,0-3.9,1.4-4.1,3.1v9.7h-2.9v-15h2.9v2.2
			c0.9-1.5,2.7-2.5,4.8-2.5C1424.7-766.9,1427-764.5,1427-761.1z"/>
		<path class="st1" d="M1444.3-766.6v13.4c0,3.9-3.2,6.6-7.6,6.6c-2.5,0-4.9-0.8-6.3-2l1.1-2.2c1.1,1,2.9,1.7,4.7,1.7
			c3.2,0,5.2-1.5,5.2-4.2v-2.2c-1.2,1.7-3.1,2.7-5.3,2.7c-4,0-6.8-3-6.8-7.2c0-4.2,2.9-7.1,6.8-7.1c2.3,0,4.2,1.1,5.3,2.8v-2.4
			H1444.3z M1441.4-759.8c0-2.7-1.9-4.6-4.6-4.6c-2.7,0-4.6,1.9-4.6,4.6c0,2.7,1.9,4.7,4.6,4.7
			C1439.5-755.2,1441.4-757.1,1441.4-759.8z"/>
		<path class="st1" d="M1454.6-771.9h2.9v20.3h-2.9V-771.9z"/>
		<path class="st1" d="M1471.7-755.4l1.8,1.9c-1.3,1.4-4,2.3-6.1,2.3c-4.2,0-7.7-3.3-7.7-7.9c0-4.5,3.3-7.8,7.5-7.8
			c4.6,0,7.2,3.5,7.2,8.9h-11.8c0.4,2.5,2.2,4.3,4.8,4.3C1468.9-753.8,1470.8-754.5,1471.7-755.4z M1462.6-760.4h9
			c-0.3-2.3-1.7-4-4.3-4C1465-764.4,1463.1-762.8,1462.6-760.4z"/>
		<path class="st1" d="M1475.6-753.4l1.4-2.1c1.6,1.2,3.3,1.8,5.1,1.8c1.7,0,2.9-0.8,2.9-1.9c0-1.4-1.5-1.8-3.4-2.4
			c-3.5-1-5.2-1.9-5.2-4.4c0-2.8,2.3-4.6,5.5-4.6c1.9,0,3.9,0.7,5.6,1.7l-1.3,2.1c-1.5-0.9-3-1.4-4.3-1.4c-1.5,0-2.6,0.6-2.6,1.8
			c0,1.2,0.9,1.5,3.5,2.3c2.5,0.7,5.1,1.5,5.1,4.5c0,2.9-2.4,4.7-5.7,4.7C1479.8-751.2,1477.4-752,1475.6-753.4z"/>
		<path class="st1" d="M1488.9-753.4l1.4-2.1c1.6,1.2,3.3,1.8,5.1,1.8c1.7,0,2.9-0.8,2.9-1.9c0-1.4-1.5-1.8-3.4-2.4
			c-3.5-1-5.2-1.9-5.2-4.4c0-2.8,2.3-4.6,5.5-4.6c1.9,0,3.9,0.7,5.6,1.7l-1.3,2.1c-1.5-0.9-3-1.4-4.3-1.4c-1.5,0-2.6,0.6-2.6,1.8
			c0,1.2,0.9,1.5,3.5,2.3c2.5,0.7,5.1,1.5,5.1,4.5c0,2.9-2.4,4.7-5.7,4.7C1493.1-751.2,1490.7-752,1488.9-753.4z"/>
		<path class="st1" d="M1503.1-753.2c0-1,0.8-1.9,1.9-1.9c1,0,1.9,0.9,1.9,1.9c0,1.1-0.8,2-1.9,2
			C1503.9-751.2,1503.1-752.1,1503.1-753.2z"/>
	</g>
</g>
<g>
	<g>
		<path class="st0" d="M2015.6-886h20.6l29.9,54.5l29.8-54.5h20.8v96.4h-20.8v-60.1l-29.8,54.5l-29.9-54.5v60.1h-20.6V-886z"/>
		<path class="st1" d="M2127.6-825.9c0-20.6,18.1-37.9,39.7-37.9c21.5,0,39.4,17.3,39.4,37.9s-18,38-39.4,38
			C2145.7-787.9,2127.6-805.3,2127.6-825.9z M2187.2-825.9c0-11.2-9.1-20.6-19.9-20.6c-10.9,0-20.1,9.4-20.1,20.6
			c0,11.2,9.1,20.8,20.1,20.8C2178.1-805.1,2187.2-814.7,2187.2-825.9z"/>
		<path class="st0" d="M2286.7-835.7v46.2h-19.8v-41.8c0-9-5.6-15.2-13.8-15.2c-8.6,0-15.2,6.2-15.2,14l-0.1-0.4v43.4h-20.5v-72.6
			h20.5v9.1c4.3-6.6,12.5-10.8,21.9-10.8C2275.5-863.8,2286.7-852.2,2286.7-835.7z"/>
		<path class="st1" d="M2351.6-812.4l13.1,13.3c-6.5,6.7-18.9,11.2-29.6,11.2c-21.6,0-38.5-15.9-38.5-38.2
			c0-21.9,16.1-37.8,37.3-37.8c22.7,0,36.1,17.3,36.1,44.6h-52.4c2.4,7.9,8.7,13.2,17.3,13.2C2340.7-806,2347.7-808.6,2351.6-812.4z
			 M2318-833.9h32.4c-2-7.2-7.3-11.8-15.6-11.8C2327.1-845.7,2320.6-841.2,2318-833.9z"/>
		<path class="st0" d="M2421.1-794.2c-4.2,3.8-10.8,6.3-16.7,6.3c-12.8,0-21.8-9.1-21.8-22.2v-35.5h-10v-16.6h10V-882h19.7v19.9
			h15.7v16.6h-15.7v32.3c0,4.8,3.1,8.1,6.9,8.1c2.8,0,5.6-1,7-2.4L2421.1-794.2z"/>
		<path class="st1" d="M2466.2-794.2c-4.2,3.8-10.8,6.3-16.7,6.3c-12.8,0-21.8-9.1-21.8-22.2v-35.5h-10v-16.6h10V-882h19.7v19.9
			h15.7v16.6h-15.7v32.3c0,4.8,3.1,8.1,6.9,8.1c2.8,0,5.6-1,7-2.4L2466.2-794.2z"/>
		<path class="st0" d="M2541.2-832.9v43.4h-19.8v-7.3c-5.2,5.9-13.5,9-21.3,9c-15.4,0-27.4-9.3-27.4-23.2
			c0-14.3,13.3-24.1,30.2-24.1c5.9,0,12.4,1.3,18.5,3.7v-1.4c0-7.7-4.8-14.5-16.7-14.5c-6.7,0-13.1,2.2-18.8,5.2l-6.9-13.6
			c10.2-5.2,20.2-8,30.3-8C2528.3-863.8,2541.2-851.9,2541.2-832.9z M2521.4-812.4v-6.7c-4.6-1.7-10-2.7-15.6-2.7
			c-7.4,0-13.3,4.3-13.3,10.2c0,5.9,5.2,9.5,12.2,9.5C2512.6-802,2520-805.7,2521.4-812.4z"/>
	</g>
	<g>
		<path class="st2" d="M1807-938.5l-50.6,29.2c-1.8,1-1.8,3.6,0,4.6l44.7,25.8c1.2,0.7,2.8,0.7,4,0l48.8-28.2l-46.8-27
			C1805.5-935,1805.4-937.4,1807-938.5z"/>
		<path class="st3" d="M1900.6-938.7c1.8,1,1.8,3.6,0,4.6l-46.7,27l48.8,28.2c1.2,0.7,2.8,0.7,4,0l44.7-25.8c1.8-1,1.8-3.6,0-4.6
			L1900.6-938.7z"/>
		<path class="st4" d="M1900.6-938.7l-44.7-25.8c-1.2-0.7-2.8-0.7-4,0l-45,26c-1.6,1.1-1.5,3.5,0.2,4.5l46.8,27l46.7-27
			C1902.4-935.1,1902.4-937.6,1900.6-938.7z"/>
		<g>
			<path class="st5" d="M1742.9-834.3v58.7c0,1.4,0.8,2.7,2,3.5l44.7,25.8c1.8,1,4-0.3,4-2.3v-54.1l-48.7-28.2
				C1743.7-831.6,1742.9-832.9,1742.9-834.3z"/>
		</g>
		<path class="st1" d="M1842.5-833.2l-50.5-29.2c1.1,0.7,1.7,1.9,1.7,3.2v56.4l46.8,27.1c1.8,1,4-0.3,4-2.3v-51.8
			C1844.4-831.1,1843.7-832.5,1842.5-833.2z"/>
		<path class="st0" d="M1791.9-862.3l-28-16.1l-17-9.8c-1.8-1-4,0.3-4,2.3v51.6c0,1.4,0.8,2.7,2,3.5l48.7,28.2v-56.4
			C1793.6-860.4,1793-861.6,1791.9-862.3z"/>
		<g>
			<path class="st5" d="M1962.9-830.9l-48.7,28.2v54.1c0,2.1,2.2,3.3,4,2.3l44.7-25.8c1.2-0.7,2-2,2-3.5l0-58.7
				C1964.9-832.9,1964.2-831.6,1962.9-830.9z"/>
		</g>
		<path class="st1" d="M1915.9-862.3l-50.5,29.2c-1.2,0.7-2,2-2,3.5v51.8c0,2.1,2.2,3.3,4,2.3l46.8-27.1v-56.4
			C1914.2-860.4,1914.9-861.6,1915.9-862.3z"/>
		<path class="st0" d="M1960.9-888.3l-17.1,9.8l-27.9,16.1c-1.1,0.7-1.7,1.9-1.7,3.2v56.4l48.7-28.2c1.2-0.7,2-2,2-3.5V-886
			C1964.9-888,1962.7-889.3,1960.9-888.3z"/>
	</g>
</g>
<g>
	<g>
		<path class="st7" d="M-569.7-919.9l-70.9,40.9c-2.5,1.4-2.5,5,0,6.5l62.7,36.2c1.7,1,3.9,1,5.6,0l68.4-39.5l-65.5-37.8
			C-571.8-915-571.9-918.4-569.7-919.9z"/>
		<path class="st7" d="M-438.4-920.1c2.5,1.4,2.5,5,0,6.5l-65.5,37.8l68.4,39.5c1.7,1,3.9,1,5.6,0l62.7-36.2c2.5-1.4,2.5-5,0-6.5
			L-438.4-920.1z"/>
		<path class="st7" d="M-438.4-920.1l-62.7-36.2c-1.7-1-3.9-1-5.6,0l-63,36.4c-2.2,1.5-2.1,4.9,0.3,6.3l65.5,37.8l65.5-37.8
			C-435.9-915.1-435.9-918.6-438.4-920.1z"/>
		<g>
			<path class="st7" d="M-659.5-773.9v82.3c0,2,1.1,3.8,2.8,4.8l62.7,36.2c2.5,1.4,5.6-0.4,5.6-3.2v-75.8l-68.3-39.5
				C-658.4-770-659.5-771.9-659.5-773.9z"/>
		</g>
		<path class="st7" d="M-520-772.2l-70.8-40.9c1.5,1,2.4,2.7,2.4,4.5v79.1l65.6,38c2.5,1.4,5.6-0.4,5.6-3.2v-72.6
			C-517.2-769.4-518.2-771.2-520-772.2z"/>
		<path class="st7" d="M-590.8-813.1l-39.2-22.6l-23.9-13.7c-2.5-1.4-5.6,0.4-5.6,3.2v72.4c0,2,1.1,3.8,2.8,4.8l68.3,39.5v-79.1
			C-588.4-810.4-589.3-812.1-590.8-813.1z"/>
		<g>
			<path class="st7" d="M-351.1-769l-68.3,39.5v75.8c0,2.9,3.1,4.7,5.6,3.2l62.7-36.2c1.7-1,2.8-2.8,2.8-4.8l0-82.3
				C-348.3-771.9-349.3-770-351.1-769z"/>
		</g>
		<path class="st7" d="M-417-813.1l-70.8,40.9c-1.7,1-2.8,2.8-2.8,4.8v72.6c0,2.9,3.1,4.7,5.6,3.2l65.6-38v-79.1
			C-419.4-810.4-418.4-812.1-417-813.1z"/>
		<path class="st7" d="M-353.9-849.5l-23.9,13.8l-39.2,22.6c-1.5,1-2.4,2.7-2.4,4.5v79.1l68.3-39.5c1.7-1,2.8-2.8,2.8-4.8v-72.4
			C-348.3-849.1-351.4-850.9-353.9-849.5z"/>
	</g>
	<g>
		<path class="st1" d="M-779.7-466.1 M-783-466.1"/>
	</g>
</g>
<g>
	<g>
		<path class="st6" d="M-455.4-457.5l-44.7-25.8c-0.6-0.4-1.3-0.5-2-0.5s-1.4,0.2-2,0.5l-45,26c-1.6,1.1-1.5,3.5,0.2,4.5l46.8,27
			l46.7-27C-453.6-453.9-453.6-456.5-455.4-457.5z"/>
		<path class="st6" d="M-613.1-353.2c0,1.4,0.8,2.7,2,3.5l48.7,28.2V-378c0-1.3-0.7-2.5-1.7-3.2l-28-16.1l-17-9.8
			c-0.4-0.2-0.9-0.4-1.3-0.4c-1.4,0-2.7,1.1-2.7,2.7V-353.2z"/>
		<g>
			<path class="st6" d="M-404.6-428.2l-47.5-27.4c0,0.1,0,0.3,0,0.4c0,1.7-0.9,3.2-2.3,4l-45.7,26.4l46.8,27c1.2,0.7,2.8,0.7,4,0
				l44.7-25.8C-402.8-424.6-402.8-427.2-404.6-428.2z"/>
		</g>
		<g>
			<g>
				<path class="st6" d="M-563.4-380.6c-0.2-0.2-0.5-0.5-0.7-0.6l0,0C-563.8-381-563.6-380.8-563.4-380.6z"/>
			</g>
			<g>
				<path class="st6" d="M-513.5-352l-47-27.1c0.1,0.4,0.1,0.8,0.1,1.2v56.4v1.2l44.8,25.9c1.8,1,4-0.3,4-2.3v-51.8
					C-511.5-350-512.3-351.3-513.5-352z"/>
			</g>
		</g>
		<g>
			<g>
				<path class="st6" d="M-548.8-452.9l23.4,13.5L-548.8-452.9c-0.4-0.2-0.7-0.6-1-1C-549.6-453.5-549.2-453.2-548.8-452.9z"/>
			</g>
			<g>
				<path class="st6" d="M-549.8-451.2c-1.4-0.8-2.2-2.2-2.3-3.8c0-0.2,0-0.4,0-0.6l-47.4,27.4c-1.8,1-1.8,3.6,0,4.6l44.7,25.8
					c1.2,0.7,2.8,0.7,4,0l46.8-27L-549.8-451.2z"/>
			</g>
		</g>
		<g>
			<path class="st6" d="M-563.4-319.8l-48.7-28.2c-0.4-0.2-0.7-0.5-1-0.7v54.3c0,1.4,0.8,2.7,2,3.5l44.7,25.8c1.8,1,4-0.3,4-2.3
				v-51.8L-563.4-319.8z"/>
		</g>
		<path class="st6" d="M-391.1-353.2c0,1.4-0.8,2.7-2,3.5l-48.7,28.2V-378c0-1.3,0.7-2.5,1.7-3.2l28-16.1l17-9.8
			c0.4-0.2,0.9-0.4,1.3-0.4c1.4,0,2.7,1.1,2.7,2.7V-353.2z"/>
		<g>
			<g>
				<path class="st6" d="M-440.8-380.6c0.2-0.2,0.5-0.5,0.7-0.6l0,0C-440.3-381-440.6-380.8-440.8-380.6z"/>
			</g>
			<g>
				<path class="st6" d="M-490.6-352l47-27.1c-0.1,0.4-0.1,0.8-0.1,1.2v56.4v1.2l-44.8,25.9c-1.8,1-4-0.3-4-2.3v-51.8
					C-492.6-350-491.8-351.3-490.6-352z"/>
			</g>
		</g>
		<g>
			<path class="st6" d="M-440.8-319.8l48.7-28.2c0.4-0.2,0.7-0.5,1-0.7v54.3c0,1.4-0.8,2.7-2,3.5l-44.7,25.8c-1.8,1-4-0.3-4-2.3
				v-51.8L-440.8-319.8z"/>
		</g>
	</g>
	<g>
		<g>
			<path class="st6" d="M-702.1-230.1h15.7l22.8,41.5l22.6-41.5h15.8v73.4H-641v-45.7l-22.6,41.5l-22.8-41.5v45.7h-15.7V-230.1z"/>
		</g>
		<g>
			<path class="st6" d="M-616.9-184.4c0-15.7,13.8-28.8,30.2-28.8c16.3,0,30,13.1,30,28.8s-13.7,29-30,29
				C-603.1-155.4-616.9-168.7-616.9-184.4z M-571.5-184.4c0-8.5-6.9-15.7-15.2-15.7c-8.3,0-15.3,7.2-15.3,15.7
				c0,8.5,6.9,15.8,15.3,15.8C-578.4-168.6-571.5-175.8-571.5-184.4z"/>
		</g>
		<g>
			<path class="st6" d="M-495.8-191.9v35.1h-15.1v-31.8c0-6.8-4.3-11.5-10.5-11.5c-6.5,0-11.5,4.7-11.5,10.7l-0.1-0.3v33h-15.6
				v-55.2h15.6v6.9c3.3-5,9.5-8.2,16.7-8.2C-504.3-213.2-495.8-204.4-495.8-191.9z"/>
		</g>
		<g>
			<path class="st6" d="M-446.3-174.1l9.9,10.1c-4.9,5.1-14.4,8.5-22.5,8.5c-16.5,0-29.3-12.1-29.3-29.1c0-16.7,12.3-28.7,28.4-28.7
				c17.3,0,27.5,13.1,27.5,34h-39.8c1.8,6,6.6,10,13.1,10C-454.7-169.2-449.3-171.2-446.3-174.1z M-472-190.5h24.7
				c-1.5-5.4-5.6-9-11.9-9C-465-199.4-469.9-196-472-190.5z"/>
		</g>
		<g>
			<path class="st6" d="M-393.5-160.2c-3.2,2.9-8.2,4.8-12.7,4.8c-9.7,0-16.6-6.9-16.6-16.9v-27h-7.6v-12.6h7.6v-15.2h15v15.2h12
				v12.6h-12v24.6c0,3.6,2.4,6.2,5.2,6.2c2.1,0,4.3-0.7,5.3-1.8L-393.5-160.2z"/>
		</g>
		<g>
			<path class="st6" d="M-359.2-160.2c-3.2,2.9-8.2,4.8-12.7,4.8c-9.7,0-16.6-6.9-16.6-16.9v-27h-7.6v-12.6h7.6v-15.2h15v15.2h12
				v12.6h-12v24.6c0,3.6,2.4,6.2,5.2,6.2c2.1,0,4.3-0.7,5.3-1.8L-359.2-160.2z"/>
		</g>
		<g>
			<path class="st6" d="M-302.1-189.7v33h-15.1v-5.6c-4,4.5-10.3,6.8-16.2,6.8c-11.8,0-20.8-7.1-20.8-17.6c0-10.9,10.1-18.4,23-18.4
				c4.5,0,9.4,1,14.1,2.8v-1.1c0-5.9-3.6-11-12.7-11c-5.1,0-9.9,1.7-14.3,4l-5.2-10.4c7.8-4,15.4-6.1,23.1-6.1
				C-311.9-213.2-302.1-204.1-302.1-189.7z M-317.1-174.1v-5.1c-3.5-1.3-7.6-2-11.9-2c-5.7,0-10.1,3.3-10.1,7.8c0,4.5,4,7.3,9.3,7.3
				C-323.9-166.2-318.2-169-317.1-174.1z"/>
		</g>
	</g>
	<g>
		<g>
			<path class="st6" d="M-694.8-134.3h5.5v5.2c-1.2,1.3-3.2,2.1-5.1,2.1c-3.7,0-6.8-3-6.8-6.6s3.1-6.6,6.8-6.6
				c1.9,0,3.9,0.8,5.1,2.1l-1.7,1.5c-0.8-0.9-2.2-1.5-3.4-1.5c-2.4,0-4.4,2.1-4.4,4.5c0,2.5,2,4.5,4.4,4.5c1,0,2-0.3,2.8-0.9v-2.3
				h-3.2V-134.3z"/>
		</g>
		<g>
			<path class="st6" d="M-680.3-130l1.4,1.5c-0.8,0.9-2.5,1.5-3.9,1.5c-2.8,0-5-2.1-5-5.1c0-2.9,2.2-5,4.9-5c3,0,4.7,2.3,4.7,5.8
				h-7.3c0.3,1.3,1.3,2.3,2.7,2.3C-681.9-129-680.9-129.4-680.3-130z M-685.5-133h5.1c-0.3-1.2-1.1-2.1-2.4-2.1
				C-684.1-135.1-685.1-134.3-685.5-133z"/>
		</g>
		<g>
			<path class="st6" d="M-671.1-127.8c-0.5,0.5-1.3,0.8-2.1,0.8c-1.6,0-2.7-1.2-2.7-2.8v-5.2h-1.4v-1.9h1.4v-2.6h2.2v2.6h2.2v1.9
				h-2.2v4.9c0,0.7,0.4,1.1,1,1.1c0.4,0,0.7-0.1,1-0.4L-671.1-127.8z"/>
		</g>
		<g>
			<path class="st6" d="M-650.2-133.4v6.1h-2.2v-5.8c0-1.3-0.8-2.2-1.9-2.2c-1.3,0-2.1,0.8-2.1,2v5.9h-2.2v-5.8
				c0-1.3-0.8-2.2-1.9-2.2c-1.2,0-2.1,0.8-2.1,2v5.9h-2.3v-9.6h2.3v1.3c0.5-0.9,1.5-1.5,2.7-1.5c1.4,0,2.5,0.7,3.1,1.8
				c0.5-1.1,1.7-1.8,3.1-1.8C-651.7-137.1-650.2-135.6-650.2-133.4z"/>
		</g>
		<g>
			<path class="st6" d="M-648.6-132.1c0-2.7,2.4-5,5.2-5c2.8,0,5.2,2.3,5.2,5s-2.4,5.1-5.2,5.1C-646.2-127-648.6-129.3-648.6-132.1z
				 M-640.5-132.1c0-1.7-1.3-3.1-2.9-3.1c-1.6,0-2.9,1.4-2.9,3.1c0,1.7,1.3,3.1,2.9,3.1C-641.8-129-640.5-130.4-640.5-132.1z"/>
		</g>
		<g>
			<path class="st6" d="M-630.9-137.1v1.9c-2.1,0-3.5,1.2-3.5,3.1v4.9h-2.3v-9.6h2.3v1.9C-633.7-136.3-632.4-137.1-630.9-137.1z"/>
		</g>
		<g>
			<path class="st6" d="M-622.5-130l1.4,1.5c-0.8,0.9-2.5,1.5-3.9,1.5c-2.8,0-5-2.1-5-5.1c0-2.9,2.2-5,4.9-5c3,0,4.7,2.3,4.7,5.8
				h-7.3c0.3,1.3,1.3,2.3,2.7,2.3C-624.2-129-623.1-129.4-622.5-130z M-627.7-133h5.1c-0.3-1.2-1.1-2.1-2.4-2.1
				C-626.3-135.1-627.4-134.3-627.7-133z"/>
		</g>
		<g>
			<path class="st6" d="M-614.4-132.1c0-2.7,2.4-5,5.2-5c2.8,0,5.2,2.3,5.2,5s-2.4,5.1-5.2,5.1C-612.1-127-614.4-129.3-614.4-132.1z
				 M-606.3-132.1c0-1.7-1.3-3.1-2.9-3.1c-1.6,0-2.9,1.4-2.9,3.1c0,1.7,1.3,3.1,2.9,3.1C-607.7-129-606.3-130.4-606.3-132.1z"/>
		</g>
		<g>
			<path class="st6" d="M-593.7-136.9v9.6h-2.3v-1.3c-0.6,0.9-1.7,1.5-3,1.5c-2.1,0-3.6-1.5-3.6-3.7v-6.1h2.2v5.7
				c0,1.3,0.8,2.2,2,2.2s2.2-0.8,2.3-1.8v-6.1H-593.7z"/>
		</g>
		<g>
			<path class="st6" d="M-586.1-127.8c-0.5,0.5-1.3,0.8-2.1,0.8c-1.6,0-2.7-1.2-2.7-2.8v-5.2h-1.4v-1.9h1.4v-2.6h2.2v2.6h2.2v1.9
				h-2.2v4.9c0,0.7,0.4,1.1,1,1.1c0.4,0,0.7-0.1,1-0.4L-586.1-127.8z"/>
		</g>
		<g>
			<path class="st6" d="M-580.3-132.1c0-2.7,2.4-5,5.2-5c2.8,0,5.2,2.3,5.2,5s-2.4,5.1-5.2,5.1C-577.9-127-580.3-129.3-580.3-132.1z
				 M-572.2-132.1c0-1.7-1.3-3.1-2.9-3.1c-1.6,0-2.9,1.4-2.9,3.1c0,1.7,1.3,3.1,2.9,3.1C-573.5-129-572.2-130.4-572.2-132.1z"/>
		</g>
		<g>
			<path class="st6" d="M-565.4-136.9h2.2v1.9h-2.2v7.8h-2.2v-7.8h-1.4v-1.9h1.4v-1c0-1.6,1.1-2.8,2.7-2.8c0.7,0,1.5,0.3,2.1,0.8
				l-0.7,1.5c-0.2-0.2-0.6-0.4-1-0.4c-0.5,0-1,0.5-1,1.1V-136.9z"/>
		</g>
		<g>
			<path class="st6" d="M-557-124.4l0.5-1.6c0.4,0.2,0.9,0.4,1.2,0.4c0.5,0,1-0.2,1.2-0.6l0.4-0.9l-4.1-9.7h2.4l2.8,7.2l2.6-7.2h2.4
				l-4.1,10.3c-0.7,1.8-1.8,2.7-3.3,2.7C-555.7-123.9-556.5-124.1-557-124.4z"/>
		</g>
		<g>
			<path class="st6" d="M-547-132.1c0-2.7,2.4-5,5.2-5c2.8,0,5.2,2.3,5.2,5s-2.4,5.1-5.2,5.1C-544.7-127-547-129.3-547-132.1z
				 M-538.9-132.1c0-1.7-1.3-3.1-2.9-3.1c-1.6,0-2.9,1.4-2.9,3.1c0,1.7,1.3,3.1,2.9,3.1C-540.3-129-538.9-130.4-538.9-132.1z"/>
		</g>
		<g>
			<path class="st6" d="M-526.3-136.9v9.6h-2.3v-1.3c-0.6,0.9-1.7,1.5-3,1.5c-2.1,0-3.6-1.5-3.6-3.7v-6.1h2.2v5.7
				c0,1.3,0.8,2.2,2,2.2s2.2-0.8,2.3-1.8v-6.1H-526.3z"/>
		</g>
		<g>
			<path class="st6" d="M-518.4-137.1v1.9c-2.1,0-3.5,1.2-3.5,3.1v4.9h-2.3v-9.6h2.3v1.9C-521.2-136.3-520-137.1-518.4-137.1z"/>
		</g>
		<g>
			<path class="st6" d="M-497.5-133.4v6.1h-2.2v-5.8c0-1.3-0.8-2.2-1.9-2.2c-1.3,0-2.1,0.8-2.1,2v5.9h-2.2v-5.8
				c0-1.3-0.8-2.2-1.9-2.2c-1.2,0-2.1,0.8-2.1,2v5.9h-2.3v-9.6h2.3v1.3c0.5-0.9,1.5-1.5,2.7-1.5c1.4,0,2.5,0.7,3.1,1.8
				c0.5-1.1,1.7-1.8,3.1-1.8C-499-137.1-497.5-135.6-497.5-133.4z"/>
		</g>
		<g>
			<path class="st6" d="M-488.4-130l1.4,1.5c-0.8,0.9-2.5,1.5-3.9,1.5c-2.8,0-5-2.1-5-5.1c0-2.9,2.2-5,4.9-5c3,0,4.7,2.3,4.7,5.8
				h-7.3c0.3,1.3,1.3,2.3,2.7,2.3C-490-129-488.9-129.4-488.4-130z M-493.6-133h5.1c-0.3-1.2-1.1-2.1-2.4-2.1
				C-492.2-135.1-493.2-134.3-493.6-133z"/>
		</g>
		<g>
			<path class="st6" d="M-477.7-130l1.4,1.5c-0.8,0.9-2.5,1.5-3.9,1.5c-2.8,0-5-2.1-5-5.1c0-2.9,2.2-5,4.9-5c3,0,4.7,2.3,4.7,5.8
				h-7.3c0.3,1.3,1.3,2.3,2.7,2.3C-479.3-129-478.2-129.4-477.7-130z M-482.8-133h5.1c-0.3-1.2-1.1-2.1-2.4-2.1
				C-481.5-135.1-482.5-134.3-482.8-133z"/>
		</g>
		<g>
			<path class="st6" d="M-468.5-127.8c-0.5,0.5-1.3,0.8-2.1,0.8c-1.6,0-2.7-1.2-2.7-2.8v-5.2h-1.4v-1.9h1.4v-2.6h2.2v2.6h2.2v1.9
				h-2.2v4.9c0,0.7,0.4,1.1,1,1.1c0.4,0,0.7-0.1,1-0.4L-468.5-127.8z"/>
		</g>
		<g>
			<path class="st6" d="M-467.3-139.7c0-0.7,0.6-1.3,1.3-1.3c0.7,0,1.3,0.6,1.3,1.3s-0.6,1.3-1.3,1.3
				C-466.7-138.3-467.3-139-467.3-139.7z M-467.1-136.9h2.3v9.6h-2.3V-136.9z"/>
		</g>
		<g>
			<path class="st6" d="M-453.8-133.4v6.1h-2.2v-5.7c0-1.3-0.8-2.2-2-2.2s-2.2,0.8-2.3,1.8v6.1h-2.3v-9.6h2.3v1.3
				c0.6-0.9,1.7-1.5,3-1.5C-455.3-137.1-453.8-135.6-453.8-133.4z"/>
		</g>
		<g>
			<path class="st6" d="M-442.3-136.9v8.6c0,2.5-2.1,4.2-5,4.2c-1.7,0-3.2-0.5-4.1-1.3l0.8-1.7c0.7,0.6,1.8,1,3,1
				c1.9,0,3.1-0.9,3.1-2.4v-1.3c-0.8,1-1.9,1.6-3.3,1.6c-2.5,0-4.3-1.9-4.3-4.6s1.8-4.6,4.3-4.6c1.4,0,2.6,0.6,3.3,1.7v-1.4H-442.3z
				 M-444.6-132.5c0-1.5-1.1-2.6-2.6-2.6c-1.5,0-2.6,1.1-2.6,2.6c0,1.5,1.1,2.6,2.6,2.6C-445.7-129.9-444.6-131-444.6-132.5z"/>
		</g>
		<g>
			<path class="st6" d="M-440.8-128.5l1-1.6c0.9,0.7,2,1.1,3.2,1.1c0.9,0,1.5-0.4,1.5-1c0-0.7-0.8-1-1.9-1.3
				c-2.1-0.5-3.4-1.1-3.4-2.9c0-1.8,1.5-3,3.6-3c1.3,0,2.7,0.5,3.7,1.2l-1,1.7c-0.9-0.6-1.9-0.9-2.7-0.9c-0.8,0-1.4,0.3-1.4,0.9
				c0,0.6,0.5,0.8,2,1.2c1.6,0.4,3.4,1,3.4,3c0,1.8-1.5,3-3.8,3C-438-127-439.6-127.5-440.8-128.5z"/>
		</g>
		<g>
			<path class="st6" d="M-430.9-125.3c0.6-0.6,0.9-1.2,1.1-1.8c-0.8,0-1.4-0.7-1.4-1.5c0-0.8,0.7-1.5,1.5-1.5c1,0,1.6,0.9,1.6,2
				c0,1-0.5,2-1.8,3.3L-430.9-125.3z"/>
		</g>
		<g>
			<path class="st6" d="M-411.2-132.1c0,3-1.9,5.1-4.4,5.1c-1.4,0-2.6-0.7-3.4-1.8v1.5h-2.3v-13h2.3v4.9c0.8-1.1,1.9-1.8,3.4-1.8
				C-413.1-137.1-411.2-135-411.2-132.1z M-413.5-132.1c0-1.8-1.2-3.1-2.8-3.1c-1.6,0-2.7,1.3-2.7,3.1c0,1.8,1.1,3.1,2.7,3.1
				C-414.6-129-413.5-130.3-413.5-132.1z"/>
		</g>
		<g>
			<path class="st6" d="M-409.7-124.4l0.5-1.6c0.4,0.2,0.9,0.4,1.2,0.4c0.5,0,1-0.2,1.2-0.6l0.4-0.9l-4.1-9.7h2.4l2.8,7.2l2.6-7.2
				h2.4l-4.1,10.3c-0.7,1.8-1.8,2.7-3.3,2.7C-408.3-123.9-409.1-124.1-409.7-124.4z"/>
		</g>
		<g>
			<path class="st6" d="M-384.2-140.3v13h-2.3v-1.5c-0.8,1.1-1.9,1.7-3.3,1.7c-2.6,0-4.4-2.1-4.4-5.1c0-2.9,1.9-5,4.4-5
				c1.4,0,2.6,0.6,3.3,1.7v-4.9H-384.2z M-386.5-132.1c0-1.8-1.1-3.1-2.7-3.1c-1.6,0-2.8,1.3-2.8,3.1c0,1.8,1.2,3.1,2.8,3.1
				C-387.6-129-386.5-130.3-386.5-132.1z"/>
		</g>
		<g>
			<path class="st6" d="M-382.5-132.1c0-2.7,2.4-5,5.2-5c2.8,0,5.2,2.3,5.2,5s-2.4,5.1-5.2,5.1C-380.2-127-382.5-129.3-382.5-132.1z
				 M-374.4-132.1c0-1.7-1.3-3.1-2.9-3.1c-1.6,0-2.9,1.4-2.9,3.1c0,1.7,1.3,3.1,2.9,3.1C-375.8-129-374.4-130.4-374.4-132.1z"/>
		</g>
		<g>
			<path class="st6" d="M-370.7-139.7c0-0.7,0.6-1.3,1.3-1.3c0.7,0,1.3,0.6,1.3,1.3s-0.6,1.3-1.3,1.3
				C-370.2-138.3-370.7-139-370.7-139.7z M-370.6-136.9h2.3v9.6h-2.3V-136.9z"/>
		</g>
		<g>
			<path class="st6" d="M-357.3-133.4v6.1h-2.2v-5.7c0-1.3-0.8-2.2-2-2.2s-2.2,0.8-2.3,1.8v6.1h-2.3v-9.6h2.3v1.3
				c0.6-0.9,1.7-1.5,3-1.5C-358.8-137.1-357.3-135.6-357.3-133.4z"/>
		</g>
		<g>
			<path class="st6" d="M-345.8-136.9v8.6c0,2.5-2.1,4.2-5,4.2c-1.7,0-3.2-0.5-4.1-1.3l0.8-1.7c0.7,0.6,1.8,1,3,1
				c1.9,0,3.1-0.9,3.1-2.4v-1.3c-0.8,1-1.9,1.6-3.3,1.6c-2.5,0-4.3-1.9-4.3-4.6s1.8-4.6,4.3-4.6c1.4,0,2.6,0.6,3.3,1.7v-1.4H-345.8z
				 M-348-132.5c0-1.5-1.1-2.6-2.6-2.6c-1.5,0-2.6,1.1-2.6,2.6c0,1.5,1.1,2.6,2.6,2.6C-349.1-129.9-348-131-348-132.5z"/>
		</g>
		<g>
			<path class="st6" d="M-338.7-140.3h2.3v13h-2.3V-140.3z"/>
		</g>
		<g>
			<path class="st6" d="M-327.2-130l1.4,1.5c-0.8,0.9-2.5,1.5-3.9,1.5c-2.8,0-5-2.1-5-5.1c0-2.9,2.2-5,4.9-5c3,0,4.7,2.3,4.7,5.8
				h-7.3c0.3,1.3,1.3,2.3,2.7,2.3C-328.9-129-327.8-129.4-327.2-130z M-332.4-133h5.1c-0.3-1.2-1.1-2.1-2.4-2.1
				C-331-135.1-332.1-134.3-332.4-133z"/>
		</g>
		<g>
			<path class="st6" d="M-324.2-128.5l1-1.6c0.9,0.7,2,1.1,3.2,1.1c0.9,0,1.5-0.4,1.5-1c0-0.7-0.8-1-1.9-1.3
				c-2.1-0.5-3.4-1.1-3.4-2.9c0-1.8,1.5-3,3.6-3c1.3,0,2.7,0.5,3.7,1.2l-1,1.7c-0.9-0.6-1.9-0.9-2.7-0.9c-0.8,0-1.4,0.3-1.4,0.9
				c0,0.6,0.5,0.8,2,1.2c1.6,0.4,3.4,1,3.4,3c0,1.8-1.5,3-3.8,3C-321.4-127-323-127.5-324.2-128.5z"/>
		</g>
		<g>
			<path class="st6" d="M-315.2-128.5l1-1.6c0.9,0.7,2,1.1,3.2,1.1c0.9,0,1.5-0.4,1.5-1c0-0.7-0.8-1-1.9-1.3
				c-2.1-0.5-3.4-1.1-3.4-2.9c0-1.8,1.5-3,3.6-3c1.3,0,2.7,0.5,3.7,1.2l-1,1.7c-0.9-0.6-1.9-0.9-2.7-0.9c-0.8,0-1.4,0.3-1.4,0.9
				c0,0.6,0.5,0.8,2,1.2c1.6,0.4,3.4,1,3.4,3c0,1.8-1.5,3-3.8,3C-312.5-127-314.1-127.5-315.2-128.5z"/>
		</g>
		<g>
			<path class="st6" d="M-305.7-128.5c0-0.8,0.6-1.4,1.5-1.4c0.8,0,1.4,0.7,1.4,1.4c0,0.8-0.7,1.5-1.4,1.5
				C-305.1-127-305.7-127.7-305.7-128.5z"/>
		</g>
	</g>
</g>
<g>
	<g>
		<path class="st6" d="M2015.6-404.9h20.6l29.9,54.5l29.8-54.5h20.8v96.4h-20.8v-60.1l-29.8,54.5l-29.9-54.5v60.1h-20.6V-404.9z"/>
		<path class="st6" d="M2127.6-344.8c0-20.6,18.1-37.9,39.7-37.9c21.5,0,39.4,17.3,39.4,37.9c0,20.6-18,38-39.4,38
			C2145.7-306.7,2127.6-324.1,2127.6-344.8z M2187.2-344.8c0-11.2-9.1-20.6-19.9-20.6c-10.9,0-20.1,9.4-20.1,20.6
			c0,11.2,9.1,20.8,20.1,20.8C2178.1-324,2187.2-333.5,2187.2-344.8z"/>
		<path class="st6" d="M2286.7-354.6v46.2h-19.8v-41.8c0-9-5.6-15.2-13.8-15.2c-8.6,0-15.2,6.2-15.2,14l-0.1-0.4v43.4h-20.5V-381
			h20.5v9.1c4.3-6.6,12.5-10.8,21.9-10.8C2275.5-382.7,2286.7-371,2286.7-354.6z"/>
		<path class="st6" d="M2351.6-331.3l13.1,13.3c-6.5,6.7-18.9,11.2-29.6,11.2c-21.6,0-38.5-15.9-38.5-38.2
			c0-21.9,16.1-37.8,37.3-37.8c22.7,0,36.1,17.3,36.1,44.6h-52.4c2.4,7.9,8.7,13.2,17.3,13.2
			C2340.7-324.8,2347.7-327.5,2351.6-331.3z M2318-352.8h32.4c-2-7.2-7.3-11.8-15.6-11.8C2327.1-364.6,2320.6-360.1,2318-352.8z"/>
		<path class="st6" d="M2421.1-313.1c-4.2,3.8-10.8,6.3-16.7,6.3c-12.8,0-21.8-9.1-21.8-22.2v-35.5h-10V-381h10v-19.9h19.7v19.9
			h15.7v16.6h-15.7v32.3c0,4.8,3.1,8.1,6.9,8.1c2.8,0,5.6-1,7-2.4L2421.1-313.1z"/>
		<path class="st6" d="M2466.2-313.1c-4.2,3.8-10.8,6.3-16.7,6.3c-12.8,0-21.8-9.1-21.8-22.2v-35.5h-10V-381h10v-19.9h19.7v19.9
			h15.7v16.6h-15.7v32.3c0,4.8,3.1,8.1,6.9,8.1c2.8,0,5.6-1,7-2.4L2466.2-313.1z"/>
		<path class="st6" d="M2541.2-351.8v43.4h-19.8v-7.3c-5.2,5.9-13.5,9-21.3,9c-15.4,0-27.4-9.3-27.4-23.2
			c0-14.3,13.3-24.1,30.2-24.1c5.9,0,12.4,1.3,18.5,3.7v-1.4c0-7.7-4.8-14.5-16.7-14.5c-6.7,0-13.1,2.2-18.8,5.2l-6.9-13.6
			c10.2-5.2,20.2-8,30.3-8C2528.3-382.7,2541.2-370.7,2541.2-351.8z M2521.4-331.3v-6.7c-4.6-1.7-10-2.7-15.6-2.7
			c-7.4,0-13.3,4.3-13.3,10.2c0,5.9,5.2,9.5,12.2,9.5C2512.6-320.9,2520-324.6,2521.4-331.3z"/>
	</g>
	<g>
		<path class="st6" d="M1900.6-457.5l-44.7-25.8c-0.6-0.4-1.3-0.5-2-0.5s-1.4,0.2-2,0.5l-45,26c-1.6,1.1-1.5,3.5,0.2,4.5l46.8,27
			l46.7-27C1902.4-453.9,1902.4-456.5,1900.6-457.5z"/>
		<path class="st6" d="M1742.9-353.2c0,1.4,0.8,2.7,2,3.5l48.7,28.2V-378c0-1.3-0.7-2.5-1.7-3.2l-28-16.1l-17-9.8
			c-0.4-0.2-0.9-0.4-1.3-0.4c-1.4,0-2.7,1.1-2.7,2.7V-353.2z"/>
		<g>
			<path class="st6" d="M1951.4-428.2l-47.5-27.4c0,0.1,0,0.3,0,0.4c0,1.7-0.9,3.2-2.3,4l-45.7,26.4l46.8,27c1.2,0.7,2.8,0.7,4,0
				l44.7-25.8C1953.2-424.6,1953.2-427.2,1951.4-428.2z"/>
		</g>
		<g>
			<g>
				<path class="st6" d="M1792.6-380.6c-0.2-0.2-0.5-0.5-0.7-0.6l0,0C1792.2-381,1792.4-380.8,1792.6-380.6z"/>
			</g>
			<g>
				<path class="st6" d="M1842.5-352l-47-27.1c0.1,0.4,0.1,0.8,0.1,1.2v56.4v1.2l44.8,25.9c1.8,1,4-0.3,4-2.3v-51.8
					C1844.4-350,1843.7-351.3,1842.5-352z"/>
			</g>
		</g>
		<g>
			<g>
				<path class="st6" d="M1807.2-452.9l23.4,13.5L1807.2-452.9c-0.4-0.2-0.7-0.6-1-1C1806.4-453.5,1806.7-453.2,1807.2-452.9z"/>
			</g>
			<g>
				<path class="st6" d="M1806.2-451.2c-1.4-0.8-2.2-2.2-2.3-3.8c0-0.2,0-0.4,0-0.6l-47.4,27.4c-1.8,1-1.8,3.6,0,4.6l44.7,25.8
					c1.2,0.7,2.8,0.7,4,0l46.8-27L1806.2-451.2z"/>
			</g>
		</g>
		<g>
			<path class="st6" d="M1792.6-319.8l-48.7-28.2c-0.4-0.2-0.7-0.5-1-0.7v54.3c0,1.4,0.8,2.7,2,3.5l44.7,25.8c1.8,1,4-0.3,4-2.3
				v-51.8L1792.6-319.8z"/>
		</g>
		<path class="st6" d="M1964.9-353.2c0,1.4-0.8,2.7-2,3.5l-48.7,28.2V-378c0-1.3,0.7-2.5,1.7-3.2l28-16.1l17-9.8
			c0.4-0.2,0.9-0.4,1.3-0.4c1.4,0,2.7,1.1,2.7,2.7V-353.2z"/>
		<g>
			<g>
				<path class="st6" d="M1915.2-380.6c0.2-0.2,0.5-0.5,0.7-0.6l0,0C1915.7-381,1915.4-380.8,1915.2-380.6z"/>
			</g>
			<g>
				<path class="st6" d="M1865.4-352l47-27.1c-0.1,0.4-0.1,0.8-0.1,1.2v56.4v1.2l-44.8,25.9c-1.8,1-4-0.3-4-2.3v-51.8
					C1863.4-350,1864.2-351.3,1865.4-352z"/>
			</g>
		</g>
		<g>
			<path class="st6" d="M1915.2-319.8l48.7-28.2c0.4-0.2,0.7-0.5,1-0.7v54.3c0,1.4-0.8,2.7-2,3.5l-44.7,25.8c-1.8,1-4-0.3-4-2.3
				v-51.8L1915.2-319.8z"/>
		</g>
	</g>
</g>
<g>
	<g>
		<path class="st6" d="M867.1-457.5l-44.7-25.8c-0.6-0.4-1.3-0.5-2-0.5s-1.4,0.2-2,0.5l-45,26c-1.6,1.1-1.5,3.5,0.2,4.5l46.8,27
			l46.7-27C868.9-453.9,868.9-456.5,867.1-457.5z"/>
		<path class="st6" d="M709.4-353.2c0,1.4,0.8,2.7,2,3.5l48.7,28.2V-378c0-1.3-0.7-2.5-1.7-3.2l-28-16.1l-17-9.8
			c-0.4-0.2-0.9-0.4-1.3-0.4c-1.4,0-2.7,1.1-2.7,2.7V-353.2z"/>
		<g>
			<path class="st6" d="M917.9-428.2l-47.5-27.4c0,0.1,0,0.3,0,0.4c0,1.7-0.9,3.2-2.3,4l-45.7,26.4l46.8,27c1.2,0.7,2.8,0.7,4,0
				l44.7-25.8C919.7-424.6,919.7-427.2,917.9-428.2z"/>
		</g>
		<g>
			<g>
				<path class="st6" d="M759.1-380.6c-0.2-0.2-0.5-0.5-0.7-0.6l0,0C758.7-381,758.9-380.8,759.1-380.6z"/>
			</g>
			<g>
				<path class="st6" d="M808.9-352l-47-27.1c0.1,0.4,0.1,0.8,0.1,1.2v56.4v1.2l44.8,25.9c1.8,1,4-0.3,4-2.3v-51.8
					C810.9-350,810.2-351.3,808.9-352z"/>
			</g>
		</g>
		<g>
			<g>
				<path class="st6" d="M773.7-452.9l23.4,13.5L773.7-452.9c-0.4-0.2-0.7-0.6-1-1C772.9-453.5,773.2-453.2,773.7-452.9z"/>
			</g>
			<g>
				<path class="st6" d="M772.7-451.2c-1.4-0.8-2.2-2.2-2.3-3.8c0-0.2,0-0.4,0-0.6l-47.4,27.4c-1.8,1-1.8,3.6,0,4.6l44.7,25.8
					c1.2,0.7,2.8,0.7,4,0l46.8-27L772.7-451.2z"/>
			</g>
		</g>
		<g>
			<path class="st6" d="M759.1-319.8L710.4-348c-0.4-0.2-0.7-0.5-1-0.7v54.3c0,1.4,0.8,2.7,2,3.5l44.7,25.8c1.8,1,4-0.3,4-2.3v-51.8
				L759.1-319.8z"/>
		</g>
		<path class="st6" d="M931.4-353.2c0,1.4-0.8,2.7-2,3.5l-48.7,28.2V-378c0-1.3,0.7-2.5,1.7-3.2l28-16.1l17-9.8
			c0.4-0.2,0.9-0.4,1.3-0.4c1.4,0,2.7,1.1,2.7,2.7V-353.2z"/>
		<g>
			<g>
				<path class="st6" d="M881.7-380.6c0.2-0.2,0.5-0.5,0.7-0.6l0,0C882.2-381,881.9-380.8,881.7-380.6z"/>
			</g>
			<g>
				<path class="st6" d="M831.9-352l47-27.1c-0.1,0.4-0.1,0.8-0.1,1.2v56.4v1.2l-44.8,25.9c-1.8,1-4-0.3-4-2.3v-51.8
					C829.9-350,830.6-351.3,831.9-352z"/>
			</g>
		</g>
		<g>
			<path class="st6" d="M881.7-319.8l48.7-28.2c0.4-0.2,0.7-0.5,1-0.7v54.3c0,1.4-0.8,2.7-2,3.5l-44.7,25.8c-1.8,1-4-0.3-4-2.3
				v-51.8L881.7-319.8z"/>
		</g>
	</g>
	<g>
		<g>
			<path class="st6" d="M982.1-404.9h20.6l29.9,54.4l29.7-54.4h20.8v96.3h-20.8v-60l-29.7,54.4l-29.9-54.4v60h-20.6V-404.9z"/>
		</g>
		<g>
			<path class="st6" d="M1094-344.8c0-20.6,18.1-37.9,39.7-37.9c21.5,0,39.4,17.2,39.4,37.9s-17.9,38-39.4,38
				C1112.1-306.8,1094-324.2,1094-344.8z M1153.6-344.8c0-11.2-9.1-20.6-19.9-20.6c-10.9,0-20.1,9.4-20.1,20.6s9.1,20.8,20.1,20.8
				C1144.5-324.1,1153.6-333.6,1153.6-344.8z"/>
		</g>
		<g>
			<path class="st6" d="M1253-354.7v46.1h-19.8v-41.8c0-9-5.6-15.1-13.7-15.1c-8.6,0-15.1,6.2-15.1,14l-0.1-0.4v43.3h-20.5V-381
				h20.5v9.1c4.3-6.6,12.5-10.8,21.9-10.8C1241.8-382.7,1253-371.1,1253-354.7z"/>
		</g>
		<g>
			<path class="st6" d="M1317.8-331.4l13,13.3c-6.4,6.7-18.9,11.2-29.6,11.2c-21.6,0-38.4-15.8-38.4-38.1
				c0-21.9,16.1-37.7,37.3-37.7c22.7,0,36,17.2,36,44.6h-52.3c2.4,7.9,8.7,13.2,17.2,13.2C1306.9-324.9,1313.9-327.6,1317.8-331.4z
				 M1284.2-352.8h32.4c-2-7.2-7.3-11.8-15.6-11.8C1293.3-364.6,1286.8-360.1,1284.2-352.8z"/>
		</g>
		<g>
			<path class="st6" d="M1387.2-313.1c-4.2,3.8-10.8,6.3-16.7,6.3c-12.8,0-21.7-9.1-21.7-22.2v-35.5h-10V-381h10v-19.9h19.6v19.9
				h15.7v16.5h-15.7v32.3c0,4.8,3.1,8.1,6.9,8.1c2.8,0,5.6-1,7-2.4L1387.2-313.1z"/>
		</g>
		<g>
			<path class="st6" d="M1432.3-313.1c-4.2,3.8-10.8,6.3-16.7,6.3c-12.8,0-21.7-9.1-21.7-22.2v-35.5h-10V-381h10v-19.9h19.6v19.9
				h15.7v16.5h-15.7v32.3c0,4.8,3.1,8.1,6.9,8.1c2.8,0,5.6-1,7-2.4L1432.3-313.1z"/>
		</g>
		<g>
			<path class="st6" d="M1507.2-351.8v43.3h-19.8v-7.3c-5.2,5.9-13.5,9-21.3,9c-15.4,0-27.3-9.3-27.3-23.1
				c0-14.3,13.3-24.1,30.2-24.1c5.9,0,12.3,1.3,18.5,3.6v-1.4c0-7.7-4.8-14.4-16.7-14.4c-6.7,0-13,2.2-18.8,5.2l-6.9-13.6
				c10.2-5.2,20.2-8,30.3-8C1494.3-382.7,1507.2-370.8,1507.2-351.8z M1487.4-331.4v-6.7c-4.6-1.7-10-2.7-15.6-2.7
				c-7.4,0-13.3,4.3-13.3,10.2c0,5.9,5.2,9.5,12.2,9.5C1478.6-321,1486-324.6,1487.4-331.4z"/>
		</g>
	</g>
	<g>
		<g>
			<path class="st6" d="M991.6-279.1h7.2v6.8c-1.6,1.7-4.2,2.7-6.7,2.7c-4.8,0-8.9-4-8.9-8.7c0-4.7,4.1-8.7,8.9-8.7
				c2.4,0,5.1,1,6.7,2.7l-2.2,2c-1.1-1.2-2.9-2-4.5-2c-3.1,0-5.8,2.7-5.8,5.9c0,3.2,2.6,5.9,5.8,5.9c1.3,0,2.6-0.4,3.7-1.2v-3.1
				h-4.2V-279.1z"/>
		</g>
		<g>
			<path class="st6" d="M1010.7-273.5l1.9,2c-1.1,1.2-3.3,2-5.1,2c-3.6,0-6.6-2.8-6.6-6.7c0-3.8,2.8-6.6,6.4-6.6
				c3.9,0,6.2,3,6.2,7.6h-9.6c0.4,1.7,1.7,3,3.5,3C1008.6-272.2,1010-272.7,1010.7-273.5z M1003.9-277.4h6.7
				c-0.3-1.6-1.4-2.7-3.2-2.7C1005.7-280.1,1004.4-279.1,1003.9-277.4z"/>
		</g>
		<g>
			<path class="st6" d="M1022.7-270.5c-0.7,0.6-1.7,1-2.7,1c-2.1,0-3.6-1.5-3.6-3.6v-6.8h-1.8v-2.5h1.8v-3.5h2.9v3.5h2.9v2.5h-2.9
				v6.5c0,0.9,0.5,1.5,1.2,1.5c0.5,0,1-0.2,1.2-0.5L1022.7-270.5z"/>
		</g>
		<g>
			<path class="st6" d="M1050.3-277.9v8.1h-2.9v-7.6c0-1.7-1-2.8-2.4-2.8c-1.6,0-2.8,1.1-2.8,2.6v7.8h-2.9v-7.6c0-1.7-1-2.8-2.5-2.8
				c-1.6,0-2.8,1.1-2.8,2.6v7.8h-3v-12.7h3v1.7c0.6-1.2,1.9-2,3.5-2c1.8,0,3.3,0.9,4,2.4c0.6-1.5,2.2-2.4,4.1-2.4
				C1048.3-282.8,1050.3-280.8,1050.3-277.9z"/>
		</g>
		<g>
			<path class="st6" d="M1052.4-276.2c0-3.6,3.1-6.6,6.8-6.6c3.7,0,6.8,3,6.8,6.6c0,3.6-3.1,6.6-6.8,6.6
				C1055.5-269.5,1052.4-272.6,1052.4-276.2z M1063-276.2c0-2.2-1.8-4.1-3.8-4.1c-2.1,0-3.9,1.9-3.9,4.1c0,2.2,1.8,4.1,3.9,4.1
				C1061.2-272.1,1063-273.9,1063-276.2z"/>
		</g>
		<g>
			<path class="st6" d="M1075.6-282.8v2.5c-2.7,0-4.5,1.6-4.5,4v6.4h-3v-12.7h3v2.4C1071.9-281.7,1073.5-282.8,1075.6-282.8z"/>
		</g>
		<g>
			<path class="st6" d="M1086.5-273.5l1.9,2c-1.1,1.2-3.3,2-5.1,2c-3.6,0-6.6-2.8-6.6-6.7c0-3.8,2.8-6.6,6.4-6.6
				c3.9,0,6.2,3,6.2,7.6h-9.6c0.4,1.7,1.7,3,3.5,3C1084.4-272.2,1085.8-272.7,1086.5-273.5z M1079.8-277.4h6.7
				c-0.3-1.6-1.4-2.7-3.2-2.7C1081.6-280.1,1080.2-279.1,1079.8-277.4z"/>
		</g>
		<g>
			<path class="st6" d="M1097.2-276.2c0-3.6,3.1-6.6,6.8-6.6c3.7,0,6.8,3,6.8,6.6c0,3.6-3.1,6.6-6.8,6.6
				C1100.3-269.5,1097.2-272.6,1097.2-276.2z M1107.8-276.2c0-2.2-1.8-4.1-3.8-4.1c-2.1,0-3.9,1.9-3.9,4.1c0,2.2,1.8,4.1,3.9,4.1
				C1106.1-272.1,1107.8-273.9,1107.8-276.2z"/>
		</g>
		<g>
			<path class="st6" d="M1124.4-282.5v12.7h-3v-1.7c-0.8,1.2-2.3,2-3.9,2c-2.8,0-4.7-2-4.7-4.9v-8.1h2.9v7.5c0,1.7,1.1,2.9,2.7,2.9
				s2.9-1.1,3.1-2.4v-8H1124.4z"/>
		</g>
		<g>
			<path class="st6" d="M1134.4-270.5c-0.7,0.6-1.7,1-2.7,1c-2.1,0-3.6-1.5-3.6-3.6v-6.8h-1.8v-2.5h1.8v-3.5h2.9v3.5h2.9v2.5h-2.9
				v6.5c0,0.9,0.5,1.5,1.2,1.5c0.5,0,1-0.2,1.2-0.5L1134.4-270.5z"/>
		</g>
		<g>
			<path class="st6" d="M1142-276.2c0-3.6,3.1-6.6,6.8-6.6c3.7,0,6.8,3,6.8,6.6c0,3.6-3.1,6.6-6.8,6.6
				C1145.1-269.5,1142-272.6,1142-276.2z M1152.6-276.2c0-2.2-1.8-4.1-3.8-4.1c-2.1,0-3.9,1.9-3.9,4.1c0,2.2,1.8,4.1,3.9,4.1
				C1150.9-272.1,1152.6-273.9,1152.6-276.2z"/>
		</g>
		<g>
			<path class="st6" d="M1161.5-282.5h2.9v2.5h-2.9v10.2h-2.9V-280h-1.8v-2.5h1.8v-1.3c0-2.1,1.5-3.7,3.6-3.7c1,0,2,0.4,2.7,1
				l-0.9,1.9c-0.3-0.3-0.7-0.5-1.2-0.5c-0.7,0-1.2,0.6-1.2,1.5V-282.5z"/>
		</g>
		<g>
			<path class="st6" d="M1172.5-266.1l0.6-2.2c0.5,0.3,1.2,0.5,1.6,0.5c0.7,0,1.2-0.2,1.6-0.8l0.5-1.1l-5.4-12.8h3.2l3.7,9.5
				l3.5-9.5h3.1l-5.4,13.5c-1,2.4-2.4,3.5-4.3,3.5C1174.3-265.4,1173.3-265.7,1172.5-266.1z"/>
		</g>
		<g>
			<path class="st6" d="M1185.6-276.2c0-3.6,3.1-6.6,6.8-6.6c3.7,0,6.8,3,6.8,6.6c0,3.6-3.1,6.6-6.8,6.6
				C1188.8-269.5,1185.6-272.6,1185.6-276.2z M1196.3-276.2c0-2.2-1.8-4.1-3.8-4.1c-2.1,0-3.9,1.9-3.9,4.1c0,2.2,1.8,4.1,3.9,4.1
				C1194.5-272.1,1196.3-273.9,1196.3-276.2z"/>
		</g>
		<g>
			<path class="st6" d="M1212.9-282.5v12.7h-3v-1.7c-0.8,1.2-2.3,2-3.9,2c-2.8,0-4.7-2-4.7-4.9v-8.1h2.9v7.5c0,1.7,1.1,2.9,2.7,2.9
				s2.9-1.1,3.1-2.4v-8H1212.9z"/>
		</g>
		<g>
			<path class="st6" d="M1223.3-282.8v2.5c-2.7,0-4.5,1.6-4.5,4v6.4h-3v-12.7h3v2.4C1219.6-281.7,1221.2-282.8,1223.3-282.8z"/>
		</g>
		<g>
			<path class="st6" d="M1250.7-277.9v8.1h-2.9v-7.6c0-1.7-1-2.8-2.4-2.8c-1.6,0-2.8,1.1-2.8,2.6v7.8h-2.9v-7.6c0-1.7-1-2.8-2.5-2.8
				c-1.6,0-2.8,1.1-2.8,2.6v7.8h-3v-12.7h3v1.7c0.6-1.2,1.9-2,3.5-2c1.8,0,3.3,0.9,4,2.4c0.6-1.5,2.2-2.4,4.1-2.4
				C1248.7-282.8,1250.7-280.8,1250.7-277.9z"/>
		</g>
		<g>
			<path class="st6" d="M1262.6-273.5l1.9,2c-1.1,1.2-3.3,2-5.1,2c-3.6,0-6.6-2.8-6.6-6.7c0-3.8,2.8-6.6,6.4-6.6
				c3.9,0,6.2,3,6.2,7.6h-9.6c0.4,1.7,1.7,3,3.5,3C1260.5-272.2,1261.9-272.7,1262.6-273.5z M1255.9-277.4h6.7
				c-0.3-1.6-1.4-2.7-3.2-2.7C1257.6-280.1,1256.3-279.1,1255.9-277.4z"/>
		</g>
		<g>
			<path class="st6" d="M1276.7-273.5l1.9,2c-1.1,1.2-3.3,2-5.1,2c-3.6,0-6.6-2.8-6.6-6.7c0-3.8,2.8-6.6,6.4-6.6
				c3.9,0,6.2,3,6.2,7.6h-9.6c0.4,1.7,1.7,3,3.5,3C1274.6-272.2,1276-272.7,1276.7-273.5z M1269.9-277.4h6.7
				c-0.3-1.6-1.4-2.7-3.2-2.7C1271.7-280.1,1270.4-279.1,1269.9-277.4z"/>
		</g>
		<g>
			<path class="st6" d="M1288.7-270.5c-0.7,0.6-1.7,1-2.7,1c-2.1,0-3.6-1.5-3.6-3.6v-6.8h-1.8v-2.5h1.8v-3.5h2.9v3.5h2.9v2.5h-2.9
				v6.5c0,0.9,0.5,1.5,1.2,1.5c0.5,0,1-0.2,1.2-0.5L1288.7-270.5z"/>
		</g>
		<g>
			<path class="st6" d="M1290.4-286.1c0-0.9,0.8-1.7,1.7-1.7c0.9,0,1.7,0.8,1.7,1.7c0,0.9-0.8,1.7-1.7,1.7
				C1291.1-284.4,1290.4-285.2,1290.4-286.1z M1290.6-282.5h3v12.7h-3V-282.5z"/>
		</g>
		<g>
			<path class="st6" d="M1308-277.9v8.1h-2.9v-7.5c0-1.7-1.1-2.9-2.7-2.9s-2.9,1.1-3.1,2.4v8h-3v-12.7h3v1.7c0.8-1.2,2.3-2,3.9-2
				C1306.1-282.8,1308-280.8,1308-277.9z"/>
		</g>
		<g>
			<path class="st6" d="M1323.2-282.5v11.3c0,3.3-2.7,5.6-6.6,5.6c-2.2,0-4.2-0.7-5.4-1.7l1.1-2.2c0.9,0.8,2.4,1.3,3.9,1.3
				c2.5,0,4.1-1.2,4.1-3.1v-1.6c-1,1.3-2.5,2.2-4.3,2.2c-3.3,0-5.7-2.5-5.7-6c0-3.5,2.4-6,5.7-6c1.8,0,3.4,0.8,4.3,2.2v-1.9H1323.2z
				 M1320.2-276.8c0-2-1.4-3.5-3.5-3.5c-2,0-3.5,1.4-3.5,3.5c0,2,1.4,3.5,3.5,3.5C1318.7-273.3,1320.2-274.8,1320.2-276.8z"/>
		</g>
		<g>
			<path class="st6" d="M1325.2-271.5l1.3-2.1c1.2,0.9,2.6,1.5,4.2,1.5c1.2,0,2-0.5,2-1.3c0-1-1.1-1.3-2.5-1.7
				c-2.7-0.7-4.5-1.5-4.5-3.7c0-2.4,2-4,4.8-4c1.7,0,3.5,0.6,4.9,1.5l-1.2,2.2c-1.2-0.8-2.5-1.2-3.6-1.2c-1.1,0-1.9,0.4-1.9,1.1
				c0,0.8,0.7,1.1,2.6,1.6c2.1,0.6,4.4,1.3,4.4,4c0,2.4-2,4-5,4C1328.8-269.5,1326.7-270.2,1325.2-271.5z"/>
		</g>
		<g>
			<path class="st6" d="M1338.1-267.2c0.7-0.7,1.2-1.5,1.4-2.3c-1,0-1.9-0.9-1.9-1.9c0-1,0.9-1.9,1.9-1.9c1.2,0,2.1,1.1,2.1,2.7
				c0,1.3-0.7,2.6-2.4,4.4L1338.1-267.2z"/>
		</g>
		<g>
			<path class="st6" d="M1363.9-276.2c0,3.9-2.4,6.6-5.8,6.6c-1.9,0-3.4-0.9-4.4-2.3v2h-3V-287h3v6.5c1-1.4,2.5-2.3,4.4-2.3
				C1361.5-282.8,1363.9-280,1363.9-276.2z M1361-276.2c0-2.4-1.5-4.1-3.6-4.1c-2.1,0-3.6,1.7-3.6,4.1c0,2.4,1.5,4.1,3.6,4.1
				C1359.5-272.1,1361-273.8,1361-276.2z"/>
		</g>
		<g>
			<path class="st6" d="M1365.9-266.1l0.6-2.2c0.5,0.3,1.2,0.5,1.6,0.5c0.7,0,1.2-0.2,1.6-0.8l0.5-1.1l-5.4-12.8h3.2l3.7,9.5
				l3.5-9.5h3.1l-5.4,13.5c-1,2.4-2.4,3.5-4.3,3.5C1367.8-265.4,1366.7-265.7,1365.9-266.1z"/>
		</g>
		<g>
			<path class="st6" d="M1399.4-287v17.1h-3v-2c-1,1.4-2.5,2.3-4.4,2.3c-3.4,0-5.8-2.7-5.8-6.6c0-3.9,2.4-6.6,5.8-6.6
				c1.9,0,3.4,0.8,4.4,2.3v-6.4H1399.4z M1396.4-276.2c0-2.4-1.5-4.1-3.6-4.1c-2.1,0-3.6,1.7-3.6,4.1c0,2.4,1.5,4.1,3.6,4.1
				C1394.9-272.1,1396.4-273.8,1396.4-276.2z"/>
		</g>
		<g>
			<path class="st6" d="M1401.6-276.2c0-3.6,3.1-6.6,6.8-6.6c3.7,0,6.8,3,6.8,6.6c0,3.6-3.1,6.6-6.8,6.6
				C1404.7-269.5,1401.6-272.6,1401.6-276.2z M1412.2-276.2c0-2.2-1.8-4.1-3.8-4.1c-2.1,0-3.9,1.9-3.9,4.1c0,2.2,1.8,4.1,3.9,4.1
				C1410.5-272.1,1412.2-273.9,1412.2-276.2z"/>
		</g>
		<g>
			<path class="st6" d="M1417.1-286.1c0-0.9,0.8-1.7,1.7-1.7c0.9,0,1.7,0.8,1.7,1.7c0,0.9-0.8,1.7-1.7,1.7
				C1417.8-284.4,1417.1-285.2,1417.1-286.1z M1417.3-282.5h3v12.7h-3V-282.5z"/>
		</g>
		<g>
			<path class="st6" d="M1434.7-277.9v8.1h-2.9v-7.5c0-1.7-1.1-2.9-2.7-2.9s-2.9,1.1-3.1,2.4v8h-3v-12.7h3v1.7c0.8-1.2,2.3-2,3.9-2
				C1432.8-282.8,1434.7-280.8,1434.7-277.9z"/>
		</g>
		<g>
			<path class="st6" d="M1449.9-282.5v11.3c0,3.3-2.7,5.6-6.6,5.6c-2.2,0-4.2-0.7-5.4-1.7l1.1-2.2c0.9,0.8,2.4,1.3,3.9,1.3
				c2.5,0,4.1-1.2,4.1-3.1v-1.6c-1,1.3-2.5,2.2-4.3,2.2c-3.3,0-5.7-2.5-5.7-6c0-3.5,2.4-6,5.7-6c1.8,0,3.4,0.8,4.3,2.2v-1.9H1449.9z
				 M1446.9-276.8c0-2-1.4-3.5-3.5-3.5c-2,0-3.5,1.4-3.5,3.5c0,2,1.4,3.5,3.5,3.5C1445.4-273.3,1446.9-274.8,1446.9-276.8z"/>
		</g>
		<g>
			<path class="st6" d="M1459.2-287h3v17.1h-3V-287z"/>
		</g>
		<g>
			<path class="st6" d="M1474.2-273.5l1.9,2c-1.1,1.2-3.3,2-5.1,2c-3.6,0-6.6-2.8-6.6-6.7c0-3.8,2.8-6.6,6.4-6.6
				c3.9,0,6.2,3,6.2,7.6h-9.6c0.4,1.7,1.7,3,3.5,3C1472-272.2,1473.4-272.7,1474.2-273.5z M1467.4-277.4h6.7
				c-0.3-1.6-1.4-2.7-3.2-2.7C1469.2-280.1,1467.8-279.1,1467.4-277.4z"/>
		</g>
		<g>
			<path class="st6" d="M1478.2-271.5l1.3-2.1c1.2,0.9,2.6,1.5,4.2,1.5c1.2,0,2-0.5,2-1.3c0-1-1.1-1.3-2.5-1.7
				c-2.7-0.7-4.5-1.5-4.5-3.7c0-2.4,2-4,4.8-4c1.7,0,3.5,0.6,4.9,1.5l-1.2,2.2c-1.2-0.8-2.5-1.2-3.6-1.2c-1.1,0-1.9,0.4-1.9,1.1
				c0,0.8,0.7,1.1,2.6,1.6c2.1,0.6,4.4,1.3,4.4,4c0,2.4-2,4-5,4C1481.8-269.5,1479.7-270.2,1478.2-271.5z"/>
		</g>
		<g>
			<path class="st6" d="M1489.9-271.5l1.3-2.1c1.2,0.9,2.6,1.5,4.2,1.5c1.2,0,2-0.5,2-1.3c0-1-1.1-1.3-2.5-1.7
				c-2.7-0.7-4.5-1.5-4.5-3.7c0-2.4,2-4,4.8-4c1.7,0,3.5,0.6,4.9,1.5l-1.2,2.2c-1.2-0.8-2.5-1.2-3.6-1.2c-1.1,0-1.9,0.4-1.9,1.1
				c0,0.8,0.7,1.1,2.6,1.6c2.1,0.6,4.4,1.3,4.4,4c0,2.4-2,4-5,4C1493.5-269.5,1491.5-270.2,1489.9-271.5z"/>
		</g>
		<g>
			<path class="st6" d="M1502.4-271.5c0-1,0.8-1.9,2-1.9c1,0,1.9,0.9,1.9,1.9c0,1.1-0.9,2-1.9,2
				C1503.2-269.5,1502.4-270.4,1502.4-271.5z"/>
		</g>
	</g>
</g>
<g>
	<g>
		<g>
			<path class="st8" d="M2015.6,79h20.6l29.9,54.5l29.8-54.5h20.8v96.4h-20.8v-60.1l-29.8,54.5l-29.9-54.5v60.1h-20.6V79z"/>
		</g>
		<g>
			<path class="st8" d="M2127.6,139.1c0-20.6,18.1-37.9,39.7-37.9c21.5,0,39.4,17.3,39.4,37.9s-18,38-39.4,38
				C2145.7,177.1,2127.6,159.7,2127.6,139.1z M2187.2,139.1c0-11.2-9.1-20.6-19.9-20.6c-10.9,0-20.1,9.4-20.1,20.6
				c0,11.2,9.1,20.8,20.1,20.8C2178.1,159.9,2187.2,150.3,2187.2,139.1z"/>
		</g>
		<g>
			<path class="st8" d="M2286.7,129.3v46.2h-19.8v-41.8c0-9-5.6-15.2-13.8-15.2c-8.6,0-15.2,6.2-15.2,14l-0.1-0.4v43.4h-20.5v-72.6
				h20.5v9.1c4.3-6.6,12.5-10.8,21.9-10.8C2275.5,101.2,2286.7,112.9,2286.7,129.3z"/>
		</g>
		<g>
			<path class="st8" d="M2351.6,152.6l13.1,13.3c-6.5,6.7-18.9,11.2-29.6,11.2c-21.6,0-38.5-15.9-38.5-38.2
				c0-21.9,16.1-37.8,37.3-37.8c22.7,0,36.1,17.3,36.1,44.6h-52.4c2.4,7.9,8.7,13.2,17.3,13.2C2340.7,159,2347.7,156.4,2351.6,152.6
				z M2318,131.1h32.4c-2-7.2-7.3-11.8-15.6-11.8C2327.1,119.3,2320.6,123.8,2318,131.1z"/>
		</g>
		<g>
			<path class="st8" d="M2421.1,170.8c-4.2,3.8-10.8,6.3-16.7,6.3c-12.8,0-21.8-9.1-21.8-22.2v-35.5h-10v-16.6h10V83h19.7v19.9h15.7
				v16.6h-15.7v32.3c0,4.8,3.1,8.1,6.9,8.1c2.8,0,5.6-1,7-2.4L2421.1,170.8z"/>
		</g>
		<g>
			<path class="st8" d="M2466.2,170.8c-4.2,3.8-10.8,6.3-16.7,6.3c-12.8,0-21.8-9.1-21.8-22.2v-35.5h-10v-16.6h10V83h19.7v19.9h15.7
				v16.6h-15.7v32.3c0,4.8,3.1,8.1,6.9,8.1c2.8,0,5.6-1,7-2.4L2466.2,170.8z"/>
		</g>
		<g>
			<path class="st8" d="M2541.2,132.1v43.4h-19.8v-7.3c-5.2,5.9-13.5,9-21.3,9c-15.4,0-27.4-9.3-27.4-23.2
				c0-14.3,13.3-24.1,30.2-24.1c5.9,0,12.4,1.3,18.5,3.7v-1.4c0-7.7-4.8-14.5-16.7-14.5c-6.7,0-13.1,2.2-18.8,5.2l-6.9-13.6
				c10.2-5.2,20.2-8,30.3-8C2528.3,101.2,2541.2,113.1,2541.2,132.1z M2521.4,152.6v-6.7c-4.6-1.7-10-2.7-15.6-2.7
				c-7.4,0-13.3,4.3-13.3,10.2c0,5.9,5.2,9.5,12.2,9.5C2512.6,163,2520,159.3,2521.4,152.6z"/>
		</g>
	</g>
	<g>
		<g>
			<path class="st8" d="M1900.6,26.4l-44.7-25.8c-0.6-0.4-1.3-0.5-2-0.5s-1.4,0.2-2,0.5l-45,26c-1.6,1.1-1.5,3.5,0.2,4.5l46.8,27
				l46.7-27C1902.4,29.9,1902.4,27.4,1900.6,26.4z"/>
		</g>
		<g>
			<path class="st8" d="M1742.9,130.7c0,1.4,0.8,2.7,2,3.5l48.7,28.2v-56.4c0-1.3-0.7-2.5-1.7-3.2l-28-16.1l-17-9.8
				c-0.4-0.2-0.9-0.4-1.3-0.4c-1.4,0-2.7,1.1-2.7,2.7V130.7z"/>
		</g>
		<g>
			<path class="st8" d="M1951.4,55.7l-47.5-27.4c0,0.1,0,0.3,0,0.4c0,1.7-0.9,3.2-2.3,4l-45.7,26.4l46.8,27c1.2,0.7,2.8,0.7,4,0
				l44.7-25.8C1953.2,59.3,1953.2,56.7,1951.4,55.7z"/>
		</g>
		<g>
			<g>
				<path class="st8" d="M1792.6,103.3c-0.2-0.2-0.5-0.5-0.7-0.6l0,0C1792.2,102.9,1792.4,103.1,1792.6,103.3z"/>
			</g>
			<g>
				<path class="st8" d="M1842.5,131.8l-47-27.1c0.1,0.4,0.1,0.8,0.1,1.2v56.4v1.2l44.8,25.9c1.8,1,4-0.3,4-2.3v-51.8
					C1844.4,133.9,1843.7,132.6,1842.5,131.8z"/>
			</g>
		</g>
		<g>
			<g>
				<path class="st8" d="M1807.2,30.9l23.4,13.5L1807.2,30.9c-0.4-0.2-0.7-0.6-1-1C1806.4,30.4,1806.7,30.7,1807.2,30.9z"/>
			</g>
			<g>
				<path class="st8" d="M1806.2,32.7c-1.4-0.8-2.2-2.2-2.3-3.8c0-0.2,0-0.4,0-0.6l-47.4,27.4c-1.8,1-1.8,3.6,0,4.6l44.7,25.8
					c1.2,0.7,2.8,0.7,4,0l46.8-27L1806.2,32.7z"/>
			</g>
		</g>
		<g>
			<path class="st8" d="M1792.6,164l-48.7-28.2c-0.4-0.2-0.7-0.5-1-0.7v54.3c0,1.4,0.8,2.7,2,3.5l44.7,25.8c1.8,1,4-0.3,4-2.3v-51.8
				L1792.6,164z"/>
		</g>
		<g>
			<path class="st8" d="M1964.9,130.7c0,1.4-0.8,2.7-2,3.5l-48.7,28.2v-56.4c0-1.3,0.7-2.5,1.7-3.2l28-16.1l17-9.8
				c0.4-0.2,0.9-0.4,1.3-0.4c1.4,0,2.7,1.1,2.7,2.7V130.7z"/>
		</g>
		<g>
			<g>
				<path class="st8" d="M1915.2,103.3c0.2-0.2,0.5-0.5,0.7-0.6l0,0C1915.7,102.9,1915.4,103.1,1915.2,103.3z"/>
			</g>
			<g>
				<path class="st8" d="M1865.4,131.8l47-27.1c-0.1,0.4-0.1,0.8-0.1,1.2v56.4v1.2l-44.8,25.9c-1.8,1-4-0.3-4-2.3v-51.8
					C1863.4,133.9,1864.2,132.6,1865.4,131.8z"/>
			</g>
		</g>
		<g>
			<path class="st8" d="M1915.2,164l48.7-28.2c0.4-0.2,0.7-0.5,1-0.7v54.3c0,1.4-0.8,2.7-2,3.5l-44.7,25.8c-1.8,1-4-0.3-4-2.3v-51.8
				L1915.2,164z"/>
		</g>
	</g>
</g>
<g>
	<g>
		<g>
			<path class="st8" d="M867.1,26.4L822.4,0.5c-0.6-0.4-1.3-0.5-2-0.5s-1.4,0.2-2,0.5l-45,26c-1.6,1.1-1.5,3.5,0.2,4.5l46.8,27
				l46.7-27C868.9,29.9,868.9,27.4,867.1,26.4z"/>
		</g>
		<g>
			<path class="st8" d="M709.4,130.7c0,1.4,0.8,2.7,2,3.5l48.7,28.2v-56.4c0-1.3-0.7-2.5-1.7-3.2l-28-16.1l-17-9.8
				c-0.4-0.2-0.9-0.4-1.3-0.4c-1.4,0-2.7,1.1-2.7,2.7V130.7z"/>
		</g>
		<g>
			<path class="st8" d="M917.9,55.7l-47.5-27.4c0,0.1,0,0.3,0,0.4c0,1.7-0.9,3.2-2.3,4l-45.7,26.4l46.8,27c1.2,0.7,2.8,0.7,4,0
				l44.7-25.8C919.7,59.3,919.7,56.7,917.9,55.7z"/>
		</g>
		<g>
			<g>
				<path class="st8" d="M759.1,103.3c-0.2-0.2-0.5-0.5-0.7-0.6l0,0C758.7,102.9,758.9,103.1,759.1,103.3z"/>
			</g>
			<g>
				<path class="st8" d="M808.9,131.8l-47-27.1c0.1,0.4,0.1,0.8,0.1,1.2v56.4v1.2l44.8,25.9c1.8,1,4-0.3,4-2.3v-51.8
					C810.9,133.9,810.2,132.6,808.9,131.8z"/>
			</g>
		</g>
		<g>
			<g>
				<path class="st8" d="M773.7,30.9L797,44.4L773.7,30.9c-0.4-0.2-0.7-0.6-1-1C772.9,30.4,773.2,30.7,773.7,30.9z"/>
			</g>
			<g>
				<path class="st8" d="M772.7,32.7c-1.4-0.8-2.2-2.2-2.3-3.8c0-0.2,0-0.4,0-0.6l-47.4,27.4c-1.8,1-1.8,3.6,0,4.6l44.7,25.8
					c1.2,0.7,2.8,0.7,4,0l46.8-27L772.7,32.7z"/>
			</g>
		</g>
		<g>
			<path class="st8" d="M759.1,164l-48.7-28.2c-0.4-0.2-0.7-0.5-1-0.7v54.3c0,1.4,0.8,2.7,2,3.5l44.7,25.8c1.8,1,4-0.3,4-2.3v-51.8
				L759.1,164z"/>
		</g>
		<g>
			<path class="st8" d="M931.4,130.7c0,1.4-0.8,2.7-2,3.5l-48.7,28.2v-56.4c0-1.3,0.7-2.5,1.7-3.2l28-16.1l17-9.8
				c0.4-0.2,0.9-0.4,1.3-0.4c1.4,0,2.7,1.1,2.7,2.7V130.7z"/>
		</g>
		<g>
			<g>
				<path class="st8" d="M881.7,103.3c0.2-0.2,0.5-0.5,0.7-0.6l0,0C882.2,102.9,881.9,103.1,881.7,103.3z"/>
			</g>
			<g>
				<path class="st8" d="M831.9,131.8l47-27.1c-0.1,0.4-0.1,0.8-0.1,1.2v56.4v1.2l-44.8,25.9c-1.8,1-4-0.3-4-2.3v-51.8
					C829.9,133.9,830.6,132.6,831.9,131.8z"/>
			</g>
		</g>
		<g>
			<path class="st8" d="M881.7,164l48.7-28.2c0.4-0.2,0.7-0.5,1-0.7v54.3c0,1.4-0.8,2.7-2,3.5l-44.7,25.8c-1.8,1-4-0.3-4-2.3v-51.8
				L881.7,164z"/>
		</g>
	</g>
	<g>
		<g>
			<path class="st8" d="M982.1,79h20.6l29.9,54.4l29.7-54.4h20.8v96.3h-20.8v-60l-29.7,54.4l-29.9-54.4v60h-20.6V79z"/>
		</g>
		<g>
			<path class="st8" d="M1094,139.1c0-20.6,18.1-37.9,39.7-37.9c21.5,0,39.4,17.2,39.4,37.9s-17.9,38-39.4,38
				C1112.1,177.1,1094,159.7,1094,139.1z M1153.6,139.1c0-11.2-9.1-20.6-19.9-20.6c-10.9,0-20.1,9.4-20.1,20.6s9.1,20.8,20.1,20.8
				C1144.5,159.8,1153.6,150.3,1153.6,139.1z"/>
		</g>
		<g>
			<path class="st8" d="M1253,129.2v46.1h-19.8v-41.8c0-9-5.6-15.1-13.7-15.1c-8.6,0-15.1,6.2-15.1,14l-0.1-0.4v43.3h-20.5v-72.5
				h20.5v9.1c4.3-6.6,12.5-10.8,21.9-10.8C1241.8,101.2,1253,112.8,1253,129.2z"/>
		</g>
		<g>
			<path class="st8" d="M1317.8,152.5l13,13.3c-6.4,6.7-18.9,11.2-29.6,11.2c-21.6,0-38.4-15.8-38.4-38.1
				c0-21.9,16.1-37.7,37.3-37.7c22.7,0,36,17.2,36,44.6h-52.3c2.4,7.9,8.7,13.2,17.2,13.2C1306.9,159,1313.9,156.3,1317.8,152.5z
				 M1284.2,131.1h32.4c-2-7.2-7.3-11.8-15.6-11.8C1293.3,119.3,1286.8,123.8,1284.2,131.1z"/>
		</g>
		<g>
			<path class="st8" d="M1387.2,170.7c-4.2,3.8-10.8,6.3-16.7,6.3c-12.8,0-21.7-9.1-21.7-22.2v-35.5h-10v-16.5h10V83h19.6v19.9h15.7
				v16.5h-15.7v32.3c0,4.8,3.1,8.1,6.9,8.1c2.8,0,5.6-1,7-2.4L1387.2,170.7z"/>
		</g>
		<g>
			<path class="st8" d="M1432.3,170.7c-4.2,3.8-10.8,6.3-16.7,6.3c-12.8,0-21.7-9.1-21.7-22.2v-35.5h-10v-16.5h10V83h19.6v19.9h15.7
				v16.5h-15.7v32.3c0,4.8,3.1,8.1,6.9,8.1c2.8,0,5.6-1,7-2.4L1432.3,170.7z"/>
		</g>
		<g>
			<path class="st8" d="M1507.2,132v43.3h-19.8v-7.3c-5.2,5.9-13.5,9-21.3,9c-15.4,0-27.3-9.3-27.3-23.1c0-14.3,13.3-24.1,30.2-24.1
				c5.9,0,12.3,1.3,18.5,3.6V132c0-7.7-4.8-14.4-16.7-14.4c-6.7,0-13,2.2-18.8,5.2l-6.9-13.6c10.2-5.2,20.2-8,30.3-8
				C1494.3,101.2,1507.2,113.1,1507.2,132z M1487.4,152.5v-6.7c-4.6-1.7-10-2.7-15.6-2.7c-7.4,0-13.3,4.3-13.3,10.2
				c0,5.9,5.2,9.5,12.2,9.5C1478.6,162.9,1486,159.2,1487.4,152.5z"/>
		</g>
	</g>
	<g>
		<g>
			<path class="st8" d="M991.6,204.8h7.2v6.8c-1.6,1.7-4.2,2.7-6.7,2.7c-4.8,0-8.9-4-8.9-8.7s4.1-8.7,8.9-8.7c2.4,0,5.1,1,6.7,2.7
				l-2.2,2c-1.1-1.2-2.9-2-4.5-2c-3.1,0-5.8,2.7-5.8,5.9c0,3.2,2.6,5.9,5.8,5.9c1.3,0,2.6-0.4,3.7-1.2v-3.1h-4.2V204.8z"/>
		</g>
		<g>
			<path class="st8" d="M1010.7,210.4l1.9,2c-1.1,1.2-3.3,2-5.1,2c-3.6,0-6.6-2.8-6.6-6.7c0-3.8,2.8-6.6,6.4-6.6
				c3.9,0,6.2,3,6.2,7.6h-9.6c0.4,1.7,1.7,3,3.5,3C1008.6,211.7,1010,211.2,1010.7,210.4z M1003.9,206.5h6.7
				c-0.3-1.6-1.4-2.7-3.2-2.7C1005.7,203.7,1004.4,204.8,1003.9,206.5z"/>
		</g>
		<g>
			<path class="st8" d="M1022.7,213.3c-0.7,0.6-1.7,1-2.7,1c-2.1,0-3.6-1.5-3.6-3.6v-6.8h-1.8v-2.5h1.8v-3.5h2.9v3.5h2.9v2.5h-2.9
				v6.5c0,0.9,0.5,1.5,1.2,1.5c0.5,0,1-0.2,1.2-0.5L1022.7,213.3z"/>
		</g>
		<g>
			<path class="st8" d="M1050.3,206v8.1h-2.9v-7.6c0-1.7-1-2.8-2.4-2.8c-1.6,0-2.8,1.1-2.8,2.6v7.8h-2.9v-7.6c0-1.7-1-2.8-2.5-2.8
				c-1.6,0-2.8,1.1-2.8,2.6v7.8h-3v-12.7h3v1.7c0.6-1.2,1.9-2,3.5-2c1.8,0,3.3,0.9,4,2.4c0.6-1.5,2.2-2.4,4.1-2.4
				C1048.3,201.1,1050.3,203.1,1050.3,206z"/>
		</g>
		<g>
			<path class="st8" d="M1052.4,207.7c0-3.6,3.1-6.6,6.8-6.6c3.7,0,6.8,3,6.8,6.6c0,3.6-3.1,6.6-6.8,6.6
				C1055.5,214.3,1052.4,211.3,1052.4,207.7z M1063,207.7c0-2.2-1.8-4.1-3.8-4.1c-2.1,0-3.9,1.9-3.9,4.1c0,2.2,1.8,4.1,3.9,4.1
				C1061.2,211.8,1063,209.9,1063,207.7z"/>
		</g>
		<g>
			<path class="st8" d="M1075.6,201.1v2.5c-2.7,0-4.5,1.6-4.5,4v6.4h-3v-12.7h3v2.4C1071.9,202.1,1073.5,201.1,1075.6,201.1z"/>
		</g>
		<g>
			<path class="st8" d="M1086.5,210.4l1.9,2c-1.1,1.2-3.3,2-5.1,2c-3.6,0-6.6-2.8-6.6-6.7c0-3.8,2.8-6.6,6.4-6.6
				c3.9,0,6.2,3,6.2,7.6h-9.6c0.4,1.7,1.7,3,3.5,3C1084.4,211.7,1085.8,211.2,1086.5,210.4z M1079.8,206.5h6.7
				c-0.3-1.6-1.4-2.7-3.2-2.7C1081.6,203.7,1080.2,204.8,1079.8,206.5z"/>
		</g>
		<g>
			<path class="st8" d="M1097.2,207.7c0-3.6,3.1-6.6,6.8-6.6c3.7,0,6.8,3,6.8,6.6c0,3.6-3.1,6.6-6.8,6.6
				C1100.3,214.3,1097.2,211.3,1097.2,207.7z M1107.8,207.7c0-2.2-1.8-4.1-3.8-4.1c-2.1,0-3.9,1.9-3.9,4.1c0,2.2,1.8,4.1,3.9,4.1
				C1106.1,211.8,1107.8,209.9,1107.8,207.7z"/>
		</g>
		<g>
			<path class="st8" d="M1124.4,201.4v12.7h-3v-1.7c-0.8,1.2-2.3,2-3.9,2c-2.8,0-4.7-2-4.7-4.9v-8.1h2.9v7.5c0,1.7,1.1,2.9,2.7,2.9
				s2.9-1.1,3.1-2.4v-8H1124.4z"/>
		</g>
		<g>
			<path class="st8" d="M1134.4,213.3c-0.7,0.6-1.7,1-2.7,1c-2.1,0-3.6-1.5-3.6-3.6v-6.8h-1.8v-2.5h1.8v-3.5h2.9v3.5h2.9v2.5h-2.9
				v6.5c0,0.9,0.5,1.5,1.2,1.5c0.5,0,1-0.2,1.2-0.5L1134.4,213.3z"/>
		</g>
		<g>
			<path class="st8" d="M1142,207.7c0-3.6,3.1-6.6,6.8-6.6c3.7,0,6.8,3,6.8,6.6c0,3.6-3.1,6.6-6.8,6.6
				C1145.1,214.3,1142,211.3,1142,207.7z M1152.6,207.7c0-2.2-1.8-4.1-3.8-4.1c-2.1,0-3.9,1.9-3.9,4.1c0,2.2,1.8,4.1,3.9,4.1
				C1150.9,211.8,1152.6,209.9,1152.6,207.7z"/>
		</g>
		<g>
			<path class="st8" d="M1161.5,201.4h2.9v2.5h-2.9v10.2h-2.9v-10.2h-1.8v-2.5h1.8v-1.3c0-2.1,1.5-3.7,3.6-3.7c1,0,2,0.4,2.7,1
				l-0.9,1.9c-0.3-0.3-0.7-0.5-1.2-0.5c-0.7,0-1.2,0.6-1.2,1.5V201.4z"/>
		</g>
		<g>
			<path class="st8" d="M1172.5,217.8l0.6-2.2c0.5,0.3,1.2,0.5,1.6,0.5c0.7,0,1.2-0.2,1.6-0.8l0.5-1.1l-5.4-12.8h3.2l3.7,9.5
				l3.5-9.5h3.1l-5.4,13.5c-1,2.4-2.4,3.5-4.3,3.5C1174.3,218.5,1173.3,218.2,1172.5,217.8z"/>
		</g>
		<g>
			<path class="st8" d="M1185.6,207.7c0-3.6,3.1-6.6,6.8-6.6c3.7,0,6.8,3,6.8,6.6c0,3.6-3.1,6.6-6.8,6.6
				C1188.8,214.3,1185.6,211.3,1185.6,207.7z M1196.3,207.7c0-2.2-1.8-4.1-3.8-4.1c-2.1,0-3.9,1.9-3.9,4.1c0,2.2,1.8,4.1,3.9,4.1
				C1194.5,211.8,1196.3,209.9,1196.3,207.7z"/>
		</g>
		<g>
			<path class="st8" d="M1212.9,201.4v12.7h-3v-1.7c-0.8,1.2-2.3,2-3.9,2c-2.8,0-4.7-2-4.7-4.9v-8.1h2.9v7.5c0,1.7,1.1,2.9,2.7,2.9
				s2.9-1.1,3.1-2.4v-8H1212.9z"/>
		</g>
		<g>
			<path class="st8" d="M1223.3,201.1v2.5c-2.7,0-4.5,1.6-4.5,4v6.4h-3v-12.7h3v2.4C1219.6,202.1,1221.2,201.1,1223.3,201.1z"/>
		</g>
		<g>
			<path class="st8" d="M1250.7,206v8.1h-2.9v-7.6c0-1.7-1-2.8-2.4-2.8c-1.6,0-2.8,1.1-2.8,2.6v7.8h-2.9v-7.6c0-1.7-1-2.8-2.5-2.8
				c-1.6,0-2.8,1.1-2.8,2.6v7.8h-3v-12.7h3v1.7c0.6-1.2,1.9-2,3.5-2c1.8,0,3.3,0.9,4,2.4c0.6-1.5,2.2-2.4,4.1-2.4
				C1248.7,201.1,1250.7,203.1,1250.7,206z"/>
		</g>
		<g>
			<path class="st8" d="M1262.6,210.4l1.9,2c-1.1,1.2-3.3,2-5.1,2c-3.6,0-6.6-2.8-6.6-6.7c0-3.8,2.8-6.6,6.4-6.6
				c3.9,0,6.2,3,6.2,7.6h-9.6c0.4,1.7,1.7,3,3.5,3C1260.5,211.7,1261.9,211.2,1262.6,210.4z M1255.9,206.5h6.7
				c-0.3-1.6-1.4-2.7-3.2-2.7C1257.6,203.7,1256.3,204.8,1255.9,206.5z"/>
		</g>
		<g>
			<path class="st8" d="M1276.7,210.4l1.9,2c-1.1,1.2-3.3,2-5.1,2c-3.6,0-6.6-2.8-6.6-6.7c0-3.8,2.8-6.6,6.4-6.6
				c3.9,0,6.2,3,6.2,7.6h-9.6c0.4,1.7,1.7,3,3.5,3C1274.6,211.7,1276,211.2,1276.7,210.4z M1269.9,206.5h6.7
				c-0.3-1.6-1.4-2.7-3.2-2.7C1271.7,203.7,1270.4,204.8,1269.9,206.5z"/>
		</g>
		<g>
			<path class="st8" d="M1288.7,213.3c-0.7,0.6-1.7,1-2.7,1c-2.1,0-3.6-1.5-3.6-3.6v-6.8h-1.8v-2.5h1.8v-3.5h2.9v3.5h2.9v2.5h-2.9
				v6.5c0,0.9,0.5,1.5,1.2,1.5c0.5,0,1-0.2,1.2-0.5L1288.7,213.3z"/>
		</g>
		<g>
			<path class="st8" d="M1290.4,197.8c0-0.9,0.8-1.7,1.7-1.7c0.9,0,1.7,0.8,1.7,1.7c0,0.9-0.8,1.7-1.7,1.7
				C1291.1,199.5,1290.4,198.7,1290.4,197.8z M1290.6,201.4h3v12.7h-3V201.4z"/>
		</g>
		<g>
			<path class="st8" d="M1308,206v8.1h-2.9v-7.5c0-1.7-1.1-2.9-2.7-2.9s-2.9,1.1-3.1,2.4v8h-3v-12.7h3v1.7c0.8-1.2,2.3-2,3.9-2
				C1306.1,201.1,1308,203.1,1308,206z"/>
		</g>
		<g>
			<path class="st8" d="M1323.2,201.4v11.3c0,3.3-2.7,5.6-6.6,5.6c-2.2,0-4.2-0.7-5.4-1.7l1.1-2.2c0.9,0.8,2.4,1.3,3.9,1.3
				c2.5,0,4.1-1.2,4.1-3.1V211c-1,1.3-2.5,2.2-4.3,2.2c-3.3,0-5.7-2.5-5.7-6s2.4-6,5.7-6c1.8,0,3.4,0.8,4.3,2.2v-1.9H1323.2z
				 M1320.2,207.1c0-2-1.4-3.5-3.5-3.5c-2,0-3.5,1.4-3.5,3.5c0,2,1.4,3.5,3.5,3.5C1318.7,210.6,1320.2,209.1,1320.2,207.1z"/>
		</g>
		<g>
			<path class="st8" d="M1325.2,212.4l1.3-2.1c1.2,0.9,2.6,1.5,4.2,1.5c1.2,0,2-0.5,2-1.3c0-1-1.1-1.3-2.5-1.7
				c-2.7-0.7-4.5-1.5-4.5-3.7c0-2.4,2-4,4.8-4c1.7,0,3.5,0.6,4.9,1.5l-1.2,2.2c-1.2-0.8-2.5-1.2-3.6-1.2c-1.1,0-1.9,0.4-1.9,1.1
				c0,0.8,0.7,1.1,2.6,1.6c2.1,0.6,4.4,1.3,4.4,4c0,2.4-2,4-5,4C1328.8,214.3,1326.7,213.7,1325.2,212.4z"/>
		</g>
		<g>
			<path class="st8" d="M1338.1,216.6c0.7-0.7,1.2-1.5,1.4-2.3c-1,0-1.9-0.9-1.9-1.9c0-1,0.9-1.9,1.9-1.9c1.2,0,2.1,1.1,2.1,2.7
				c0,1.3-0.7,2.6-2.4,4.4L1338.1,216.6z"/>
		</g>
		<g>
			<path class="st8" d="M1363.9,207.7c0,3.9-2.4,6.6-5.8,6.6c-1.9,0-3.4-0.9-4.4-2.3v2h-3v-17.1h3v6.5c1-1.4,2.5-2.3,4.4-2.3
				C1361.5,201.1,1363.9,203.8,1363.9,207.7z M1361,207.7c0-2.4-1.5-4.1-3.6-4.1c-2.1,0-3.6,1.7-3.6,4.1c0,2.4,1.5,4.1,3.6,4.1
				C1359.5,211.8,1361,210.1,1361,207.7z"/>
		</g>
		<g>
			<path class="st8" d="M1365.9,217.8l0.6-2.2c0.5,0.3,1.2,0.5,1.6,0.5c0.7,0,1.2-0.2,1.6-0.8l0.5-1.1l-5.4-12.8h3.2l3.7,9.5
				l3.5-9.5h3.1l-5.4,13.5c-1,2.4-2.4,3.5-4.3,3.5C1367.8,218.5,1366.7,218.2,1365.9,217.8z"/>
		</g>
		<g>
			<path class="st8" d="M1399.4,196.9v17.1h-3v-2c-1,1.4-2.5,2.3-4.4,2.3c-3.4,0-5.8-2.7-5.8-6.6c0-3.9,2.4-6.6,5.8-6.6
				c1.9,0,3.4,0.8,4.4,2.3v-6.4H1399.4z M1396.4,207.7c0-2.4-1.5-4.1-3.6-4.1c-2.1,0-3.6,1.7-3.6,4.1c0,2.4,1.5,4.1,3.6,4.1
				C1394.9,211.8,1396.4,210.1,1396.4,207.7z"/>
		</g>
		<g>
			<path class="st8" d="M1401.6,207.7c0-3.6,3.1-6.6,6.8-6.6c3.7,0,6.8,3,6.8,6.6c0,3.6-3.1,6.6-6.8,6.6
				C1404.7,214.3,1401.6,211.3,1401.6,207.7z M1412.2,207.7c0-2.2-1.8-4.1-3.8-4.1c-2.1,0-3.9,1.9-3.9,4.1c0,2.2,1.8,4.1,3.9,4.1
				C1410.5,211.8,1412.2,209.9,1412.2,207.7z"/>
		</g>
		<g>
			<path class="st8" d="M1417.1,197.8c0-0.9,0.8-1.7,1.7-1.7c0.9,0,1.7,0.8,1.7,1.7c0,0.9-0.8,1.7-1.7,1.7
				C1417.8,199.5,1417.1,198.7,1417.1,197.8z M1417.3,201.4h3v12.7h-3V201.4z"/>
		</g>
		<g>
			<path class="st8" d="M1434.7,206v8.1h-2.9v-7.5c0-1.7-1.1-2.9-2.7-2.9s-2.9,1.1-3.1,2.4v8h-3v-12.7h3v1.7c0.8-1.2,2.3-2,3.9-2
				C1432.8,201.1,1434.7,203.1,1434.7,206z"/>
		</g>
		<g>
			<path class="st8" d="M1449.9,201.4v11.3c0,3.3-2.7,5.6-6.6,5.6c-2.2,0-4.2-0.7-5.4-1.7l1.1-2.2c0.9,0.8,2.4,1.3,3.9,1.3
				c2.5,0,4.1-1.2,4.1-3.1V211c-1,1.3-2.5,2.2-4.3,2.2c-3.3,0-5.7-2.5-5.7-6s2.4-6,5.7-6c1.8,0,3.4,0.8,4.3,2.2v-1.9H1449.9z
				 M1446.9,207.1c0-2-1.4-3.5-3.5-3.5c-2,0-3.5,1.4-3.5,3.5c0,2,1.4,3.5,3.5,3.5C1445.4,210.6,1446.9,209.1,1446.9,207.1z"/>
		</g>
		<g>
			<path class="st8" d="M1459.2,196.9h3v17.1h-3V196.9z"/>
		</g>
		<g>
			<path class="st8" d="M1474.2,210.4l1.9,2c-1.1,1.2-3.3,2-5.1,2c-3.6,0-6.6-2.8-6.6-6.7c0-3.8,2.8-6.6,6.4-6.6
				c3.9,0,6.2,3,6.2,7.6h-9.6c0.4,1.7,1.7,3,3.5,3C1472,211.7,1473.4,211.2,1474.2,210.4z M1467.4,206.5h6.7
				c-0.3-1.6-1.4-2.7-3.2-2.7C1469.2,203.7,1467.8,204.8,1467.4,206.5z"/>
		</g>
		<g>
			<path class="st8" d="M1478.2,212.4l1.3-2.1c1.2,0.9,2.6,1.5,4.2,1.5c1.2,0,2-0.5,2-1.3c0-1-1.1-1.3-2.5-1.7
				c-2.7-0.7-4.5-1.5-4.5-3.7c0-2.4,2-4,4.8-4c1.7,0,3.5,0.6,4.9,1.5l-1.2,2.2c-1.2-0.8-2.5-1.2-3.6-1.2c-1.1,0-1.9,0.4-1.9,1.1
				c0,0.8,0.7,1.1,2.6,1.6c2.1,0.6,4.4,1.3,4.4,4c0,2.4-2,4-5,4C1481.8,214.3,1479.7,213.7,1478.2,212.4z"/>
		</g>
		<g>
			<path class="st8" d="M1489.9,212.4l1.3-2.1c1.2,0.9,2.6,1.5,4.2,1.5c1.2,0,2-0.5,2-1.3c0-1-1.1-1.3-2.5-1.7
				c-2.7-0.7-4.5-1.5-4.5-3.7c0-2.4,2-4,4.8-4c1.7,0,3.5,0.6,4.9,1.5l-1.2,2.2c-1.2-0.8-2.5-1.2-3.6-1.2c-1.1,0-1.9,0.4-1.9,1.1
				c0,0.8,0.7,1.1,2.6,1.6c2.1,0.6,4.4,1.3,4.4,4c0,2.4-2,4-5,4C1493.5,214.3,1491.5,213.7,1489.9,212.4z"/>
		</g>
		<g>
			<path class="st8" d="M1502.4,212.4c0-1,0.8-1.9,2-1.9c1,0,1.9,0.9,1.9,1.9c0,1.1-0.9,2-1.9,2
				C1503.2,214.3,1502.4,213.5,1502.4,212.4z"/>
		</g>
	</g>
</g>
<g>
	<g>
		<path class="st8" d="M264.4,55.9l-60.8-35.1c-0.8-0.5-1.8-0.7-2.7-0.7s-1.9,0.2-2.7,0.7L137.1,56c-2.1,1.5-2,4.7,0.3,6.1
			l63.5,36.7l63.5-36.6C266.8,60.7,266.8,57.2,264.4,55.9z"/>
		<path class="st8" d="M50.1,197.6c0,1.9,1,3.7,2.7,4.7l66.2,38.3v-76.6c0-1.8-0.9-3.4-2.3-4.4l-38-21.9l-23.2-13.3
			c-0.6-0.3-1.2-0.5-1.8-0.5c-1.9,0-3.6,1.5-3.6,3.6V197.6z"/>
		<g>
			<path class="st8" d="M333.3,95.7l-64.5-37.2c0,0.2,0,0.4,0,0.5c0,2.3-1.2,4.3-3.2,5.5l-62.1,35.9l63.6,36.7c1.7,1,3.7,1,5.4,0
				l60.8-35.1C335.8,100.6,335.8,97.1,333.3,95.7z"/>
		</g>
		<g>
			<g>
				<path class="st8" d="M117.6,160.4c-0.3-0.3-0.6-0.6-1-0.9l0,0C117,159.8,117.3,160.1,117.6,160.4z"/>
			</g>
			<g>
				<path class="st8" d="M185.3,199.2l-63.8-36.8c0.1,0.5,0.2,1.1,0.2,1.6v76.6v1.6l60.9,35.2c2.4,1.4,5.4-0.3,5.4-3.1v-70.4
					C188,201.9,187,200.1,185.3,199.2z"/>
			</g>
		</g>
		<g>
			<g>
				<path class="st8" d="M137.4,62.1l31.8,18.3L137.4,62.1c-0.6-0.3-1-0.8-1.3-1.3C136.3,61.3,136.8,61.8,137.4,62.1z"/>
			</g>
			<g>
				<path class="st8" d="M136,64.4c-1.9-1.1-3-3-3.1-5.2c0-0.3,0-0.5,0-0.8L68.4,95.7c-2.4,1.4-2.4,4.9,0,6.3l60.8,35.1
					c1.7,1,3.7,1,5.4,0l63.6-36.7L136,64.4z"/>
			</g>
		</g>
		<g>
			<path class="st8" d="M117.6,242.9l-66.2-38.3c-0.5-0.3-0.9-0.6-1.3-1v73.7c0,1.9,1,3.7,2.7,4.7l60.8,35.1
				c2.4,1.4,5.4-0.3,5.4-3.1v-70.3L117.6,242.9z"/>
		</g>
		<path class="st8" d="M351.7,197.6c0,1.9-1,3.7-2.7,4.7l-66.2,38.3v-76.6c0-1.8,0.9-3.4,2.3-4.4l38-21.9l23.2-13.3
			c0.6-0.3,1.2-0.5,1.8-0.5c1.9,0,3.6,1.5,3.6,3.6V197.6z"/>
		<g>
			<g>
				<path class="st8" d="M284.2,160.4c0.3-0.3,0.6-0.6,1-0.9l0,0C284.8,159.8,284.5,160.1,284.2,160.4z"/>
			</g>
			<g>
				<path class="st8" d="M216.5,199.2l63.8-36.8c-0.1,0.5-0.2,1.1-0.2,1.6v76.6v1.6l-60.9,35.2c-2.4,1.4-5.4-0.3-5.4-3.1v-70.4
					C213.8,201.9,214.8,200.1,216.5,199.2z"/>
			</g>
		</g>
		<g>
			<path class="st8" d="M284.2,242.9l66.2-38.3c0.5-0.3,0.9-0.6,1.3-1v73.7c0,1.9-1,3.7-2.7,4.7l-60.8,35.1
				c-2.4,1.4-5.4-0.3-5.4-3.1v-70.3L284.2,242.9z"/>
		</g>
	</g>
</g>
<g>
	<g>
		<path class="st8" d="M-455.4,26.4l-44.7-25.8c-0.6-0.4-1.3-0.5-2-0.5s-1.4,0.2-2,0.5l-45,26c-1.6,1.1-1.5,3.5,0.2,4.5l46.8,27
			l46.7-27C-453.6,29.9-453.6,27.4-455.4,26.4z"/>
		<path class="st8" d="M-613.1,130.7c0,1.4,0.8,2.7,2,3.5l48.7,28.2v-56.4c0-1.3-0.7-2.5-1.7-3.2l-28-16.1l-17-9.8
			c-0.4-0.2-0.9-0.4-1.3-0.4c-1.4,0-2.7,1.1-2.7,2.7V130.7z"/>
		<g>
			<path class="st8" d="M-404.6,55.7L-452,28.3c0,0.1,0,0.3,0,0.4c0,1.7-0.9,3.2-2.3,4l-45.7,26.4l46.8,27c1.2,0.7,2.8,0.7,4,0
				l44.7-25.8C-402.8,59.3-402.8,56.7-404.6,55.7z"/>
		</g>
		<g>
			<g>
				<path class="st8" d="M-563.4,103.3c-0.2-0.2-0.5-0.5-0.7-0.6l0,0C-563.8,102.9-563.6,103.1-563.4,103.3z"/>
			</g>
			<g>
				<path class="st8" d="M-513.5,131.8l-47-27.1c0.1,0.4,0.1,0.8,0.1,1.2v56.4v1.2l44.8,25.9c1.8,1,4-0.3,4-2.3v-51.8
					C-511.5,133.9-512.3,132.6-513.5,131.8z"/>
			</g>
		</g>
		<g>
			<g>
				<path class="st8" d="M-548.8,30.9l23.4,13.5L-548.8,30.9c-0.4-0.2-0.7-0.6-1-1C-549.6,30.4-549.2,30.7-548.8,30.9z"/>
			</g>
			<g>
				<path class="st8" d="M-549.8,32.7c-1.4-0.8-2.2-2.2-2.3-3.8c0-0.2,0-0.4,0-0.6l-47.4,27.4c-1.8,1-1.8,3.6,0,4.6l44.7,25.8
					c1.2,0.7,2.8,0.7,4,0l46.8-27L-549.8,32.7z"/>
			</g>
		</g>
		<g>
			<path class="st8" d="M-563.4,164l-48.7-28.2c-0.4-0.2-0.7-0.5-1-0.7v54.3c0,1.4,0.8,2.7,2,3.5l44.7,25.8c1.8,1,4-0.3,4-2.3v-51.8
				L-563.4,164z"/>
		</g>
		<path class="st8" d="M-391.1,130.7c0,1.4-0.8,2.7-2,3.5l-48.7,28.2v-56.4c0-1.3,0.7-2.5,1.7-3.2l28-16.1l17-9.8
			c0.4-0.2,0.9-0.4,1.3-0.4c1.4,0,2.7,1.1,2.7,2.7V130.7z"/>
		<g>
			<g>
				<path class="st8" d="M-440.8,103.3c0.2-0.2,0.5-0.5,0.7-0.6l0,0C-440.3,102.9-440.6,103.1-440.8,103.3z"/>
			</g>
			<g>
				<path class="st8" d="M-490.6,131.8l47-27.1c-0.1,0.4-0.1,0.8-0.1,1.2v56.4v1.2l-44.8,25.9c-1.8,1-4-0.3-4-2.3v-51.8
					C-492.6,133.9-491.8,132.6-490.6,131.8z"/>
			</g>
		</g>
		<g>
			<path class="st8" d="M-440.8,164l48.7-28.2c0.4-0.2,0.7-0.5,1-0.7v54.3c0,1.4-0.8,2.7-2,3.5l-44.7,25.8c-1.8,1-4-0.3-4-2.3v-51.8
				L-440.8,164z"/>
		</g>
	</g>
	<g>
		<g>
			<path class="st8" d="M-702.1,253.8h15.7l22.8,41.5l22.6-41.5h15.8v73.4H-641v-45.7l-22.6,41.5l-22.8-41.5v45.7h-15.7V253.8z"/>
		</g>
		<g>
			<path class="st8" d="M-616.9,299.5c0-15.7,13.8-28.8,30.2-28.8c16.3,0,30,13.1,30,28.8s-13.7,29-30,29
				C-603.1,328.5-616.9,315.2-616.9,299.5z M-571.5,299.5c0-8.5-6.9-15.7-15.2-15.7c-8.3,0-15.3,7.2-15.3,15.7s6.9,15.8,15.3,15.8
				C-578.4,315.3-571.5,308.1-571.5,299.5z"/>
		</g>
		<g>
			<path class="st8" d="M-495.8,292v35.1h-15.1v-31.8c0-6.8-4.3-11.5-10.5-11.5c-6.5,0-11.5,4.7-11.5,10.7l-0.1-0.3v33h-15.6v-55.2
				h15.6v6.9c3.3-5,9.5-8.2,16.7-8.2C-504.3,270.7-495.8,279.5-495.8,292z"/>
		</g>
		<g>
			<path class="st8" d="M-446.3,309.8l9.9,10.1c-4.9,5.1-14.4,8.5-22.5,8.5c-16.5,0-29.3-12.1-29.3-29.1c0-16.7,12.3-28.7,28.4-28.7
				c17.3,0,27.5,13.1,27.5,34h-39.8c1.8,6,6.6,10,13.1,10C-454.7,314.7-449.3,312.6-446.3,309.8z M-472,293.4h24.7
				c-1.5-5.4-5.6-9-11.9-9C-465,284.4-469.9,287.9-472,293.4z"/>
		</g>
		<g>
			<path class="st8" d="M-393.5,323.6c-3.2,2.9-8.2,4.8-12.7,4.8c-9.7,0-16.6-6.9-16.6-16.9v-27h-7.6v-12.6h7.6v-15.2h15v15.2h12
				v12.6h-12v24.6c0,3.6,2.4,6.2,5.2,6.2c2.1,0,4.3-0.7,5.3-1.8L-393.5,323.6z"/>
		</g>
		<g>
			<path class="st8" d="M-359.2,323.6c-3.2,2.9-8.2,4.8-12.7,4.8c-9.7,0-16.6-6.9-16.6-16.9v-27h-7.6v-12.6h7.6v-15.2h15v15.2h12
				v12.6h-12v24.6c0,3.6,2.4,6.2,5.2,6.2c2.1,0,4.3-0.7,5.3-1.8L-359.2,323.6z"/>
		</g>
		<g>
			<path class="st8" d="M-302.1,294.2v33h-15.1v-5.6c-4,4.5-10.3,6.8-16.2,6.8c-11.8,0-20.8-7.1-20.8-17.6c0-10.9,10.1-18.4,23-18.4
				c4.5,0,9.4,1,14.1,2.8v-1.1c0-5.9-3.6-11-12.7-11c-5.1,0-9.9,1.7-14.3,4l-5.2-10.4c7.8-4,15.4-6.1,23.1-6.1
				C-311.9,270.7-302.1,279.7-302.1,294.2z M-317.1,309.8v-5.1c-3.5-1.3-7.6-2-11.9-2c-5.7,0-10.1,3.3-10.1,7.8c0,4.5,4,7.3,9.3,7.3
				C-323.9,317.7-318.2,314.9-317.1,309.8z"/>
		</g>
	</g>
	<g>
		<g>
			<path class="st8" d="M-694.8,349.6h5.5v5.2c-1.2,1.3-3.2,2.1-5.1,2.1c-3.7,0-6.8-3-6.8-6.6s3.1-6.6,6.8-6.6
				c1.9,0,3.9,0.8,5.1,2.1l-1.7,1.5c-0.8-0.9-2.2-1.5-3.4-1.5c-2.4,0-4.4,2.1-4.4,4.5c0,2.5,2,4.5,4.4,4.5c1,0,2-0.3,2.8-0.9v-2.3
				h-3.2V349.6z"/>
		</g>
		<g>
			<path class="st8" d="M-680.3,353.9l1.4,1.5c-0.8,0.9-2.5,1.5-3.9,1.5c-2.8,0-5-2.1-5-5.1c0-2.9,2.2-5,4.9-5c3,0,4.7,2.3,4.7,5.8
				h-7.3c0.3,1.3,1.3,2.3,2.7,2.3C-681.9,354.8-680.9,354.4-680.3,353.9z M-685.5,350.9h5.1c-0.3-1.2-1.1-2.1-2.4-2.1
				C-684.1,348.8-685.1,349.6-685.5,350.9z"/>
		</g>
		<g>
			<path class="st8" d="M-671.1,356.1c-0.5,0.5-1.3,0.8-2.1,0.8c-1.6,0-2.7-1.2-2.7-2.8v-5.2h-1.4V347h1.4v-2.6h2.2v2.6h2.2v1.9
				h-2.2v4.9c0,0.7,0.4,1.1,1,1.1c0.4,0,0.7-0.1,1-0.4L-671.1,356.1z"/>
		</g>
		<g>
			<path class="st8" d="M-650.2,350.5v6.1h-2.2v-5.8c0-1.3-0.8-2.2-1.9-2.2c-1.3,0-2.1,0.8-2.1,2v5.9h-2.2v-5.8
				c0-1.3-0.8-2.2-1.9-2.2c-1.2,0-2.1,0.8-2.1,2v5.9h-2.3V347h2.3v1.3c0.5-0.9,1.5-1.5,2.7-1.5c1.4,0,2.5,0.7,3.1,1.8
				c0.5-1.1,1.7-1.8,3.1-1.8C-651.7,346.8-650.2,348.3-650.2,350.5z"/>
		</g>
		<g>
			<path class="st8" d="M-648.6,351.8c0-2.7,2.4-5,5.2-5c2.8,0,5.2,2.3,5.2,5s-2.4,5.1-5.2,5.1
				C-646.2,356.9-648.6,354.6-648.6,351.8z M-640.5,351.8c0-1.7-1.3-3.1-2.9-3.1c-1.6,0-2.9,1.4-2.9,3.1c0,1.7,1.3,3.1,2.9,3.1
				C-641.8,354.9-640.5,353.5-640.5,351.8z"/>
		</g>
		<g>
			<path class="st8" d="M-630.9,346.8v1.9c-2.1,0-3.5,1.2-3.5,3.1v4.9h-2.3V347h2.3v1.9C-633.7,347.6-632.4,346.8-630.9,346.8z"/>
		</g>
		<g>
			<path class="st8" d="M-622.5,353.9l1.4,1.5c-0.8,0.9-2.5,1.5-3.9,1.5c-2.8,0-5-2.1-5-5.1c0-2.9,2.2-5,4.9-5c3,0,4.7,2.3,4.7,5.8
				h-7.3c0.3,1.3,1.3,2.3,2.7,2.3C-624.2,354.8-623.1,354.4-622.5,353.9z M-627.7,350.9h5.1c-0.3-1.2-1.1-2.1-2.4-2.1
				C-626.3,348.8-627.4,349.6-627.7,350.9z"/>
		</g>
		<g>
			<path class="st8" d="M-614.4,351.8c0-2.7,2.4-5,5.2-5c2.8,0,5.2,2.3,5.2,5s-2.4,5.1-5.2,5.1
				C-612.1,356.9-614.4,354.6-614.4,351.8z M-606.3,351.8c0-1.7-1.3-3.1-2.9-3.1c-1.6,0-2.9,1.4-2.9,3.1c0,1.7,1.3,3.1,2.9,3.1
				C-607.7,354.9-606.3,353.5-606.3,351.8z"/>
		</g>
		<g>
			<path class="st8" d="M-593.7,347v9.6h-2.3v-1.3c-0.6,0.9-1.7,1.5-3,1.5c-2.1,0-3.6-1.5-3.6-3.7V347h2.2v5.7c0,1.3,0.8,2.2,2,2.2
				s2.2-0.8,2.3-1.8V347H-593.7z"/>
		</g>
		<g>
			<path class="st8" d="M-586.1,356.1c-0.5,0.5-1.3,0.8-2.1,0.8c-1.6,0-2.7-1.2-2.7-2.8v-5.2h-1.4V347h1.4v-2.6h2.2v2.6h2.2v1.9
				h-2.2v4.9c0,0.7,0.4,1.1,1,1.1c0.4,0,0.7-0.1,1-0.4L-586.1,356.1z"/>
		</g>
		<g>
			<path class="st8" d="M-580.3,351.8c0-2.7,2.4-5,5.2-5c2.8,0,5.2,2.3,5.2,5s-2.4,5.1-5.2,5.1
				C-577.9,356.9-580.3,354.6-580.3,351.8z M-572.2,351.8c0-1.7-1.3-3.1-2.9-3.1c-1.6,0-2.9,1.4-2.9,3.1c0,1.7,1.3,3.1,2.9,3.1
				C-573.5,354.9-572.2,353.5-572.2,351.8z"/>
		</g>
		<g>
			<path class="st8" d="M-565.4,347h2.2v1.9h-2.2v7.8h-2.2v-7.8h-1.4V347h1.4v-1c0-1.6,1.1-2.8,2.7-2.8c0.7,0,1.5,0.3,2.1,0.8
				l-0.7,1.5c-0.2-0.2-0.6-0.4-1-0.4c-0.5,0-1,0.5-1,1.1V347z"/>
		</g>
		<g>
			<path class="st8" d="M-557,359.5l0.5-1.6c0.4,0.2,0.9,0.4,1.2,0.4c0.5,0,1-0.2,1.2-0.6l0.4-0.9l-4.1-9.7h2.4l2.8,7.2l2.6-7.2h2.4
				l-4.1,10.3c-0.7,1.8-1.8,2.7-3.3,2.7C-555.7,360-556.5,359.8-557,359.5z"/>
		</g>
		<g>
			<path class="st8" d="M-547,351.8c0-2.7,2.4-5,5.2-5c2.8,0,5.2,2.3,5.2,5s-2.4,5.1-5.2,5.1C-544.7,356.9-547,354.6-547,351.8z
				 M-538.9,351.8c0-1.7-1.3-3.1-2.9-3.1c-1.6,0-2.9,1.4-2.9,3.1c0,1.7,1.3,3.1,2.9,3.1C-540.3,354.9-538.9,353.5-538.9,351.8z"/>
		</g>
		<g>
			<path class="st8" d="M-526.3,347v9.6h-2.3v-1.3c-0.6,0.9-1.7,1.5-3,1.5c-2.1,0-3.6-1.5-3.6-3.7V347h2.2v5.7c0,1.3,0.8,2.2,2,2.2
				s2.2-0.8,2.3-1.8V347H-526.3z"/>
		</g>
		<g>
			<path class="st8" d="M-518.4,346.8v1.9c-2.1,0-3.5,1.2-3.5,3.1v4.9h-2.3V347h2.3v1.9C-521.2,347.6-520,346.8-518.4,346.8z"/>
		</g>
		<g>
			<path class="st8" d="M-497.5,350.5v6.1h-2.2v-5.8c0-1.3-0.8-2.2-1.9-2.2c-1.3,0-2.1,0.8-2.1,2v5.9h-2.2v-5.8
				c0-1.3-0.8-2.2-1.9-2.2c-1.2,0-2.1,0.8-2.1,2v5.9h-2.3V347h2.3v1.3c0.5-0.9,1.5-1.5,2.7-1.5c1.4,0,2.5,0.7,3.1,1.8
				c0.5-1.1,1.7-1.8,3.1-1.8C-499,346.8-497.5,348.3-497.5,350.5z"/>
		</g>
		<g>
			<path class="st8" d="M-488.4,353.9l1.4,1.5c-0.8,0.9-2.5,1.5-3.9,1.5c-2.8,0-5-2.1-5-5.1c0-2.9,2.2-5,4.9-5c3,0,4.7,2.3,4.7,5.8
				h-7.3c0.3,1.3,1.3,2.3,2.7,2.3C-490,354.8-488.9,354.4-488.4,353.9z M-493.6,350.9h5.1c-0.3-1.2-1.1-2.1-2.4-2.1
				C-492.2,348.8-493.2,349.6-493.6,350.9z"/>
		</g>
		<g>
			<path class="st8" d="M-477.7,353.9l1.4,1.5c-0.8,0.9-2.5,1.5-3.9,1.5c-2.8,0-5-2.1-5-5.1c0-2.9,2.2-5,4.9-5c3,0,4.7,2.3,4.7,5.8
				h-7.3c0.3,1.3,1.3,2.3,2.7,2.3C-479.3,354.8-478.2,354.4-477.7,353.9z M-482.8,350.9h5.1c-0.3-1.2-1.1-2.1-2.4-2.1
				C-481.5,348.8-482.5,349.6-482.8,350.9z"/>
		</g>
		<g>
			<path class="st8" d="M-468.5,356.1c-0.5,0.5-1.3,0.8-2.1,0.8c-1.6,0-2.7-1.2-2.7-2.8v-5.2h-1.4V347h1.4v-2.6h2.2v2.6h2.2v1.9
				h-2.2v4.9c0,0.7,0.4,1.1,1,1.1c0.4,0,0.7-0.1,1-0.4L-468.5,356.1z"/>
		</g>
		<g>
			<path class="st8" d="M-467.3,344.2c0-0.7,0.6-1.3,1.3-1.3c0.7,0,1.3,0.6,1.3,1.3s-0.6,1.3-1.3,1.3
				C-466.7,345.5-467.3,344.9-467.3,344.2z M-467.1,347h2.3v9.6h-2.3V347z"/>
		</g>
		<g>
			<path class="st8" d="M-453.8,350.5v6.1h-2.2v-5.7c0-1.3-0.8-2.2-2-2.2s-2.2,0.8-2.3,1.8v6.1h-2.3V347h2.3v1.3
				c0.6-0.9,1.7-1.5,3-1.5C-455.3,346.8-453.8,348.3-453.8,350.5z"/>
		</g>
		<g>
			<path class="st8" d="M-442.3,347v8.6c0,2.5-2.1,4.2-5,4.2c-1.7,0-3.2-0.5-4.1-1.3l0.8-1.7c0.7,0.6,1.8,1,3,1
				c1.9,0,3.1-0.9,3.1-2.4v-1.3c-0.8,1-1.9,1.6-3.3,1.6c-2.5,0-4.3-1.9-4.3-4.6s1.8-4.6,4.3-4.6c1.4,0,2.6,0.6,3.3,1.7V347H-442.3z
				 M-444.6,351.3c0-1.5-1.1-2.6-2.6-2.6c-1.5,0-2.6,1.1-2.6,2.6c0,1.5,1.1,2.6,2.6,2.6C-445.7,354-444.6,352.9-444.6,351.3z"/>
		</g>
		<g>
			<path class="st8" d="M-440.8,355.4l1-1.6c0.9,0.7,2,1.1,3.2,1.1c0.9,0,1.5-0.4,1.5-1c0-0.7-0.8-1-1.9-1.3
				c-2.1-0.5-3.4-1.1-3.4-2.9c0-1.8,1.5-3,3.6-3c1.3,0,2.7,0.5,3.7,1.2l-1,1.7c-0.9-0.6-1.9-0.9-2.7-0.9c-0.8,0-1.4,0.3-1.4,0.9
				c0,0.6,0.5,0.8,2,1.2c1.6,0.4,3.4,1,3.4,3c0,1.8-1.5,3-3.8,3C-438,356.9-439.6,356.3-440.8,355.4z"/>
		</g>
		<g>
			<path class="st8" d="M-430.9,358.6c0.6-0.6,0.9-1.2,1.1-1.8c-0.8,0-1.4-0.7-1.4-1.5c0-0.8,0.7-1.5,1.5-1.5c1,0,1.6,0.9,1.6,2
				c0,1-0.5,2-1.8,3.3L-430.9,358.6z"/>
		</g>
		<g>
			<path class="st8" d="M-411.2,351.8c0,3-1.9,5.1-4.4,5.1c-1.4,0-2.6-0.7-3.4-1.8v1.5h-2.3v-13h2.3v4.9c0.8-1.1,1.9-1.8,3.4-1.8
				C-413.1,346.8-411.2,348.9-411.2,351.8z M-413.5,351.8c0-1.8-1.2-3.1-2.8-3.1c-1.6,0-2.7,1.3-2.7,3.1c0,1.8,1.1,3.1,2.7,3.1
				C-414.6,354.9-413.5,353.6-413.5,351.8z"/>
		</g>
		<g>
			<path class="st8" d="M-409.7,359.5l0.5-1.6c0.4,0.2,0.9,0.4,1.2,0.4c0.5,0,1-0.2,1.2-0.6l0.4-0.9l-4.1-9.7h2.4l2.8,7.2l2.6-7.2
				h2.4l-4.1,10.3c-0.7,1.8-1.8,2.7-3.3,2.7C-408.3,360-409.1,359.8-409.7,359.5z"/>
		</g>
		<g>
			<path class="st8" d="M-384.2,343.6v13h-2.3v-1.5c-0.8,1.1-1.9,1.7-3.3,1.7c-2.6,0-4.4-2.1-4.4-5.1c0-2.9,1.9-5,4.4-5
				c1.4,0,2.6,0.6,3.3,1.7v-4.9H-384.2z M-386.5,351.8c0-1.8-1.1-3.1-2.7-3.1c-1.6,0-2.8,1.3-2.8,3.1c0,1.8,1.2,3.1,2.8,3.1
				C-387.6,354.9-386.5,353.6-386.5,351.8z"/>
		</g>
		<g>
			<path class="st8" d="M-382.5,351.8c0-2.7,2.4-5,5.2-5c2.8,0,5.2,2.3,5.2,5s-2.4,5.1-5.2,5.1
				C-380.2,356.9-382.5,354.6-382.5,351.8z M-374.4,351.8c0-1.7-1.3-3.1-2.9-3.1c-1.6,0-2.9,1.4-2.9,3.1c0,1.7,1.3,3.1,2.9,3.1
				C-375.8,354.9-374.4,353.5-374.4,351.8z"/>
		</g>
		<g>
			<path class="st8" d="M-370.7,344.2c0-0.7,0.6-1.3,1.3-1.3c0.7,0,1.3,0.6,1.3,1.3s-0.6,1.3-1.3,1.3
				C-370.2,345.5-370.7,344.9-370.7,344.2z M-370.6,347h2.3v9.6h-2.3V347z"/>
		</g>
		<g>
			<path class="st8" d="M-357.3,350.5v6.1h-2.2v-5.7c0-1.3-0.8-2.2-2-2.2s-2.2,0.8-2.3,1.8v6.1h-2.3V347h2.3v1.3
				c0.6-0.9,1.7-1.5,3-1.5C-358.8,346.8-357.3,348.3-357.3,350.5z"/>
		</g>
		<g>
			<path class="st8" d="M-345.8,347v8.6c0,2.5-2.1,4.2-5,4.2c-1.7,0-3.2-0.5-4.1-1.3l0.8-1.7c0.7,0.6,1.8,1,3,1
				c1.9,0,3.1-0.9,3.1-2.4v-1.3c-0.8,1-1.9,1.6-3.3,1.6c-2.5,0-4.3-1.9-4.3-4.6s1.8-4.6,4.3-4.6c1.4,0,2.6,0.6,3.3,1.7V347H-345.8z
				 M-348,351.3c0-1.5-1.1-2.6-2.6-2.6c-1.5,0-2.6,1.1-2.6,2.6c0,1.5,1.1,2.6,2.6,2.6C-349.1,354-348,352.9-348,351.3z"/>
		</g>
		<g>
			<path class="st8" d="M-338.7,343.6h2.3v13h-2.3V343.6z"/>
		</g>
		<g>
			<path class="st8" d="M-327.2,353.9l1.4,1.5c-0.8,0.9-2.5,1.5-3.9,1.5c-2.8,0-5-2.1-5-5.1c0-2.9,2.2-5,4.9-5c3,0,4.7,2.3,4.7,5.8
				h-7.3c0.3,1.3,1.3,2.3,2.7,2.3C-328.9,354.8-327.8,354.4-327.2,353.9z M-332.4,350.9h5.1c-0.3-1.2-1.1-2.1-2.4-2.1
				C-331,348.8-332.1,349.6-332.4,350.9z"/>
		</g>
		<g>
			<path class="st8" d="M-324.2,355.4l1-1.6c0.9,0.7,2,1.1,3.2,1.1c0.9,0,1.5-0.4,1.5-1c0-0.7-0.8-1-1.9-1.3
				c-2.1-0.5-3.4-1.1-3.4-2.9c0-1.8,1.5-3,3.6-3c1.3,0,2.7,0.5,3.7,1.2l-1,1.7c-0.9-0.6-1.9-0.9-2.7-0.9c-0.8,0-1.4,0.3-1.4,0.9
				c0,0.6,0.5,0.8,2,1.2c1.6,0.4,3.4,1,3.4,3c0,1.8-1.5,3-3.8,3C-321.4,356.9-323,356.3-324.2,355.4z"/>
		</g>
		<g>
			<path class="st8" d="M-315.2,355.4l1-1.6c0.9,0.7,2,1.1,3.2,1.1c0.9,0,1.5-0.4,1.5-1c0-0.7-0.8-1-1.9-1.3
				c-2.1-0.5-3.4-1.1-3.4-2.9c0-1.8,1.5-3,3.6-3c1.3,0,2.7,0.5,3.7,1.2l-1,1.7c-0.9-0.6-1.9-0.9-2.7-0.9c-0.8,0-1.4,0.3-1.4,0.9
				c0,0.6,0.5,0.8,2,1.2c1.6,0.4,3.4,1,3.4,3c0,1.8-1.5,3-3.8,3C-312.5,356.9-314.1,356.3-315.2,355.4z"/>
		</g>
		<g>
			<path class="st8" d="M-305.7,355.4c0-0.8,0.6-1.4,1.5-1.4c0.8,0,1.4,0.7,1.4,1.4c0,0.8-0.7,1.5-1.4,1.5
				C-305.1,356.9-305.7,356.2-305.7,355.4z"/>
		</g>
	</g>
</g>
</svg>
