<?xml version="1.0" encoding="utf-8"?>
<!-- Generator: Adobe Illustrator 19.0.0, SVG Export Plug-In . SVG Version: 6.00 Build 0)  -->
<svg version="1.1" id="Layer_1" xmlns="http://www.w3.org/2000/svg" xmlns:xlink="http://www.w3.org/1999/xlink" x="0px" y="0px"
	 viewBox="0 0 400 360" style="enable-background:new 0 0 400 360;" xml:space="preserve">
<style type="text/css">
	.st0{fill:#61ABFF;}
	.st1{fill:#6BBAFF;}
	.st2{fill:#FFAC4D;}
	.st3{fill:#FFDD57;}
	.st4{fill:#FFD152;}
	.st5{fill:#5C92FF;}
	.st6{fill:#333333;}
	.st7{fill:#FFFFFF;}
	.st8{fill:#E6E6E6;}
</style>
<g>
	<g>
		<path class="st0" d="M702.1,253.8h15.7l22.8,41.5l22.6-41.5H779v73.4h-15.8v-45.7l-22.6,41.5l-22.8-41.5v45.7h-15.7V253.8z"/>
		<path class="st1" d="M787.3,299.5c0-15.7,13.8-28.8,30.2-28.8c16.3,0,30,13.1,30,28.8s-13.7,29-30,29
			C801,328.5,787.3,315.2,787.3,299.5z M832.7,299.5c0-8.5-6.9-15.7-15.2-15.7c-8.3,0-15.3,7.2-15.3,15.7s6.9,15.8,15.3,15.8
			C825.7,315.3,832.7,308.1,832.7,299.5z"/>
		<path class="st0" d="M908.4,292v35.1h-15.1v-31.8c0-6.8-4.3-11.5-10.5-11.5c-6.5,0-11.5,4.7-11.5,10.7l-0.1-0.3v33h-15.6v-55.2
			h15.6v6.9c3.3-5,9.5-8.2,16.7-8.2C899.8,270.7,908.4,279.5,908.4,292z"/>
		<path class="st1" d="M957.8,309.8l9.9,10.1c-4.9,5.1-14.4,8.5-22.5,8.5c-16.5,0-29.3-12.1-29.3-29.1c0-16.7,12.3-28.7,28.4-28.7
			c17.3,0,27.5,13.1,27.5,34H932c1.8,6,6.6,10,13.1,10C949.5,314.7,954.8,312.6,957.8,309.8z M932.2,293.4h24.7
			c-1.5-5.4-5.6-9-11.9-9C939.1,284.4,934.2,287.9,932.2,293.4z"/>
		<path class="st0" d="M1010.7,323.6c-3.2,2.9-8.2,4.8-12.7,4.8c-9.7,0-16.6-6.9-16.6-16.9v-27h-7.6v-12.6h7.6v-15.2h15v15.2h12
			v12.6h-12v24.6c0,3.6,2.4,6.2,5.2,6.2c2.1,0,4.3-0.7,5.3-1.8L1010.7,323.6z"/>
		<path class="st1" d="M1045,323.6c-3.2,2.9-8.2,4.8-12.7,4.8c-9.7,0-16.6-6.9-16.6-16.9v-27h-7.6v-12.6h7.6v-15.2h15v15.2h12v12.6
			h-12v24.6c0,3.6,2.4,6.2,5.2,6.2c2.1,0,4.3-0.7,5.3-1.8L1045,323.6z"/>
		<path class="st0" d="M1102.1,294.2v33H1087v-5.6c-4,4.5-10.3,6.8-16.2,6.8c-11.8,0-20.8-7.1-20.8-17.6c0-10.9,10.2-18.4,23-18.4
			c4.5,0,9.4,1,14.1,2.8v-1.1c0-5.9-3.6-11-12.7-11c-5.1,0-9.9,1.7-14.3,4l-5.2-10.4c7.8-4,15.4-6.1,23.1-6.1
			C1092.2,270.7,1102.1,279.7,1102.1,294.2z M1087,309.8v-5.1c-3.5-1.3-7.6-2-11.9-2c-5.7,0-10.1,3.3-10.1,7.8c0,4.5,4,7.3,9.3,7.3
			C1080.3,317.7,1085.9,314.9,1087,309.8z"/>
	</g>
	<g>
		<path class="st2" d="M855.1,26.5l-50.6,29.2c-1.8,1-1.8,3.6,0,4.6l44.7,25.8c1.2,0.7,2.8,0.7,4,0l48.8-28.2l-46.8-27
			C853.6,30,853.6,27.6,855.1,26.5z"/>
		<path class="st3" d="M948.8,26.4c1.8,1,1.8,3.6,0,4.6l-46.7,27l48.8,28.2c1.2,0.7,2.8,0.7,4,0l44.7-25.8c1.8-1,1.8-3.6,0-4.6
			L948.8,26.4z"/>
		<path class="st4" d="M948.8,26.4L904.1,0.5c-1.2-0.7-2.8-0.7-4,0l-45,26c-1.6,1.1-1.5,3.5,0.2,4.5l46.8,27l46.7-27
			C950.6,29.9,950.6,27.4,948.8,26.4z"/>
		<g>
			<path class="st5" d="M791.1,130.7v58.7c0,1.4,0.8,2.7,2,3.5l44.7,25.8c1.8,1,4-0.3,4-2.3v-54.1l-48.7-28.2
				C791.8,133.4,791.1,132.1,791.1,130.7z"/>
		</g>
		<path class="st1" d="M890.6,131.8l-50.5-29.2c1.1,0.7,1.7,1.9,1.7,3.2v56.4l46.8,27.1c1.8,1,4-0.3,4-2.3v-51.8
			C892.6,133.9,891.8,132.6,890.6,131.8z"/>
		<path class="st0" d="M840.1,102.7l-28-16.1l-17-9.8c-1.8-1-4,0.3-4,2.3v51.6c0,1.4,0.8,2.7,2,3.5l48.7,28.2v-56.4
			C841.8,104.6,841.1,103.4,840.1,102.7z"/>
		<g>
			<path class="st5" d="M1011.1,134.1l-48.7,28.2v54.1c0,2.1,2.2,3.3,4,2.3l44.7-25.8c1.2-0.7,2-2,2-3.5l0-58.7
				C1013.1,132.1,1012.3,133.4,1011.1,134.1z"/>
		</g>
		<path class="st1" d="M964.1,102.7l-50.5,29.2c-1.2,0.7-2,2-2,3.5v51.8c0,2.1,2.2,3.3,4,2.3l46.8-27.1v-56.4
			C962.4,104.6,963,103.4,964.1,102.7z"/>
		<path class="st0" d="M1009.1,76.7L992,86.5l-27.9,16.1c-1.1,0.7-1.7,1.9-1.7,3.2v56.4l48.7-28.2c1.2-0.7,2-2,2-3.5V79
			C1013.1,77,1010.9,75.7,1009.1,76.7z"/>
	</g>
</g>
<g>
	<g>
		<path class="st6" d="M948.8,507.5l-44.7-25.8c-0.6-0.4-1.3-0.5-2-0.5s-1.4,0.2-2,0.5l-45,26c-1.6,1.1-1.5,3.5,0.2,4.5l46.8,27
			l46.7-27C950.6,511.1,950.6,508.5,948.8,507.5z"/>
		<path class="st6" d="M791.1,611.8c0,1.4,0.8,2.7,2,3.5l48.7,28.2V587c0-1.3-0.7-2.5-1.7-3.2l-28-16.1l-17-9.8
			c-0.4-0.2-0.9-0.4-1.3-0.4c-1.4,0-2.7,1.1-2.7,2.7V611.8z"/>
		<g>
			<path class="st6" d="M999.6,536.8l-47.5-27.4c0,0.1,0,0.3,0,0.4c0,1.7-0.9,3.2-2.3,4l-45.7,26.4l46.8,27c1.2,0.7,2.8,0.7,4,0
				l44.7-25.8C1001.3,540.4,1001.3,537.8,999.6,536.8z"/>
		</g>
		<g>
			<g>
				<path class="st6" d="M840.8,584.4c-0.2-0.2-0.5-0.5-0.7-0.6l0,0C840.3,584,840.6,584.2,840.8,584.4z"/>
			</g>
			<g>
				<path class="st6" d="M890.6,613l-47-27.1c0.1,0.4,0.1,0.8,0.1,1.2v56.4v1.2l44.8,25.9c1.8,1,4-0.3,4-2.3v-51.8
					C892.6,615,891.8,613.7,890.6,613z"/>
			</g>
		</g>
		<g>
			<g>
				<path class="st6" d="M855.3,512.1l23.4,13.5L855.3,512.1c-0.4-0.2-0.7-0.6-1-1C854.6,511.5,854.9,511.8,855.3,512.1z"/>
			</g>
			<g>
				<path class="st6" d="M854.3,513.8c-1.4-0.8-2.2-2.2-2.3-3.8c0-0.2,0-0.4,0-0.6l-47.4,27.4c-1.8,1-1.8,3.6,0,4.6l44.7,25.8
					c1.2,0.7,2.8,0.7,4,0l46.8-27L854.3,513.8z"/>
			</g>
		</g>
		<g>
			<path class="st6" d="M840.8,645.2L792.1,617c-0.4-0.2-0.7-0.5-1-0.7v54.3c0,1.4,0.8,2.7,2,3.5l44.7,25.8c1.8,1,4-0.3,4-2.3v-51.8
				L840.8,645.2z"/>
		</g>
		<path class="st6" d="M1013.1,611.8c0,1.4-0.8,2.7-2,3.5l-48.7,28.2V587c0-1.3,0.7-2.5,1.7-3.2l28-16.1l17-9.8
			c0.4-0.2,0.9-0.4,1.3-0.4c1.4,0,2.7,1.1,2.7,2.7V611.8z"/>
		<g>
			<g>
				<path class="st6" d="M963.4,584.4c0.2-0.2,0.5-0.5,0.7-0.6l0,0C963.8,584,963.6,584.2,963.4,584.4z"/>
			</g>
			<g>
				<path class="st6" d="M913.5,613l47-27.1c-0.1,0.4-0.1,0.8-0.1,1.2v56.4v1.2l-44.8,25.9c-1.8,1-4-0.3-4-2.3v-51.8
					C911.5,615,912.3,613.7,913.5,613z"/>
			</g>
		</g>
		<g>
			<path class="st6" d="M963.4,645.2l48.7-28.2c0.4-0.2,0.7-0.5,1-0.7v54.3c0,1.4-0.8,2.7-2,3.5l-44.7,25.8c-1.8,1-4-0.3-4-2.3
				v-51.8L963.4,645.2z"/>
		</g>
	</g>
	<g>
		<path class="st6" d="M702.1,734.9h15.7l22.8,41.5l22.6-41.5H779v73.4h-15.8v-45.7L740.5,804l-22.8-41.5v45.7h-15.7V734.9z"/>
		<path class="st6" d="M787.3,780.6c0-15.7,13.8-28.8,30.2-28.8c16.3,0,30,13.1,30,28.8s-13.7,29-30,29
			C801,809.6,787.3,796.3,787.3,780.6z M832.7,780.6c0-8.5-6.9-15.7-15.2-15.7c-8.3,0-15.3,7.2-15.3,15.7s6.9,15.8,15.3,15.8
			C825.7,796.4,832.7,789.2,832.7,780.6z"/>
		<path class="st6" d="M908.4,773.2v35.1h-15.1v-31.8c0-6.8-4.3-11.5-10.5-11.5c-6.5,0-11.5,4.7-11.5,10.7l-0.1-0.3v33h-15.6v-55.2
			h15.6v6.9c3.3-5,9.5-8.2,16.7-8.2C899.8,751.8,908.4,760.7,908.4,773.2z"/>
		<path class="st6" d="M957.8,790.9l9.9,10.1c-4.9,5.1-14.4,8.5-22.5,8.5c-16.5,0-29.3-12.1-29.3-29.1c0-16.7,12.3-28.7,28.4-28.7
			c17.3,0,27.5,13.1,27.5,34H932c1.8,6,6.6,10,13.1,10C949.5,795.8,954.8,793.8,957.8,790.9z M932.2,774.5h24.7
			c-1.5-5.4-5.6-9-11.9-9C939.1,765.6,934.2,769,932.2,774.5z"/>
		<path class="st6" d="M1010.7,804.8c-3.2,2.9-8.2,4.8-12.7,4.8c-9.7,0-16.6-6.9-16.6-16.9v-27h-7.6v-12.6h7.6v-15.2h15v15.2h12
			v12.6h-12v24.6c0,3.6,2.4,6.2,5.2,6.2c2.1,0,4.3-0.7,5.3-1.8L1010.7,804.8z"/>
		<path class="st6" d="M1045,804.8c-3.2,2.9-8.2,4.8-12.7,4.8c-9.7,0-16.6-6.9-16.6-16.9v-27h-7.6v-12.6h7.6v-15.2h15v15.2h12v12.6
			h-12v24.6c0,3.6,2.4,6.2,5.2,6.2c2.1,0,4.3-0.7,5.3-1.8L1045,804.8z"/>
		<path class="st6" d="M1102.1,775.3v33H1087v-5.6c-4,4.5-10.3,6.8-16.2,6.8c-11.8,0-20.8-7.1-20.8-17.6c0-10.9,10.2-18.4,23-18.4
			c4.5,0,9.4,1,14.1,2.8v-1.1c0-5.9-3.6-11-12.7-11c-5.1,0-9.9,1.7-14.3,4l-5.2-10.4c7.8-4,15.4-6.1,23.1-6.1
			C1092.2,751.8,1102.1,760.9,1102.1,775.3z M1087,790.9v-5.1c-3.5-1.3-7.6-2-11.9-2c-5.7,0-10.1,3.3-10.1,7.8c0,4.5,4,7.3,9.3,7.3
			C1080.3,798.8,1085.9,796,1087,790.9z"/>
	</g>
</g>
<g>
	<g>
		<path class="st0" d="M1684.2,79h20.6l29.9,54.5l29.8-54.5h20.8v96.4h-20.8v-60.1l-29.8,54.5l-29.9-54.5v60.1h-20.6V79z"/>
		<path class="st1" d="M1796.1,139.1c0-20.6,18.1-37.9,39.7-37.9c21.5,0,39.4,17.3,39.4,37.9s-18,38-39.4,38
			C1814.3,177.1,1796.1,159.7,1796.1,139.1z M1855.8,139.1c0-11.2-9.1-20.6-19.9-20.6c-10.9,0-20.1,9.4-20.1,20.6
			c0,11.2,9.1,20.8,20.1,20.8C1846.7,159.9,1855.8,150.3,1855.8,139.1z"/>
		<path class="st0" d="M1955.3,129.3v46.2h-19.8v-41.8c0-9-5.6-15.2-13.8-15.2c-8.6,0-15.2,6.2-15.2,14l-0.1-0.4v43.4h-20.5v-72.6
			h20.5v9.1c4.3-6.6,12.5-10.8,21.9-10.8C1944.1,101.2,1955.3,112.9,1955.3,129.3z"/>
		<path class="st1" d="M2020.2,152.6l13.1,13.3c-6.5,6.7-18.9,11.2-29.6,11.2c-21.6,0-38.5-15.9-38.5-38.2
			c0-21.9,16.1-37.8,37.3-37.8c22.7,0,36.1,17.3,36.1,44.6h-52.4c2.4,7.9,8.7,13.2,17.3,13.2C2009.3,159,2016.3,156.4,2020.2,152.6z
			 M1986.5,131.1h32.4c-2-7.2-7.3-11.8-15.6-11.8C1995.6,119.3,1989.2,123.8,1986.5,131.1z"/>
		<path class="st0" d="M2089.7,170.8c-4.2,3.8-10.8,6.3-16.7,6.3c-12.8,0-21.8-9.1-21.8-22.2v-35.5h-10v-16.6h10V83h19.7v19.9h15.7
			v16.6h-15.7v32.3c0,4.8,3.1,8.1,6.9,8.1c2.8,0,5.6-1,7-2.4L2089.7,170.8z"/>
		<path class="st1" d="M2134.7,170.8c-4.2,3.8-10.8,6.3-16.7,6.3c-12.8,0-21.8-9.1-21.8-22.2v-35.5h-10v-16.6h10V83h19.7v19.9h15.7
			v16.6h-15.7v32.3c0,4.8,3.1,8.1,6.9,8.1c2.8,0,5.6-1,7-2.4L2134.7,170.8z"/>
		<path class="st0" d="M2209.8,132.1v43.4H2190v-7.3c-5.2,5.9-13.5,9-21.3,9c-15.4,0-27.4-9.3-27.4-23.2c0-14.3,13.3-24.1,30.2-24.1
			c5.9,0,12.4,1.3,18.5,3.7v-1.4c0-7.7-4.8-14.5-16.7-14.5c-6.7,0-13.1,2.2-18.8,5.2l-6.9-13.6c10.2-5.2,20.2-8,30.3-8
			C2196.8,101.2,2209.8,113.1,2209.8,132.1z M2190,152.6v-6.7c-4.6-1.7-10-2.7-15.6-2.7c-7.4,0-13.3,4.3-13.3,10.2
			c0,5.9,5.2,9.5,12.2,9.5C2181.1,163,2188.6,159.3,2190,152.6z"/>
	</g>
	<g>
		<path class="st2" d="M1475.5,26.5L1425,55.7c-1.8,1-1.8,3.6,0,4.6l44.7,25.8c1.2,0.7,2.8,0.7,4,0l48.8-28.2l-46.8-27
			C1474,30,1474,27.6,1475.5,26.5z"/>
		<path class="st3" d="M1569.2,26.4c1.8,1,1.8,3.6,0,4.6l-46.7,27l48.8,28.2c1.2,0.7,2.8,0.7,4,0l44.7-25.8c1.8-1,1.8-3.6,0-4.6
			L1569.2,26.4z"/>
		<path class="st4" d="M1569.2,26.4l-44.7-25.8c-1.2-0.7-2.8-0.7-4,0l-45,26c-1.6,1.1-1.5,3.5,0.2,4.5l46.8,27l46.7-27
			C1571,29.9,1571,27.4,1569.2,26.4z"/>
		<g>
			<path class="st5" d="M1411.5,130.7v58.7c0,1.4,0.8,2.7,2,3.5l44.7,25.8c1.8,1,4-0.3,4-2.3v-54.1l-48.7-28.2
				C1412.2,133.4,1411.5,132.1,1411.5,130.7z"/>
		</g>
		<path class="st1" d="M1511,131.8l-50.5-29.2c1.1,0.7,1.7,1.9,1.7,3.2v56.4l46.8,27.1c1.8,1,4-0.3,4-2.3v-51.8
			C1513,133.9,1512.3,132.6,1511,131.8z"/>
		<path class="st0" d="M1460.5,102.7l-28-16.1l-17-9.8c-1.8-1-4,0.3-4,2.3v51.6c0,1.4,0.8,2.7,2,3.5l48.7,28.2v-56.4
			C1462.2,104.6,1461.5,103.4,1460.5,102.7z"/>
		<g>
			<path class="st5" d="M1631.5,134.1l-48.7,28.2v54.1c0,2.1,2.2,3.3,4,2.3l44.7-25.8c1.2-0.7,2-2,2-3.5l0-58.7
				C1633.5,132.1,1632.7,133.4,1631.5,134.1z"/>
		</g>
		<path class="st1" d="M1584.5,102.7l-50.5,29.2c-1.2,0.7-2,2-2,3.5v51.8c0,2.1,2.2,3.3,4,2.3l46.8-27.1v-56.4
			C1582.8,104.6,1583.4,103.4,1584.5,102.7z"/>
		<path class="st0" d="M1629.5,76.7l-17.1,9.8l-27.9,16.1c-1.1,0.7-1.7,1.9-1.7,3.2v56.4l48.7-28.2c1.2-0.7,2-2,2-3.5V79
			C1633.5,77,1631.3,75.7,1629.5,76.7z"/>
	</g>
	<g>
		<path class="st1" d="M1695.6,202.7h8.3v8c-1.9,1.9-5,3.1-7.9,3.1c-5.6,0-10.4-4.7-10.4-10.4c0-5.6,4.8-10.3,10.4-10.3
			c2.8,0,6,1.2,7.9,3.1l-2.1,2c-1.4-1.5-3.7-2.4-5.8-2.4c-4,0-7.4,3.5-7.4,7.6c0,4.2,3.4,7.7,7.4,7.7c1.7,0,3.6-0.6,4.9-1.7v-4.2
			h-5.4V202.7z"/>
		<path class="st1" d="M1718,209.6l1.8,1.9c-1.3,1.4-4,2.3-6.1,2.3c-4.2,0-7.7-3.3-7.7-7.9c0-4.5,3.3-7.8,7.5-7.8
			c4.6,0,7.2,3.5,7.2,8.9h-11.8c0.4,2.5,2.2,4.3,4.8,4.3C1715.3,211.2,1717.1,210.5,1718,209.6z M1708.9,204.6h9
			c-0.3-2.3-1.7-4-4.3-4C1711.3,200.6,1709.4,202.2,1708.9,204.6z"/>
		<path class="st1" d="M1731,212.7c-0.8,0.7-1.9,1.1-3,1.1c-2.3,0-4-1.7-4-4.1v-8.8h-2.3v-2.4h2.3v-4.1h2.8v4.1h3.6v2.4h-3.6v8.6
			c0,1,0.7,1.8,1.5,1.8c0.6,0,1.2-0.2,1.5-0.6L1731,212.7z"/>
		<path class="st1" d="M1762.2,203.9v9.6h-2.8v-9.1c0-2.2-1.3-3.8-3.2-3.8c-2.2,0-3.7,1.4-3.7,3.5v9.4h-2.8v-9.1
			c0-2.2-1.3-3.8-3.2-3.8c-2.2,0-3.7,1.4-3.7,3.5v9.4h-2.9v-15h2.9v2.1c0.8-1.5,2.3-2.4,4.2-2.4c2.2,0,4,1.2,4.8,3
			c0.7-1.9,2.6-3,4.9-3C1759.9,198.1,1762.2,200.5,1762.2,203.9z"/>
		<path class="st1" d="M1764.3,205.9c0-4.3,3.6-7.9,7.9-7.9c4.3,0,7.9,3.6,7.9,7.9c0,4.3-3.6,7.9-7.9,7.9
			C1767.9,213.8,1764.3,210.2,1764.3,205.9z M1777.2,205.9c0-2.9-2.3-5.4-5-5.4c-2.8,0-5.1,2.4-5.1,5.4c0,2.9,2.3,5.4,5.1,5.4
			C1775,211.3,1777.2,208.9,1777.2,205.9z"/>
		<path class="st1" d="M1790.9,198.1v2.5c-3.1,0-5.3,1.7-5.6,4.3v8.6h-2.9v-15h2.9v2.9C1786.3,199.3,1788.4,198.1,1790.9,198.1z"/>
		<path class="st1" d="M1803.8,209.6l1.8,1.9c-1.3,1.4-4,2.3-6.1,2.3c-4.2,0-7.7-3.3-7.7-7.9c0-4.5,3.3-7.8,7.5-7.8
			c4.6,0,7.2,3.5,7.2,8.9h-11.8c0.4,2.5,2.2,4.3,4.8,4.3C1801.1,211.2,1802.9,210.5,1803.8,209.6z M1794.7,204.6h9
			c-0.3-2.3-1.7-4-4.3-4C1797.1,200.6,1795.2,202.2,1794.7,204.6z"/>
		<path class="st1" d="M1815.1,205.9c0-4.3,3.6-7.9,7.9-7.9c4.3,0,7.9,3.6,7.9,7.9c0,4.3-3.6,7.9-7.9,7.9
			C1818.7,213.8,1815.1,210.2,1815.1,205.9z M1828,205.9c0-2.9-2.3-5.4-5-5.4c-2.8,0-5.1,2.4-5.1,5.4c0,2.9,2.3,5.4,5.1,5.4
			C1825.7,211.3,1828,208.9,1828,205.9z"/>
		<path class="st1" d="M1846.3,198.4v15h-2.9v-2.2c-0.9,1.5-2.7,2.5-4.8,2.5c-3.3,0-5.6-2.4-5.6-5.8v-9.6h2.8v9.1
			c0,2.2,1.4,3.8,3.5,3.8c2.1,0,3.9-1.4,4.1-3.1v-9.7H1846.3z"/>
		<path class="st1" d="M1857.4,212.7c-0.8,0.7-1.9,1.1-3,1.1c-2.3,0-4-1.7-4-4.1v-8.8h-2.3v-2.4h2.3v-4.1h2.8v4.1h3.6v2.4h-3.6v8.6
			c0,1,0.7,1.8,1.5,1.8c0.6,0,1.2-0.2,1.5-0.6L1857.4,212.7z"/>
		<path class="st1" d="M1865.6,205.9c0-4.3,3.6-7.9,7.9-7.9c4.3,0,7.9,3.6,7.9,7.9c0,4.3-3.6,7.9-7.9,7.9
			C1869.2,213.8,1865.6,210.2,1865.6,205.9z M1878.5,205.9c0-2.9-2.3-5.4-5-5.4c-2.8,0-5.1,2.4-5.1,5.4c0,2.9,2.3,5.4,5.1,5.4
			C1876.2,211.3,1878.5,208.9,1878.5,205.9z"/>
		<path class="st1" d="M1887.6,198.4h3.5v2.4h-3.5v12.6h-2.8v-12.6h-2.3v-2.4h2.3v-1.8c0-2.4,1.6-4.1,4-4.1c1.1,0,2.2,0.4,3,1.1
			l-1,1.9c-0.3-0.3-0.9-0.6-1.5-0.6c-0.8,0-1.5,0.8-1.5,1.8V198.4z"/>
		<path class="st1" d="M1922.3,203.9v9.6h-2.8v-9.1c0-2.2-1.3-3.8-3.2-3.8c-2.2,0-3.7,1.4-3.7,3.5v9.4h-2.8v-9.1
			c0-2.2-1.3-3.8-3.2-3.8c-2.2,0-3.7,1.4-3.7,3.5v9.4h-2.9v-15h2.9v2.1c0.8-1.5,2.3-2.4,4.2-2.4c2.2,0,4,1.2,4.8,3
			c0.7-1.9,2.6-3,4.9-3C1920,198.1,1922.3,200.5,1922.3,203.9z"/>
		<path class="st1" d="M1936.5,209.6l1.8,1.9c-1.3,1.4-4,2.3-6.1,2.3c-4.2,0-7.7-3.3-7.7-7.9c0-4.5,3.3-7.8,7.5-7.8
			c4.6,0,7.2,3.5,7.2,8.9h-11.8c0.4,2.5,2.2,4.3,4.8,4.3C1933.7,211.2,1935.6,210.5,1936.5,209.6z M1927.4,204.6h9
			c-0.3-2.3-1.7-4-4.3-4C1929.7,200.6,1927.8,202.2,1927.4,204.6z"/>
		<path class="st1" d="M1952.6,209.6l1.8,1.9c-1.3,1.4-4,2.3-6.1,2.3c-4.2,0-7.7-3.3-7.7-7.9c0-4.5,3.3-7.8,7.5-7.8
			c4.6,0,7.2,3.5,7.2,8.9h-11.8c0.4,2.5,2.2,4.3,4.8,4.3C1949.8,211.2,1951.7,210.5,1952.6,209.6z M1943.5,204.6h9
			c-0.3-2.3-1.7-4-4.3-4C1945.9,200.6,1944,202.2,1943.5,204.6z"/>
		<path class="st1" d="M1965.6,212.7c-0.8,0.7-1.9,1.1-3,1.1c-2.3,0-4-1.7-4-4.1v-8.8h-2.3v-2.4h2.3v-4.1h2.8v4.1h3.6v2.4h-3.6v8.6
			c0,1,0.7,1.8,1.5,1.8c0.6,0,1.2-0.2,1.5-0.6L1965.6,212.7z"/>
		<path class="st1" d="M1967,194.2c0-0.9,0.8-1.7,1.7-1.7c0.9,0,1.7,0.8,1.7,1.7c0,0.9-0.8,1.7-1.7,1.7
			C1967.8,195.9,1967,195.1,1967,194.2z M1967.3,198.4h2.9v15h-2.9V198.4z"/>
		<path class="st1" d="M1986.5,203.9v9.6h-2.8v-9.1c0-2.2-1.4-3.8-3.5-3.8c-2.1,0-3.9,1.4-4.1,3.1v9.7h-2.9v-15h2.9v2.2
			c0.9-1.5,2.7-2.5,4.8-2.5C1984.2,198.1,1986.5,200.5,1986.5,203.9z"/>
		<path class="st1" d="M2003.8,198.4v13.4c0,3.9-3.2,6.6-7.6,6.6c-2.5,0-4.9-0.8-6.3-2l1.1-2.2c1.1,1,2.9,1.7,4.7,1.7
			c3.2,0,5.2-1.5,5.2-4.2v-2.2c-1.2,1.7-3.1,2.7-5.3,2.7c-4,0-6.8-3-6.8-7.2c0-4.2,2.9-7.1,6.8-7.1c2.3,0,4.2,1.1,5.3,2.8v-2.4
			H2003.8z M2000.9,205.2c0-2.7-1.9-4.6-4.6-4.6c-2.7,0-4.6,1.9-4.6,4.6c0,2.7,1.9,4.7,4.6,4.7
			C1999,209.8,2000.9,207.9,2000.9,205.2z"/>
		<path class="st1" d="M2005.9,211.6l1.4-2.1c1.6,1.2,3.3,1.8,5.1,1.8c1.7,0,2.9-0.8,2.9-1.9c0-1.4-1.5-1.8-3.4-2.4
			c-3.5-1-5.2-1.9-5.2-4.4c0-2.8,2.3-4.6,5.5-4.6c1.9,0,3.9,0.7,5.6,1.7l-1.3,2.1c-1.5-0.9-3-1.4-4.3-1.4c-1.5,0-2.6,0.6-2.6,1.8
			c0,1.2,0.9,1.5,3.5,2.3c2.5,0.7,5.1,1.5,5.1,4.5c0,2.9-2.4,4.7-5.7,4.7C2010.1,213.8,2007.7,213,2005.9,211.6z"/>
		<path class="st1" d="M2020.5,216.5c0.8-0.9,1.4-1.8,1.6-2.7c-1,0-1.9-0.9-1.9-1.9c0-1,0.8-1.9,1.9-1.9c1.3,0,2.1,1.2,2.1,2.8
			c0,1.4-0.7,2.6-2.5,4.7L2020.5,216.5z"/>
		<path class="st1" d="M2049.5,205.9c0,4.6-3,7.9-6.9,7.9c-2.3,0-4.2-1.1-5.4-3v2.6h-2.9v-20.3h2.9v7.9c1.2-1.8,3-2.9,5.4-2.9
			C2046.5,198.1,2049.5,201.3,2049.5,205.9z M2046.6,205.9c0-3.1-2-5.4-4.7-5.4c-2.7,0-4.7,2.2-4.7,5.4c0,3.1,2,5.4,4.7,5.4
			C2044.6,211.3,2046.6,209.1,2046.6,205.9z"/>
		<path class="st1" d="M2051.6,218.1l0.6-2.2c0.6,0.3,1.3,0.5,1.8,0.5c0.9,0,1.6-0.3,2.1-1.2l0.8-1.6l-6.5-15.1h3.1l4.8,11.9
			l4.6-11.9h3l-6.6,16.4c-1.1,2.7-2.7,3.8-4.8,3.9C2053.4,218.7,2052.4,218.5,2051.6,218.1z"/>
		<path class="st1" d="M2089.6,193.1v20.3h-2.9v-2.6c-1.2,1.9-3,3-5.4,3c-4,0-6.9-3.3-6.9-7.9c0-4.6,3-7.9,6.9-7.9
			c2.3,0,4.2,1.1,5.4,2.9v-7.9H2089.6z M2086.7,205.9c0-3.1-1.9-5.4-4.7-5.4c-2.8,0-4.7,2.2-4.7,5.4c0,3.1,1.9,5.4,4.7,5.4
			C2084.8,211.3,2086.7,209.1,2086.7,205.9z"/>
		<path class="st1" d="M2091.9,205.9c0-4.3,3.6-7.9,7.9-7.9c4.3,0,7.9,3.6,7.9,7.9c0,4.3-3.6,7.9-7.9,7.9
			C2095.5,213.8,2091.9,210.2,2091.9,205.9z M2104.9,205.9c0-2.9-2.3-5.4-5-5.4c-2.8,0-5.1,2.4-5.1,5.4c0,2.9,2.3,5.4,5.1,5.4
			C2102.6,211.3,2104.9,208.9,2104.9,205.9z"/>
		<path class="st1" d="M2109.6,194.2c0-0.9,0.8-1.7,1.7-1.7c0.9,0,1.7,0.8,1.7,1.7c0,0.9-0.8,1.7-1.7,1.7
			C2110.4,195.9,2109.6,195.1,2109.6,194.2z M2109.9,198.4h2.9v15h-2.9V198.4z"/>
		<path class="st1" d="M2129.1,203.9v9.6h-2.8v-9.1c0-2.2-1.4-3.8-3.5-3.8c-2.1,0-3.9,1.4-4.1,3.1v9.7h-2.9v-15h2.9v2.2
			c0.9-1.5,2.7-2.5,4.8-2.5C2126.8,198.1,2129.1,200.5,2129.1,203.9z"/>
		<path class="st1" d="M2146.4,198.4v13.4c0,3.9-3.2,6.6-7.6,6.6c-2.5,0-4.9-0.8-6.3-2l1.1-2.2c1.1,1,2.9,1.7,4.7,1.7
			c3.2,0,5.2-1.5,5.2-4.2v-2.2c-1.2,1.7-3.1,2.7-5.3,2.7c-4,0-6.8-3-6.8-7.2c0-4.2,2.9-7.1,6.8-7.1c2.3,0,4.2,1.1,5.3,2.8v-2.4
			H2146.4z M2143.5,205.2c0-2.7-1.9-4.6-4.6-4.6c-2.7,0-4.6,1.9-4.6,4.6c0,2.7,1.9,4.7,4.6,4.7
			C2141.6,209.8,2143.5,207.9,2143.5,205.2z"/>
		<path class="st1" d="M2156.7,193.1h2.9v20.3h-2.9V193.1z"/>
		<path class="st1" d="M2173.7,209.6l1.8,1.9c-1.3,1.4-4,2.3-6.1,2.3c-4.2,0-7.7-3.3-7.7-7.9c0-4.5,3.3-7.8,7.5-7.8
			c4.6,0,7.2,3.5,7.2,8.9h-11.8c0.4,2.5,2.2,4.3,4.8,4.3C2171,211.2,2172.8,210.5,2173.7,209.6z M2164.7,204.6h9
			c-0.3-2.3-1.7-4-4.3-4C2167,200.6,2165.1,202.2,2164.7,204.6z"/>
		<path class="st1" d="M2177.7,211.6l1.4-2.1c1.6,1.2,3.3,1.8,5.1,1.8c1.7,0,2.9-0.8,2.9-1.9c0-1.4-1.5-1.8-3.4-2.4
			c-3.5-1-5.2-1.9-5.2-4.4c0-2.8,2.3-4.6,5.5-4.6c1.9,0,3.9,0.7,5.6,1.7l-1.3,2.1c-1.5-0.9-3-1.4-4.3-1.4c-1.5,0-2.6,0.6-2.6,1.8
			c0,1.2,0.9,1.5,3.5,2.3c2.5,0.7,5.1,1.5,5.1,4.5c0,2.9-2.4,4.7-5.7,4.7C2181.9,213.8,2179.5,213,2177.7,211.6z"/>
		<path class="st1" d="M2191,211.6l1.4-2.1c1.6,1.2,3.3,1.8,5.1,1.8c1.7,0,2.9-0.8,2.9-1.9c0-1.4-1.5-1.8-3.4-2.4
			c-3.5-1-5.2-1.9-5.2-4.4c0-2.8,2.3-4.6,5.5-4.6c1.9,0,3.9,0.7,5.6,1.7l-1.3,2.1c-1.5-0.9-3-1.4-4.3-1.4c-1.5,0-2.6,0.6-2.6,1.8
			c0,1.2,0.9,1.5,3.5,2.3c2.5,0.7,5.1,1.5,5.1,4.5c0,2.9-2.4,4.7-5.7,4.7C2195.2,213.8,2192.8,213,2191,211.6z"/>
		<path class="st1" d="M2205.2,211.8c0-1,0.8-1.9,1.9-1.9c1,0,1.9,0.9,1.9,1.9c0,1.1-0.8,2-1.9,2
			C2206,213.8,2205.2,212.9,2205.2,211.8z"/>
	</g>
</g>
<g>
	<g>
		<path class="st0" d="M2717.7,79h20.6l29.9,54.5L2798,79h20.8v96.4H2798v-60.1l-29.8,54.5l-29.9-54.5v60.1h-20.6V79z"/>
		<path class="st1" d="M2829.7,139.1c0-20.6,18.1-37.9,39.7-37.9c21.5,0,39.4,17.3,39.4,37.9s-18,38-39.4,38
			C2847.8,177.1,2829.7,159.7,2829.7,139.1z M2889.3,139.1c0-11.2-9.1-20.6-19.9-20.6c-10.9,0-20.1,9.4-20.1,20.6
			c0,11.2,9.1,20.8,20.1,20.8C2880.2,159.9,2889.3,150.3,2889.3,139.1z"/>
		<path class="st0" d="M2988.8,129.3v46.2H2969v-41.8c0-9-5.6-15.2-13.8-15.2c-8.6,0-15.2,6.2-15.2,14l-0.1-0.4v43.4h-20.5v-72.6
			h20.5v9.1c4.3-6.6,12.5-10.8,21.9-10.8C2977.6,101.2,2988.8,112.9,2988.8,129.3z"/>
		<path class="st1" d="M3053.7,152.6l13.1,13.3c-6.5,6.7-18.9,11.2-29.6,11.2c-21.6,0-38.5-15.9-38.5-38.2
			c0-21.9,16.1-37.8,37.3-37.8c22.7,0,36.1,17.3,36.1,44.6h-52.4c2.4,7.9,8.7,13.2,17.3,13.2C3042.8,159,3049.8,156.4,3053.7,152.6z
			 M3020,131.1h32.4c-2-7.2-7.3-11.8-15.6-11.8C3029.2,119.3,3022.7,123.8,3020,131.1z"/>
		<path class="st0" d="M3123.2,170.8c-4.2,3.8-10.8,6.3-16.7,6.3c-12.8,0-21.8-9.1-21.8-22.2v-35.5h-10v-16.6h10V83h19.7v19.9h15.7
			v16.6h-15.7v32.3c0,4.8,3.1,8.1,6.9,8.1c2.8,0,5.6-1,7-2.4L3123.2,170.8z"/>
		<path class="st1" d="M3168.3,170.8c-4.2,3.8-10.8,6.3-16.7,6.3c-12.8,0-21.8-9.1-21.8-22.2v-35.5h-10v-16.6h10V83h19.7v19.9h15.7
			v16.6h-15.7v32.3c0,4.8,3.1,8.1,6.9,8.1c2.8,0,5.6-1,7-2.4L3168.3,170.8z"/>
		<path class="st0" d="M3243.3,132.1v43.4h-19.8v-7.3c-5.2,5.9-13.5,9-21.3,9c-15.4,0-27.4-9.3-27.4-23.2
			c0-14.3,13.3-24.1,30.2-24.1c5.9,0,12.4,1.3,18.5,3.7v-1.4c0-7.7-4.8-14.5-16.7-14.5c-6.7,0-13.1,2.2-18.8,5.2l-6.9-13.6
			c10.2-5.2,20.2-8,30.3-8C3230.3,101.2,3243.3,113.1,3243.3,132.1z M3223.5,152.6v-6.7c-4.6-1.7-10-2.7-15.6-2.7
			c-7.4,0-13.3,4.3-13.3,10.2c0,5.9,5.2,9.5,12.2,9.5C3214.6,163,3222.1,159.3,3223.5,152.6z"/>
	</g>
	<g>
		<path class="st2" d="M2509,26.5l-50.6,29.2c-1.8,1-1.8,3.6,0,4.6l44.7,25.8c1.2,0.7,2.8,0.7,4,0l48.8-28.2l-46.8-27
			C2507.5,30,2507.5,27.6,2509,26.5z"/>
		<path class="st3" d="M2602.7,26.4c1.8,1,1.8,3.6,0,4.6l-46.7,27l48.8,28.2c1.2,0.7,2.8,0.7,4,0l44.7-25.8c1.8-1,1.8-3.6,0-4.6
			L2602.7,26.4z"/>
		<path class="st4" d="M2602.7,26.4L2558,0.5c-1.2-0.7-2.8-0.7-4,0l-45,26c-1.6,1.1-1.5,3.5,0.2,4.5l46.8,27l46.7-27
			C2604.5,29.9,2604.5,27.4,2602.7,26.4z"/>
		<g>
			<path class="st5" d="M2445,130.7v58.7c0,1.4,0.8,2.7,2,3.5l44.7,25.8c1.8,1,4-0.3,4-2.3v-54.1l-48.7-28.2
				C2445.7,133.4,2445,132.1,2445,130.7z"/>
		</g>
		<path class="st1" d="M2544.5,131.8l-50.5-29.2c1.1,0.7,1.7,1.9,1.7,3.2v56.4l46.8,27.1c1.8,1,4-0.3,4-2.3v-51.8
			C2546.5,133.9,2545.8,132.6,2544.5,131.8z"/>
		<path class="st0" d="M2494,102.7l-28-16.1l-17-9.8c-1.8-1-4,0.3-4,2.3v51.6c0,1.4,0.8,2.7,2,3.5l48.7,28.2v-56.4
			C2495.7,104.6,2495,103.4,2494,102.7z"/>
		<g>
			<path class="st5" d="M2665,134.1l-48.7,28.2v54.1c0,2.1,2.2,3.3,4,2.3l44.7-25.8c1.2-0.7,2-2,2-3.5v-58.7
				C2667,132.1,2666.2,133.4,2665,134.1z"/>
		</g>
		<path class="st1" d="M2618,102.7l-50.5,29.2c-1.2,0.7-2,2-2,3.5v51.8c0,2.1,2.2,3.3,4,2.3l46.8-27.1v-56.4
			C2616.3,104.6,2617,103.4,2618,102.7z"/>
		<path class="st0" d="M2663,76.7l-17.1,9.8l-27.9,16.1c-1.1,0.7-1.7,1.9-1.7,3.2v56.4l48.7-28.2c1.2-0.7,2-2,2-3.5V79
			C2667,77,2664.8,75.7,2663,76.7z"/>
	</g>
</g>
<g>
	<g>
		<path class="st7" d="M150.4,32.8L99.8,62c-1.8,1-1.8,3.6,0,4.6l44.7,25.8c1.2,0.7,2.8,0.7,4,0l48.8-28.2l-46.8-27
			C148.9,36.3,148.8,33.9,150.4,32.8z"/>
		<path class="st7" d="M244,32.7c1.8,1,1.8,3.6,0,4.6l-46.7,27l48.8,28.2c1.2,0.7,2.8,0.7,4,0l44.7-25.8c1.8-1,1.8-3.6,0-4.6
			L244,32.7z"/>
		<path class="st7" d="M244,32.7L199.3,6.9c-1.2-0.7-2.8-0.7-4,0l-45,26c-1.6,1.1-1.5,3.5,0.2,4.5l46.8,27l46.7-27
			C245.8,36.3,245.8,33.7,244,32.7z"/>
		<g>
			<path class="st7" d="M86.3,137v58.7c0,1.4,0.8,2.7,2,3.5L133,225c1.8,1,4-0.3,4-2.3v-54.1l-48.7-28.2
				C87.1,139.7,86.3,138.4,86.3,137z"/>
		</g>
		<path class="st7" d="M185.8,138.2L135.3,109c1.1,0.7,1.7,1.9,1.7,3.2v56.4l46.8,27.1c1.8,1,4-0.3,4-2.3v-51.8
			C187.8,140.2,187.1,138.9,185.8,138.2z"/>
		<path class="st7" d="M135.3,109l-28-16.1l-17-9.8c-1.8-1-4,0.3-4,2.3V137c0,1.4,0.8,2.7,2,3.5l48.7,28.2v-56.4
			C137,110.9,136.4,109.7,135.3,109z"/>
		<g>
			<path class="st7" d="M306.3,140.5l-48.7,28.2v54.1c0,2.1,2.2,3.3,4,2.3l44.7-25.8c1.2-0.7,2-2,2-3.5l0-58.7
				C308.3,138.4,307.6,139.7,306.3,140.5z"/>
		</g>
		<path class="st7" d="M259.3,109l-50.5,29.2c-1.2,0.7-2,2-2,3.5v51.8c0,2.1,2.2,3.3,4,2.3l46.8-27.1v-56.4
			C257.6,110.9,258.3,109.7,259.3,109z"/>
		<path class="st7" d="M304.3,83.1l-17.1,9.8L259.3,109c-1.1,0.7-1.7,1.9-1.7,3.2v56.4l48.7-28.2c1.2-0.7,2-2,2-3.5V85.4
			C308.3,83.3,306.1,82,304.3,83.1z"/>
	</g>
	<g>
		<path class="st1" d="M0.5,356.6 M-1.8,356.6"/>
	</g>
</g>
<g>
	<g>
		<path class="st6" d="M246.7,507.5L202,481.7c-0.6-0.4-1.3-0.5-2-0.5s-1.4,0.2-2,0.5l-45,26c-1.6,1.1-1.5,3.5,0.2,4.5l46.8,27
			l46.7-27C248.5,511.1,248.5,508.5,246.7,507.5z"/>
		<path class="st6" d="M89,611.8c0,1.4,0.8,2.7,2,3.5l48.7,28.2V587c0-1.3-0.7-2.5-1.7-3.2l-28-16.1l-17-9.8
			c-0.4-0.2-0.9-0.4-1.3-0.4c-1.4,0-2.7,1.1-2.7,2.7V611.8z"/>
		<g>
			<path class="st6" d="M297.5,536.8L250,509.4c0,0.1,0,0.3,0,0.4c0,1.7-0.9,3.2-2.3,4L202,540.2l46.8,27c1.2,0.7,2.8,0.7,4,0
				l44.7-25.8C299.3,540.4,299.3,537.8,297.5,536.8z"/>
		</g>
		<g>
			<g>
				<path class="st6" d="M138.7,584.4c-0.2-0.2-0.5-0.5-0.7-0.6l0,0C138.2,584,138.5,584.2,138.7,584.4z"/>
			</g>
			<g>
				<path class="st6" d="M188.5,613l-47-27.1c0.1,0.4,0.1,0.8,0.1,1.2v56.4v1.2l44.8,25.9c1.8,1,4-0.3,4-2.3v-51.8
					C190.5,615,189.8,613.7,188.5,613z"/>
			</g>
		</g>
		<g>
			<g>
				<path class="st6" d="M153.2,512.1l23.4,13.5L153.2,512.1c-0.4-0.2-0.7-0.6-1-1C152.5,511.5,152.8,511.8,153.2,512.1z"/>
			</g>
			<g>
				<path class="st6" d="M152.2,513.8c-1.4-0.8-2.2-2.2-2.3-3.8c0-0.2,0-0.4,0-0.6l-47.4,27.4c-1.8,1-1.8,3.6,0,4.6l44.7,25.8
					c1.2,0.7,2.8,0.7,4,0l46.8-27L152.2,513.8z"/>
			</g>
		</g>
		<g>
			<path class="st6" d="M138.7,645.2L90,617c-0.4-0.2-0.7-0.5-1-0.7v54.3c0,1.4,0.8,2.7,2,3.5l44.7,25.8c1.8,1,4-0.3,4-2.3v-51.8
				L138.7,645.2z"/>
		</g>
		<path class="st6" d="M311,611.8c0,1.4-0.8,2.7-2,3.5l-48.7,28.2V587c0-1.3,0.7-2.5,1.7-3.2l28-16.1l17-9.8
			c0.4-0.2,0.9-0.4,1.3-0.4c1.4,0,2.7,1.1,2.7,2.7V611.8z"/>
		<g>
			<g>
				<path class="st6" d="M261.3,584.4c0.2-0.2,0.5-0.5,0.7-0.6l0,0C261.8,584,261.5,584.2,261.3,584.4z"/>
			</g>
			<g>
				<path class="st6" d="M211.5,613l47-27.1c-0.1,0.4-0.1,0.8-0.1,1.2v56.4v1.2l-44.8,25.9c-1.8,1-4-0.3-4-2.3v-51.8
					C209.5,615,210.2,613.7,211.5,613z"/>
			</g>
		</g>
		<g>
			<path class="st6" d="M261.3,645.2L310,617c0.4-0.2,0.7-0.5,1-0.7v54.3c0,1.4-0.8,2.7-2,3.5l-44.7,25.8c-1.8,1-4-0.3-4-2.3v-51.8
				L261.3,645.2z"/>
		</g>
	</g>
	<g>
		<g>
			<path class="st6" d="M0,734.9h15.7l22.8,41.5l22.6-41.5h15.8v73.4H61.1v-45.7L38.5,804l-22.8-41.5v45.7H0V734.9z"/>
		</g>
		<g>
			<path class="st6" d="M85.2,780.6c0-15.7,13.8-28.8,30.2-28.8c16.3,0,30,13.1,30,28.8s-13.7,29-30,29
				C99,809.6,85.2,796.3,85.2,780.6z M130.6,780.6c0-8.5-6.9-15.7-15.2-15.7c-8.3,0-15.3,7.2-15.3,15.7s6.9,15.8,15.3,15.8
				C123.7,796.4,130.6,789.2,130.6,780.6z"/>
		</g>
		<g>
			<path class="st6" d="M206.3,773.2v35.1h-15.1v-31.8c0-6.8-4.3-11.5-10.5-11.5c-6.5,0-11.5,4.7-11.5,10.7l-0.1-0.3v33h-15.6v-55.2
				h15.6v6.9c3.3-5,9.5-8.2,16.7-8.2C197.8,751.8,206.3,760.7,206.3,773.2z"/>
		</g>
		<g>
			<path class="st6" d="M255.7,790.9l9.9,10.1c-4.9,5.1-14.4,8.5-22.5,8.5c-16.5,0-29.3-12.1-29.3-29.1c0-16.7,12.3-28.7,28.4-28.7
				c17.3,0,27.5,13.1,27.5,34h-39.8c1.8,6,6.6,10,13.1,10C247.4,795.8,252.7,793.8,255.7,790.9z M230.1,774.5h24.7
				c-1.5-5.4-5.6-9-11.9-9C237,765.6,232.1,769,230.1,774.5z"/>
		</g>
		<g>
			<path class="st6" d="M308.6,804.8c-3.2,2.9-8.2,4.8-12.7,4.8c-9.7,0-16.6-6.9-16.6-16.9v-27h-7.6v-12.6h7.6v-15.2h15v15.2h12
				v12.6h-12v24.6c0,3.6,2.4,6.2,5.2,6.2c2.1,0,4.3-0.7,5.3-1.8L308.6,804.8z"/>
		</g>
		<g>
			<path class="st6" d="M342.9,804.8c-3.2,2.9-8.2,4.8-12.7,4.8c-9.7,0-16.6-6.9-16.6-16.9v-27h-7.6v-12.6h7.6v-15.2h15v15.2h12
				v12.6h-12v24.6c0,3.6,2.4,6.2,5.2,6.2c2.1,0,4.3-0.7,5.3-1.8L342.9,804.8z"/>
		</g>
		<g>
			<path class="st6" d="M400,775.3v33h-15.1v-5.6c-4,4.5-10.3,6.8-16.2,6.8c-11.8,0-20.8-7.1-20.8-17.6c0-10.9,10.1-18.4,23-18.4
				c4.5,0,9.4,1,14.1,2.8v-1.1c0-5.9-3.6-11-12.7-11c-5.1,0-9.9,1.7-14.3,4l-5.2-10.4c7.8-4,15.4-6.1,23.1-6.1
				C390.2,751.8,400,760.9,400,775.3z M384.9,790.9v-5.1c-3.5-1.3-7.6-2-11.9-2c-5.7,0-10.1,3.3-10.1,7.8c0,4.5,4,7.3,9.3,7.3
				C378.2,798.8,383.9,796,384.9,790.9z"/>
		</g>
	</g>
	<g>
		<g>
			<path class="st6" d="M7.2,830.7h5.5v5.2c-1.2,1.3-3.2,2.1-5.1,2.1c-3.7,0-6.8-3-6.8-6.6s3.1-6.6,6.8-6.6c1.9,0,3.9,0.8,5.1,2.1
				l-1.7,1.5c-0.8-0.9-2.2-1.5-3.4-1.5c-2.4,0-4.4,2.1-4.4,4.5c0,2.5,2,4.5,4.4,4.5c1,0,2-0.3,2.8-0.9v-2.3H7.2V830.7z"/>
		</g>
		<g>
			<path class="st6" d="M21.7,835l1.4,1.5c-0.8,0.9-2.5,1.5-3.9,1.5c-2.8,0-5-2.1-5-5.1c0-2.9,2.2-5,4.9-5c3,0,4.7,2.3,4.7,5.8h-7.3
				c0.3,1.3,1.3,2.3,2.7,2.3C20.1,836,21.2,835.6,21.7,835z M16.6,832h5.1c-0.3-1.2-1.1-2.1-2.4-2.1C18,829.9,16.9,830.7,16.6,832z"
				/>
		</g>
		<g>
			<path class="st6" d="M30.9,837.2c-0.5,0.5-1.3,0.8-2.1,0.8c-1.6,0-2.7-1.2-2.7-2.8V830h-1.4v-1.9h1.4v-2.6h2.2v2.6h2.2v1.9h-2.2
				v4.9c0,0.7,0.4,1.1,1,1.1c0.4,0,0.7-0.1,1-0.4L30.9,837.2z"/>
		</g>
		<g>
			<path class="st6" d="M51.9,831.6v6.1h-2.2V832c0-1.3-0.8-2.2-1.9-2.2c-1.3,0-2.1,0.8-2.1,2v5.9h-2.2V832c0-1.3-0.8-2.2-1.9-2.2
				c-1.2,0-2.1,0.8-2.1,2v5.9h-2.3v-9.6h2.3v1.3c0.5-0.9,1.5-1.5,2.7-1.5c1.4,0,2.5,0.7,3.1,1.8c0.5-1.1,1.7-1.8,3.1-1.8
				C50.4,827.9,51.9,829.4,51.9,831.6z"/>
		</g>
		<g>
			<path class="st6" d="M53.5,832.9c0-2.7,2.4-5,5.2-5c2.8,0,5.2,2.3,5.2,5s-2.4,5.1-5.2,5.1C55.9,838,53.5,835.7,53.5,832.9z
				 M61.6,832.9c0-1.7-1.3-3.1-2.9-3.1c-1.6,0-2.9,1.4-2.9,3.1c0,1.7,1.3,3.1,2.9,3.1C60.2,836,61.6,834.6,61.6,832.9z"/>
		</g>
		<g>
			<path class="st6" d="M71.2,827.9v1.9c-2.1,0-3.5,1.2-3.5,3.1v4.9h-2.3v-9.6h2.3v1.9C68.4,828.7,69.6,827.9,71.2,827.9z"/>
		</g>
		<g>
			<path class="st6" d="M79.5,835l1.4,1.5c-0.8,0.9-2.5,1.5-3.9,1.5c-2.8,0-5-2.1-5-5.1c0-2.9,2.2-5,4.9-5c3,0,4.7,2.3,4.7,5.8h-7.3
				c0.3,1.3,1.3,2.3,2.7,2.3C77.9,836,79,835.6,79.5,835z M74.4,832h5.1c-0.3-1.2-1.1-2.1-2.4-2.1C75.7,829.9,74.7,830.7,74.4,832z"
				/>
		</g>
		<g>
			<path class="st6" d="M87.6,832.9c0-2.7,2.4-5,5.2-5c2.8,0,5.2,2.3,5.2,5s-2.4,5.1-5.2,5.1C90,838,87.6,835.7,87.6,832.9z
				 M95.7,832.9c0-1.7-1.3-3.1-2.9-3.1c-1.6,0-2.9,1.4-2.9,3.1c0,1.7,1.3,3.1,2.9,3.1C94.4,836,95.7,834.6,95.7,832.9z"/>
		</g>
		<g>
			<path class="st6" d="M108.4,828.1v9.6h-2.3v-1.3c-0.6,0.9-1.7,1.5-3,1.5c-2.1,0-3.6-1.5-3.6-3.7v-6.1h2.2v5.7
				c0,1.3,0.8,2.2,2,2.2s2.2-0.8,2.3-1.8v-6.1H108.4z"/>
		</g>
		<g>
			<path class="st6" d="M116,837.2c-0.5,0.5-1.3,0.8-2.1,0.8c-1.6,0-2.7-1.2-2.7-2.8V830h-1.4v-1.9h1.4v-2.6h2.2v2.6h2.2v1.9h-2.2
				v4.9c0,0.7,0.4,1.1,1,1.1c0.4,0,0.7-0.1,1-0.4L116,837.2z"/>
		</g>
		<g>
			<path class="st6" d="M121.8,832.9c0-2.7,2.4-5,5.2-5c2.8,0,5.2,2.3,5.2,5s-2.4,5.1-5.2,5.1C124.2,838,121.8,835.7,121.8,832.9z
				 M129.9,832.9c0-1.7-1.3-3.1-2.9-3.1c-1.6,0-2.9,1.4-2.9,3.1c0,1.7,1.3,3.1,2.9,3.1C128.5,836,129.9,834.6,129.9,832.9z"/>
		</g>
		<g>
			<path class="st6" d="M136.6,828.1h2.2v1.9h-2.2v7.8h-2.2V830H133v-1.9h1.4v-1c0-1.6,1.1-2.8,2.7-2.8c0.7,0,1.5,0.3,2.1,0.8
				l-0.7,1.5c-0.2-0.2-0.6-0.4-1-0.4c-0.5,0-1,0.5-1,1.1V828.1z"/>
		</g>
		<g>
			<path class="st6" d="M145,840.6l0.5-1.6c0.4,0.2,0.9,0.4,1.2,0.4c0.5,0,1-0.2,1.2-0.6l0.4-0.9l-4.1-9.7h2.4l2.8,7.2l2.6-7.2h2.4
				l-4.1,10.3c-0.7,1.8-1.8,2.7-3.3,2.7C146.4,841.1,145.6,840.9,145,840.6z"/>
		</g>
		<g>
			<path class="st6" d="M155,832.9c0-2.7,2.4-5,5.2-5c2.8,0,5.2,2.3,5.2,5s-2.4,5.1-5.2,5.1C157.4,838,155,835.7,155,832.9z
				 M163.1,832.9c0-1.7-1.3-3.1-2.9-3.1c-1.6,0-2.9,1.4-2.9,3.1c0,1.7,1.3,3.1,2.9,3.1C161.8,836,163.1,834.6,163.1,832.9z"/>
		</g>
		<g>
			<path class="st6" d="M175.8,828.1v9.6h-2.3v-1.3c-0.6,0.9-1.7,1.5-3,1.5c-2.1,0-3.6-1.5-3.6-3.7v-6.1h2.2v5.7
				c0,1.3,0.8,2.2,2,2.2s2.2-0.8,2.3-1.8v-6.1H175.8z"/>
		</g>
		<g>
			<path class="st6" d="M183.7,827.9v1.9c-2.1,0-3.5,1.2-3.5,3.1v4.9H178v-9.6h2.3v1.9C180.9,828.7,182.1,827.9,183.7,827.9z"/>
		</g>
		<g>
			<path class="st6" d="M204.6,831.6v6.1h-2.2V832c0-1.3-0.8-2.2-1.9-2.2c-1.3,0-2.1,0.8-2.1,2v5.9h-2.2V832c0-1.3-0.8-2.2-1.9-2.2
				c-1.2,0-2.1,0.8-2.1,2v5.9h-2.3v-9.6h2.3v1.3c0.5-0.9,1.5-1.5,2.7-1.5c1.4,0,2.5,0.7,3.1,1.8c0.5-1.1,1.7-1.8,3.1-1.8
				C203.1,827.9,204.6,829.4,204.6,831.6z"/>
		</g>
		<g>
			<path class="st6" d="M213.7,835l1.4,1.5c-0.8,0.9-2.5,1.5-3.9,1.5c-2.8,0-5-2.1-5-5.1c0-2.9,2.2-5,4.9-5c3,0,4.7,2.3,4.7,5.8
				h-7.3c0.3,1.3,1.3,2.3,2.7,2.3C212.1,836,213.1,835.6,213.7,835z M208.5,832h5.1c-0.3-1.2-1.1-2.1-2.4-2.1
				C209.9,829.9,208.9,830.7,208.5,832z"/>
		</g>
		<g>
			<path class="st6" d="M224.4,835l1.4,1.5c-0.8,0.9-2.5,1.5-3.9,1.5c-2.8,0-5-2.1-5-5.1c0-2.9,2.2-5,4.9-5c3,0,4.7,2.3,4.7,5.8
				h-7.3c0.3,1.3,1.3,2.3,2.7,2.3C222.8,836,223.8,835.6,224.4,835z M219.2,832h5.1c-0.3-1.2-1.1-2.1-2.4-2.1
				C220.6,829.9,219.6,830.7,219.2,832z"/>
		</g>
		<g>
			<path class="st6" d="M233.6,837.2c-0.5,0.5-1.3,0.8-2.1,0.8c-1.6,0-2.7-1.2-2.7-2.8V830h-1.4v-1.9h1.4v-2.6h2.2v2.6h2.2v1.9H231
				v4.9c0,0.7,0.4,1.1,1,1.1c0.4,0,0.7-0.1,1-0.4L233.6,837.2z"/>
		</g>
		<g>
			<path class="st6" d="M234.8,825.4c0-0.7,0.6-1.3,1.3-1.3c0.7,0,1.3,0.6,1.3,1.3s-0.6,1.3-1.3,1.3
				C235.4,826.7,234.8,826,234.8,825.4z M235,828.1h2.3v9.6H235V828.1z"/>
		</g>
		<g>
			<path class="st6" d="M248.2,831.6v6.1H246v-5.7c0-1.3-0.8-2.2-2-2.2s-2.2,0.8-2.3,1.8v6.1h-2.3v-9.6h2.3v1.3
				c0.6-0.9,1.7-1.5,3-1.5C246.8,827.9,248.2,829.4,248.2,831.6z"/>
		</g>
		<g>
			<path class="st6" d="M259.8,828.1v8.6c0,2.5-2.1,4.2-5,4.2c-1.7,0-3.2-0.5-4.1-1.3l0.8-1.7c0.7,0.6,1.8,1,3,1
				c1.9,0,3.1-0.9,3.1-2.4v-1.3c-0.8,1-1.9,1.6-3.3,1.6c-2.5,0-4.3-1.9-4.3-4.6s1.8-4.6,4.3-4.6c1.4,0,2.6,0.6,3.3,1.7v-1.4H259.8z
				 M257.5,832.5c0-1.5-1.1-2.6-2.6-2.6c-1.5,0-2.6,1.1-2.6,2.6c0,1.5,1.1,2.6,2.6,2.6C256.4,835.1,257.5,834,257.5,832.5z"/>
		</g>
		<g>
			<path class="st6" d="M261.3,836.5l1-1.6c0.9,0.7,2,1.1,3.2,1.1c0.9,0,1.5-0.4,1.5-1c0-0.7-0.8-1-1.9-1.3
				c-2.1-0.5-3.4-1.1-3.4-2.9c0-1.8,1.5-3,3.6-3c1.3,0,2.7,0.5,3.7,1.2l-1,1.7c-0.9-0.6-1.9-0.9-2.7-0.9c-0.8,0-1.4,0.3-1.4,0.9
				c0,0.6,0.5,0.8,2,1.2c1.6,0.4,3.4,1,3.4,3c0,1.8-1.5,3-3.8,3C264.1,838,262.5,837.5,261.3,836.5z"/>
		</g>
		<g>
			<path class="st6" d="M271.2,839.7c0.6-0.6,0.9-1.2,1.1-1.8c-0.8,0-1.4-0.7-1.4-1.5c0-0.8,0.7-1.5,1.5-1.5c1,0,1.6,0.9,1.6,2
				c0,1-0.5,2-1.8,3.3L271.2,839.7z"/>
		</g>
		<g>
			<path class="st6" d="M290.9,832.9c0,3-1.9,5.1-4.4,5.1c-1.4,0-2.6-0.7-3.4-1.8v1.5h-2.3v-13h2.3v4.9c0.8-1.1,1.9-1.8,3.4-1.8
				C289,827.9,290.9,830,290.9,832.9z M288.6,832.9c0-1.8-1.2-3.1-2.8-3.1c-1.6,0-2.7,1.3-2.7,3.1c0,1.8,1.1,3.1,2.7,3.1
				C287.4,836,288.6,834.7,288.6,832.9z"/>
		</g>
		<g>
			<path class="st6" d="M292.4,840.6l0.5-1.6c0.4,0.2,0.9,0.4,1.2,0.4c0.5,0,1-0.2,1.2-0.6l0.4-0.9l-4.1-9.7h2.4l2.8,7.2l2.6-7.2
				h2.4l-4.1,10.3c-0.7,1.8-1.8,2.7-3.3,2.7C293.8,841.1,293,840.9,292.4,840.6z"/>
		</g>
		<g>
			<path class="st6" d="M317.9,824.7v13h-2.3v-1.5c-0.8,1.1-1.9,1.7-3.3,1.7c-2.6,0-4.4-2.1-4.4-5.1c0-2.9,1.9-5,4.4-5
				c1.4,0,2.6,0.6,3.3,1.7v-4.9H317.9z M315.6,832.9c0-1.8-1.1-3.1-2.7-3.1c-1.6,0-2.8,1.3-2.8,3.1c0,1.8,1.2,3.1,2.8,3.1
				C314.5,836,315.6,834.7,315.6,832.9z"/>
		</g>
		<g>
			<path class="st6" d="M319.5,832.9c0-2.7,2.4-5,5.2-5c2.8,0,5.2,2.3,5.2,5s-2.4,5.1-5.2,5.1C321.9,838,319.5,835.7,319.5,832.9z
				 M327.6,832.9c0-1.7-1.3-3.1-2.9-3.1c-1.6,0-2.9,1.4-2.9,3.1c0,1.7,1.3,3.1,2.9,3.1C326.3,836,327.6,834.6,327.6,832.9z"/>
		</g>
		<g>
			<path class="st6" d="M331.3,825.4c0-0.7,0.6-1.3,1.3-1.3c0.7,0,1.3,0.6,1.3,1.3s-0.6,1.3-1.3,1.3
				C331.9,826.7,331.3,826,331.3,825.4z M331.5,828.1h2.3v9.6h-2.3V828.1z"/>
		</g>
		<g>
			<path class="st6" d="M344.8,831.6v6.1h-2.2v-5.7c0-1.3-0.8-2.2-2-2.2s-2.2,0.8-2.3,1.8v6.1h-2.3v-9.6h2.3v1.3
				c0.6-0.9,1.7-1.5,3-1.5C343.3,827.9,344.8,829.4,344.8,831.6z"/>
		</g>
		<g>
			<path class="st6" d="M356.3,828.1v8.6c0,2.5-2.1,4.2-5,4.2c-1.7,0-3.2-0.5-4.1-1.3l0.8-1.7c0.7,0.6,1.8,1,3,1
				c1.9,0,3.1-0.9,3.1-2.4v-1.3c-0.8,1-1.9,1.6-3.3,1.6c-2.5,0-4.3-1.9-4.3-4.6s1.8-4.6,4.3-4.6c1.4,0,2.6,0.6,3.3,1.7v-1.4H356.3z
				 M354,832.5c0-1.5-1.1-2.6-2.6-2.6c-1.5,0-2.6,1.1-2.6,2.6c0,1.5,1.1,2.6,2.6,2.6C352.9,835.1,354,834,354,832.5z"/>
		</g>
		<g>
			<path class="st6" d="M363.4,824.7h2.3v13h-2.3V824.7z"/>
		</g>
		<g>
			<path class="st6" d="M374.8,835l1.4,1.5c-0.8,0.9-2.5,1.5-3.9,1.5c-2.8,0-5-2.1-5-5.1c0-2.9,2.2-5,4.9-5c3,0,4.7,2.3,4.7,5.8
				h-7.3c0.3,1.3,1.3,2.3,2.7,2.3C373.2,836,374.3,835.6,374.8,835z M369.7,832h5.1c-0.3-1.2-1.1-2.1-2.4-2.1
				C371,829.9,370,830.7,369.7,832z"/>
		</g>
		<g>
			<path class="st6" d="M377.9,836.5l1-1.6c0.9,0.7,2,1.1,3.2,1.1c0.9,0,1.5-0.4,1.5-1c0-0.7-0.8-1-1.9-1.3
				c-2.1-0.5-3.4-1.1-3.4-2.9c0-1.8,1.5-3,3.6-3c1.3,0,2.7,0.5,3.7,1.2l-1,1.7c-0.9-0.6-1.9-0.9-2.7-0.9c-0.8,0-1.4,0.3-1.4,0.9
				c0,0.6,0.5,0.8,2,1.2c1.6,0.4,3.4,1,3.4,3c0,1.8-1.5,3-3.8,3C380.6,838,379,837.5,377.9,836.5z"/>
		</g>
		<g>
			<path class="st6" d="M386.8,836.5l1-1.6c0.9,0.7,2,1.1,3.2,1.1c0.9,0,1.5-0.4,1.5-1c0-0.7-0.8-1-1.9-1.3
				c-2.1-0.5-3.4-1.1-3.4-2.9c0-1.8,1.5-3,3.6-3c1.3,0,2.7,0.5,3.7,1.2l-1,1.7c-0.9-0.6-1.9-0.9-2.7-0.9c-0.8,0-1.4,0.3-1.4,0.9
				c0,0.6,0.5,0.8,2,1.2c1.6,0.4,3.4,1,3.4,3c0,1.8-1.5,3-3.8,3C389.6,838,388,837.5,386.8,836.5z"/>
		</g>
		<g>
			<path class="st6" d="M396.3,836.5c0-0.8,0.6-1.4,1.5-1.4c0.8,0,1.4,0.7,1.4,1.4c0,0.8-0.7,1.5-1.4,1.5
				C397,838,396.3,837.3,396.3,836.5z"/>
		</g>
	</g>
</g>
<g>
	<g>
		<path class="st6" d="M2717.7,560.2h20.6l29.9,54.5l29.8-54.5h20.8v96.4H2798v-60.1l-29.8,54.5l-29.9-54.5v60.1h-20.6V560.2z"/>
		<path class="st6" d="M2829.7,620.2c0-20.6,18.1-37.9,39.7-37.9c21.5,0,39.4,17.3,39.4,37.9s-18,38-39.4,38
			C2847.8,658.3,2829.7,640.9,2829.7,620.2z M2889.3,620.2c0-11.2-9.1-20.6-19.9-20.6c-10.9,0-20.1,9.4-20.1,20.6
			c0,11.2,9.1,20.8,20.1,20.8C2880.2,641,2889.3,631.5,2889.3,620.2z"/>
		<path class="st6" d="M2988.8,610.4v46.2H2969v-41.8c0-9-5.6-15.2-13.8-15.2c-8.6,0-15.2,6.2-15.2,14l-0.1-0.4v43.4h-20.5V584h20.5
			v9.1c4.3-6.6,12.5-10.8,21.9-10.8C2977.6,582.3,2988.8,594,2988.8,610.4z"/>
		<path class="st6" d="M3053.7,633.7l13.1,13.3c-6.5,6.7-18.9,11.2-29.6,11.2c-21.6,0-38.5-15.9-38.5-38.2
			c0-21.9,16.1-37.8,37.3-37.8c22.7,0,36.1,17.3,36.1,44.6h-52.4c2.4,7.9,8.7,13.2,17.3,13.2
			C3042.8,640.2,3049.8,637.5,3053.7,633.7z M3020,612.2h32.4c-2-7.2-7.3-11.8-15.6-11.8C3029.2,600.4,3022.7,604.9,3020,612.2z"/>
		<path class="st6" d="M3123.2,652c-4.2,3.8-10.8,6.3-16.7,6.3c-12.8,0-21.8-9.1-21.8-22.2v-35.5h-10V584h10v-19.9h19.7V584h15.7
			v16.6h-15.7v32.3c0,4.8,3.1,8.1,6.9,8.1c2.8,0,5.6-1,7-2.4L3123.2,652z"/>
		<path class="st6" d="M3168.3,652c-4.2,3.8-10.8,6.3-16.7,6.3c-12.8,0-21.8-9.1-21.8-22.2v-35.5h-10V584h10v-19.9h19.7V584h15.7
			v16.6h-15.7v32.3c0,4.8,3.1,8.1,6.9,8.1c2.8,0,5.6-1,7-2.4L3168.3,652z"/>
		<path class="st6" d="M3243.3,613.2v43.4h-19.8v-7.3c-5.2,5.9-13.5,9-21.3,9c-15.4,0-27.4-9.3-27.4-23.2
			c0-14.3,13.3-24.1,30.2-24.1c5.9,0,12.4,1.3,18.5,3.7v-1.4c0-7.7-4.8-14.5-16.7-14.5c-6.7,0-13.1,2.2-18.8,5.2l-6.9-13.6
			c10.2-5.2,20.2-8,30.3-8C3230.3,582.3,3243.3,594.3,3243.3,613.2z M3223.5,633.7V627c-4.6-1.7-10-2.7-15.6-2.7
			c-7.4,0-13.3,4.3-13.3,10.2c0,5.9,5.2,9.5,12.2,9.5C3214.6,644.1,3222.1,640.4,3223.5,633.7z"/>
	</g>
	<g>
		<path class="st6" d="M2602.7,507.5l-44.7-25.8c-0.6-0.4-1.3-0.5-2-0.5s-1.4,0.2-2,0.5l-45,26c-1.6,1.1-1.5,3.5,0.2,4.5l46.8,27
			l46.7-27C2604.5,511.1,2604.5,508.5,2602.7,507.5z"/>
		<path class="st6" d="M2445,611.8c0,1.4,0.8,2.7,2,3.5l48.7,28.2V587c0-1.3-0.7-2.5-1.7-3.2l-28-16.1l-17-9.8
			c-0.4-0.2-0.9-0.4-1.3-0.4c-1.4,0-2.7,1.1-2.7,2.7V611.8z"/>
		<g>
			<path class="st6" d="M2653.5,536.8l-47.5-27.4c0,0.1,0,0.3,0,0.4c0,1.7-0.9,3.2-2.3,4l-45.7,26.4l46.8,27c1.2,0.7,2.8,0.7,4,0
				l44.7-25.8C2655.3,540.4,2655.3,537.8,2653.5,536.8z"/>
		</g>
		<g>
			<g>
				<path class="st6" d="M2494.7,584.4c-0.2-0.2-0.5-0.5-0.7-0.6l0,0C2494.2,584,2494.5,584.2,2494.7,584.4z"/>
			</g>
			<g>
				<path class="st6" d="M2544.5,613l-47-27.1c0.1,0.4,0.1,0.8,0.1,1.2v56.4v1.2l44.8,25.9c1.8,1,4-0.3,4-2.3v-51.8
					C2546.5,615,2545.8,613.7,2544.5,613z"/>
			</g>
		</g>
		<g>
			<g>
				<path class="st6" d="M2509.2,512.1l23.4,13.5L2509.2,512.1c-0.4-0.2-0.7-0.6-1-1C2508.5,511.5,2508.8,511.8,2509.2,512.1z"/>
			</g>
			<g>
				<path class="st6" d="M2508.2,513.8c-1.4-0.8-2.2-2.2-2.3-3.8c0-0.2,0-0.4,0-0.6l-47.4,27.4c-1.8,1-1.8,3.6,0,4.6l44.7,25.8
					c1.2,0.7,2.8,0.7,4,0l46.8-27L2508.2,513.8z"/>
			</g>
		</g>
		<g>
			<path class="st6" d="M2494.7,645.2L2446,617c-0.4-0.2-0.7-0.5-1-0.7v54.3c0,1.4,0.8,2.7,2,3.5l44.7,25.8c1.8,1,4-0.3,4-2.3v-51.8
				L2494.7,645.2z"/>
		</g>
		<path class="st6" d="M2667,611.8c0,1.4-0.8,2.7-2,3.5l-48.7,28.2V587c0-1.3,0.7-2.5,1.7-3.2l28-16.1l17-9.8
			c0.4-0.2,0.9-0.4,1.3-0.4c1.4,0,2.7,1.1,2.7,2.7V611.8z"/>
		<g>
			<g>
				<path class="st6" d="M2617.3,584.4c0.2-0.2,0.5-0.5,0.7-0.6l0,0C2617.7,584,2617.5,584.2,2617.3,584.4z"/>
			</g>
			<g>
				<path class="st6" d="M2567.5,613l47-27.1c-0.1,0.4-0.1,0.8-0.1,1.2v56.4v1.2l-44.8,25.9c-1.8,1-4-0.3-4-2.3v-51.8
					C2565.5,615,2566.2,613.7,2567.5,613z"/>
			</g>
		</g>
		<g>
			<path class="st6" d="M2617.3,645.2L2666,617c0.4-0.2,0.7-0.5,1-0.7v54.3c0,1.4-0.8,2.7-2,3.5l-44.7,25.8c-1.8,1-4-0.3-4-2.3
				v-51.8L2617.3,645.2z"/>
		</g>
	</g>
</g>
<g>
	<g>
		<path class="st6" d="M1569.2,507.5l-44.7-25.8c-0.6-0.4-1.3-0.5-2-0.5s-1.4,0.2-2,0.5l-45,26c-1.6,1.1-1.5,3.5,0.2,4.5l46.8,27
			l46.7-27C1571,511.1,1571,508.5,1569.2,507.5z"/>
		<path class="st6" d="M1411.5,611.8c0,1.4,0.8,2.7,2,3.5l48.7,28.2V587c0-1.3-0.7-2.5-1.7-3.2l-28-16.1l-17-9.8
			c-0.4-0.2-0.9-0.4-1.3-0.4c-1.4,0-2.7,1.1-2.7,2.7V611.8z"/>
		<g>
			<path class="st6" d="M1620,536.8l-47.5-27.4c0,0.1,0,0.3,0,0.4c0,1.7-0.9,3.2-2.3,4l-45.7,26.4l46.8,27c1.2,0.7,2.8,0.7,4,0
				l44.7-25.8C1621.8,540.4,1621.8,537.8,1620,536.8z"/>
		</g>
		<g>
			<g>
				<path class="st6" d="M1461.2,584.4c-0.2-0.2-0.5-0.5-0.7-0.6l0,0C1460.7,584,1461,584.2,1461.2,584.4z"/>
			</g>
			<g>
				<path class="st6" d="M1511,613l-47-27.1c0.1,0.4,0.1,0.8,0.1,1.2v56.4v1.2l44.8,25.9c1.8,1,4-0.3,4-2.3v-51.8
					C1513,615,1512.2,613.7,1511,613z"/>
			</g>
		</g>
		<g>
			<g>
				<path class="st6" d="M1475.7,512.1l23.4,13.5L1475.7,512.1c-0.4-0.2-0.7-0.6-1-1C1475,511.5,1475.3,511.8,1475.7,512.1z"/>
			</g>
			<g>
				<path class="st6" d="M1474.7,513.8c-1.4-0.8-2.2-2.2-2.3-3.8c0-0.2,0-0.4,0-0.6l-47.4,27.4c-1.8,1-1.8,3.6,0,4.6l44.7,25.8
					c1.2,0.7,2.8,0.7,4,0l46.8-27L1474.7,513.8z"/>
			</g>
		</g>
		<g>
			<path class="st6" d="M1461.2,645.2l-48.7-28.2c-0.4-0.2-0.7-0.5-1-0.7v54.3c0,1.4,0.8,2.7,2,3.5l44.7,25.8c1.8,1,4-0.3,4-2.3
				v-51.8L1461.2,645.2z"/>
		</g>
		<path class="st6" d="M1633.5,611.8c0,1.4-0.8,2.7-2,3.5l-48.7,28.2V587c0-1.3,0.7-2.5,1.7-3.2l28-16.1l17-9.8
			c0.4-0.2,0.9-0.4,1.3-0.4c1.4,0,2.7,1.1,2.7,2.7V611.8z"/>
		<g>
			<g>
				<path class="st6" d="M1583.8,584.4c0.2-0.2,0.5-0.5,0.7-0.6l0,0C1584.2,584,1584,584.2,1583.8,584.4z"/>
			</g>
			<g>
				<path class="st6" d="M1533.9,613l47-27.1c-0.1,0.4-0.1,0.8-0.1,1.2v56.4v1.2l-44.8,25.9c-1.8,1-4-0.3-4-2.3v-51.8
					C1531.9,615,1532.7,613.7,1533.9,613z"/>
			</g>
		</g>
		<g>
			<path class="st6" d="M1583.8,645.2l48.7-28.2c0.4-0.2,0.7-0.5,1-0.7v54.3c0,1.4-0.8,2.7-2,3.5l-44.7,25.8c-1.8,1-4-0.3-4-2.3
				v-51.8L1583.8,645.2z"/>
		</g>
	</g>
	<g>
		<g>
			<path class="st6" d="M1684.2,560.2h20.6l29.9,54.4l29.7-54.4h20.8v96.3h-20.8v-60l-29.7,54.4l-29.9-54.4v60h-20.6V560.2z"/>
		</g>
		<g>
			<path class="st6" d="M1796,620.2c0-20.6,18.1-37.9,39.7-37.9c21.5,0,39.4,17.2,39.4,37.9s-17.9,38-39.4,38
				C1814.1,658.2,1796,640.8,1796,620.2z M1855.6,620.2c0-11.2-9.1-20.6-19.9-20.6c-10.9,0-20.1,9.4-20.1,20.6s9.1,20.8,20.1,20.8
				C1846.5,640.9,1855.6,631.4,1855.6,620.2z"/>
		</g>
		<g>
			<path class="st6" d="M1955,610.4v46.1h-19.8v-41.8c0-9-5.6-15.1-13.7-15.1c-8.6,0-15.1,6.2-15.1,14l-0.1-0.4v43.3h-20.5V584h20.5
				v9.1c4.3-6.6,12.5-10.8,21.9-10.8C1943.8,582.3,1955,594,1955,610.4z"/>
		</g>
		<g>
			<path class="st6" d="M2019.9,633.6l13,13.3c-6.4,6.7-18.9,11.2-29.6,11.2c-21.6,0-38.4-15.8-38.4-38.1
				c0-21.9,16.1-37.7,37.3-37.7c22.7,0,36,17.2,36,44.6H1986c2.4,7.9,8.7,13.2,17.2,13.2C2009,640.1,2016,637.4,2019.9,633.6z
				 M1986.2,612.2h32.4c-2-7.2-7.3-11.8-15.6-11.8C1995.4,600.4,1988.9,604.9,1986.2,612.2z"/>
		</g>
		<g>
			<path class="st6" d="M2089.3,651.9c-4.2,3.8-10.8,6.3-16.7,6.3c-12.8,0-21.7-9.1-21.7-22.2v-35.5h-10V584h10v-19.9h19.6V584h15.7
				v16.5h-15.7v32.3c0,4.8,3.1,8.1,6.9,8.1c2.8,0,5.6-1,7-2.4L2089.3,651.9z"/>
		</g>
		<g>
			<path class="st6" d="M2134.3,651.9c-4.2,3.8-10.8,6.3-16.7,6.3c-12.8,0-21.7-9.1-21.7-22.2v-35.5h-10V584h10v-19.9h19.6V584h15.7
				v16.5h-15.7v32.3c0,4.8,3.1,8.1,6.9,8.1c2.8,0,5.6-1,7-2.4L2134.3,651.9z"/>
		</g>
		<g>
			<path class="st6" d="M2209.3,613.2v43.3h-19.8v-7.3c-5.2,5.9-13.5,9-21.3,9c-15.4,0-27.3-9.3-27.3-23.1
				c0-14.3,13.3-24.1,30.2-24.1c5.9,0,12.3,1.3,18.5,3.6v-1.4c0-7.7-4.8-14.4-16.7-14.4c-6.7,0-13,2.2-18.8,5.2l-6.9-13.6
				c10.2-5.2,20.2-8,30.3-8C2196.4,582.3,2209.3,594.2,2209.3,613.2z M2189.5,633.6v-6.7c-4.6-1.7-10-2.7-15.6-2.7
				c-7.4,0-13.3,4.3-13.3,10.2c0,5.9,5.2,9.5,12.2,9.5C2180.7,644,2188.1,640.4,2189.5,633.6z"/>
		</g>
	</g>
	<g>
		<g>
			<path class="st6" d="M1693.7,685.9h7.2v6.8c-1.6,1.7-4.2,2.7-6.7,2.7c-4.8,0-8.9-4-8.9-8.7c0-4.7,4.1-8.7,8.9-8.7
				c2.4,0,5.1,1,6.7,2.7l-2.2,2c-1.1-1.2-2.9-2-4.5-2c-3.1,0-5.8,2.7-5.8,5.9c0,3.2,2.6,5.9,5.8,5.9c1.3,0,2.6-0.4,3.7-1.2v-3.1
				h-4.2V685.9z"/>
		</g>
		<g>
			<path class="st6" d="M1712.8,691.6l1.9,2c-1.1,1.2-3.3,2-5.1,2c-3.6,0-6.6-2.8-6.6-6.7c0-3.8,2.8-6.6,6.4-6.6
				c3.9,0,6.2,3,6.2,7.6h-9.6c0.4,1.7,1.7,3,3.5,3C1710.6,692.8,1712,692.3,1712.8,691.6z M1706,687.6h6.7c-0.3-1.6-1.4-2.7-3.2-2.7
				C1707.8,684.9,1706.4,685.9,1706,687.6z"/>
		</g>
		<g>
			<path class="st6" d="M1724.8,694.5c-0.7,0.6-1.7,1-2.7,1c-2.1,0-3.6-1.5-3.6-3.6V685h-1.8v-2.5h1.8V679h2.9v3.5h2.9v2.5h-2.9v6.5
				c0,0.9,0.5,1.5,1.2,1.5c0.5,0,1-0.2,1.2-0.5L1724.8,694.5z"/>
		</g>
		<g>
			<path class="st6" d="M1752.3,687.1v8.1h-2.9v-7.6c0-1.7-1-2.8-2.4-2.8c-1.6,0-2.8,1.1-2.8,2.6v7.8h-2.9v-7.6c0-1.7-1-2.8-2.5-2.8
				c-1.6,0-2.8,1.1-2.8,2.6v7.8h-3v-12.7h3v1.7c0.6-1.2,1.9-2,3.5-2c1.8,0,3.3,0.9,4,2.4c0.6-1.5,2.2-2.4,4.1-2.4
				C1750.4,682.2,1752.3,684.3,1752.3,687.1z"/>
		</g>
		<g>
			<path class="st6" d="M1754.4,688.8c0-3.6,3.1-6.6,6.8-6.6c3.7,0,6.8,3,6.8,6.6c0,3.6-3.1,6.6-6.8,6.6
				C1757.5,695.5,1754.4,692.4,1754.4,688.8z M1765.1,688.8c0-2.2-1.8-4.1-3.8-4.1c-2.1,0-3.9,1.9-3.9,4.1c0,2.2,1.8,4.1,3.9,4.1
				C1763.3,692.9,1765.1,691.1,1765.1,688.8z"/>
		</g>
		<g>
			<path class="st6" d="M1777.7,682.2v2.5c-2.7,0-4.5,1.6-4.5,4v6.4h-3v-12.7h3v2.4C1774,683.3,1775.6,682.2,1777.7,682.2z"/>
		</g>
		<g>
			<path class="st6" d="M1788.6,691.6l1.9,2c-1.1,1.2-3.3,2-5.1,2c-3.6,0-6.6-2.8-6.6-6.7c0-3.8,2.8-6.6,6.4-6.6
				c3.9,0,6.2,3,6.2,7.6h-9.6c0.4,1.7,1.7,3,3.5,3C1786.5,692.8,1787.9,692.3,1788.6,691.6z M1781.8,687.6h6.7
				c-0.3-1.6-1.4-2.7-3.2-2.7C1783.6,684.9,1782.3,685.9,1781.8,687.6z"/>
		</g>
		<g>
			<path class="st6" d="M1799.3,688.8c0-3.6,3.1-6.6,6.8-6.6c3.7,0,6.8,3,6.8,6.6c0,3.6-3.1,6.6-6.8,6.6
				C1802.4,695.5,1799.3,692.4,1799.3,688.8z M1809.9,688.8c0-2.2-1.8-4.1-3.8-4.1c-2.1,0-3.9,1.9-3.9,4.1c0,2.2,1.8,4.1,3.9,4.1
				C1808.1,692.9,1809.9,691.1,1809.9,688.8z"/>
		</g>
		<g>
			<path class="st6" d="M1826.5,682.5v12.7h-3v-1.7c-0.8,1.2-2.3,2-3.9,2c-2.8,0-4.7-2-4.7-4.9v-8.1h2.9v7.5c0,1.7,1.1,2.9,2.7,2.9
				s2.9-1.1,3.1-2.4v-8H1826.5z"/>
		</g>
		<g>
			<path class="st6" d="M1836.5,694.5c-0.7,0.6-1.7,1-2.7,1c-2.1,0-3.6-1.5-3.6-3.6V685h-1.8v-2.5h1.8V679h2.9v3.5h2.9v2.5h-2.9v6.5
				c0,0.9,0.5,1.5,1.2,1.5c0.5,0,1-0.2,1.2-0.5L1836.5,694.5z"/>
		</g>
		<g>
			<path class="st6" d="M1844.1,688.8c0-3.6,3.1-6.6,6.8-6.6c3.7,0,6.8,3,6.8,6.6c0,3.6-3.1,6.6-6.8,6.6
				C1847.2,695.5,1844.1,692.4,1844.1,688.8z M1854.7,688.8c0-2.2-1.8-4.1-3.8-4.1c-2.1,0-3.9,1.9-3.9,4.1c0,2.2,1.8,4.1,3.9,4.1
				C1853,692.9,1854.7,691.1,1854.7,688.8z"/>
		</g>
		<g>
			<path class="st6" d="M1863.6,682.5h2.9v2.5h-2.9v10.2h-2.9V685h-1.8v-2.5h1.8v-1.3c0-2.1,1.5-3.7,3.6-3.7c1,0,2,0.4,2.7,1
				l-0.9,1.9c-0.3-0.3-0.7-0.5-1.2-0.5c-0.7,0-1.2,0.6-1.2,1.5V682.5z"/>
		</g>
		<g>
			<path class="st6" d="M1874.6,698.9l0.6-2.2c0.5,0.3,1.2,0.5,1.6,0.5c0.7,0,1.2-0.2,1.6-0.8l0.5-1.1l-5.4-12.8h3.2l3.7,9.5
				l3.5-9.5h3.1l-5.4,13.5c-1,2.4-2.4,3.5-4.3,3.5C1876.4,699.6,1875.3,699.3,1874.6,698.9z"/>
		</g>
		<g>
			<path class="st6" d="M1887.7,688.8c0-3.6,3.1-6.6,6.8-6.6c3.7,0,6.8,3,6.8,6.6c0,3.6-3.1,6.6-6.8,6.6
				C1890.8,695.5,1887.7,692.4,1887.7,688.8z M1898.3,688.8c0-2.2-1.8-4.1-3.8-4.1c-2.1,0-3.9,1.9-3.9,4.1c0,2.2,1.8,4.1,3.9,4.1
				C1896.6,692.9,1898.3,691.1,1898.3,688.8z"/>
		</g>
		<g>
			<path class="st6" d="M1915,682.5v12.7h-3v-1.7c-0.8,1.2-2.3,2-3.9,2c-2.8,0-4.7-2-4.7-4.9v-8.1h2.9v7.5c0,1.7,1.1,2.9,2.7,2.9
				s2.9-1.1,3.1-2.4v-8H1915z"/>
		</g>
		<g>
			<path class="st6" d="M1925.3,682.2v2.5c-2.7,0-4.5,1.6-4.5,4v6.4h-3v-12.7h3v2.4C1921.6,683.3,1923.3,682.2,1925.3,682.2z"/>
		</g>
		<g>
			<path class="st6" d="M1952.8,687.1v8.1h-2.9v-7.6c0-1.7-1-2.8-2.4-2.8c-1.6,0-2.8,1.1-2.8,2.6v7.8h-2.9v-7.6c0-1.7-1-2.8-2.5-2.8
				c-1.6,0-2.8,1.1-2.8,2.6v7.8h-3v-12.7h3v1.7c0.6-1.2,1.9-2,3.5-2c1.8,0,3.3,0.9,4,2.4c0.6-1.5,2.2-2.4,4.1-2.4
				C1950.8,682.2,1952.8,684.3,1952.8,687.1z"/>
		</g>
		<g>
			<path class="st6" d="M1964.7,691.6l1.9,2c-1.1,1.2-3.3,2-5.1,2c-3.6,0-6.6-2.8-6.6-6.7c0-3.8,2.8-6.6,6.4-6.6
				c3.9,0,6.2,3,6.2,7.6h-9.6c0.4,1.7,1.7,3,3.5,3C1962.6,692.8,1964,692.3,1964.7,691.6z M1957.9,687.6h6.7
				c-0.3-1.6-1.4-2.7-3.2-2.7C1959.7,684.9,1958.4,685.9,1957.9,687.6z"/>
		</g>
		<g>
			<path class="st6" d="M1978.7,691.6l1.9,2c-1.1,1.2-3.3,2-5.1,2c-3.6,0-6.6-2.8-6.6-6.7c0-3.8,2.8-6.6,6.4-6.6
				c3.9,0,6.2,3,6.2,7.6h-9.6c0.4,1.7,1.7,3,3.5,3C1976.6,692.8,1978,692.3,1978.7,691.6z M1972,687.6h6.7c-0.3-1.6-1.4-2.7-3.2-2.7
				C1973.8,684.9,1972.4,685.9,1972,687.6z"/>
		</g>
		<g>
			<path class="st6" d="M1990.8,694.5c-0.7,0.6-1.7,1-2.7,1c-2.1,0-3.6-1.5-3.6-3.6V685h-1.8v-2.5h1.8V679h2.9v3.5h2.9v2.5h-2.9v6.5
				c0,0.9,0.5,1.5,1.2,1.5c0.5,0,1-0.2,1.2-0.5L1990.8,694.5z"/>
		</g>
		<g>
			<path class="st6" d="M1992.4,678.9c0-0.9,0.8-1.7,1.7-1.7c0.9,0,1.7,0.8,1.7,1.7s-0.8,1.7-1.7,1.7
				C1993.2,680.6,1992.4,679.8,1992.4,678.9z M1992.6,682.5h3v12.7h-3V682.5z"/>
		</g>
		<g>
			<path class="st6" d="M2010.1,687.1v8.1h-2.9v-7.5c0-1.7-1.1-2.9-2.7-2.9s-2.9,1.1-3.1,2.4v8h-3v-12.7h3v1.7c0.8-1.2,2.3-2,3.9-2
				C2008.1,682.2,2010.1,684.3,2010.1,687.1z"/>
		</g>
		<g>
			<path class="st6" d="M2025.2,682.5v11.3c0,3.3-2.7,5.6-6.6,5.6c-2.2,0-4.2-0.7-5.4-1.7l1.1-2.2c0.9,0.8,2.4,1.3,3.9,1.3
				c2.5,0,4.1-1.2,4.1-3.1v-1.6c-1,1.3-2.5,2.2-4.3,2.2c-3.3,0-5.7-2.5-5.7-6c0-3.5,2.4-6,5.7-6c1.8,0,3.4,0.8,4.3,2.2v-1.9H2025.2z
				 M2022.2,688.2c0-2-1.4-3.5-3.5-3.5c-2,0-3.5,1.4-3.5,3.5c0,2,1.4,3.5,3.5,3.5C2020.8,691.7,2022.2,690.3,2022.2,688.2z"/>
		</g>
		<g>
			<path class="st6" d="M2027.2,693.6l1.3-2.1c1.2,0.9,2.6,1.5,4.2,1.5c1.2,0,2-0.5,2-1.3c0-1-1.1-1.3-2.5-1.7
				c-2.7-0.7-4.5-1.5-4.5-3.7c0-2.4,2-4,4.8-4c1.7,0,3.5,0.6,4.9,1.5l-1.2,2.2c-1.2-0.8-2.5-1.2-3.6-1.2c-1.1,0-1.9,0.4-1.9,1.1
				c0,0.8,0.7,1.1,2.6,1.6c2.1,0.6,4.4,1.3,4.4,4c0,2.4-2,4-5,4C2030.8,695.5,2028.7,694.8,2027.2,693.6z"/>
		</g>
		<g>
			<path class="st6" d="M2040.2,697.8c0.7-0.7,1.2-1.5,1.4-2.3c-1,0-1.9-0.9-1.9-1.9c0-1,0.9-1.9,1.9-1.9c1.2,0,2.1,1.1,2.1,2.7
				c0,1.3-0.7,2.6-2.4,4.4L2040.2,697.8z"/>
		</g>
		<g>
			<path class="st6" d="M2066,688.8c0,3.9-2.4,6.6-5.8,6.6c-1.9,0-3.4-0.9-4.4-2.3v2h-3v-17.1h3v6.5c1-1.4,2.5-2.3,4.4-2.3
				C2063.6,682.2,2066,685,2066,688.8z M2063,688.8c0-2.4-1.5-4.1-3.6-4.1c-2.1,0-3.6,1.7-3.6,4.1c0,2.4,1.5,4.1,3.6,4.1
				C2061.5,692.9,2063,691.2,2063,688.8z"/>
		</g>
		<g>
			<path class="st6" d="M2068,698.9l0.6-2.2c0.5,0.3,1.2,0.5,1.6,0.5c0.7,0,1.2-0.2,1.6-0.8l0.5-1.1l-5.4-12.8h3.2l3.7,9.5l3.5-9.5
				h3.1l-5.4,13.5c-1,2.4-2.4,3.5-4.3,3.5C2069.8,699.6,2068.8,699.3,2068,698.9z"/>
		</g>
		<g>
			<path class="st6" d="M2101.5,678.1v17.1h-3v-2c-1,1.4-2.5,2.3-4.4,2.3c-3.4,0-5.8-2.7-5.8-6.6c0-3.9,2.4-6.6,5.8-6.6
				c1.9,0,3.4,0.8,4.4,2.3v-6.4H2101.5z M2098.5,688.8c0-2.4-1.5-4.1-3.6-4.1c-2.1,0-3.6,1.7-3.6,4.1c0,2.4,1.5,4.1,3.6,4.1
				C2097,692.9,2098.5,691.2,2098.5,688.8z"/>
		</g>
		<g>
			<path class="st6" d="M2103.7,688.8c0-3.6,3.1-6.6,6.8-6.6c3.7,0,6.8,3,6.8,6.6c0,3.6-3.1,6.6-6.8,6.6
				C2106.8,695.5,2103.7,692.4,2103.7,688.8z M2114.3,688.8c0-2.2-1.8-4.1-3.8-4.1c-2.1,0-3.9,1.9-3.9,4.1c0,2.2,1.8,4.1,3.9,4.1
				C2112.5,692.9,2114.3,691.1,2114.3,688.8z"/>
		</g>
		<g>
			<path class="st6" d="M2119.1,678.9c0-0.9,0.8-1.7,1.7-1.7c0.9,0,1.7,0.8,1.7,1.7s-0.8,1.7-1.7,1.7
				C2119.9,680.6,2119.1,679.8,2119.1,678.9z M2119.3,682.5h3v12.7h-3V682.5z"/>
		</g>
		<g>
			<path class="st6" d="M2136.8,687.1v8.1h-2.9v-7.5c0-1.7-1.1-2.9-2.7-2.9c-1.6,0-2.9,1.1-3.1,2.4v8h-3v-12.7h3v1.7
				c0.8-1.2,2.3-2,3.9-2C2134.8,682.2,2136.8,684.3,2136.8,687.1z"/>
		</g>
		<g>
			<path class="st6" d="M2151.9,682.5v11.3c0,3.3-2.7,5.6-6.6,5.6c-2.2,0-4.2-0.7-5.4-1.7l1.1-2.2c0.9,0.8,2.4,1.3,3.9,1.3
				c2.5,0,4.1-1.2,4.1-3.1v-1.6c-1,1.3-2.5,2.2-4.3,2.2c-3.3,0-5.7-2.5-5.7-6c0-3.5,2.4-6,5.7-6c1.8,0,3.4,0.8,4.3,2.2v-1.9H2151.9z
				 M2148.9,688.2c0-2-1.4-3.5-3.5-3.5c-2,0-3.5,1.4-3.5,3.5c0,2,1.4,3.5,3.5,3.5C2147.5,691.7,2148.9,690.3,2148.9,688.2z"/>
		</g>
		<g>
			<path class="st6" d="M2161.2,678.1h3v17.1h-3V678.1z"/>
		</g>
		<g>
			<path class="st6" d="M2176.2,691.6l1.9,2c-1.1,1.2-3.3,2-5.1,2c-3.6,0-6.6-2.8-6.6-6.7c0-3.8,2.8-6.6,6.4-6.6
				c3.9,0,6.2,3,6.2,7.6h-9.6c0.4,1.7,1.7,3,3.5,3C2174.1,692.8,2175.5,692.3,2176.2,691.6z M2169.5,687.6h6.7
				c-0.3-1.6-1.4-2.7-3.2-2.7C2171.3,684.9,2169.9,685.9,2169.5,687.6z"/>
		</g>
		<g>
			<path class="st6" d="M2180.2,693.6l1.3-2.1c1.2,0.9,2.6,1.5,4.2,1.5c1.2,0,2-0.5,2-1.3c0-1-1.1-1.3-2.5-1.7
				c-2.7-0.7-4.5-1.5-4.5-3.7c0-2.4,2-4,4.8-4c1.7,0,3.5,0.6,4.9,1.5l-1.3,2.2c-1.2-0.8-2.5-1.2-3.6-1.2c-1.1,0-1.9,0.4-1.9,1.1
				c0,0.8,0.7,1.1,2.6,1.6c2.1,0.6,4.4,1.3,4.4,4c0,2.4-2,4-5,4C2183.8,695.5,2181.8,694.8,2180.2,693.6z"/>
		</g>
		<g>
			<path class="st6" d="M2192,693.6l1.3-2.1c1.2,0.9,2.6,1.5,4.2,1.5c1.2,0,2-0.5,2-1.3c0-1-1.1-1.3-2.5-1.7
				c-2.7-0.7-4.5-1.5-4.5-3.7c0-2.4,2-4,4.8-4c1.7,0,3.5,0.6,4.9,1.5l-1.2,2.2c-1.2-0.8-2.5-1.2-3.6-1.2c-1.1,0-1.9,0.4-1.9,1.1
				c0,0.8,0.7,1.1,2.6,1.6c2.1,0.6,4.4,1.3,4.4,4c0,2.4-2,4-5,4C2195.6,695.5,2193.5,694.8,2192,693.6z"/>
		</g>
		<g>
			<path class="st6" d="M2204.5,693.5c0-1,0.8-1.9,2-1.9c1,0,1.9,0.9,1.9,1.9c0,1.1-0.9,2-1.9,2
				C2205.3,695.5,2204.5,694.6,2204.5,693.5z"/>
		</g>
	</g>
</g>
<g>
	<g>
		<g>
			<path class="st8" d="M2717.7,1044h20.6l29.9,54.5l29.8-54.5h20.8v96.4H2798v-60.1l-29.8,54.5l-29.9-54.5v60.1h-20.6V1044z"/>
		</g>
		<g>
			<path class="st8" d="M2829.7,1104.1c0-20.6,18.1-37.9,39.7-37.9c21.5,0,39.4,17.3,39.4,37.9s-18,38-39.4,38
				C2847.8,1142.2,2829.7,1124.8,2829.7,1104.1z M2889.3,1104.1c0-11.2-9.1-20.6-19.9-20.6c-10.9,0-20.1,9.4-20.1,20.6
				s9.1,20.8,20.1,20.8C2880.2,1124.9,2889.3,1115.3,2889.3,1104.1z"/>
		</g>
		<g>
			<path class="st8" d="M2988.8,1094.3v46.2H2969v-41.8c0-9-5.6-15.2-13.8-15.2c-8.6,0-15.2,6.2-15.2,14l-0.1-0.4v43.4h-20.5v-72.6
				h20.5v9.1c4.3-6.6,12.5-10.8,21.9-10.8C2977.6,1066.2,2988.8,1077.9,2988.8,1094.3z"/>
		</g>
		<g>
			<path class="st8" d="M3053.7,1117.6l13.1,13.3c-6.5,6.7-18.9,11.2-29.6,11.2c-21.6,0-38.5-15.9-38.5-38.2
				c0-21.9,16.1-37.8,37.3-37.8c22.7,0,36.1,17.3,36.1,44.6h-52.4c2.4,7.9,8.7,13.2,17.3,13.2
				C3042.8,1124,3049.8,1121.4,3053.7,1117.6z M3020,1096.1h32.4c-2-7.2-7.3-11.8-15.6-11.8
				C3029.2,1084.3,3022.7,1088.8,3020,1096.1z"/>
		</g>
		<g>
			<path class="st8" d="M3123.2,1135.8c-4.2,3.8-10.8,6.3-16.7,6.3c-12.8,0-21.8-9.1-21.8-22.2v-35.5h-10v-16.6h10V1048h19.7v19.9
				h15.7v16.6h-15.7v32.3c0,4.8,3.1,8.1,6.9,8.1c2.8,0,5.6-1,7-2.4L3123.2,1135.8z"/>
		</g>
		<g>
			<path class="st8" d="M3168.3,1135.8c-4.2,3.8-10.8,6.3-16.7,6.3c-12.8,0-21.8-9.1-21.8-22.2v-35.5h-10v-16.6h10V1048h19.7v19.9
				h15.7v16.6h-15.7v32.3c0,4.8,3.1,8.1,6.9,8.1c2.8,0,5.6-1,7-2.4L3168.3,1135.8z"/>
		</g>
		<g>
			<path class="st8" d="M3243.3,1097.1v43.4h-19.8v-7.3c-5.2,5.9-13.5,9-21.3,9c-15.4,0-27.4-9.3-27.4-23.2
				c0-14.3,13.3-24.1,30.2-24.1c5.9,0,12.4,1.3,18.5,3.7v-1.4c0-7.7-4.8-14.5-16.7-14.5c-6.7,0-13.1,2.2-18.8,5.2l-6.9-13.6
				c10.2-5.2,20.2-8,30.3-8C3230.3,1066.2,3243.3,1078.2,3243.3,1097.1z M3223.5,1117.6v-6.7c-4.6-1.7-10-2.7-15.6-2.7
				c-7.4,0-13.3,4.3-13.3,10.2c0,5.9,5.2,9.5,12.2,9.5C3214.6,1128,3222.1,1124.3,3223.5,1117.6z"/>
		</g>
	</g>
	<g>
		<g>
			<path class="st8" d="M2602.7,991.4l-44.7-25.8c-0.6-0.4-1.3-0.5-2-0.5s-1.4,0.2-2,0.5l-45,26c-1.6,1.1-1.5,3.5,0.2,4.5l46.8,27
				l46.7-27C2604.5,995,2604.5,992.4,2602.7,991.4z"/>
		</g>
		<g>
			<path class="st8" d="M2445,1095.7c0,1.4,0.8,2.7,2,3.5l48.7,28.2v-56.4c0-1.3-0.7-2.5-1.7-3.2l-28-16.1l-17-9.8
				c-0.4-0.2-0.9-0.4-1.3-0.4c-1.4,0-2.7,1.1-2.7,2.7V1095.7z"/>
		</g>
		<g>
			<path class="st8" d="M2653.5,1020.7l-47.5-27.4c0,0.1,0,0.3,0,0.4c0,1.7-0.9,3.2-2.3,4l-45.7,26.4l46.8,27c1.2,0.7,2.8,0.7,4,0
				l44.7-25.8C2655.3,1024.3,2655.3,1021.7,2653.5,1020.7z"/>
		</g>
		<g>
			<g>
				<path class="st8" d="M2494.7,1068.3c-0.2-0.2-0.5-0.5-0.7-0.6l0,0C2494.2,1067.9,2494.5,1068.1,2494.7,1068.3z"/>
			</g>
			<g>
				<path class="st8" d="M2544.5,1096.9l-47-27.1c0.1,0.4,0.1,0.8,0.1,1.2v56.4v1.2l44.8,25.9c1.8,1,4-0.3,4-2.3v-51.8
					C2546.5,1098.9,2545.8,1097.6,2544.5,1096.9z"/>
			</g>
		</g>
		<g>
			<g>
				<path class="st8" d="M2509.2,996l23.4,13.5L2509.2,996c-0.4-0.2-0.7-0.6-1-1C2508.5,995.4,2508.8,995.7,2509.2,996z"/>
			</g>
			<g>
				<path class="st8" d="M2508.2,997.7c-1.4-0.8-2.2-2.2-2.3-3.8c0-0.2,0-0.4,0-0.6l-47.4,27.4c-1.8,1-1.8,3.6,0,4.6l44.7,25.8
					c1.2,0.7,2.8,0.7,4,0l46.8-27L2508.2,997.7z"/>
			</g>
		</g>
		<g>
			<path class="st8" d="M2494.7,1129.1l-48.7-28.2c-0.4-0.2-0.7-0.5-1-0.7v54.3c0,1.4,0.8,2.7,2,3.5l44.7,25.8c1.8,1,4-0.3,4-2.3
				v-51.8L2494.7,1129.1z"/>
		</g>
		<g>
			<path class="st8" d="M2667,1095.7c0,1.4-0.8,2.7-2,3.5l-48.7,28.2v-56.4c0-1.3,0.7-2.5,1.7-3.2l28-16.1l17-9.8
				c0.4-0.2,0.9-0.4,1.3-0.4c1.4,0,2.7,1.1,2.7,2.7V1095.7z"/>
		</g>
		<g>
			<g>
				<path class="st8" d="M2617.3,1068.3c0.2-0.2,0.5-0.5,0.7-0.6l0,0C2617.7,1067.9,2617.5,1068.1,2617.3,1068.3z"/>
			</g>
			<g>
				<path class="st8" d="M2567.5,1096.9l47-27.1c-0.1,0.4-0.1,0.8-0.1,1.2v56.4v1.2l-44.8,25.9c-1.8,1-4-0.3-4-2.3v-51.8
					C2565.5,1098.9,2566.2,1097.6,2567.5,1096.9z"/>
			</g>
		</g>
		<g>
			<path class="st8" d="M2617.3,1129.1l48.7-28.2c0.4-0.2,0.7-0.5,1-0.7v54.3c0,1.4-0.8,2.7-2,3.5l-44.7,25.8c-1.8,1-4-0.3-4-2.3
				v-51.8L2617.3,1129.1z"/>
		</g>
	</g>
</g>
<g>
	<g>
		<g>
			<path class="st8" d="M1569.2,991.4l-44.7-25.8c-0.6-0.4-1.3-0.5-2-0.5s-1.4,0.2-2,0.5l-45,26c-1.6,1.1-1.5,3.5,0.2,4.5l46.8,27
				l46.7-27C1571,995,1571,992.4,1569.2,991.4z"/>
		</g>
		<g>
			<path class="st8" d="M1411.5,1095.7c0,1.4,0.8,2.7,2,3.5l48.7,28.2v-56.4c0-1.3-0.7-2.5-1.7-3.2l-28-16.1l-17-9.8
				c-0.4-0.2-0.9-0.4-1.3-0.4c-1.4,0-2.7,1.1-2.7,2.7V1095.7z"/>
		</g>
		<g>
			<path class="st8" d="M1620,1020.7l-47.5-27.4c0,0.1,0,0.3,0,0.4c0,1.7-0.9,3.2-2.3,4l-45.7,26.4l46.8,27c1.2,0.7,2.8,0.7,4,0
				l44.7-25.8C1621.8,1024.3,1621.8,1021.7,1620,1020.7z"/>
		</g>
		<g>
			<g>
				<path class="st8" d="M1461.2,1068.3c-0.2-0.2-0.5-0.5-0.7-0.6l0,0C1460.7,1067.9,1461,1068.1,1461.2,1068.3z"/>
			</g>
			<g>
				<path class="st8" d="M1511,1096.9l-47-27.1c0.1,0.4,0.1,0.8,0.1,1.2v56.4v1.2l44.8,25.9c1.8,1,4-0.3,4-2.3v-51.8
					C1513,1098.9,1512.2,1097.6,1511,1096.9z"/>
			</g>
		</g>
		<g>
			<g>
				<path class="st8" d="M1475.7,996l23.4,13.5L1475.7,996c-0.4-0.2-0.7-0.6-1-1C1475,995.4,1475.3,995.7,1475.7,996z"/>
			</g>
			<g>
				<path class="st8" d="M1474.7,997.7c-1.4-0.8-2.2-2.2-2.3-3.8c0-0.2,0-0.4,0-0.6l-47.4,27.4c-1.8,1-1.8,3.6,0,4.6l44.7,25.8
					c1.2,0.7,2.8,0.7,4,0l46.8-27L1474.7,997.7z"/>
			</g>
		</g>
		<g>
			<path class="st8" d="M1461.2,1129.1l-48.7-28.2c-0.4-0.2-0.7-0.5-1-0.7v54.3c0,1.4,0.8,2.7,2,3.5l44.7,25.8c1.8,1,4-0.3,4-2.3
				v-51.8L1461.2,1129.1z"/>
		</g>
		<g>
			<path class="st8" d="M1633.5,1095.7c0,1.4-0.8,2.7-2,3.5l-48.7,28.2v-56.4c0-1.3,0.7-2.5,1.7-3.2l28-16.1l17-9.8
				c0.4-0.2,0.9-0.4,1.3-0.4c1.4,0,2.7,1.1,2.7,2.7V1095.7z"/>
		</g>
		<g>
			<g>
				<path class="st8" d="M1583.8,1068.3c0.2-0.2,0.5-0.5,0.7-0.6l0,0C1584.2,1067.9,1584,1068.1,1583.8,1068.3z"/>
			</g>
			<g>
				<path class="st8" d="M1533.9,1096.9l47-27.1c-0.1,0.4-0.1,0.8-0.1,1.2v56.4v1.2l-44.8,25.9c-1.8,1-4-0.3-4-2.3v-51.8
					C1531.9,1098.9,1532.7,1097.6,1533.9,1096.9z"/>
			</g>
		</g>
		<g>
			<path class="st8" d="M1583.8,1129.1l48.7-28.2c0.4-0.2,0.7-0.5,1-0.7v54.3c0,1.4-0.8,2.7-2,3.5l-44.7,25.8c-1.8,1-4-0.3-4-2.3
				v-51.8L1583.8,1129.1z"/>
		</g>
	</g>
	<g>
		<g>
			<path class="st8" d="M1684.2,1044h20.6l29.9,54.4l29.7-54.4h20.8v96.3h-20.8v-60l-29.7,54.4l-29.9-54.4v60h-20.6V1044z"/>
		</g>
		<g>
			<path class="st8" d="M1796,1104.1c0-20.6,18.1-37.9,39.7-37.9c21.5,0,39.4,17.2,39.4,37.9c0,20.6-17.9,38-39.4,38
				C1814.1,1142.1,1796,1124.7,1796,1104.1z M1855.6,1104.1c0-11.2-9.1-20.6-19.9-20.6c-10.9,0-20.1,9.4-20.1,20.6
				s9.1,20.8,20.1,20.8C1846.5,1124.8,1855.6,1115.3,1855.6,1104.1z"/>
		</g>
		<g>
			<path class="st8" d="M1955,1094.2v46.1h-19.8v-41.8c0-9-5.6-15.1-13.7-15.1c-8.6,0-15.1,6.2-15.1,14l-0.1-0.4v43.3h-20.5v-72.5
				h20.5v9.1c4.3-6.6,12.5-10.8,21.9-10.8C1943.8,1066.2,1955,1077.8,1955,1094.2z"/>
		</g>
		<g>
			<path class="st8" d="M2019.9,1117.5l13,13.3c-6.4,6.7-18.9,11.2-29.6,11.2c-21.6,0-38.4-15.8-38.4-38.1
				c0-21.9,16.1-37.7,37.3-37.7c22.7,0,36,17.2,36,44.6H1986c2.4,7.9,8.7,13.2,17.2,13.2C2009,1124,2016,1121.3,2019.9,1117.5z
				 M1986.2,1096.1h32.4c-2-7.2-7.3-11.8-15.6-11.8C1995.4,1084.3,1988.9,1088.8,1986.2,1096.1z"/>
		</g>
		<g>
			<path class="st8" d="M2089.3,1135.8c-4.2,3.8-10.8,6.3-16.7,6.3c-12.8,0-21.7-9.1-21.7-22.2v-35.5h-10v-16.5h10V1048h19.6v19.9
				h15.7v16.5h-15.7v32.3c0,4.8,3.1,8.1,6.9,8.1c2.8,0,5.6-1,7-2.4L2089.3,1135.8z"/>
		</g>
		<g>
			<path class="st8" d="M2134.3,1135.8c-4.2,3.8-10.8,6.3-16.7,6.3c-12.8,0-21.7-9.1-21.7-22.2v-35.5h-10v-16.5h10V1048h19.6v19.9
				h15.7v16.5h-15.7v32.3c0,4.8,3.1,8.1,6.9,8.1c2.8,0,5.6-1,7-2.4L2134.3,1135.8z"/>
		</g>
		<g>
			<path class="st8" d="M2209.3,1097.1v43.3h-19.8v-7.3c-5.2,5.9-13.5,9-21.3,9c-15.4,0-27.3-9.3-27.3-23.1
				c0-14.3,13.3-24.1,30.2-24.1c5.9,0,12.3,1.3,18.5,3.6v-1.4c0-7.7-4.8-14.4-16.7-14.4c-6.7,0-13,2.2-18.8,5.2l-6.9-13.6
				c10.2-5.2,20.2-8,30.3-8C2196.4,1066.2,2209.3,1078.1,2209.3,1097.1z M2189.5,1117.5v-6.7c-4.6-1.7-10-2.7-15.6-2.7
				c-7.4,0-13.3,4.3-13.3,10.2c0,5.9,5.2,9.5,12.2,9.5C2180.7,1127.9,2188.1,1124.3,2189.5,1117.5z"/>
		</g>
	</g>
	<g>
		<g>
			<path class="st8" d="M1693.7,1169.8h7.2v6.8c-1.6,1.7-4.2,2.7-6.7,2.7c-4.8,0-8.9-4-8.9-8.7c0-4.7,4.1-8.7,8.9-8.7
				c2.4,0,5.1,1,6.7,2.7l-2.2,2c-1.1-1.2-2.9-2-4.5-2c-3.1,0-5.8,2.7-5.8,5.9c0,3.2,2.6,5.9,5.8,5.9c1.3,0,2.6-0.4,3.7-1.2v-3.1
				h-4.2V1169.8z"/>
		</g>
		<g>
			<path class="st8" d="M1712.8,1175.4l1.9,2c-1.1,1.2-3.3,2-5.1,2c-3.6,0-6.6-2.8-6.6-6.7c0-3.8,2.8-6.6,6.4-6.6
				c3.9,0,6.2,3,6.2,7.6h-9.6c0.4,1.7,1.7,3,3.5,3C1710.6,1176.7,1712,1176.2,1712.8,1175.4z M1706,1171.5h6.7
				c-0.3-1.6-1.4-2.7-3.2-2.7C1707.8,1168.8,1706.4,1169.8,1706,1171.5z"/>
		</g>
		<g>
			<path class="st8" d="M1724.8,1178.4c-0.7,0.6-1.7,1-2.7,1c-2.1,0-3.6-1.5-3.6-3.6v-6.8h-1.8v-2.5h1.8v-3.5h2.9v3.5h2.9v2.5h-2.9
				v6.5c0,0.9,0.5,1.5,1.2,1.5c0.5,0,1-0.2,1.2-0.5L1724.8,1178.4z"/>
		</g>
		<g>
			<path class="st8" d="M1752.3,1171v8.1h-2.9v-7.6c0-1.7-1-2.8-2.4-2.8c-1.6,0-2.8,1.1-2.8,2.6v7.8h-2.9v-7.6c0-1.7-1-2.8-2.5-2.8
				c-1.6,0-2.8,1.1-2.8,2.6v7.8h-3v-12.7h3v1.7c0.6-1.2,1.9-2,3.5-2c1.8,0,3.3,0.9,4,2.4c0.6-1.5,2.2-2.4,4.1-2.4
				C1750.4,1166.1,1752.3,1168.1,1752.3,1171z"/>
		</g>
		<g>
			<path class="st8" d="M1754.4,1172.7c0-3.6,3.1-6.6,6.8-6.6c3.7,0,6.8,3,6.8,6.6c0,3.6-3.1,6.6-6.8,6.6
				C1757.5,1179.4,1754.4,1176.3,1754.4,1172.7z M1765.1,1172.7c0-2.2-1.8-4.1-3.8-4.1c-2.1,0-3.9,1.9-3.9,4.1
				c0,2.2,1.8,4.1,3.9,4.1C1763.3,1176.8,1765.1,1174.9,1765.1,1172.7z"/>
		</g>
		<g>
			<path class="st8" d="M1777.7,1166.1v2.5c-2.7,0-4.5,1.6-4.5,4v6.4h-3v-12.7h3v2.4C1774,1167.2,1775.6,1166.1,1777.7,1166.1z"/>
		</g>
		<g>
			<path class="st8" d="M1788.6,1175.4l1.9,2c-1.1,1.2-3.3,2-5.1,2c-3.6,0-6.6-2.8-6.6-6.7c0-3.8,2.8-6.6,6.4-6.6
				c3.9,0,6.2,3,6.2,7.6h-9.6c0.4,1.7,1.7,3,3.5,3C1786.5,1176.7,1787.9,1176.2,1788.6,1175.4z M1781.8,1171.5h6.7
				c-0.3-1.6-1.4-2.7-3.2-2.7C1783.6,1168.8,1782.3,1169.8,1781.8,1171.5z"/>
		</g>
		<g>
			<path class="st8" d="M1799.3,1172.7c0-3.6,3.1-6.6,6.8-6.6c3.7,0,6.8,3,6.8,6.6c0,3.6-3.1,6.6-6.8,6.6
				C1802.4,1179.4,1799.3,1176.3,1799.3,1172.7z M1809.9,1172.7c0-2.2-1.8-4.1-3.8-4.1c-2.1,0-3.9,1.9-3.9,4.1
				c0,2.2,1.8,4.1,3.9,4.1C1808.1,1176.8,1809.9,1174.9,1809.9,1172.7z"/>
		</g>
		<g>
			<path class="st8" d="M1826.5,1166.4v12.7h-3v-1.7c-0.8,1.2-2.3,2-3.9,2c-2.8,0-4.7-2-4.7-4.9v-8.1h2.9v7.5c0,1.7,1.1,2.9,2.7,2.9
				s2.9-1.1,3.1-2.4v-8H1826.5z"/>
		</g>
		<g>
			<path class="st8" d="M1836.5,1178.4c-0.7,0.6-1.7,1-2.7,1c-2.1,0-3.6-1.5-3.6-3.6v-6.8h-1.8v-2.5h1.8v-3.5h2.9v3.5h2.9v2.5h-2.9
				v6.5c0,0.9,0.5,1.5,1.2,1.5c0.5,0,1-0.2,1.2-0.5L1836.5,1178.4z"/>
		</g>
		<g>
			<path class="st8" d="M1844.1,1172.7c0-3.6,3.1-6.6,6.8-6.6c3.7,0,6.8,3,6.8,6.6c0,3.6-3.1,6.6-6.8,6.6
				C1847.2,1179.4,1844.1,1176.3,1844.1,1172.7z M1854.7,1172.7c0-2.2-1.8-4.1-3.8-4.1c-2.1,0-3.9,1.9-3.9,4.1
				c0,2.2,1.8,4.1,3.9,4.1C1853,1176.8,1854.7,1174.9,1854.7,1172.7z"/>
		</g>
		<g>
			<path class="st8" d="M1863.6,1166.4h2.9v2.5h-2.9v10.2h-2.9v-10.2h-1.8v-2.5h1.8v-1.3c0-2.1,1.5-3.7,3.6-3.7c1,0,2,0.4,2.7,1
				l-0.9,1.9c-0.3-0.3-0.7-0.5-1.2-0.5c-0.7,0-1.2,0.6-1.2,1.5V1166.4z"/>
		</g>
		<g>
			<path class="st8" d="M1874.6,1182.8l0.6-2.2c0.5,0.3,1.2,0.5,1.6,0.5c0.7,0,1.2-0.2,1.6-0.8l0.5-1.1l-5.4-12.8h3.2l3.7,9.5
				l3.5-9.5h3.1l-5.4,13.5c-1,2.4-2.4,3.5-4.3,3.5C1876.4,1183.5,1875.3,1183.2,1874.6,1182.8z"/>
		</g>
		<g>
			<path class="st8" d="M1887.7,1172.7c0-3.6,3.1-6.6,6.8-6.6c3.7,0,6.8,3,6.8,6.6c0,3.6-3.1,6.6-6.8,6.6
				C1890.8,1179.4,1887.7,1176.3,1887.7,1172.7z M1898.3,1172.7c0-2.2-1.8-4.1-3.8-4.1c-2.1,0-3.9,1.9-3.9,4.1
				c0,2.2,1.8,4.1,3.9,4.1C1896.6,1176.8,1898.3,1174.9,1898.3,1172.7z"/>
		</g>
		<g>
			<path class="st8" d="M1915,1166.4v12.7h-3v-1.7c-0.8,1.2-2.3,2-3.9,2c-2.8,0-4.7-2-4.7-4.9v-8.1h2.9v7.5c0,1.7,1.1,2.9,2.7,2.9
				s2.9-1.1,3.1-2.4v-8H1915z"/>
		</g>
		<g>
			<path class="st8" d="M1925.3,1166.1v2.5c-2.7,0-4.5,1.6-4.5,4v6.4h-3v-12.7h3v2.4C1921.6,1167.2,1923.3,1166.1,1925.3,1166.1z"/>
		</g>
		<g>
			<path class="st8" d="M1952.8,1171v8.1h-2.9v-7.6c0-1.7-1-2.8-2.4-2.8c-1.6,0-2.8,1.1-2.8,2.6v7.8h-2.9v-7.6c0-1.7-1-2.8-2.5-2.8
				c-1.6,0-2.8,1.1-2.8,2.6v7.8h-3v-12.7h3v1.7c0.6-1.2,1.9-2,3.5-2c1.8,0,3.3,0.9,4,2.4c0.6-1.5,2.2-2.4,4.1-2.4
				C1950.8,1166.1,1952.8,1168.1,1952.8,1171z"/>
		</g>
		<g>
			<path class="st8" d="M1964.7,1175.4l1.9,2c-1.1,1.2-3.3,2-5.1,2c-3.6,0-6.6-2.8-6.6-6.7c0-3.8,2.8-6.6,6.4-6.6
				c3.9,0,6.2,3,6.2,7.6h-9.6c0.4,1.7,1.7,3,3.5,3C1962.6,1176.7,1964,1176.2,1964.7,1175.4z M1957.9,1171.5h6.7
				c-0.3-1.6-1.4-2.7-3.2-2.7C1959.7,1168.8,1958.4,1169.8,1957.9,1171.5z"/>
		</g>
		<g>
			<path class="st8" d="M1978.7,1175.4l1.9,2c-1.1,1.2-3.3,2-5.1,2c-3.6,0-6.6-2.8-6.6-6.7c0-3.8,2.8-6.6,6.4-6.6
				c3.9,0,6.2,3,6.2,7.6h-9.6c0.4,1.7,1.7,3,3.5,3C1976.6,1176.7,1978,1176.2,1978.7,1175.4z M1972,1171.5h6.7
				c-0.3-1.6-1.4-2.7-3.2-2.7C1973.8,1168.8,1972.4,1169.8,1972,1171.5z"/>
		</g>
		<g>
			<path class="st8" d="M1990.8,1178.4c-0.7,0.6-1.7,1-2.7,1c-2.1,0-3.6-1.5-3.6-3.6v-6.8h-1.8v-2.5h1.8v-3.5h2.9v3.5h2.9v2.5h-2.9
				v6.5c0,0.9,0.5,1.5,1.2,1.5c0.5,0,1-0.2,1.2-0.5L1990.8,1178.4z"/>
		</g>
		<g>
			<path class="st8" d="M1992.4,1162.8c0-0.9,0.8-1.7,1.7-1.7c0.9,0,1.7,0.8,1.7,1.7c0,0.9-0.8,1.7-1.7,1.7
				C1993.2,1164.5,1992.4,1163.7,1992.4,1162.8z M1992.6,1166.4h3v12.7h-3V1166.4z"/>
		</g>
		<g>
			<path class="st8" d="M2010.1,1171v8.1h-2.9v-7.5c0-1.7-1.1-2.9-2.7-2.9s-2.9,1.1-3.1,2.4v8h-3v-12.7h3v1.7c0.8-1.2,2.3-2,3.9-2
				C2008.1,1166.1,2010.1,1168.1,2010.1,1171z"/>
		</g>
		<g>
			<path class="st8" d="M2025.2,1166.4v11.3c0,3.3-2.7,5.6-6.6,5.6c-2.2,0-4.2-0.7-5.4-1.7l1.1-2.2c0.9,0.8,2.4,1.3,3.9,1.3
				c2.5,0,4.1-1.2,4.1-3.1v-1.6c-1,1.3-2.5,2.2-4.3,2.2c-3.3,0-5.7-2.5-5.7-6s2.4-6,5.7-6c1.8,0,3.4,0.8,4.3,2.2v-1.9H2025.2z
				 M2022.2,1172.1c0-2-1.4-3.5-3.5-3.5c-2,0-3.5,1.4-3.5,3.5c0,2,1.4,3.5,3.5,3.5C2020.8,1175.6,2022.2,1174.1,2022.2,1172.1z"/>
		</g>
		<g>
			<path class="st8" d="M2027.2,1177.4l1.3-2.1c1.2,0.9,2.6,1.5,4.2,1.5c1.2,0,2-0.5,2-1.3c0-1-1.1-1.3-2.5-1.7
				c-2.7-0.7-4.5-1.5-4.5-3.7c0-2.4,2-4,4.8-4c1.7,0,3.5,0.6,4.9,1.5l-1.2,2.2c-1.2-0.8-2.5-1.2-3.6-1.2c-1.1,0-1.9,0.4-1.9,1.1
				c0,0.8,0.7,1.1,2.6,1.6c2.1,0.6,4.4,1.3,4.4,4c0,2.4-2,4-5,4C2030.8,1179.4,2028.7,1178.7,2027.2,1177.4z"/>
		</g>
		<g>
			<path class="st8" d="M2040.2,1181.7c0.7-0.7,1.2-1.5,1.4-2.3c-1,0-1.9-0.9-1.9-1.9c0-1,0.9-1.9,1.9-1.9c1.2,0,2.1,1.1,2.1,2.7
				c0,1.3-0.7,2.6-2.4,4.4L2040.2,1181.7z"/>
		</g>
		<g>
			<path class="st8" d="M2066,1172.7c0,3.9-2.4,6.6-5.8,6.6c-1.9,0-3.4-0.9-4.4-2.3v2h-3v-17.1h3v6.5c1-1.4,2.5-2.3,4.4-2.3
				C2063.6,1166.1,2066,1168.8,2066,1172.7z M2063,1172.7c0-2.4-1.5-4.1-3.6-4.1c-2.1,0-3.6,1.7-3.6,4.1c0,2.4,1.5,4.1,3.6,4.1
				C2061.5,1176.8,2063,1175.1,2063,1172.7z"/>
		</g>
		<g>
			<path class="st8" d="M2068,1182.8l0.6-2.2c0.5,0.3,1.2,0.5,1.6,0.5c0.7,0,1.2-0.2,1.6-0.8l0.5-1.1l-5.4-12.8h3.2l3.7,9.5l3.5-9.5
				h3.1l-5.4,13.5c-1,2.4-2.4,3.5-4.3,3.5C2069.8,1183.5,2068.8,1183.2,2068,1182.8z"/>
		</g>
		<g>
			<path class="st8" d="M2101.5,1161.9v17.1h-3v-2c-1,1.4-2.5,2.3-4.4,2.3c-3.4,0-5.8-2.7-5.8-6.6c0-3.9,2.4-6.6,5.8-6.6
				c1.9,0,3.4,0.8,4.4,2.3v-6.4H2101.5z M2098.5,1172.7c0-2.4-1.5-4.1-3.6-4.1c-2.1,0-3.6,1.7-3.6,4.1c0,2.4,1.5,4.1,3.6,4.1
				C2097,1176.8,2098.5,1175.1,2098.5,1172.7z"/>
		</g>
		<g>
			<path class="st8" d="M2103.7,1172.7c0-3.6,3.1-6.6,6.8-6.6c3.7,0,6.8,3,6.8,6.6c0,3.6-3.1,6.6-6.8,6.6
				C2106.8,1179.4,2103.7,1176.3,2103.7,1172.7z M2114.3,1172.7c0-2.2-1.8-4.1-3.8-4.1c-2.1,0-3.9,1.9-3.9,4.1
				c0,2.2,1.8,4.1,3.9,4.1C2112.5,1176.8,2114.3,1174.9,2114.3,1172.7z"/>
		</g>
		<g>
			<path class="st8" d="M2119.1,1162.8c0-0.9,0.8-1.7,1.7-1.7c0.9,0,1.7,0.8,1.7,1.7c0,0.9-0.8,1.7-1.7,1.7
				C2119.9,1164.5,2119.1,1163.7,2119.1,1162.8z M2119.3,1166.4h3v12.7h-3V1166.4z"/>
		</g>
		<g>
			<path class="st8" d="M2136.8,1171v8.1h-2.9v-7.5c0-1.7-1.1-2.9-2.7-2.9c-1.6,0-2.9,1.1-3.1,2.4v8h-3v-12.7h3v1.7
				c0.8-1.2,2.3-2,3.9-2C2134.8,1166.1,2136.8,1168.1,2136.8,1171z"/>
		</g>
		<g>
			<path class="st8" d="M2151.9,1166.4v11.3c0,3.3-2.7,5.6-6.6,5.6c-2.2,0-4.2-0.7-5.4-1.7l1.1-2.2c0.9,0.8,2.4,1.3,3.9,1.3
				c2.5,0,4.1-1.2,4.1-3.1v-1.6c-1,1.3-2.5,2.2-4.3,2.2c-3.3,0-5.7-2.5-5.7-6s2.4-6,5.7-6c1.8,0,3.4,0.8,4.3,2.2v-1.9H2151.9z
				 M2148.9,1172.1c0-2-1.4-3.5-3.5-3.5c-2,0-3.5,1.4-3.5,3.5c0,2,1.4,3.5,3.5,3.5C2147.5,1175.6,2148.9,1174.1,2148.9,1172.1z"/>
		</g>
		<g>
			<path class="st8" d="M2161.2,1161.9h3v17.1h-3V1161.9z"/>
		</g>
		<g>
			<path class="st8" d="M2176.2,1175.4l1.9,2c-1.1,1.2-3.3,2-5.1,2c-3.6,0-6.6-2.8-6.6-6.7c0-3.8,2.8-6.6,6.4-6.6
				c3.9,0,6.2,3,6.2,7.6h-9.6c0.4,1.7,1.7,3,3.5,3C2174.1,1176.7,2175.5,1176.2,2176.2,1175.4z M2169.5,1171.5h6.7
				c-0.3-1.6-1.4-2.7-3.2-2.7C2171.3,1168.8,2169.9,1169.8,2169.5,1171.5z"/>
		</g>
		<g>
			<path class="st8" d="M2180.2,1177.4l1.3-2.1c1.2,0.9,2.6,1.5,4.2,1.5c1.2,0,2-0.5,2-1.3c0-1-1.1-1.3-2.5-1.7
				c-2.7-0.7-4.5-1.5-4.5-3.7c0-2.4,2-4,4.8-4c1.7,0,3.5,0.6,4.9,1.5l-1.3,2.2c-1.2-0.8-2.5-1.2-3.6-1.2c-1.1,0-1.9,0.4-1.9,1.1
				c0,0.8,0.7,1.1,2.6,1.6c2.1,0.6,4.4,1.3,4.4,4c0,2.4-2,4-5,4C2183.8,1179.4,2181.8,1178.7,2180.2,1177.4z"/>
		</g>
		<g>
			<path class="st8" d="M2192,1177.4l1.3-2.1c1.2,0.9,2.6,1.5,4.2,1.5c1.2,0,2-0.5,2-1.3c0-1-1.1-1.3-2.5-1.7
				c-2.7-0.7-4.5-1.5-4.5-3.7c0-2.4,2-4,4.8-4c1.7,0,3.5,0.6,4.9,1.5l-1.2,2.2c-1.2-0.8-2.5-1.2-3.6-1.2c-1.1,0-1.9,0.4-1.9,1.1
				c0,0.8,0.7,1.1,2.6,1.6c2.1,0.6,4.4,1.3,4.4,4c0,2.4-2,4-5,4C2195.6,1179.4,2193.5,1178.7,2192,1177.4z"/>
		</g>
		<g>
			<path class="st8" d="M2204.5,1177.4c0-1,0.8-1.9,2-1.9c1,0,1.9,0.9,1.9,1.9c0,1.1-0.9,2-1.9,2
				C2205.3,1179.4,2204.5,1178.5,2204.5,1177.4z"/>
		</g>
	</g>
</g>
<g>
	<g>
		<path class="st8" d="M948.8,991.4l-44.7-25.8c-0.6-0.4-1.3-0.5-2-0.5s-1.4,0.2-2,0.5l-45,26c-1.6,1.1-1.5,3.5,0.2,4.5l46.8,27
			l46.7-27C950.6,995,950.6,992.4,948.8,991.4z"/>
		<path class="st8" d="M791.1,1095.7c0,1.4,0.8,2.7,2,3.5l48.7,28.2v-56.4c0-1.3-0.7-2.5-1.7-3.2l-28-16.1l-17-9.8
			c-0.4-0.2-0.9-0.4-1.3-0.4c-1.4,0-2.7,1.1-2.7,2.7V1095.7z"/>
		<g>
			<path class="st8" d="M999.6,1020.7l-47.5-27.4c0,0.1,0,0.3,0,0.4c0,1.7-0.9,3.2-2.3,4l-45.7,26.4l46.8,27c1.2,0.7,2.8,0.7,4,0
				l44.7-25.8C1001.3,1024.3,1001.3,1021.7,999.6,1020.7z"/>
		</g>
		<g>
			<g>
				<path class="st8" d="M840.8,1068.3c-0.2-0.2-0.5-0.5-0.7-0.6l0,0C840.3,1067.9,840.6,1068.1,840.8,1068.3z"/>
			</g>
			<g>
				<path class="st8" d="M890.6,1096.9l-47-27.1c0.1,0.4,0.1,0.8,0.1,1.2v56.4v1.2l44.8,25.9c1.8,1,4-0.3,4-2.3v-51.8
					C892.6,1098.9,891.8,1097.6,890.6,1096.9z"/>
			</g>
		</g>
		<g>
			<g>
				<path class="st8" d="M855.3,996l23.4,13.5L855.3,996c-0.4-0.2-0.7-0.6-1-1C854.6,995.4,854.9,995.7,855.3,996z"/>
			</g>
			<g>
				<path class="st8" d="M854.3,997.7c-1.4-0.8-2.2-2.2-2.3-3.8c0-0.2,0-0.4,0-0.6l-47.4,27.4c-1.8,1-1.8,3.6,0,4.6l44.7,25.8
					c1.2,0.7,2.8,0.7,4,0l46.8-27L854.3,997.7z"/>
			</g>
		</g>
		<g>
			<path class="st8" d="M840.8,1129.1l-48.7-28.2c-0.4-0.2-0.7-0.5-1-0.7v54.3c0,1.4,0.8,2.7,2,3.5l44.7,25.8c1.8,1,4-0.3,4-2.3
				v-51.8L840.8,1129.1z"/>
		</g>
		<path class="st8" d="M1013.1,1095.7c0,1.4-0.8,2.7-2,3.5l-48.7,28.2v-56.4c0-1.3,0.7-2.5,1.7-3.2l28-16.1l17-9.8
			c0.4-0.2,0.9-0.4,1.3-0.4c1.4,0,2.7,1.1,2.7,2.7V1095.7z"/>
		<g>
			<g>
				<path class="st8" d="M963.4,1068.3c0.2-0.2,0.5-0.5,0.7-0.6l0,0C963.8,1067.9,963.6,1068.1,963.4,1068.3z"/>
			</g>
			<g>
				<path class="st8" d="M913.5,1096.9l47-27.1c-0.1,0.4-0.1,0.8-0.1,1.2v56.4v1.2l-44.8,25.9c-1.8,1-4-0.3-4-2.3v-51.8
					C911.5,1098.9,912.3,1097.6,913.5,1096.9z"/>
			</g>
		</g>
		<g>
			<path class="st8" d="M963.4,1129.1l48.7-28.2c0.4-0.2,0.7-0.5,1-0.7v54.3c0,1.4-0.8,2.7-2,3.5l-44.7,25.8c-1.8,1-4-0.3-4-2.3
				v-51.8L963.4,1129.1z"/>
		</g>
	</g>
	<g>
		<path class="st8" d="M702.1,1218.8h15.7l22.8,41.5l22.6-41.5H779v73.4h-15.8v-45.7l-22.6,41.5l-22.8-41.5v45.7h-15.7V1218.8z"/>
		<path class="st8" d="M787.3,1264.5c0-15.7,13.8-28.8,30.2-28.8c16.3,0,30,13.1,30,28.8s-13.7,29-30,29
			C801,1293.5,787.3,1280.2,787.3,1264.5z M832.7,1264.5c0-8.5-6.9-15.7-15.2-15.7c-8.3,0-15.3,7.2-15.3,15.7s6.9,15.8,15.3,15.8
			C825.7,1280.3,832.7,1273.1,832.7,1264.5z"/>
		<path class="st8" d="M908.4,1257v35.1h-15.1v-31.8c0-6.8-4.3-11.5-10.5-11.5c-6.5,0-11.5,4.7-11.5,10.7l-0.1-0.3v33h-15.6V1237
			h15.6v6.9c3.3-5,9.5-8.2,16.7-8.2C899.8,1235.7,908.4,1244.5,908.4,1257z"/>
		<path class="st8" d="M957.8,1274.8l9.9,10.1c-4.9,5.1-14.4,8.5-22.5,8.5c-16.5,0-29.3-12.1-29.3-29.1c0-16.7,12.3-28.7,28.4-28.7
			c17.3,0,27.5,13.1,27.5,34H932c1.8,6,6.6,10,13.1,10C949.5,1279.7,954.8,1277.7,957.8,1274.8z M932.2,1258.4h24.7
			c-1.5-5.4-5.6-9-11.9-9C939.1,1249.5,934.2,1252.9,932.2,1258.4z"/>
		<path class="st8" d="M1010.7,1288.7c-3.2,2.9-8.2,4.8-12.7,4.8c-9.7,0-16.6-6.9-16.6-16.9v-27h-7.6V1237h7.6v-15.2h15v15.2h12
			v12.6h-12v24.6c0,3.6,2.4,6.2,5.2,6.2c2.1,0,4.3-0.7,5.3-1.8L1010.7,1288.7z"/>
		<path class="st8" d="M1045,1288.7c-3.2,2.9-8.2,4.8-12.7,4.8c-9.7,0-16.6-6.9-16.6-16.9v-27h-7.6V1237h7.6v-15.2h15v15.2h12v12.6
			h-12v24.6c0,3.6,2.4,6.2,5.2,6.2c2.1,0,4.3-0.7,5.3-1.8L1045,1288.7z"/>
		<path class="st8" d="M1102.1,1259.2v33H1087v-5.6c-4,4.5-10.3,6.8-16.2,6.8c-11.8,0-20.8-7.1-20.8-17.6c0-10.9,10.2-18.4,23-18.4
			c4.5,0,9.4,1,14.1,2.8v-1.1c0-5.9-3.6-11-12.7-11c-5.1,0-9.9,1.7-14.3,4l-5.2-10.4c7.8-4,15.4-6.1,23.1-6.1
			C1092.2,1235.7,1102.1,1244.8,1102.1,1259.2z M1087,1274.8v-5.1c-3.5-1.3-7.6-2-11.9-2c-5.7,0-10.1,3.3-10.1,7.8
			c0,4.5,4,7.3,9.3,7.3C1080.3,1282.7,1085.9,1279.9,1087,1274.8z"/>
	</g>
</g>
<g>
	<g>
		<path class="st8" d="M246.7,991.4L202,965.5c-0.6-0.4-1.3-0.5-2-0.5s-1.4,0.2-2,0.5l-45,26c-1.6,1.1-1.5,3.5,0.2,4.5l46.8,27
			l46.7-27C248.5,995,248.5,992.4,246.7,991.4z"/>
		<path class="st8" d="M89,1095.7c0,1.4,0.8,2.7,2,3.5l48.7,28.2v-56.4c0-1.3-0.7-2.5-1.7-3.2l-28-16.1l-17-9.8
			c-0.4-0.2-0.9-0.4-1.3-0.4c-1.4,0-2.7,1.1-2.7,2.7V1095.7z"/>
		<g>
			<path class="st8" d="M297.5,1020.7L250,993.3c0,0.1,0,0.3,0,0.4c0,1.7-0.9,3.2-2.3,4l-45.7,26.4l46.8,27c1.2,0.7,2.8,0.7,4,0
				l44.7-25.8C299.3,1024.3,299.3,1021.7,297.5,1020.7z"/>
		</g>
		<g>
			<g>
				<path class="st8" d="M138.7,1068.3c-0.2-0.2-0.5-0.5-0.7-0.6l0,0C138.2,1067.9,138.5,1068.1,138.7,1068.3z"/>
			</g>
			<g>
				<path class="st8" d="M188.5,1096.9l-47-27.1c0.1,0.4,0.1,0.8,0.1,1.2v56.4v1.2l44.8,25.9c1.8,1,4-0.3,4-2.3v-51.8
					C190.5,1098.9,189.8,1097.6,188.5,1096.9z"/>
			</g>
		</g>
		<g>
			<g>
				<path class="st8" d="M153.2,996l23.4,13.5L153.2,996c-0.4-0.2-0.7-0.6-1-1C152.5,995.4,152.8,995.7,153.2,996z"/>
			</g>
			<g>
				<path class="st8" d="M152.2,997.7c-1.4-0.8-2.2-2.2-2.3-3.8c0-0.2,0-0.4,0-0.6l-47.4,27.4c-1.8,1-1.8,3.6,0,4.6l44.7,25.8
					c1.2,0.7,2.8,0.7,4,0l46.8-27L152.2,997.7z"/>
			</g>
		</g>
		<g>
			<path class="st8" d="M138.7,1129.1L90,1100.9c-0.4-0.2-0.7-0.5-1-0.7v54.3c0,1.4,0.8,2.7,2,3.5l44.7,25.8c1.8,1,4-0.3,4-2.3
				v-51.8L138.7,1129.1z"/>
		</g>
		<path class="st8" d="M311,1095.7c0,1.4-0.8,2.7-2,3.5l-48.7,28.2v-56.4c0-1.3,0.7-2.5,1.7-3.2l28-16.1l17-9.8
			c0.4-0.2,0.9-0.4,1.3-0.4c1.4,0,2.7,1.1,2.7,2.7V1095.7z"/>
		<g>
			<g>
				<path class="st8" d="M261.3,1068.3c0.2-0.2,0.5-0.5,0.7-0.6l0,0C261.8,1067.9,261.5,1068.1,261.3,1068.3z"/>
			</g>
			<g>
				<path class="st8" d="M211.5,1096.9l47-27.1c-0.1,0.4-0.1,0.8-0.1,1.2v56.4v1.2l-44.8,25.9c-1.8,1-4-0.3-4-2.3v-51.8
					C209.5,1098.9,210.2,1097.6,211.5,1096.9z"/>
			</g>
		</g>
		<g>
			<path class="st8" d="M261.3,1129.1l48.7-28.2c0.4-0.2,0.7-0.5,1-0.7v54.3c0,1.4-0.8,2.7-2,3.5l-44.7,25.8c-1.8,1-4-0.3-4-2.3
				v-51.8L261.3,1129.1z"/>
		</g>
	</g>
	<g>
		<g>
			<path class="st8" d="M0,1218.8h15.7l22.8,41.5l22.6-41.5h15.8v73.4H61.1v-45.7l-22.6,41.5l-22.8-41.5v45.7H0V1218.8z"/>
		</g>
		<g>
			<path class="st8" d="M85.2,1264.5c0-15.7,13.8-28.8,30.2-28.8c16.3,0,30,13.1,30,28.8s-13.7,29-30,29
				C99,1293.5,85.2,1280.2,85.2,1264.5z M130.6,1264.5c0-8.5-6.9-15.7-15.2-15.7c-8.3,0-15.3,7.2-15.3,15.7s6.9,15.8,15.3,15.8
				C123.7,1280.3,130.6,1273.1,130.6,1264.5z"/>
		</g>
		<g>
			<path class="st8" d="M206.3,1257v35.1h-15.1v-31.8c0-6.8-4.3-11.5-10.5-11.5c-6.5,0-11.5,4.7-11.5,10.7l-0.1-0.3v33h-15.6V1237
				h15.6v6.9c3.3-5,9.5-8.2,16.7-8.2C197.8,1235.7,206.3,1244.5,206.3,1257z"/>
		</g>
		<g>
			<path class="st8" d="M255.7,1274.8l9.9,10.1c-4.9,5.1-14.4,8.5-22.5,8.5c-16.5,0-29.3-12.1-29.3-29.1c0-16.7,12.3-28.7,28.4-28.7
				c17.3,0,27.5,13.1,27.5,34h-39.8c1.8,6,6.6,10,13.1,10C247.4,1279.7,252.7,1277.7,255.7,1274.8z M230.1,1258.4h24.7
				c-1.5-5.4-5.6-9-11.9-9C237,1249.5,232.1,1252.9,230.1,1258.4z"/>
		</g>
		<g>
			<path class="st8" d="M308.6,1288.7c-3.2,2.9-8.2,4.8-12.7,4.8c-9.7,0-16.6-6.9-16.6-16.9v-27h-7.6V1237h7.6v-15.2h15v15.2h12
				v12.6h-12v24.6c0,3.6,2.4,6.2,5.2,6.2c2.1,0,4.3-0.7,5.3-1.8L308.6,1288.7z"/>
		</g>
		<g>
			<path class="st8" d="M342.9,1288.7c-3.2,2.9-8.2,4.8-12.7,4.8c-9.7,0-16.6-6.9-16.6-16.9v-27h-7.6V1237h7.6v-15.2h15v15.2h12
				v12.6h-12v24.6c0,3.6,2.4,6.2,5.2,6.2c2.1,0,4.3-0.7,5.3-1.8L342.9,1288.7z"/>
		</g>
		<g>
			<path class="st8" d="M400,1259.2v33h-15.1v-5.6c-4,4.5-10.3,6.8-16.2,6.8c-11.8,0-20.8-7.1-20.8-17.6c0-10.9,10.1-18.4,23-18.4
				c4.5,0,9.4,1,14.1,2.8v-1.1c0-5.9-3.6-11-12.7-11c-5.1,0-9.9,1.7-14.3,4l-5.2-10.4c7.8-4,15.4-6.1,23.1-6.1
				C390.2,1235.7,400,1244.8,400,1259.2z M384.9,1274.8v-5.1c-3.5-1.3-7.6-2-11.9-2c-5.7,0-10.1,3.3-10.1,7.8c0,4.5,4,7.3,9.3,7.3
				C378.2,1282.7,383.9,1279.9,384.9,1274.8z"/>
		</g>
	</g>
	<g>
		<g>
			<path class="st8" d="M7.2,1314.6h5.5v5.2c-1.2,1.3-3.2,2.1-5.1,2.1c-3.7,0-6.8-3-6.8-6.6s3.1-6.6,6.8-6.6c1.9,0,3.9,0.8,5.1,2.1
				l-1.7,1.5c-0.8-0.9-2.2-1.5-3.4-1.5c-2.4,0-4.4,2.1-4.4,4.5c0,2.5,2,4.5,4.4,4.5c1,0,2-0.3,2.8-0.9v-2.3H7.2V1314.6z"/>
		</g>
		<g>
			<path class="st8" d="M21.7,1318.9l1.4,1.5c-0.8,0.9-2.5,1.5-3.9,1.5c-2.8,0-5-2.1-5-5.1c0-2.9,2.2-5,4.9-5c3,0,4.7,2.3,4.7,5.8
				h-7.3c0.3,1.3,1.3,2.3,2.7,2.3C20.1,1319.9,21.2,1319.4,21.7,1318.9z M16.6,1315.9h5.1c-0.3-1.2-1.1-2.1-2.4-2.1
				C18,1313.8,16.9,1314.6,16.6,1315.9z"/>
		</g>
		<g>
			<path class="st8" d="M30.9,1321.1c-0.5,0.5-1.3,0.8-2.1,0.8c-1.6,0-2.7-1.2-2.7-2.8v-5.2h-1.4v-1.9h1.4v-2.6h2.2v2.6h2.2v1.9
				h-2.2v4.9c0,0.7,0.4,1.1,1,1.1c0.4,0,0.7-0.1,1-0.4L30.9,1321.1z"/>
		</g>
		<g>
			<path class="st8" d="M51.9,1315.5v6.1h-2.2v-5.8c0-1.3-0.8-2.2-1.9-2.2c-1.3,0-2.1,0.8-2.1,2v5.9h-2.2v-5.8
				c0-1.3-0.8-2.2-1.9-2.2c-1.2,0-2.1,0.8-2.1,2v5.9h-2.3v-9.6h2.3v1.3c0.5-0.9,1.5-1.5,2.7-1.5c1.4,0,2.5,0.7,3.1,1.8
				c0.5-1.1,1.7-1.8,3.1-1.8C50.4,1311.8,51.9,1313.3,51.9,1315.5z"/>
		</g>
		<g>
			<path class="st8" d="M53.5,1316.8c0-2.7,2.4-5,5.2-5c2.8,0,5.2,2.3,5.2,5s-2.4,5.1-5.2,5.1C55.9,1321.9,53.5,1319.6,53.5,1316.8z
				 M61.6,1316.8c0-1.7-1.3-3.1-2.9-3.1c-1.6,0-2.9,1.4-2.9,3.1c0,1.7,1.3,3.1,2.9,3.1C60.2,1319.9,61.6,1318.5,61.6,1316.8z"/>
		</g>
		<g>
			<path class="st8" d="M71.2,1311.8v1.9c-2.1,0-3.5,1.2-3.5,3.1v4.9h-2.3v-9.6h2.3v1.9C68.4,1312.6,69.6,1311.8,71.2,1311.8z"/>
		</g>
		<g>
			<path class="st8" d="M79.5,1318.9l1.4,1.5c-0.8,0.9-2.5,1.5-3.9,1.5c-2.8,0-5-2.1-5-5.1c0-2.9,2.2-5,4.9-5c3,0,4.7,2.3,4.7,5.8
				h-7.3c0.3,1.3,1.3,2.3,2.7,2.3C77.9,1319.9,79,1319.4,79.5,1318.9z M74.4,1315.9h5.1c-0.3-1.2-1.1-2.1-2.4-2.1
				C75.7,1313.8,74.7,1314.6,74.4,1315.9z"/>
		</g>
		<g>
			<path class="st8" d="M87.6,1316.8c0-2.7,2.4-5,5.2-5c2.8,0,5.2,2.3,5.2,5s-2.4,5.1-5.2,5.1C90,1321.9,87.6,1319.6,87.6,1316.8z
				 M95.7,1316.8c0-1.7-1.3-3.1-2.9-3.1c-1.6,0-2.9,1.4-2.9,3.1c0,1.7,1.3,3.1,2.9,3.1C94.4,1319.9,95.7,1318.5,95.7,1316.8z"/>
		</g>
		<g>
			<path class="st8" d="M108.4,1312v9.6h-2.3v-1.3c-0.6,0.9-1.7,1.5-3,1.5c-2.1,0-3.6-1.5-3.6-3.7v-6.1h2.2v5.7c0,1.3,0.8,2.2,2,2.2
				s2.2-0.8,2.3-1.8v-6.1H108.4z"/>
		</g>
		<g>
			<path class="st8" d="M116,1321.1c-0.5,0.5-1.3,0.8-2.1,0.8c-1.6,0-2.7-1.2-2.7-2.8v-5.2h-1.4v-1.9h1.4v-2.6h2.2v2.6h2.2v1.9h-2.2
				v4.9c0,0.7,0.4,1.1,1,1.1c0.4,0,0.7-0.1,1-0.4L116,1321.1z"/>
		</g>
		<g>
			<path class="st8" d="M121.8,1316.8c0-2.7,2.4-5,5.2-5c2.8,0,5.2,2.3,5.2,5s-2.4,5.1-5.2,5.1
				C124.2,1321.9,121.8,1319.6,121.8,1316.8z M129.9,1316.8c0-1.7-1.3-3.1-2.9-3.1c-1.6,0-2.9,1.4-2.9,3.1c0,1.7,1.3,3.1,2.9,3.1
				C128.5,1319.9,129.9,1318.5,129.9,1316.8z"/>
		</g>
		<g>
			<path class="st8" d="M136.6,1312h2.2v1.9h-2.2v7.8h-2.2v-7.8H133v-1.9h1.4v-1c0-1.6,1.1-2.8,2.7-2.8c0.7,0,1.5,0.3,2.1,0.8
				l-0.7,1.5c-0.2-0.2-0.6-0.4-1-0.4c-0.5,0-1,0.5-1,1.1V1312z"/>
		</g>
		<g>
			<path class="st8" d="M145,1324.5l0.5-1.6c0.4,0.2,0.9,0.4,1.2,0.4c0.5,0,1-0.2,1.2-0.6l0.4-0.9l-4.1-9.7h2.4l2.8,7.2l2.6-7.2h2.4
				l-4.1,10.3c-0.7,1.8-1.8,2.7-3.3,2.7C146.4,1325,145.6,1324.8,145,1324.5z"/>
		</g>
		<g>
			<path class="st8" d="M155,1316.8c0-2.7,2.4-5,5.2-5c2.8,0,5.2,2.3,5.2,5s-2.4,5.1-5.2,5.1C157.4,1321.9,155,1319.6,155,1316.8z
				 M163.1,1316.8c0-1.7-1.3-3.1-2.9-3.1c-1.6,0-2.9,1.4-2.9,3.1c0,1.7,1.3,3.1,2.9,3.1C161.8,1319.9,163.1,1318.5,163.1,1316.8z"/>
		</g>
		<g>
			<path class="st8" d="M175.8,1312v9.6h-2.3v-1.3c-0.6,0.9-1.7,1.5-3,1.5c-2.1,0-3.6-1.5-3.6-3.7v-6.1h2.2v5.7c0,1.3,0.8,2.2,2,2.2
				s2.2-0.8,2.3-1.8v-6.1H175.8z"/>
		</g>
		<g>
			<path class="st8" d="M183.7,1311.8v1.9c-2.1,0-3.5,1.2-3.5,3.1v4.9H178v-9.6h2.3v1.9C180.9,1312.6,182.1,1311.8,183.7,1311.8z"/>
		</g>
		<g>
			<path class="st8" d="M204.6,1315.5v6.1h-2.2v-5.8c0-1.3-0.8-2.2-1.9-2.2c-1.3,0-2.1,0.8-2.1,2v5.9h-2.2v-5.8
				c0-1.3-0.8-2.2-1.9-2.2c-1.2,0-2.1,0.8-2.1,2v5.9h-2.3v-9.6h2.3v1.3c0.5-0.9,1.5-1.5,2.7-1.5c1.4,0,2.5,0.7,3.1,1.8
				c0.5-1.1,1.7-1.8,3.1-1.8C203.1,1311.8,204.6,1313.3,204.6,1315.5z"/>
		</g>
		<g>
			<path class="st8" d="M213.7,1318.9l1.4,1.5c-0.8,0.9-2.5,1.5-3.9,1.5c-2.8,0-5-2.1-5-5.1c0-2.9,2.2-5,4.9-5c3,0,4.7,2.3,4.7,5.8
				h-7.3c0.3,1.3,1.3,2.3,2.7,2.3C212.1,1319.9,213.1,1319.4,213.7,1318.9z M208.5,1315.9h5.1c-0.3-1.2-1.1-2.1-2.4-2.1
				C209.9,1313.8,208.9,1314.6,208.5,1315.9z"/>
		</g>
		<g>
			<path class="st8" d="M224.4,1318.9l1.4,1.5c-0.8,0.9-2.5,1.5-3.9,1.5c-2.8,0-5-2.1-5-5.1c0-2.9,2.2-5,4.9-5c3,0,4.7,2.3,4.7,5.8
				h-7.3c0.3,1.3,1.3,2.3,2.7,2.3C222.8,1319.9,223.8,1319.4,224.4,1318.9z M219.2,1315.9h5.1c-0.3-1.2-1.1-2.1-2.4-2.1
				C220.6,1313.8,219.6,1314.6,219.2,1315.9z"/>
		</g>
		<g>
			<path class="st8" d="M233.6,1321.1c-0.5,0.5-1.3,0.8-2.1,0.8c-1.6,0-2.7-1.2-2.7-2.8v-5.2h-1.4v-1.9h1.4v-2.6h2.2v2.6h2.2v1.9
				H231v4.9c0,0.7,0.4,1.1,1,1.1c0.4,0,0.7-0.1,1-0.4L233.6,1321.1z"/>
		</g>
		<g>
			<path class="st8" d="M234.8,1309.2c0-0.7,0.6-1.3,1.3-1.3c0.7,0,1.3,0.6,1.3,1.3s-0.6,1.3-1.3,1.3
				C235.4,1310.5,234.8,1309.9,234.8,1309.2z M235,1312h2.3v9.6H235V1312z"/>
		</g>
		<g>
			<path class="st8" d="M248.2,1315.5v6.1H246v-5.7c0-1.3-0.8-2.2-2-2.2s-2.2,0.8-2.3,1.8v6.1h-2.3v-9.6h2.3v1.3
				c0.6-0.9,1.7-1.5,3-1.5C246.8,1311.8,248.2,1313.3,248.2,1315.5z"/>
		</g>
		<g>
			<path class="st8" d="M259.8,1312v8.6c0,2.5-2.1,4.2-5,4.2c-1.7,0-3.2-0.5-4.1-1.3l0.8-1.7c0.7,0.6,1.8,1,3,1
				c1.9,0,3.1-0.9,3.1-2.4v-1.3c-0.8,1-1.9,1.6-3.3,1.6c-2.5,0-4.3-1.9-4.3-4.6s1.8-4.6,4.3-4.6c1.4,0,2.6,0.6,3.3,1.7v-1.4H259.8z
				 M257.5,1316.4c0-1.5-1.1-2.6-2.6-2.6c-1.5,0-2.6,1.1-2.6,2.6c0,1.5,1.1,2.6,2.6,2.6C256.4,1319,257.5,1317.9,257.5,1316.4z"/>
		</g>
		<g>
			<path class="st8" d="M261.3,1320.4l1-1.6c0.9,0.7,2,1.1,3.2,1.1c0.9,0,1.5-0.4,1.5-1c0-0.7-0.8-1-1.9-1.3
				c-2.1-0.5-3.4-1.1-3.4-2.9c0-1.8,1.5-3,3.6-3c1.3,0,2.7,0.5,3.7,1.2l-1,1.7c-0.9-0.6-1.9-0.9-2.7-0.9c-0.8,0-1.4,0.3-1.4,0.9
				c0,0.6,0.5,0.8,2,1.2c1.6,0.4,3.4,1,3.4,3c0,1.8-1.5,3-3.8,3C264.1,1321.9,262.5,1321.4,261.3,1320.4z"/>
		</g>
		<g>
			<path class="st8" d="M271.2,1323.6c0.6-0.6,0.9-1.2,1.1-1.8c-0.8,0-1.4-0.7-1.4-1.5c0-0.8,0.7-1.5,1.5-1.5c1,0,1.6,0.9,1.6,2
				c0,1-0.5,2-1.8,3.3L271.2,1323.6z"/>
		</g>
		<g>
			<path class="st8" d="M290.9,1316.8c0,3-1.9,5.1-4.4,5.1c-1.4,0-2.6-0.7-3.4-1.8v1.5h-2.3v-13h2.3v4.9c0.8-1.1,1.9-1.8,3.4-1.8
				C289,1311.8,290.9,1313.9,290.9,1316.8z M288.6,1316.8c0-1.8-1.2-3.1-2.8-3.1c-1.6,0-2.7,1.3-2.7,3.1c0,1.8,1.1,3.1,2.7,3.1
				C287.4,1319.9,288.6,1318.6,288.6,1316.8z"/>
		</g>
		<g>
			<path class="st8" d="M292.4,1324.5l0.5-1.6c0.4,0.2,0.9,0.4,1.2,0.4c0.5,0,1-0.2,1.2-0.6l0.4-0.9l-4.1-9.7h2.4l2.8,7.2l2.6-7.2
				h2.4l-4.1,10.3c-0.7,1.8-1.8,2.7-3.3,2.7C293.8,1325,293,1324.8,292.4,1324.5z"/>
		</g>
		<g>
			<path class="st8" d="M317.9,1308.6v13h-2.3v-1.5c-0.8,1.1-1.9,1.7-3.3,1.7c-2.6,0-4.4-2.1-4.4-5.1c0-2.9,1.9-5,4.4-5
				c1.4,0,2.6,0.6,3.3,1.7v-4.9H317.9z M315.6,1316.8c0-1.8-1.1-3.1-2.7-3.1c-1.6,0-2.8,1.3-2.8,3.1c0,1.8,1.2,3.1,2.8,3.1
				C314.5,1319.9,315.6,1318.6,315.6,1316.8z"/>
		</g>
		<g>
			<path class="st8" d="M319.5,1316.8c0-2.7,2.4-5,5.2-5c2.8,0,5.2,2.3,5.2,5s-2.4,5.1-5.2,5.1
				C321.9,1321.9,319.5,1319.6,319.5,1316.8z M327.6,1316.8c0-1.7-1.3-3.1-2.9-3.1c-1.6,0-2.9,1.4-2.9,3.1c0,1.7,1.3,3.1,2.9,3.1
				C326.3,1319.9,327.6,1318.5,327.6,1316.8z"/>
		</g>
		<g>
			<path class="st8" d="M331.3,1309.2c0-0.7,0.6-1.3,1.3-1.3c0.7,0,1.3,0.6,1.3,1.3s-0.6,1.3-1.3,1.3
				C331.9,1310.5,331.3,1309.9,331.3,1309.2z M331.5,1312h2.3v9.6h-2.3V1312z"/>
		</g>
		<g>
			<path class="st8" d="M344.8,1315.5v6.1h-2.2v-5.7c0-1.3-0.8-2.2-2-2.2s-2.2,0.8-2.3,1.8v6.1h-2.3v-9.6h2.3v1.3
				c0.6-0.9,1.7-1.5,3-1.5C343.3,1311.8,344.8,1313.3,344.8,1315.5z"/>
		</g>
		<g>
			<path class="st8" d="M356.3,1312v8.6c0,2.5-2.1,4.2-5,4.2c-1.7,0-3.2-0.5-4.1-1.3l0.8-1.7c0.7,0.6,1.8,1,3,1
				c1.9,0,3.1-0.9,3.1-2.4v-1.3c-0.8,1-1.9,1.6-3.3,1.6c-2.5,0-4.3-1.9-4.3-4.6s1.8-4.6,4.3-4.6c1.4,0,2.6,0.6,3.3,1.7v-1.4H356.3z
				 M354,1316.4c0-1.5-1.1-2.6-2.6-2.6c-1.5,0-2.6,1.1-2.6,2.6c0,1.5,1.1,2.6,2.6,2.6C352.9,1319,354,1317.9,354,1316.4z"/>
		</g>
		<g>
			<path class="st8" d="M363.4,1308.6h2.3v13h-2.3V1308.6z"/>
		</g>
		<g>
			<path class="st8" d="M374.8,1318.9l1.4,1.5c-0.8,0.9-2.5,1.5-3.9,1.5c-2.8,0-5-2.1-5-5.1c0-2.9,2.2-5,4.9-5c3,0,4.7,2.3,4.7,5.8
				h-7.3c0.3,1.3,1.3,2.3,2.7,2.3C373.2,1319.9,374.3,1319.4,374.8,1318.9z M369.7,1315.9h5.1c-0.3-1.2-1.1-2.1-2.4-2.1
				C371,1313.8,370,1314.6,369.7,1315.9z"/>
		</g>
		<g>
			<path class="st8" d="M377.9,1320.4l1-1.6c0.9,0.7,2,1.1,3.2,1.1c0.9,0,1.5-0.4,1.5-1c0-0.7-0.8-1-1.9-1.3
				c-2.1-0.5-3.4-1.1-3.4-2.9c0-1.8,1.5-3,3.6-3c1.3,0,2.7,0.5,3.7,1.2l-1,1.7c-0.9-0.6-1.9-0.9-2.7-0.9c-0.8,0-1.4,0.3-1.4,0.9
				c0,0.6,0.5,0.8,2,1.2c1.6,0.4,3.4,1,3.4,3c0,1.8-1.5,3-3.8,3C380.6,1321.9,379,1321.4,377.9,1320.4z"/>
		</g>
		<g>
			<path class="st8" d="M386.8,1320.4l1-1.6c0.9,0.7,2,1.1,3.2,1.1c0.9,0,1.5-0.4,1.5-1c0-0.7-0.8-1-1.9-1.3
				c-2.1-0.5-3.4-1.1-3.4-2.9c0-1.8,1.5-3,3.6-3c1.3,0,2.7,0.5,3.7,1.2l-1,1.7c-0.9-0.6-1.9-0.9-2.7-0.9c-0.8,0-1.4,0.3-1.4,0.9
				c0,0.6,0.5,0.8,2,1.2c1.6,0.4,3.4,1,3.4,3c0,1.8-1.5,3-3.8,3C389.6,1321.9,388,1321.4,386.8,1320.4z"/>
		</g>
		<g>
			<path class="st8" d="M396.3,1320.4c0-0.8,0.6-1.4,1.5-1.4c0.8,0,1.4,0.7,1.4,1.4c0,0.8-0.7,1.5-1.4,1.5
				C397,1321.9,396.3,1321.2,396.3,1320.4z"/>
		</g>
	</g>
</g>
</svg>
