<svg width="400" height="360" xmlns="http://www.w3.org/2000/svg">
 <style type="text/css">.st0{fill:#61ABFF;}
	.st1{fill:#6BBAFF;}
	.st2{fill:#FFAC4D;}
	.st3{fill:#FFDD57;}
	.st4{fill:#FFD152;}
	.st5{fill:#5C92FF;}
	.st6{fill:#333333;}
	.st7{fill:#FFFFFF;}
	.st8{fill:#E6E6E6;}</style>

 <g>
  <title>background</title>
  <rect fill="none" id="canvas_background" height="402" width="582" y="-1" x="-1"/>
 </g>
 <g>
  <title>Layer 1</title>
  <g id="svg_1">
   <g id="svg_2">
    <path id="svg_3" d="m702.1,253.8l15.7,0l22.8,41.5l22.6,-41.5l15.8,0l0,73.4l-15.8,0l0,-45.7l-22.6,41.5l-22.8,-41.5l0,45.7l-15.7,0l0,-73.4z" class="st0"/>
    <path id="svg_4" d="m787.3,299.5c0,-15.7 13.8,-28.8 30.2,-28.8c16.3,0 30,13.1 30,28.8s-13.7,29 -30,29c-16.5,0 -30.2,-13.3 -30.2,-29zm45.4,0c0,-8.5 -6.9,-15.7 -15.2,-15.7c-8.3,0 -15.3,7.2 -15.3,15.7s6.9,15.8 15.3,15.8c8.2,0 15.2,-7.2 15.2,-15.8z" class="st1"/>
    <path id="svg_5" d="m908.4,292l0,35.1l-15.1,0l0,-31.8c0,-6.8 -4.3,-11.5 -10.5,-11.5c-6.5,0 -11.5,4.7 -11.5,10.7l-0.1,-0.3l0,33l-15.6,0l0,-55.2l15.6,0l0,6.9c3.3,-5 9.5,-8.2 16.7,-8.2c11.9,0 20.5,8.8 20.5,21.3z" class="st0"/>
    <path id="svg_6" d="m957.8,309.8l9.9,10.1c-4.9,5.1 -14.4,8.5 -22.5,8.5c-16.5,0 -29.3,-12.1 -29.3,-29.1c0,-16.7 12.3,-28.7 28.4,-28.7c17.3,0 27.5,13.1 27.5,34l-39.8,0c1.8,6 6.6,10 13.1,10c4.4,0.1 9.7,-2 12.7,-4.8zm-25.6,-16.4l24.7,0c-1.5,-5.4 -5.6,-9 -11.9,-9c-5.9,0 -10.8,3.5 -12.8,9z" class="st1"/>
    <path id="svg_7" d="m1010.7,323.6c-3.2,2.9 -8.2,4.8 -12.7,4.8c-9.7,0 -16.6,-6.9 -16.6,-16.9l0,-27l-7.6,0l0,-12.6l7.6,0l0,-15.2l15,0l0,15.2l12,0l0,12.6l-12,0l0,24.6c0,3.6 2.4,6.2 5.2,6.2c2.1,0 4.3,-0.7 5.3,-1.8l3.8,10.1z" class="st0"/>
    <path id="svg_8" d="m1045,323.6c-3.2,2.9 -8.2,4.8 -12.7,4.8c-9.7,0 -16.6,-6.9 -16.6,-16.9l0,-27l-7.6,0l0,-12.6l7.6,0l0,-15.2l15,0l0,15.2l12,0l0,12.6l-12,0l0,24.6c0,3.6 2.4,6.2 5.2,6.2c2.1,0 4.3,-0.7 5.3,-1.8l3.8,10.1z" class="st1"/>
    <path id="svg_9" d="m1102.1,294.2l0,33l-15.1,0l0,-5.6c-4,4.5 -10.3,6.8 -16.2,6.8c-11.8,0 -20.8,-7.1 -20.8,-17.6c0,-10.9 10.2,-18.4 23,-18.4c4.5,0 9.4,1 14.1,2.8l0,-1.1c0,-5.9 -3.6,-11 -12.7,-11c-5.1,0 -9.9,1.7 -14.3,4l-5.2,-10.4c7.8,-4 15.4,-6.1 23.1,-6.1c14.2,0.1 24.1,9.1 24.1,23.6zm-15.1,15.6l0,-5.1c-3.5,-1.3 -7.6,-2 -11.9,-2c-5.7,0 -10.1,3.3 -10.1,7.8c0,4.5 4,7.3 9.3,7.3c6,-0.1 11.6,-2.9 12.7,-8z" class="st0"/>
   </g>
   <g id="svg_10">
    <path id="svg_11" d="m855.1,26.5l-50.6,29.2c-1.8,1 -1.8,3.6 0,4.6l44.7,25.8c1.2,0.7 2.8,0.7 4,0l48.8,-28.2l-46.8,-27c-1.6,-0.9 -1.6,-3.3 -0.1,-4.4z" class="st2"/>
    <path id="svg_12" d="m948.8,26.4c1.8,1 1.8,3.6 0,4.6l-46.7,27l48.8,28.2c1.2,0.7 2.8,0.7 4,0l44.7,-25.8c1.8,-1 1.8,-3.6 0,-4.6l-50.8,-29.4z" class="st3"/>
    <path id="svg_13" d="m948.8,26.4l-44.7,-25.9c-1.2,-0.7 -2.8,-0.7 -4,0l-45,26c-1.6,1.1 -1.5,3.5 0.2,4.5l46.8,27l46.7,-27c1.8,-1.1 1.8,-3.6 0,-4.6z" class="st4"/>
    <g id="svg_14">
     <path id="svg_15" d="m791.1,130.7l0,58.7c0,1.4 0.8,2.7 2,3.5l44.7,25.8c1.8,1 4,-0.3 4,-2.3l0,-54.1l-48.7,-28.2c-1.3,-0.7 -2,-2 -2,-3.4z" class="st5"/>
    </g>
    <path id="svg_16" d="m890.6,131.8l-50.5,-29.2c1.1,0.7 1.7,1.9 1.7,3.2l0,56.4l46.8,27.1c1.8,1 4,-0.3 4,-2.3l0,-51.8c0,-1.3 -0.8,-2.6 -2,-3.4z" class="st1"/>
    <path id="svg_17" d="m840.1,102.7l-28,-16.1l-17,-9.8c-1.8,-1 -4,0.3 -4,2.3l0,51.6c0,1.4 0.8,2.7 2,3.5l48.7,28.2l0,-56.4c0,-1.4 -0.7,-2.6 -1.7,-3.3z" class="st0"/>
    <g id="svg_18">
     <path id="svg_19" d="m1011.1,134.1l-48.7,28.2l0,54.1c0,2.1 2.2,3.3 4,2.3l44.7,-25.8c1.2,-0.7 2,-2 2,-3.5l0,-58.7c0,1.4 -0.8,2.7 -2,3.4z" class="st5"/>
    </g>
    <path id="svg_20" d="m964.1,102.7l-50.5,29.2c-1.2,0.7 -2,2 -2,3.5l0,51.8c0,2.1 2.2,3.3 4,2.3l46.8,-27.1l0,-56.4c0,-1.4 0.6,-2.6 1.7,-3.3z" class="st1"/>
    <path id="svg_21" d="m1009.1,76.7l-17.1,9.8l-27.9,16.1c-1.1,0.7 -1.7,1.9 -1.7,3.2l0,56.4l48.7,-28.2c1.2,-0.7 2,-2 2,-3.5l0,-51.5c0,-2 -2.2,-3.3 -4,-2.3z" class="st0"/>
   </g>
  </g>
  <g id="svg_22">
   <g id="svg_23">
    <path id="svg_24" d="m948.8,507.5l-44.7,-25.8c-0.6,-0.4 -1.3,-0.5 -2,-0.5s-1.4,0.2 -2,0.5l-45,26c-1.6,1.1 -1.5,3.5 0.2,4.5l46.8,27l46.7,-27c1.8,-1.1 1.8,-3.7 0,-4.7z" class="st6"/>
    <path id="svg_25" d="m791.1,611.8c0,1.4 0.8,2.7 2,3.5l48.7,28.2l0,-56.5c0,-1.3 -0.7,-2.5 -1.7,-3.2l-28,-16.1l-17,-9.8c-0.4,-0.2 -0.9,-0.4 -1.3,-0.4c-1.4,0 -2.7,1.1 -2.7,2.7l0,51.6z" class="st6"/>
    <g id="svg_26">
     <path id="svg_27" d="m999.6,536.8l-47.5,-27.4c0,0.1 0,0.3 0,0.4c0,1.7 -0.9,3.2 -2.3,4l-45.7,26.4l46.8,27c1.2,0.7 2.8,0.7 4,0l44.7,-25.8c1.7,-1 1.7,-3.6 0,-4.6z" class="st6"/>
    </g>
    <g id="svg_28">
     <g id="svg_29">
      <path id="svg_30" d="m840.8,584.4c-0.2,-0.2 -0.5,-0.5 -0.7,-0.6l0,0c0.2,0.2 0.5,0.4 0.7,0.6z" class="st6"/>
     </g>
     <g id="svg_31">
      <path id="svg_32" d="m890.6,613l-47,-27.1c0.1,0.4 0.1,0.8 0.1,1.2l0,56.4l0,1.2l44.8,25.9c1.8,1 4,-0.3 4,-2.3l0,-51.8c0.1,-1.5 -0.7,-2.8 -1.9,-3.5z" class="st6"/>
     </g>
    </g>
    <g id="svg_33">
     <g id="svg_34">
      <path id="svg_35" d="m855.3,512.1l23.4,13.5l-23.4,-13.5c-0.4,-0.2 -0.7,-0.6 -1,-1c0.3,0.4 0.6,0.7 1,1z" class="st6"/>
     </g>
     <g id="svg_36">
      <path id="svg_37" d="m854.3,513.8c-1.4,-0.8 -2.2,-2.2 -2.3,-3.8c0,-0.2 0,-0.4 0,-0.6l-47.4,27.4c-1.8,1 -1.8,3.6 0,4.6l44.7,25.8c1.2,0.7 2.8,0.7 4,0l46.8,-27l-45.8,-26.4z" class="st6"/>
     </g>
    </g>
    <g id="svg_38">
     <path id="svg_39" d="m840.8,645.2l-48.7,-28.2c-0.4,-0.2 -0.7,-0.5 -1,-0.7l0,54.3c0,1.4 0.8,2.7 2,3.5l44.7,25.8c1.8,1 4,-0.3 4,-2.3l0,-51.8l-1,-0.6z" class="st6"/>
    </g>
    <path id="svg_40" d="m1013.1,611.8c0,1.4 -0.8,2.7 -2,3.5l-48.7,28.2l0,-56.5c0,-1.3 0.7,-2.5 1.7,-3.2l28,-16.1l17,-9.8c0.4,-0.2 0.9,-0.4 1.3,-0.4c1.4,0 2.7,1.1 2.7,2.7l0,51.6z" class="st6"/>
    <g id="svg_41">
     <g id="svg_42">
      <path id="svg_43" d="m963.4,584.4c0.2,-0.2 0.5,-0.5 0.7,-0.6l0,0c-0.3,0.2 -0.5,0.4 -0.7,0.6z" class="st6"/>
     </g>
     <g id="svg_44">
      <path id="svg_45" d="m913.5,613l47,-27.1c-0.1,0.4 -0.1,0.8 -0.1,1.2l0,56.4l0,1.2l-44.8,25.9c-1.8,1 -4,-0.3 -4,-2.3l0,-51.8c-0.1,-1.5 0.7,-2.8 1.9,-3.5z" class="st6"/>
     </g>
    </g>
    <g id="svg_46">
     <path id="svg_47" d="m963.4,645.2l48.7,-28.2c0.4,-0.2 0.7,-0.5 1,-0.7l0,54.3c0,1.4 -0.8,2.7 -2,3.5l-44.7,25.8c-1.8,1 -4,-0.3 -4,-2.3l0,-51.8l1,-0.6z" class="st6"/>
    </g>
   </g>
   <g id="svg_48">
    <path id="svg_49" d="m702.1,734.9l15.7,0l22.8,41.5l22.6,-41.5l15.8,0l0,73.4l-15.8,0l0,-45.7l-22.7,41.4l-22.8,-41.5l0,45.7l-15.7,0l0,-73.3l0.1,0z" class="st6"/>
    <path id="svg_50" d="m787.3,780.6c0,-15.7 13.8,-28.8 30.2,-28.8c16.3,0 30,13.1 30,28.8s-13.7,29 -30,29c-16.5,0 -30.2,-13.3 -30.2,-29zm45.4,0c0,-8.5 -6.9,-15.7 -15.2,-15.7c-8.3,0 -15.3,7.2 -15.3,15.7s6.9,15.8 15.3,15.8c8.2,0 15.2,-7.2 15.2,-15.8z" class="st6"/>
    <path id="svg_51" d="m908.4,773.2l0,35.1l-15.1,0l0,-31.8c0,-6.8 -4.3,-11.5 -10.5,-11.5c-6.5,0 -11.5,4.7 -11.5,10.7l-0.1,-0.3l0,33l-15.6,0l0,-55.2l15.6,0l0,6.9c3.3,-5 9.5,-8.2 16.7,-8.2c11.9,-0.1 20.5,8.8 20.5,21.3z" class="st6"/>
    <path id="svg_52" d="m957.8,790.9l9.9,10.1c-4.9,5.1 -14.4,8.5 -22.5,8.5c-16.5,0 -29.3,-12.1 -29.3,-29.1c0,-16.7 12.3,-28.7 28.4,-28.7c17.3,0 27.5,13.1 27.5,34l-39.8,0c1.8,6 6.6,10 13.1,10c4.4,0.1 9.7,-1.9 12.7,-4.8zm-25.6,-16.4l24.7,0c-1.5,-5.4 -5.6,-9 -11.9,-9c-5.9,0.1 -10.8,3.5 -12.8,9z" class="st6"/>
    <path id="svg_53" d="m1010.7,804.8c-3.2,2.9 -8.2,4.8 -12.7,4.8c-9.7,0 -16.6,-6.9 -16.6,-16.9l0,-27l-7.6,0l0,-12.6l7.6,0l0,-15.2l15,0l0,15.2l12,0l0,12.6l-12,0l0,24.6c0,3.6 2.4,6.2 5.2,6.2c2.1,0 4.3,-0.7 5.3,-1.8l3.8,10.1z" class="st6"/>
    <path id="svg_54" d="m1045,804.8c-3.2,2.9 -8.2,4.8 -12.7,4.8c-9.7,0 -16.6,-6.9 -16.6,-16.9l0,-27l-7.6,0l0,-12.6l7.6,0l0,-15.2l15,0l0,15.2l12,0l0,12.6l-12,0l0,24.6c0,3.6 2.4,6.2 5.2,6.2c2.1,0 4.3,-0.7 5.3,-1.8l3.8,10.1z" class="st6"/>
    <path id="svg_55" d="m1102.1,775.3l0,33l-15.1,0l0,-5.6c-4,4.5 -10.3,6.8 -16.2,6.8c-11.8,0 -20.8,-7.1 -20.8,-17.6c0,-10.9 10.2,-18.4 23,-18.4c4.5,0 9.4,1 14.1,2.8l0,-1.1c0,-5.9 -3.6,-11 -12.7,-11c-5.1,0 -9.9,1.7 -14.3,4l-5.2,-10.4c7.8,-4 15.4,-6.1 23.1,-6.1c14.2,0.1 24.1,9.2 24.1,23.6zm-15.1,15.6l0,-5.1c-3.5,-1.3 -7.6,-2 -11.9,-2c-5.7,0 -10.1,3.3 -10.1,7.8c0,4.5 4,7.3 9.3,7.3c6,-0.1 11.6,-2.9 12.7,-8z" class="st6"/>
   </g>
  </g>
  <g id="svg_56">
   <g id="svg_57">
    <path id="svg_58" d="m1684.2,79l20.6,0l29.9,54.5l29.8,-54.5l20.8,0l0,96.4l-20.8,0l0,-60.1l-29.8,54.5l-29.9,-54.5l0,60.1l-20.6,0l0,-96.4z" class="st0"/>
    <path id="svg_59" d="m1796.1,139.1c0,-20.6 18.1,-37.9 39.7,-37.9c21.5,0 39.4,17.3 39.4,37.9s-18,38 -39.4,38c-21.5,0 -39.7,-17.4 -39.7,-38zm59.7,0c0,-11.2 -9.1,-20.6 -19.9,-20.6c-10.9,0 -20.1,9.4 -20.1,20.6c0,11.2 9.1,20.8 20.1,20.8c10.8,0 19.9,-9.6 19.9,-20.8z" class="st1"/>
    <path id="svg_60" d="m1955.3,129.3l0,46.2l-19.8,0l0,-41.8c0,-9 -5.6,-15.2 -13.8,-15.2c-8.6,0 -15.2,6.2 -15.2,14l-0.1,-0.4l0,43.4l-20.5,0l0,-72.6l20.5,0l0,9.1c4.3,-6.6 12.5,-10.8 21.9,-10.8c15.8,0 27,11.7 27,28.1z" class="st0"/>
    <path id="svg_61" d="m2020.2,152.6l13.1,13.3c-6.5,6.7 -18.9,11.2 -29.6,11.2c-21.6,0 -38.5,-15.9 -38.5,-38.2c0,-21.9 16.1,-37.8 37.3,-37.8c22.7,0 36.1,17.3 36.1,44.6l-52.4,0c2.4,7.9 8.7,13.2 17.3,13.2c5.8,0.1 12.8,-2.5 16.7,-6.3zm-33.7,-21.5l32.4,0c-2,-7.2 -7.3,-11.8 -15.6,-11.8c-7.7,0 -14.1,4.5 -16.8,11.8z" class="st1"/>
    <path id="svg_62" d="m2089.7,170.8c-4.2,3.8 -10.8,6.3 -16.7,6.3c-12.8,0 -21.8,-9.1 -21.8,-22.2l0,-35.5l-10,0l0,-16.6l10,0l0,-19.8l19.7,0l0,19.9l15.7,0l0,16.6l-15.7,0l0,32.3c0,4.8 3.1,8.1 6.9,8.1c2.8,0 5.6,-1 7,-2.4l4.9,13.3z" class="st0"/>
    <path id="svg_63" d="m2134.7,170.8c-4.2,3.8 -10.8,6.3 -16.7,6.3c-12.8,0 -21.8,-9.1 -21.8,-22.2l0,-35.5l-10,0l0,-16.6l10,0l0,-19.8l19.7,0l0,19.9l15.7,0l0,16.6l-15.7,0l0,32.3c0,4.8 3.1,8.1 6.9,8.1c2.8,0 5.6,-1 7,-2.4l4.9,13.3z" class="st1"/>
    <path id="svg_64" d="m2209.8,132.1l0,43.4l-19.8,0l0,-7.3c-5.2,5.9 -13.5,9 -21.3,9c-15.4,0 -27.4,-9.3 -27.4,-23.2c0,-14.3 13.3,-24.1 30.2,-24.1c5.9,0 12.4,1.3 18.5,3.7l0,-1.4c0,-7.7 -4.8,-14.5 -16.7,-14.5c-6.7,0 -13.1,2.2 -18.8,5.2l-6.9,-13.6c10.2,-5.2 20.2,-8 30.3,-8c18.9,-0.1 31.9,11.8 31.9,30.8zm-19.8,20.5l0,-6.7c-4.6,-1.7 -10,-2.7 -15.6,-2.7c-7.4,0 -13.3,4.3 -13.3,10.2c0,5.9 5.2,9.5 12.2,9.5c7.8,0.1 15.3,-3.6 16.7,-10.3z" class="st0"/>
   </g>
   <g id="svg_65">
    <path id="svg_66" d="m1475.5,26.5l-50.5,29.2c-1.8,1 -1.8,3.6 0,4.6l44.7,25.8c1.2,0.7 2.8,0.7 4,0l48.8,-28.2l-46.8,-27c-1.7,-0.9 -1.7,-3.3 -0.2,-4.4z" class="st2"/>
    <path id="svg_67" d="m1569.2,26.4c1.8,1 1.8,3.6 0,4.6l-46.7,27l48.8,28.2c1.2,0.7 2.8,0.7 4,0l44.7,-25.8c1.8,-1 1.8,-3.6 0,-4.6l-50.8,-29.4z" class="st3"/>
    <path id="svg_68" d="m1569.2,26.4l-44.7,-25.8c-1.2,-0.7 -2.8,-0.7 -4,0l-45,26c-1.6,1.1 -1.5,3.5 0.2,4.5l46.8,27l46.7,-27c1.8,-1.2 1.8,-3.7 0,-4.7z" class="st4"/>
    <g id="svg_69">
     <path id="svg_70" d="m1411.5,130.7l0,58.7c0,1.4 0.8,2.7 2,3.5l44.7,25.8c1.8,1 4,-0.3 4,-2.3l0,-54.1l-48.7,-28.2c-1.3,-0.7 -2,-2 -2,-3.4z" class="st5"/>
    </g>
    <path id="svg_71" d="m1511,131.8l-50.5,-29.2c1.1,0.7 1.7,1.9 1.7,3.2l0,56.4l46.8,27.1c1.8,1 4,-0.3 4,-2.3l0,-51.8c0,-1.3 -0.7,-2.6 -2,-3.4z" class="st1"/>
    <path id="svg_72" d="m1460.5,102.7l-28,-16.1l-17,-9.8c-1.8,-1 -4,0.3 -4,2.3l0,51.6c0,1.4 0.8,2.7 2,3.5l48.7,28.2l0,-56.4c0,-1.4 -0.7,-2.6 -1.7,-3.3z" class="st0"/>
    <g id="svg_73">
     <path id="svg_74" d="m1631.5,134.1l-48.7,28.2l0,54.1c0,2.1 2.2,3.3 4,2.3l44.7,-25.8c1.2,-0.7 2,-2 2,-3.5l0,-58.7c0,1.4 -0.8,2.7 -2,3.4z" class="st5"/>
    </g>
    <path id="svg_75" d="m1584.5,102.7l-50.5,29.2c-1.2,0.7 -2,2 -2,3.5l0,51.8c0,2.1 2.2,3.3 4,2.3l46.8,-27.1l0,-56.4c0,-1.4 0.6,-2.6 1.7,-3.3z" class="st1"/>
    <path id="svg_76" d="m1629.5,76.7l-17.1,9.8l-27.9,16.1c-1.1,0.7 -1.7,1.9 -1.7,3.2l0,56.4l48.7,-28.2c1.2,-0.7 2,-2 2,-3.5l0,-51.5c0,-2 -2.2,-3.3 -4,-2.3z" class="st0"/>
   </g>
   <g id="svg_77">
    <path id="svg_78" d="m1695.6,202.7l8.3,0l0,8c-1.9,1.9 -5,3.1 -7.9,3.1c-5.6,0 -10.4,-4.7 -10.4,-10.4c0,-5.6 4.8,-10.3 10.4,-10.3c2.8,0 6,1.2 7.9,3.1l-2.1,2c-1.4,-1.5 -3.7,-2.4 -5.8,-2.4c-4,0 -7.4,3.5 -7.4,7.6c0,4.2 3.4,7.7 7.4,7.7c1.7,0 3.6,-0.6 4.9,-1.7l0,-4.2l-5.4,0l0,-2.5l0.1,0z" class="st1"/>
    <path id="svg_79" d="m1718,209.6l1.8,1.9c-1.3,1.4 -4,2.3 -6.1,2.3c-4.2,0 -7.7,-3.3 -7.7,-7.9c0,-4.5 3.3,-7.8 7.5,-7.8c4.6,0 7.2,3.5 7.2,8.9l-11.8,0c0.4,2.5 2.2,4.3 4.8,4.3c1.6,-0.1 3.4,-0.8 4.3,-1.7zm-9.1,-5l9,0c-0.3,-2.3 -1.7,-4 -4.3,-4c-2.3,0 -4.2,1.6 -4.7,4z" class="st1"/>
    <path id="svg_80" d="m1731,212.7c-0.8,0.7 -1.9,1.1 -3,1.1c-2.3,0 -4,-1.7 -4,-4.1l0,-8.8l-2.3,0l0,-2.4l2.3,0l0,-4.1l2.8,0l0,4.1l3.6,0l0,2.4l-3.6,0l0,8.6c0,1 0.7,1.8 1.5,1.8c0.6,0 1.2,-0.2 1.5,-0.6l1.2,2z" class="st1"/>
    <path id="svg_81" d="m1762.2,203.9l0,9.6l-2.8,0l0,-9.1c0,-2.2 -1.3,-3.8 -3.2,-3.8c-2.2,0 -3.7,1.4 -3.7,3.5l0,9.4l-2.8,0l0,-9.1c0,-2.2 -1.3,-3.8 -3.2,-3.8c-2.2,0 -3.7,1.4 -3.7,3.5l0,9.4l-2.9,0l0,-15l2.9,0l0,2.1c0.8,-1.5 2.3,-2.4 4.2,-2.4c2.2,0 4,1.2 4.8,3c0.7,-1.9 2.6,-3 4.9,-3c3.2,-0.1 5.5,2.3 5.5,5.7z" class="st1"/>
    <path id="svg_82" d="m1764.3,205.9c0,-4.3 3.6,-7.9 7.9,-7.9c4.3,0 7.9,3.6 7.9,7.9c0,4.3 -3.6,7.9 -7.9,7.9c-4.3,0 -7.9,-3.6 -7.9,-7.9zm12.9,0c0,-2.9 -2.3,-5.4 -5,-5.4c-2.8,0 -5.1,2.4 -5.1,5.4c0,2.9 2.3,5.4 5.1,5.4c2.8,0 5,-2.4 5,-5.4z" class="st1"/>
    <path id="svg_83" d="m1790.9,198.1l0,2.5c-3.1,0 -5.3,1.7 -5.6,4.3l0,8.6l-2.9,0l0,-15l2.9,0l0,2.9c1,-2.1 3.1,-3.3 5.6,-3.3z" class="st1"/>
    <path id="svg_84" d="m1803.8,209.6l1.8,1.9c-1.3,1.4 -4,2.3 -6.1,2.3c-4.2,0 -7.7,-3.3 -7.7,-7.9c0,-4.5 3.3,-7.8 7.5,-7.8c4.6,0 7.2,3.5 7.2,8.9l-11.8,0c0.4,2.5 2.2,4.3 4.8,4.3c1.6,-0.1 3.4,-0.8 4.3,-1.7zm-9.1,-5l9,0c-0.3,-2.3 -1.7,-4 -4.3,-4c-2.3,0 -4.2,1.6 -4.7,4z" class="st1"/>
    <path id="svg_85" d="m1815.1,205.9c0,-4.3 3.6,-7.9 7.9,-7.9c4.3,0 7.9,3.6 7.9,7.9c0,4.3 -3.6,7.9 -7.9,7.9c-4.3,0 -7.9,-3.6 -7.9,-7.9zm12.9,0c0,-2.9 -2.3,-5.4 -5,-5.4c-2.8,0 -5.1,2.4 -5.1,5.4c0,2.9 2.3,5.4 5.1,5.4c2.7,0 5,-2.4 5,-5.4z" class="st1"/>
    <path id="svg_86" d="m1846.3,198.4l0,15l-2.9,0l0,-2.2c-0.9,1.5 -2.7,2.5 -4.8,2.5c-3.3,0 -5.6,-2.4 -5.6,-5.8l0,-9.6l2.8,0l0,9.1c0,2.2 1.4,3.8 3.5,3.8c2.1,0 3.9,-1.4 4.1,-3.1l0,-9.7l2.9,0z" class="st1"/>
    <path id="svg_87" d="m1857.4,212.7c-0.8,0.7 -1.9,1.1 -3,1.1c-2.3,0 -4,-1.7 -4,-4.1l0,-8.8l-2.3,0l0,-2.4l2.3,0l0,-4.1l2.8,0l0,4.1l3.6,0l0,2.4l-3.6,0l0,8.6c0,1 0.7,1.8 1.5,1.8c0.6,0 1.2,-0.2 1.5,-0.6l1.2,2z" class="st1"/>
    <path id="svg_88" d="m1865.6,205.9c0,-4.3 3.6,-7.9 7.9,-7.9c4.3,0 7.9,3.6 7.9,7.9c0,4.3 -3.6,7.9 -7.9,7.9c-4.3,0 -7.9,-3.6 -7.9,-7.9zm12.9,0c0,-2.9 -2.3,-5.4 -5,-5.4c-2.8,0 -5.1,2.4 -5.1,5.4c0,2.9 2.3,5.4 5.1,5.4c2.7,0 5,-2.4 5,-5.4z" class="st1"/>
    <path id="svg_89" d="m1887.6,198.4l3.5,0l0,2.4l-3.5,0l0,12.6l-2.8,0l0,-12.6l-2.3,0l0,-2.4l2.3,0l0,-1.8c0,-2.4 1.6,-4.1 4,-4.1c1.1,0 2.2,0.4 3,1.1l-1,1.9c-0.3,-0.3 -0.9,-0.6 -1.5,-0.6c-0.8,0 -1.5,0.8 -1.5,1.8l0,1.7l-0.2,0z" class="st1"/>
    <path id="svg_90" d="m1922.3,203.9l0,9.6l-2.8,0l0,-9.1c0,-2.2 -1.3,-3.8 -3.2,-3.8c-2.2,0 -3.7,1.4 -3.7,3.5l0,9.4l-2.8,0l0,-9.1c0,-2.2 -1.3,-3.8 -3.2,-3.8c-2.2,0 -3.7,1.4 -3.7,3.5l0,9.4l-2.9,0l0,-15l2.9,0l0,2.1c0.8,-1.5 2.3,-2.4 4.2,-2.4c2.2,0 4,1.2 4.8,3c0.7,-1.9 2.6,-3 4.9,-3c3.2,-0.1 5.5,2.3 5.5,5.7z" class="st1"/>
    <path id="svg_91" d="m1936.5,209.6l1.8,1.9c-1.3,1.4 -4,2.3 -6.1,2.3c-4.2,0 -7.7,-3.3 -7.7,-7.9c0,-4.5 3.3,-7.8 7.5,-7.8c4.6,0 7.2,3.5 7.2,8.9l-11.8,0c0.4,2.5 2.2,4.3 4.8,4.3c1.5,-0.1 3.4,-0.8 4.3,-1.7zm-9.1,-5l9,0c-0.3,-2.3 -1.7,-4 -4.3,-4c-2.4,0 -4.3,1.6 -4.7,4z" class="st1"/>
    <path id="svg_92" d="m1952.6,209.6l1.8,1.9c-1.3,1.4 -4,2.3 -6.1,2.3c-4.2,0 -7.7,-3.3 -7.7,-7.9c0,-4.5 3.3,-7.8 7.5,-7.8c4.6,0 7.2,3.5 7.2,8.9l-11.8,0c0.4,2.5 2.2,4.3 4.8,4.3c1.5,-0.1 3.4,-0.8 4.3,-1.7zm-9.1,-5l9,0c-0.3,-2.3 -1.7,-4 -4.3,-4c-2.3,0 -4.2,1.6 -4.7,4z" class="st1"/>
    <path id="svg_93" d="m1965.6,212.7c-0.8,0.7 -1.9,1.1 -3,1.1c-2.3,0 -4,-1.7 -4,-4.1l0,-8.8l-2.3,0l0,-2.4l2.3,0l0,-4.1l2.8,0l0,4.1l3.6,0l0,2.4l-3.6,0l0,8.6c0,1 0.7,1.8 1.5,1.8c0.6,0 1.2,-0.2 1.5,-0.6l1.2,2z" class="st1"/>
    <path id="svg_94" d="m1967,194.2c0,-0.9 0.8,-1.7 1.7,-1.7c0.9,0 1.7,0.8 1.7,1.7c0,0.9 -0.8,1.7 -1.7,1.7c-0.9,0 -1.7,-0.8 -1.7,-1.7zm0.3,4.2l2.9,0l0,15l-2.9,0l0,-15z" class="st1"/>
    <path id="svg_95" d="m1986.5,203.9l0,9.6l-2.8,0l0,-9.1c0,-2.2 -1.4,-3.8 -3.5,-3.8c-2.1,0 -3.9,1.4 -4.1,3.1l0,9.7l-2.9,0l0,-15l2.9,0l0,2.2c0.9,-1.5 2.7,-2.5 4.8,-2.5c3.3,0 5.6,2.4 5.6,5.8z" class="st1"/>
    <path id="svg_96" d="m2003.8,198.4l0,13.4c0,3.9 -3.2,6.6 -7.6,6.6c-2.5,0 -4.9,-0.8 -6.3,-2l1.1,-2.2c1.1,1 2.9,1.7 4.7,1.7c3.2,0 5.2,-1.5 5.2,-4.2l0,-2.2c-1.2,1.7 -3.1,2.7 -5.3,2.7c-4,0 -6.8,-3 -6.8,-7.2c0,-4.2 2.9,-7.1 6.8,-7.1c2.3,0 4.2,1.1 5.3,2.8l0,-2.4l2.9,0l0,0.1zm-2.9,6.8c0,-2.7 -1.9,-4.6 -4.6,-4.6c-2.7,0 -4.6,1.9 -4.6,4.6c0,2.7 1.9,4.7 4.6,4.7c2.7,-0.1 4.6,-2 4.6,-4.7z" class="st1"/>
    <path id="svg_97" d="m2005.9,211.6l1.4,-2.1c1.6,1.2 3.3,1.8 5.1,1.8c1.7,0 2.9,-0.8 2.9,-1.9c0,-1.4 -1.5,-1.8 -3.4,-2.4c-3.5,-1 -5.2,-1.9 -5.2,-4.4c0,-2.8 2.3,-4.6 5.5,-4.6c1.9,0 3.9,0.7 5.6,1.7l-1.3,2.1c-1.5,-0.9 -3,-1.4 -4.3,-1.4c-1.5,0 -2.6,0.6 -2.6,1.8c0,1.2 0.9,1.5 3.5,2.3c2.5,0.7 5.1,1.5 5.1,4.5c0,2.9 -2.4,4.7 -5.7,4.7c-2.4,0.1 -4.8,-0.7 -6.6,-2.1z" class="st1"/>
    <path id="svg_98" d="m2020.5,216.5c0.8,-0.9 1.4,-1.8 1.6,-2.7c-1,0 -1.9,-0.9 -1.9,-1.9c0,-1 0.8,-1.9 1.9,-1.9c1.3,0 2.1,1.2 2.1,2.8c0,1.4 -0.7,2.6 -2.5,4.7l-1.2,-1z" class="st1"/>
    <path id="svg_99" d="m2049.5,205.9c0,4.6 -3,7.9 -6.9,7.9c-2.3,0 -4.2,-1.1 -5.4,-3l0,2.6l-2.9,0l0,-20.3l2.9,0l0,7.9c1.2,-1.8 3,-2.9 5.4,-2.9c3.9,0 6.9,3.2 6.9,7.8zm-2.9,0c0,-3.1 -2,-5.4 -4.7,-5.4c-2.7,0 -4.7,2.2 -4.7,5.4c0,3.1 2,5.4 4.7,5.4c2.7,0 4.7,-2.2 4.7,-5.4z" class="st1"/>
    <path id="svg_100" d="m2051.6,218.1l0.6,-2.2c0.6,0.3 1.3,0.5 1.8,0.5c0.9,0 1.6,-0.3 2.1,-1.2l0.8,-1.6l-6.5,-15.1l3.1,0l4.8,11.9l4.6,-11.9l3,0l-6.6,16.4c-1.1,2.7 -2.7,3.8 -4.8,3.9c-1.1,-0.1 -2.1,-0.3 -2.9,-0.7z" class="st1"/>
    <path id="svg_101" d="m2089.6,193.1l0,20.3l-2.9,0l0,-2.6c-1.2,1.9 -3,3 -5.4,3c-4,0 -6.9,-3.3 -6.9,-7.9c0,-4.6 3,-7.9 6.9,-7.9c2.3,0 4.2,1.1 5.4,2.9l0,-7.9l2.9,0l0,0.1zm-2.9,12.8c0,-3.1 -1.9,-5.4 -4.7,-5.4c-2.8,0 -4.7,2.2 -4.7,5.4c0,3.1 1.9,5.4 4.7,5.4c2.8,0 4.7,-2.2 4.7,-5.4z" class="st1"/>
    <path id="svg_102" d="m2091.9,205.9c0,-4.3 3.6,-7.9 7.9,-7.9c4.3,0 7.9,3.6 7.9,7.9c0,4.3 -3.6,7.9 -7.9,7.9c-4.3,0 -7.9,-3.6 -7.9,-7.9zm13,0c0,-2.9 -2.3,-5.4 -5,-5.4c-2.8,0 -5.1,2.4 -5.1,5.4c0,2.9 2.3,5.4 5.1,5.4c2.7,0 5,-2.4 5,-5.4z" class="st1"/>
    <path id="svg_103" d="m2109.6,194.2c0,-0.9 0.8,-1.7 1.7,-1.7c0.9,0 1.7,0.8 1.7,1.7c0,0.9 -0.8,1.7 -1.7,1.7c-0.9,0 -1.7,-0.8 -1.7,-1.7zm0.3,4.2l2.9,0l0,15l-2.9,0l0,-15z" class="st1"/>
    <path id="svg_104" d="m2129.1,203.9l0,9.6l-2.8,0l0,-9.1c0,-2.2 -1.4,-3.8 -3.5,-3.8c-2.1,0 -3.9,1.4 -4.1,3.1l0,9.7l-2.9,0l0,-15l2.9,0l0,2.2c0.9,-1.5 2.7,-2.5 4.8,-2.5c3.3,0 5.6,2.4 5.6,5.8z" class="st1"/>
    <path id="svg_105" d="m2146.4,198.4l0,13.4c0,3.9 -3.2,6.6 -7.6,6.6c-2.5,0 -4.9,-0.8 -6.3,-2l1.1,-2.2c1.1,1 2.9,1.7 4.7,1.7c3.2,0 5.2,-1.5 5.2,-4.2l0,-2.2c-1.2,1.7 -3.1,2.7 -5.3,2.7c-4,0 -6.8,-3 -6.8,-7.2c0,-4.2 2.9,-7.1 6.8,-7.1c2.3,0 4.2,1.1 5.3,2.8l0,-2.4l2.9,0l0,0.1zm-2.9,6.8c0,-2.7 -1.9,-4.6 -4.6,-4.6c-2.7,0 -4.6,1.9 -4.6,4.6c0,2.7 1.9,4.7 4.6,4.7c2.7,-0.1 4.6,-2 4.6,-4.7z" class="st1"/>
    <path id="svg_106" d="m2156.7,193.1l2.9,0l0,20.3l-2.9,0l0,-20.3z" class="st1"/>
    <path id="svg_107" d="m2173.7,209.6l1.8,1.9c-1.3,1.4 -4,2.3 -6.1,2.3c-4.2,0 -7.7,-3.3 -7.7,-7.9c0,-4.5 3.3,-7.8 7.5,-7.8c4.6,0 7.2,3.5 7.2,8.9l-11.8,0c0.4,2.5 2.2,4.3 4.8,4.3c1.6,-0.1 3.4,-0.8 4.3,-1.7zm-9,-5l9,0c-0.3,-2.3 -1.7,-4 -4.3,-4c-2.4,0 -4.3,1.6 -4.7,4z" class="st1"/>
    <path id="svg_108" d="m2177.7,211.6l1.4,-2.1c1.6,1.2 3.3,1.8 5.1,1.8c1.7,0 2.9,-0.8 2.9,-1.9c0,-1.4 -1.5,-1.8 -3.4,-2.4c-3.5,-1 -5.2,-1.9 -5.2,-4.4c0,-2.8 2.3,-4.6 5.5,-4.6c1.9,0 3.9,0.7 5.6,1.7l-1.3,2.1c-1.5,-0.9 -3,-1.4 -4.3,-1.4c-1.5,0 -2.6,0.6 -2.6,1.8c0,1.2 0.9,1.5 3.5,2.3c2.5,0.7 5.1,1.5 5.1,4.5c0,2.9 -2.4,4.7 -5.7,4.7c-2.4,0.1 -4.8,-0.7 -6.6,-2.1z" class="st1"/>
    <path id="svg_109" d="m2191,211.6l1.4,-2.1c1.6,1.2 3.3,1.8 5.1,1.8c1.7,0 2.9,-0.8 2.9,-1.9c0,-1.4 -1.5,-1.8 -3.4,-2.4c-3.5,-1 -5.2,-1.9 -5.2,-4.4c0,-2.8 2.3,-4.6 5.5,-4.6c1.9,0 3.9,0.7 5.6,1.7l-1.3,2.1c-1.5,-0.9 -3,-1.4 -4.3,-1.4c-1.5,0 -2.6,0.6 -2.6,1.8c0,1.2 0.9,1.5 3.5,2.3c2.5,0.7 5.1,1.5 5.1,4.5c0,2.9 -2.4,4.7 -5.7,4.7c-2.4,0.1 -4.8,-0.7 -6.6,-2.1z" class="st1"/>
    <path id="svg_110" d="m2205.2,211.8c0,-1 0.8,-1.9 1.9,-1.9c1,0 1.9,0.9 1.9,1.9c0,1.1 -0.8,2 -1.9,2c-1.1,0 -1.9,-0.9 -1.9,-2z" class="st1"/>
   </g>
  </g>
  <g id="svg_111">
   <g id="svg_112">
    <path id="svg_113" d="m2717.7,79l20.6,0l29.9,54.5l29.8,-54.5l20.8,0l0,96.4l-20.8,0l0,-60.1l-29.8,54.5l-29.9,-54.5l0,60.1l-20.6,0l0,-96.4z" class="st0"/>
    <path id="svg_114" d="m2829.7,139.1c0,-20.6 18.1,-37.9 39.7,-37.9c21.5,0 39.4,17.3 39.4,37.9s-18,38 -39.4,38c-21.6,0 -39.7,-17.4 -39.7,-38zm59.6,0c0,-11.2 -9.1,-20.6 -19.9,-20.6c-10.9,0 -20.1,9.4 -20.1,20.6c0,11.2 9.1,20.8 20.1,20.8c10.8,0 19.9,-9.6 19.9,-20.8z" class="st1"/>
    <path id="svg_115" d="m2988.8,129.3l0,46.2l-19.8,0l0,-41.8c0,-9 -5.6,-15.2 -13.8,-15.2c-8.6,0 -15.2,6.2 -15.2,14l-0.1,-0.4l0,43.4l-20.5,0l0,-72.6l20.5,0l0,9.1c4.3,-6.6 12.5,-10.8 21.9,-10.8c15.8,0 27,11.7 27,28.1z" class="st0"/>
    <path id="svg_116" d="m3053.7,152.6l13.1,13.3c-6.5,6.7 -18.9,11.2 -29.6,11.2c-21.6,0 -38.5,-15.9 -38.5,-38.2c0,-21.9 16.1,-37.8 37.3,-37.8c22.7,0 36.1,17.3 36.1,44.6l-52.4,0c2.4,7.9 8.7,13.2 17.3,13.2c5.8,0.1 12.8,-2.5 16.7,-6.3zm-33.7,-21.5l32.4,0c-2,-7.2 -7.3,-11.8 -15.6,-11.8c-7.6,0 -14.1,4.5 -16.8,11.8z" class="st1"/>
    <path id="svg_117" d="m3123.2,170.8c-4.2,3.8 -10.8,6.3 -16.7,6.3c-12.8,0 -21.8,-9.1 -21.8,-22.2l0,-35.5l-10,0l0,-16.6l10,0l0,-19.8l19.7,0l0,19.9l15.7,0l0,16.6l-15.7,0l0,32.3c0,4.8 3.1,8.1 6.9,8.1c2.8,0 5.6,-1 7,-2.4l4.9,13.3z" class="st0"/>
    <path id="svg_118" d="m3168.3,170.8c-4.2,3.8 -10.8,6.3 -16.7,6.3c-12.8,0 -21.8,-9.1 -21.8,-22.2l0,-35.5l-10,0l0,-16.6l10,0l0,-19.8l19.7,0l0,19.9l15.7,0l0,16.6l-15.7,0l0,32.3c0,4.8 3.1,8.1 6.9,8.1c2.8,0 5.6,-1 7,-2.4l4.9,13.3z" class="st1"/>
    <path id="svg_119" d="m3243.3,132.1l0,43.4l-19.8,0l0,-7.3c-5.2,5.9 -13.5,9 -21.3,9c-15.4,0 -27.4,-9.3 -27.4,-23.2c0,-14.3 13.3,-24.1 30.2,-24.1c5.9,0 12.4,1.3 18.5,3.7l0,-1.4c0,-7.7 -4.8,-14.5 -16.7,-14.5c-6.7,0 -13.1,2.2 -18.8,5.2l-6.9,-13.6c10.2,-5.2 20.2,-8 30.3,-8c18.9,-0.1 31.9,11.8 31.9,30.8zm-19.8,20.5l0,-6.7c-4.6,-1.7 -10,-2.7 -15.6,-2.7c-7.4,0 -13.3,4.3 -13.3,10.2c0,5.9 5.2,9.5 12.2,9.5c7.8,0.1 15.3,-3.6 16.7,-10.3z" class="st0"/>
   </g>
   <g id="svg_120">
    <path id="svg_121" d="m2509,26.5l-50.6,29.2c-1.8,1 -1.8,3.6 0,4.6l44.7,25.8c1.2,0.7 2.8,0.7 4,0l48.8,-28.2l-46.8,-27c-1.6,-0.9 -1.6,-3.3 -0.1,-4.4z" class="st2"/>
    <path id="svg_122" d="m2602.7,26.4c1.8,1 1.8,3.6 0,4.6l-46.7,27l48.8,28.2c1.2,0.7 2.8,0.7 4,0l44.7,-25.8c1.8,-1 1.8,-3.6 0,-4.6l-50.8,-29.4z" class="st3"/>
    <path id="svg_123" d="m2602.7,26.4l-44.7,-25.9c-1.2,-0.7 -2.8,-0.7 -4,0l-45,26c-1.6,1.1 -1.5,3.5 0.2,4.5l46.8,27l46.7,-27c1.8,-1.1 1.8,-3.6 0,-4.6z" class="st4"/>
    <g id="svg_124">
     <path id="svg_125" d="m2445,130.7l0,58.7c0,1.4 0.8,2.7 2,3.5l44.7,25.8c1.8,1 4,-0.3 4,-2.3l0,-54.1l-48.7,-28.2c-1.3,-0.7 -2,-2 -2,-3.4z" class="st5"/>
    </g>
    <path id="svg_126" d="m2544.5,131.8l-50.5,-29.2c1.1,0.7 1.7,1.9 1.7,3.2l0,56.4l46.8,27.1c1.8,1 4,-0.3 4,-2.3l0,-51.8c0,-1.3 -0.7,-2.6 -2,-3.4z" class="st1"/>
    <path id="svg_127" d="m2494,102.7l-28,-16.1l-17,-9.8c-1.8,-1 -4,0.3 -4,2.3l0,51.6c0,1.4 0.8,2.7 2,3.5l48.7,28.2l0,-56.4c0,-1.4 -0.7,-2.6 -1.7,-3.3z" class="st0"/>
    <g id="svg_128">
     <path id="svg_129" d="m2665,134.1l-48.7,28.2l0,54.1c0,2.1 2.2,3.3 4,2.3l44.7,-25.8c1.2,-0.7 2,-2 2,-3.5l0,-58.7c0,1.4 -0.8,2.7 -2,3.4z" class="st5"/>
    </g>
    <path id="svg_130" d="m2618,102.7l-50.5,29.2c-1.2,0.7 -2,2 -2,3.5l0,51.8c0,2.1 2.2,3.3 4,2.3l46.8,-27.1l0,-56.4c0,-1.4 0.7,-2.6 1.7,-3.3z" class="st1"/>
    <path id="svg_131" d="m2663,76.7l-17.1,9.8l-27.9,16.1c-1.1,0.7 -1.7,1.9 -1.7,3.2l0,56.4l48.7,-28.2c1.2,-0.7 2,-2 2,-3.5l0,-51.5c0,-2 -2.2,-3.3 -4,-2.3z" class="st0"/>
   </g>
  </g>
  <g id="svg_132">
   <g id="svg_133">
    <path id="svg_134" d="m156.199999,83.399988l-50.6,29.2c-1.8,1 -1.8,3.6 0,4.6l44.7,25.8c1.2,0.7 2.8,0.7 4,0l48.8,-28.2l-46.8,-27c-1.6,-0.9 -1.7,-3.3 -0.1,-4.4z" class="st7"/>
    <path id="svg_135" d="m249.799999,83.299988c1.8,1 1.8,3.6 0,4.6l-46.7,27l48.8,28.2c1.2,0.7 2.8,0.7 4,0l44.7,-25.8c1.8,-1 1.8,-3.6 0,-4.6l-50.8,-29.4z" class="st7"/>
    <path id="svg_136" d="m249.799999,83.299988l-44.7,-25.8c-1.2,-0.7 -2.8,-0.7 -4,0l-45,26c-1.6,1.1 -1.5,3.5 0.2,4.5l46.8,27l46.7,-27c1.8,-1.1 1.8,-3.7 0,-4.7z" class="st7"/>
    <g id="svg_137">
     <path id="svg_138" d="m92.099999,187.599988l0,58.7c0,1.4 0.8,2.7 2,3.5l44.7,25.8c1.8,1 4,-0.3 4,-2.3l0,-54.1l-48.7,-28.2c-1.2,-0.7 -2,-2 -2,-3.4z" class="st7"/>
    </g>
    <path id="svg_139" d="m191.599999,188.799988l-50.5,-29.2c1.1,0.7 1.7,1.9 1.7,3.2l0,56.4l46.8,27.1c1.8,1 4,-0.3 4,-2.3l0,-51.8c0,-1.4 -0.7,-2.7 -2,-3.4z" class="st7"/>
    <path id="svg_140" d="m141.099999,159.599988l-28,-16.1l-17,-9.8c-1.8,-1 -4,0.3 -4,2.3l0,51.6c0,1.4 0.8,2.7 2,3.5l48.7,28.2l0,-56.4c0,-1.4 -0.6,-2.6 -1.7,-3.3z" class="st7"/>
    <g id="svg_141">
     <path id="svg_142" d="m312.099999,191.099988l-48.7,28.2l0,54.1c0,2.1 2.2,3.3 4,2.3l44.7,-25.8c1.2,-0.7 2,-2 2,-3.5l0,-58.7c0,1.3 -0.7,2.6 -2,3.4z" class="st7"/>
    </g>
    <path id="svg_143" d="m265.099999,159.599988l-50.5,29.2c-1.2,0.7 -2,2 -2,3.5l0,51.8c0,2.1 2.2,3.3 4,2.3l46.8,-27.1l0,-56.4c0,-1.4 0.7,-2.6 1.7,-3.3z" class="st7"/>
    <path id="svg_144" d="m310.099999,133.699988l-17.1,9.8l-27.9,16.1c-1.1,0.7 -1.7,1.9 -1.7,3.2l0,56.4l48.7,-28.2c1.2,-0.7 2,-2 2,-3.5l0,-51.5c0,-2.1 -2.2,-3.4 -4,-2.3z" class="st7"/>
   </g>
   <g id="svg_145">
    <path id="svg_146" d="m6.299999,407.199988m-2.3,0" class="st1"/>
   </g>
  </g>
  <g id="svg_147">
   <g id="svg_148">
    <path id="svg_149" d="m246.7,507.5l-44.7,-25.8c-0.6,-0.4 -1.3,-0.5 -2,-0.5s-1.4,0.2 -2,0.5l-45,26c-1.6,1.1 -1.5,3.5 0.2,4.5l46.8,27l46.7,-27c1.8,-1.1 1.8,-3.7 0,-4.7z" class="st6"/>
    <path id="svg_150" d="m89,611.8c0,1.4 0.8,2.7 2,3.5l48.7,28.2l0,-56.5c0,-1.3 -0.7,-2.5 -1.7,-3.2l-28,-16.1l-17,-9.8c-0.4,-0.2 -0.9,-0.4 -1.3,-0.4c-1.4,0 -2.7,1.1 -2.7,2.7l0,51.6z" class="st6"/>
    <g id="svg_151">
     <path id="svg_152" d="m297.5,536.8l-47.5,-27.4c0,0.1 0,0.3 0,0.4c0,1.7 -0.9,3.2 -2.3,4l-45.7,26.4l46.8,27c1.2,0.7 2.8,0.7 4,0l44.7,-25.8c1.8,-1 1.8,-3.6 0,-4.6z" class="st6"/>
    </g>
    <g id="svg_153">
     <g id="svg_154">
      <path id="svg_155" d="m138.7,584.4c-0.2,-0.2 -0.5,-0.5 -0.7,-0.6l0,0c0.2,0.2 0.5,0.4 0.7,0.6z" class="st6"/>
     </g>
     <g id="svg_156">
      <path id="svg_157" d="m188.5,613l-47,-27.1c0.1,0.4 0.1,0.8 0.1,1.2l0,56.4l0,1.2l44.8,25.9c1.8,1 4,-0.3 4,-2.3l0,-51.8c0.1,-1.5 -0.6,-2.8 -1.9,-3.5z" class="st6"/>
     </g>
    </g>
    <g id="svg_158">
     <g id="svg_159">
      <path id="svg_160" d="m153.2,512.1l23.4,13.5l-23.4,-13.5c-0.4,-0.2 -0.7,-0.6 -1,-1c0.3,0.4 0.6,0.7 1,1z" class="st6"/>
     </g>
     <g id="svg_161">
      <path id="svg_162" d="m152.2,513.8c-1.4,-0.8 -2.2,-2.2 -2.3,-3.8c0,-0.2 0,-0.4 0,-0.6l-47.4,27.4c-1.8,1 -1.8,3.6 0,4.6l44.7,25.8c1.2,0.7 2.8,0.7 4,0l46.8,-27l-45.8,-26.4z" class="st6"/>
     </g>
    </g>
    <g id="svg_163">
     <path id="svg_164" d="m138.7,645.2l-48.7,-28.2c-0.4,-0.2 -0.7,-0.5 -1,-0.7l0,54.3c0,1.4 0.8,2.7 2,3.5l44.7,25.8c1.8,1 4,-0.3 4,-2.3l0,-51.8l-1,-0.6z" class="st6"/>
    </g>
    <path id="svg_165" d="m311,611.8c0,1.4 -0.8,2.7 -2,3.5l-48.7,28.2l0,-56.5c0,-1.3 0.7,-2.5 1.7,-3.2l28,-16.1l17,-9.8c0.4,-0.2 0.9,-0.4 1.3,-0.4c1.4,0 2.7,1.1 2.7,2.7l0,51.6z" class="st6"/>
    <g id="svg_166">
     <g id="svg_167">
      <path id="svg_168" d="m261.3,584.4c0.2,-0.2 0.5,-0.5 0.7,-0.6l0,0c-0.2,0.2 -0.5,0.4 -0.7,0.6z" class="st6"/>
     </g>
     <g id="svg_169">
      <path id="svg_170" d="m211.5,613l47,-27.1c-0.1,0.4 -0.1,0.8 -0.1,1.2l0,56.4l0,1.2l-44.8,25.9c-1.8,1 -4,-0.3 -4,-2.3l0,-51.8c-0.1,-1.5 0.6,-2.8 1.9,-3.5z" class="st6"/>
     </g>
    </g>
    <g id="svg_171">
     <path id="svg_172" d="m261.3,645.2l48.7,-28.2c0.4,-0.2 0.7,-0.5 1,-0.7l0,54.3c0,1.4 -0.8,2.7 -2,3.5l-44.7,25.8c-1.8,1 -4,-0.3 -4,-2.3l0,-51.8l1,-0.6z" class="st6"/>
    </g>
   </g>
   <g id="svg_173">
    <g id="svg_174">
     <path id="svg_175" d="m0,734.9l15.7,0l22.8,41.5l22.6,-41.5l15.8,0l0,73.4l-15.8,0l0,-45.7l-22.6,41.4l-22.8,-41.5l0,45.7l-15.7,0l0,-73.3z" class="st6"/>
    </g>
    <g id="svg_176">
     <path id="svg_177" d="m85.2,780.6c0,-15.7 13.8,-28.8 30.2,-28.8c16.3,0 30,13.1 30,28.8s-13.7,29 -30,29c-16.4,0 -30.2,-13.3 -30.2,-29zm45.4,0c0,-8.5 -6.9,-15.7 -15.2,-15.7c-8.3,0 -15.3,7.2 -15.3,15.7s6.9,15.8 15.3,15.8c8.3,0 15.2,-7.2 15.2,-15.8z" class="st6"/>
    </g>
    <g id="svg_178">
     <path id="svg_179" d="m206.3,773.2l0,35.1l-15.1,0l0,-31.8c0,-6.8 -4.3,-11.5 -10.5,-11.5c-6.5,0 -11.5,4.7 -11.5,10.7l-0.1,-0.3l0,33l-15.6,0l0,-55.2l15.6,0l0,6.9c3.3,-5 9.5,-8.2 16.7,-8.2c12,-0.1 20.5,8.8 20.5,21.3z" class="st6"/>
    </g>
    <g id="svg_180">
     <path id="svg_181" d="m255.7,790.9l9.9,10.1c-4.9,5.1 -14.4,8.5 -22.5,8.5c-16.5,0 -29.3,-12.1 -29.3,-29.1c0,-16.7 12.3,-28.7 28.4,-28.7c17.3,0 27.5,13.1 27.5,34l-39.8,0c1.8,6 6.6,10 13.1,10c4.4,0.1 9.7,-1.9 12.7,-4.8zm-25.6,-16.4l24.7,0c-1.5,-5.4 -5.6,-9 -11.9,-9c-5.9,0.1 -10.8,3.5 -12.8,9z" class="st6"/>
    </g>
    <g id="svg_182">
     <path id="svg_183" d="m308.6,804.8c-3.2,2.9 -8.2,4.8 -12.7,4.8c-9.7,0 -16.6,-6.9 -16.6,-16.9l0,-27l-7.6,0l0,-12.6l7.6,0l0,-15.2l15,0l0,15.2l12,0l0,12.6l-12,0l0,24.6c0,3.6 2.4,6.2 5.2,6.2c2.1,0 4.3,-0.7 5.3,-1.8l3.8,10.1z" class="st6"/>
    </g>
    <g id="svg_184">
     <path id="svg_185" d="m342.9,804.8c-3.2,2.9 -8.2,4.8 -12.7,4.8c-9.7,0 -16.6,-6.9 -16.6,-16.9l0,-27l-7.6,0l0,-12.6l7.6,0l0,-15.2l15,0l0,15.2l12,0l0,12.6l-12,0l0,24.6c0,3.6 2.4,6.2 5.2,6.2c2.1,0 4.3,-0.7 5.3,-1.8l3.8,10.1z" class="st6"/>
    </g>
    <g id="svg_186">
     <path id="svg_187" d="m400,775.3l0,33l-15.1,0l0,-5.6c-4,4.5 -10.3,6.8 -16.2,6.8c-11.8,0 -20.8,-7.1 -20.8,-17.6c0,-10.9 10.1,-18.4 23,-18.4c4.5,0 9.4,1 14.1,2.8l0,-1.1c0,-5.9 -3.6,-11 -12.7,-11c-5.1,0 -9.9,1.7 -14.3,4l-5.2,-10.4c7.8,-4 15.4,-6.1 23.1,-6.1c14.3,0.1 24.1,9.2 24.1,23.6zm-15.1,15.6l0,-5.1c-3.5,-1.3 -7.6,-2 -11.9,-2c-5.7,0 -10.1,3.3 -10.1,7.8c0,4.5 4,7.3 9.3,7.3c6,-0.1 11.7,-2.9 12.7,-8z" class="st6"/>
    </g>
   </g>
   <g id="svg_188">
    <g id="svg_189">
     <path id="svg_190" d="m7.2,830.7l5.5,0l0,5.2c-1.2,1.3 -3.2,2.1 -5.1,2.1c-3.7,0 -6.8,-3 -6.8,-6.6s3.1,-6.6 6.8,-6.6c1.9,0 3.9,0.8 5.1,2.1l-1.7,1.5c-0.8,-0.9 -2.2,-1.5 -3.4,-1.5c-2.4,0 -4.4,2.1 -4.4,4.5c0,2.5 2,4.5 4.4,4.5c1,0 2,-0.3 2.8,-0.9l0,-2.3l-3.2,0l0,-2z" class="st6"/>
    </g>
    <g id="svg_191">
     <path id="svg_192" d="m21.7,835l1.4,1.5c-0.8,0.9 -2.5,1.5 -3.9,1.5c-2.8,0 -5,-2.1 -5,-5.1c0,-2.9 2.2,-5 4.9,-5c3,0 4.7,2.3 4.7,5.8l-7.3,0c0.3,1.3 1.3,2.3 2.7,2.3c0.9,0 2,-0.4 2.5,-1zm-5.1,-3l5.1,0c-0.3,-1.2 -1.1,-2.1 -2.4,-2.1c-1.3,0 -2.4,0.8 -2.7,2.1z" class="st6"/>
    </g>
    <g id="svg_193">
     <path id="svg_194" d="m30.9,837.2c-0.5,0.5 -1.3,0.8 -2.1,0.8c-1.6,0 -2.7,-1.2 -2.7,-2.8l0,-5.2l-1.4,0l0,-1.9l1.4,0l0,-2.6l2.2,0l0,2.6l2.2,0l0,1.9l-2.2,0l0,4.9c0,0.7 0.4,1.1 1,1.1c0.4,0 0.7,-0.1 1,-0.4l0.6,1.6z" class="st6"/>
    </g>
    <g id="svg_195">
     <path id="svg_196" d="m51.9,831.6l0,6.1l-2.2,0l0,-5.7c0,-1.3 -0.8,-2.2 -1.9,-2.2c-1.3,0 -2.1,0.8 -2.1,2l0,5.9l-2.2,0l0,-5.7c0,-1.3 -0.8,-2.2 -1.9,-2.2c-1.2,0 -2.1,0.8 -2.1,2l0,5.9l-2.3,0l0,-9.6l2.3,0l0,1.3c0.5,-0.9 1.5,-1.5 2.7,-1.5c1.4,0 2.5,0.7 3.1,1.8c0.5,-1.1 1.7,-1.8 3.1,-1.8c2,0 3.5,1.5 3.5,3.7z" class="st6"/>
    </g>
    <g id="svg_197">
     <path id="svg_198" d="m53.5,832.9c0,-2.7 2.4,-5 5.2,-5c2.8,0 5.2,2.3 5.2,5s-2.4,5.1 -5.2,5.1c-2.8,0 -5.2,-2.3 -5.2,-5.1zm8.1,0c0,-1.7 -1.3,-3.1 -2.9,-3.1c-1.6,0 -2.9,1.4 -2.9,3.1c0,1.7 1.3,3.1 2.9,3.1c1.5,0 2.9,-1.4 2.9,-3.1z" class="st6"/>
    </g>
    <g id="svg_199">
     <path id="svg_200" d="m71.2,827.9l0,1.9c-2.1,0 -3.5,1.2 -3.5,3.1l0,4.9l-2.3,0l0,-9.6l2.3,0l0,1.9c0.7,-1.4 1.9,-2.2 3.5,-2.2z" class="st6"/>
    </g>
    <g id="svg_201">
     <path id="svg_202" d="m79.5,835l1.4,1.5c-0.8,0.9 -2.5,1.5 -3.9,1.5c-2.8,0 -5,-2.1 -5,-5.1c0,-2.9 2.2,-5 4.9,-5c3,0 4.7,2.3 4.7,5.8l-7.3,0c0.3,1.3 1.3,2.3 2.7,2.3c0.9,0 2,-0.4 2.5,-1zm-5.1,-3l5.1,0c-0.3,-1.2 -1.1,-2.1 -2.4,-2.1c-1.4,0 -2.4,0.8 -2.7,2.1z" class="st6"/>
    </g>
    <g id="svg_203">
     <path id="svg_204" d="m87.6,832.9c0,-2.7 2.4,-5 5.2,-5c2.8,0 5.2,2.3 5.2,5s-2.4,5.1 -5.2,5.1c-2.8,0 -5.2,-2.3 -5.2,-5.1zm8.1,0c0,-1.7 -1.3,-3.1 -2.9,-3.1c-1.6,0 -2.9,1.4 -2.9,3.1c0,1.7 1.3,3.1 2.9,3.1c1.6,0 2.9,-1.4 2.9,-3.1z" class="st6"/>
    </g>
    <g id="svg_205">
     <path id="svg_206" d="m108.4,828.1l0,9.6l-2.3,0l0,-1.3c-0.6,0.9 -1.7,1.5 -3,1.5c-2.1,0 -3.6,-1.5 -3.6,-3.7l0,-6.1l2.2,0l0,5.7c0,1.3 0.8,2.2 2,2.2s2.2,-0.8 2.3,-1.8l0,-6.1l2.4,0z" class="st6"/>
    </g>
    <g id="svg_207">
     <path id="svg_208" d="m116,837.2c-0.5,0.5 -1.3,0.8 -2.1,0.8c-1.6,0 -2.7,-1.2 -2.7,-2.8l0,-5.2l-1.4,0l0,-1.9l1.4,0l0,-2.6l2.2,0l0,2.6l2.2,0l0,1.9l-2.2,0l0,4.9c0,0.7 0.4,1.1 1,1.1c0.4,0 0.7,-0.1 1,-0.4l0.6,1.6z" class="st6"/>
    </g>
    <g id="svg_209">
     <path id="svg_210" d="m121.8,832.9c0,-2.7 2.4,-5 5.2,-5c2.8,0 5.2,2.3 5.2,5s-2.4,5.1 -5.2,5.1c-2.8,0 -5.2,-2.3 -5.2,-5.1zm8.1,0c0,-1.7 -1.3,-3.1 -2.9,-3.1c-1.6,0 -2.9,1.4 -2.9,3.1c0,1.7 1.3,3.1 2.9,3.1c1.5,0 2.9,-1.4 2.9,-3.1z" class="st6"/>
    </g>
    <g id="svg_211">
     <path id="svg_212" d="m136.6,828.1l2.2,0l0,1.9l-2.2,0l0,7.8l-2.2,0l0,-7.8l-1.4,0l0,-1.9l1.4,0l0,-1c0,-1.6 1.1,-2.8 2.7,-2.8c0.7,0 1.5,0.3 2.1,0.8l-0.7,1.5c-0.2,-0.2 -0.6,-0.4 -1,-0.4c-0.5,0 -1,0.5 -1,1.1l0,0.8l0.1,0z" class="st6"/>
    </g>
    <g id="svg_213">
     <path id="svg_214" d="m145,840.6l0.5,-1.6c0.4,0.2 0.9,0.4 1.2,0.4c0.5,0 1,-0.2 1.2,-0.6l0.4,-0.9l-4.1,-9.7l2.4,0l2.8,7.2l2.6,-7.2l2.4,0l-4.1,10.3c-0.7,1.8 -1.8,2.7 -3.3,2.7c-0.6,-0.1 -1.4,-0.3 -2,-0.6z" class="st6"/>
    </g>
    <g id="svg_215">
     <path id="svg_216" d="m155,832.9c0,-2.7 2.4,-5 5.2,-5c2.8,0 5.2,2.3 5.2,5s-2.4,5.1 -5.2,5.1c-2.8,0 -5.2,-2.3 -5.2,-5.1zm8.1,0c0,-1.7 -1.3,-3.1 -2.9,-3.1c-1.6,0 -2.9,1.4 -2.9,3.1c0,1.7 1.3,3.1 2.9,3.1c1.6,0 2.9,-1.4 2.9,-3.1z" class="st6"/>
    </g>
    <g id="svg_217">
     <path id="svg_218" d="m175.8,828.1l0,9.6l-2.3,0l0,-1.3c-0.6,0.9 -1.7,1.5 -3,1.5c-2.1,0 -3.6,-1.5 -3.6,-3.7l0,-6.1l2.2,0l0,5.7c0,1.3 0.8,2.2 2,2.2s2.2,-0.8 2.3,-1.8l0,-6.1l2.4,0z" class="st6"/>
    </g>
    <g id="svg_219">
     <path id="svg_220" d="m183.7,827.9l0,1.9c-2.1,0 -3.5,1.2 -3.5,3.1l0,4.9l-2.2,0l0,-9.6l2.3,0l0,1.9c0.6,-1.4 1.8,-2.2 3.4,-2.2z" class="st6"/>
    </g>
    <g id="svg_221">
     <path id="svg_222" d="m204.6,831.6l0,6.1l-2.2,0l0,-5.7c0,-1.3 -0.8,-2.2 -1.9,-2.2c-1.3,0 -2.1,0.8 -2.1,2l0,5.9l-2.2,0l0,-5.7c0,-1.3 -0.8,-2.2 -1.9,-2.2c-1.2,0 -2.1,0.8 -2.1,2l0,5.9l-2.3,0l0,-9.6l2.3,0l0,1.3c0.5,-0.9 1.5,-1.5 2.7,-1.5c1.4,0 2.5,0.7 3.1,1.8c0.5,-1.1 1.7,-1.8 3.1,-1.8c2,0 3.5,1.5 3.5,3.7z" class="st6"/>
    </g>
    <g id="svg_223">
     <path id="svg_224" d="m213.7,835l1.4,1.5c-0.8,0.9 -2.5,1.5 -3.9,1.5c-2.8,0 -5,-2.1 -5,-5.1c0,-2.9 2.2,-5 4.9,-5c3,0 4.7,2.3 4.7,5.8l-7.3,0c0.3,1.3 1.3,2.3 2.7,2.3c0.9,0 1.9,-0.4 2.5,-1zm-5.2,-3l5.1,0c-0.3,-1.2 -1.1,-2.1 -2.4,-2.1c-1.3,0 -2.3,0.8 -2.7,2.1z" class="st6"/>
    </g>
    <g id="svg_225">
     <path id="svg_226" d="m224.4,835l1.4,1.5c-0.8,0.9 -2.5,1.5 -3.9,1.5c-2.8,0 -5,-2.1 -5,-5.1c0,-2.9 2.2,-5 4.9,-5c3,0 4.7,2.3 4.7,5.8l-7.3,0c0.3,1.3 1.3,2.3 2.7,2.3c0.9,0 1.9,-0.4 2.5,-1zm-5.2,-3l5.1,0c-0.3,-1.2 -1.1,-2.1 -2.4,-2.1c-1.3,0 -2.3,0.8 -2.7,2.1z" class="st6"/>
    </g>
    <g id="svg_227">
     <path id="svg_228" d="m233.6,837.2c-0.5,0.5 -1.3,0.8 -2.1,0.8c-1.6,0 -2.7,-1.2 -2.7,-2.8l0,-5.2l-1.4,0l0,-1.9l1.4,0l0,-2.6l2.2,0l0,2.6l2.2,0l0,1.9l-2.2,0l0,4.9c0,0.7 0.4,1.1 1,1.1c0.4,0 0.7,-0.1 1,-0.4l0.6,1.6z" class="st6"/>
    </g>
    <g id="svg_229">
     <path id="svg_230" d="m234.8,825.4c0,-0.7 0.6,-1.3 1.3,-1.3c0.7,0 1.3,0.6 1.3,1.3s-0.6,1.3 -1.3,1.3c-0.7,0 -1.3,-0.7 -1.3,-1.3zm0.2,2.7l2.3,0l0,9.6l-2.3,0l0,-9.6z" class="st6"/>
    </g>
    <g id="svg_231">
     <path id="svg_232" d="m248.2,831.6l0,6.1l-2.2,0l0,-5.7c0,-1.3 -0.8,-2.2 -2,-2.2s-2.2,0.8 -2.3,1.8l0,6.1l-2.3,0l0,-9.6l2.3,0l0,1.3c0.6,-0.9 1.7,-1.5 3,-1.5c2.1,0 3.5,1.5 3.5,3.7z" class="st6"/>
    </g>
    <g id="svg_233">
     <path id="svg_234" d="m259.8,828.1l0,8.6c0,2.5 -2.1,4.2 -5,4.2c-1.7,0 -3.2,-0.5 -4.1,-1.3l0.8,-1.7c0.7,0.6 1.8,1 3,1c1.9,0 3.1,-0.9 3.1,-2.4l0,-1.3c-0.8,1 -1.9,1.6 -3.3,1.6c-2.5,0 -4.3,-1.9 -4.3,-4.6s1.8,-4.6 4.3,-4.6c1.4,0 2.6,0.6 3.3,1.7l0,-1.4l2.2,0l0,0.2zm-2.3,4.4c0,-1.5 -1.1,-2.6 -2.6,-2.6c-1.5,0 -2.6,1.1 -2.6,2.6c0,1.5 1.1,2.6 2.6,2.6c1.5,0 2.6,-1.1 2.6,-2.6z" class="st6"/>
    </g>
    <g id="svg_235">
     <path id="svg_236" d="m261.3,836.5l1,-1.6c0.9,0.7 2,1.1 3.2,1.1c0.9,0 1.5,-0.4 1.5,-1c0,-0.7 -0.8,-1 -1.9,-1.3c-2.1,-0.5 -3.4,-1.1 -3.4,-2.9c0,-1.8 1.5,-3 3.6,-3c1.3,0 2.7,0.5 3.7,1.2l-1,1.7c-0.9,-0.6 -1.9,-0.9 -2.7,-0.9c-0.8,0 -1.4,0.3 -1.4,0.9c0,0.6 0.5,0.8 2,1.2c1.6,0.4 3.4,1 3.4,3c0,1.8 -1.5,3 -3.8,3c-1.4,0.1 -3,-0.4 -4.2,-1.4z" class="st6"/>
    </g>
    <g id="svg_237">
     <path id="svg_238" d="m271.2,839.7c0.6,-0.6 0.9,-1.2 1.1,-1.8c-0.8,0 -1.4,-0.7 -1.4,-1.5c0,-0.8 0.7,-1.5 1.5,-1.5c1,0 1.6,0.9 1.6,2c0,1 -0.5,2 -1.8,3.3l-1,-0.5z" class="st6"/>
    </g>
    <g id="svg_239">
     <path id="svg_240" d="m290.9,832.9c0,3 -1.9,5.1 -4.4,5.1c-1.4,0 -2.6,-0.7 -3.4,-1.8l0,1.5l-2.3,0l0,-13l2.3,0l0,4.9c0.8,-1.1 1.9,-1.8 3.4,-1.8c2.5,0.1 4.4,2.2 4.4,5.1zm-2.3,0c0,-1.8 -1.2,-3.1 -2.8,-3.1c-1.6,0 -2.7,1.3 -2.7,3.1c0,1.8 1.1,3.1 2.7,3.1c1.6,0 2.8,-1.3 2.8,-3.1z" class="st6"/>
    </g>
    <g id="svg_241">
     <path id="svg_242" d="m292.4,840.6l0.5,-1.6c0.4,0.2 0.9,0.4 1.2,0.4c0.5,0 1,-0.2 1.2,-0.6l0.4,-0.9l-4.1,-9.7l2.4,0l2.8,7.2l2.6,-7.2l2.4,0l-4.1,10.3c-0.7,1.8 -1.8,2.7 -3.3,2.7c-0.6,-0.1 -1.4,-0.3 -2,-0.6z" class="st6"/>
    </g>
    <g id="svg_243">
     <path id="svg_244" d="m317.9,824.7l0,13l-2.3,0l0,-1.5c-0.8,1.1 -1.9,1.7 -3.3,1.7c-2.6,0 -4.4,-2.1 -4.4,-5.1c0,-2.9 1.9,-5 4.4,-5c1.4,0 2.6,0.6 3.3,1.7l0,-4.9l2.3,0l0,0.1zm-2.3,8.2c0,-1.8 -1.1,-3.1 -2.7,-3.1c-1.6,0 -2.8,1.3 -2.8,3.1c0,1.8 1.2,3.1 2.8,3.1c1.6,0 2.7,-1.3 2.7,-3.1z" class="st6"/>
    </g>
    <g id="svg_245">
     <path id="svg_246" d="m319.5,832.9c0,-2.7 2.4,-5 5.2,-5c2.8,0 5.2,2.3 5.2,5s-2.4,5.1 -5.2,5.1c-2.8,0 -5.2,-2.3 -5.2,-5.1zm8.1,0c0,-1.7 -1.3,-3.1 -2.9,-3.1c-1.6,0 -2.9,1.4 -2.9,3.1c0,1.7 1.3,3.1 2.9,3.1c1.6,0 2.9,-1.4 2.9,-3.1z" class="st6"/>
    </g>
    <g id="svg_247">
     <path id="svg_248" d="m331.3,825.4c0,-0.7 0.6,-1.3 1.3,-1.3c0.7,0 1.3,0.6 1.3,1.3s-0.6,1.3 -1.3,1.3c-0.7,0 -1.3,-0.7 -1.3,-1.3zm0.2,2.7l2.3,0l0,9.6l-2.3,0l0,-9.6z" class="st6"/>
    </g>
    <g id="svg_249">
     <path id="svg_250" d="m344.8,831.6l0,6.1l-2.2,0l0,-5.7c0,-1.3 -0.8,-2.2 -2,-2.2s-2.2,0.8 -2.3,1.8l0,6.1l-2.3,0l0,-9.6l2.3,0l0,1.3c0.6,-0.9 1.7,-1.5 3,-1.5c2,0 3.5,1.5 3.5,3.7z" class="st6"/>
    </g>
    <g id="svg_251">
     <path id="svg_252" d="m356.3,828.1l0,8.6c0,2.5 -2.1,4.2 -5,4.2c-1.7,0 -3.2,-0.5 -4.1,-1.3l0.8,-1.7c0.7,0.6 1.8,1 3,1c1.9,0 3.1,-0.9 3.1,-2.4l0,-1.3c-0.8,1 -1.9,1.6 -3.3,1.6c-2.5,0 -4.3,-1.9 -4.3,-4.6s1.8,-4.6 4.3,-4.6c1.4,0 2.6,0.6 3.3,1.7l0,-1.4l2.2,0l0,0.2zm-2.3,4.4c0,-1.5 -1.1,-2.6 -2.6,-2.6c-1.5,0 -2.6,1.1 -2.6,2.6c0,1.5 1.1,2.6 2.6,2.6c1.5,0 2.6,-1.1 2.6,-2.6z" class="st6"/>
    </g>
    <g id="svg_253">
     <path id="svg_254" d="m363.4,824.7l2.3,0l0,13l-2.3,0l0,-13z" class="st6"/>
    </g>
    <g id="svg_255">
     <path id="svg_256" d="m374.8,835l1.4,1.5c-0.8,0.9 -2.5,1.5 -3.9,1.5c-2.8,0 -5,-2.1 -5,-5.1c0,-2.9 2.2,-5 4.9,-5c3,0 4.7,2.3 4.7,5.8l-7.3,0c0.3,1.3 1.3,2.3 2.7,2.3c0.9,0 2,-0.4 2.5,-1zm-5.1,-3l5.1,0c-0.3,-1.2 -1.1,-2.1 -2.4,-2.1c-1.4,0 -2.4,0.8 -2.7,2.1z" class="st6"/>
    </g>
    <g id="svg_257">
     <path id="svg_258" d="m377.9,836.5l1,-1.6c0.9,0.7 2,1.1 3.2,1.1c0.9,0 1.5,-0.4 1.5,-1c0,-0.7 -0.8,-1 -1.9,-1.3c-2.1,-0.5 -3.4,-1.1 -3.4,-2.9c0,-1.8 1.5,-3 3.6,-3c1.3,0 2.7,0.5 3.7,1.2l-1,1.7c-0.9,-0.6 -1.9,-0.9 -2.7,-0.9c-0.8,0 -1.4,0.3 -1.4,0.9c0,0.6 0.5,0.8 2,1.2c1.6,0.4 3.4,1 3.4,3c0,1.8 -1.5,3 -3.8,3c-1.5,0.1 -3.1,-0.4 -4.2,-1.4z" class="st6"/>
    </g>
    <g id="svg_259">
     <path id="svg_260" d="m386.8,836.5l1,-1.6c0.9,0.7 2,1.1 3.2,1.1c0.9,0 1.5,-0.4 1.5,-1c0,-0.7 -0.8,-1 -1.9,-1.3c-2.1,-0.5 -3.4,-1.1 -3.4,-2.9c0,-1.8 1.5,-3 3.6,-3c1.3,0 2.7,0.5 3.7,1.2l-1,1.7c-0.9,-0.6 -1.9,-0.9 -2.7,-0.9c-0.8,0 -1.4,0.3 -1.4,0.9c0,0.6 0.5,0.8 2,1.2c1.6,0.4 3.4,1 3.4,3c0,1.8 -1.5,3 -3.8,3c-1.4,0.1 -3,-0.4 -4.2,-1.4z" class="st6"/>
    </g>
    <g id="svg_261">
     <path id="svg_262" d="m396.3,836.5c0,-0.8 0.6,-1.4 1.5,-1.4c0.8,0 1.4,0.7 1.4,1.4c0,0.8 -0.7,1.5 -1.4,1.5c-0.8,0 -1.5,-0.7 -1.5,-1.5z" class="st6"/>
    </g>
   </g>
  </g>
  <g id="svg_263">
   <g id="svg_264">
    <path id="svg_265" d="m2717.7,560.2l20.6,0l29.9,54.5l29.8,-54.5l20.8,0l0,96.4l-20.8,0l0,-60.1l-29.8,54.5l-29.9,-54.5l0,60.1l-20.6,0l0,-96.4z" class="st6"/>
    <path id="svg_266" d="m2829.7,620.2c0,-20.6 18.1,-37.9 39.7,-37.9c21.5,0 39.4,17.3 39.4,37.9s-18,38 -39.4,38c-21.6,0.1 -39.7,-17.3 -39.7,-38zm59.6,0c0,-11.2 -9.1,-20.6 -19.9,-20.6c-10.9,0 -20.1,9.4 -20.1,20.6c0,11.2 9.1,20.8 20.1,20.8c10.8,0 19.9,-9.5 19.9,-20.8z" class="st6"/>
    <path id="svg_267" d="m2988.8,610.4l0,46.2l-19.8,0l0,-41.8c0,-9 -5.6,-15.2 -13.8,-15.2c-8.6,0 -15.2,6.2 -15.2,14l-0.1,-0.4l0,43.4l-20.5,0l0,-72.6l20.5,0l0,9.1c4.3,-6.6 12.5,-10.8 21.9,-10.8c15.8,0 27,11.7 27,28.1z" class="st6"/>
    <path id="svg_268" d="m3053.7,633.7l13.1,13.3c-6.5,6.7 -18.9,11.2 -29.6,11.2c-21.6,0 -38.5,-15.9 -38.5,-38.2c0,-21.9 16.1,-37.8 37.3,-37.8c22.7,0 36.1,17.3 36.1,44.6l-52.4,0c2.4,7.9 8.7,13.2 17.3,13.2c5.8,0.2 12.8,-2.5 16.7,-6.3zm-33.7,-21.5l32.4,0c-2,-7.2 -7.3,-11.8 -15.6,-11.8c-7.6,0 -14.1,4.5 -16.8,11.8z" class="st6"/>
    <path id="svg_269" d="m3123.2,652c-4.2,3.8 -10.8,6.3 -16.7,6.3c-12.8,0 -21.8,-9.1 -21.8,-22.2l0,-35.5l-10,0l0,-16.6l10,0l0,-19.9l19.7,0l0,19.9l15.7,0l0,16.6l-15.7,0l0,32.3c0,4.8 3.1,8.1 6.9,8.1c2.8,0 5.6,-1 7,-2.4l4.9,13.4z" class="st6"/>
    <path id="svg_270" d="m3168.3,652c-4.2,3.8 -10.8,6.3 -16.7,6.3c-12.8,0 -21.8,-9.1 -21.8,-22.2l0,-35.5l-10,0l0,-16.6l10,0l0,-19.9l19.7,0l0,19.9l15.7,0l0,16.6l-15.7,0l0,32.3c0,4.8 3.1,8.1 6.9,8.1c2.8,0 5.6,-1 7,-2.4l4.9,13.4z" class="st6"/>
    <path id="svg_271" d="m3243.3,613.2l0,43.4l-19.8,0l0,-7.3c-5.2,5.9 -13.5,9 -21.3,9c-15.4,0 -27.4,-9.3 -27.4,-23.2c0,-14.3 13.3,-24.1 30.2,-24.1c5.9,0 12.4,1.3 18.5,3.7l0,-1.4c0,-7.7 -4.8,-14.5 -16.7,-14.5c-6.7,0 -13.1,2.2 -18.8,5.2l-6.9,-13.6c10.2,-5.2 20.2,-8 30.3,-8c18.9,-0.1 31.9,11.9 31.9,30.8zm-19.8,20.5l0,-6.7c-4.6,-1.7 -10,-2.7 -15.6,-2.7c-7.4,0 -13.3,4.3 -13.3,10.2c0,5.9 5.2,9.5 12.2,9.5c7.8,0.1 15.3,-3.6 16.7,-10.3z" class="st6"/>
   </g>
   <g id="svg_272">
    <path id="svg_273" d="m2602.7,507.5l-44.7,-25.8c-0.6,-0.4 -1.3,-0.5 -2,-0.5s-1.4,0.2 -2,0.5l-45,26c-1.6,1.1 -1.5,3.5 0.2,4.5l46.8,27l46.7,-27c1.8,-1.1 1.8,-3.7 0,-4.7z" class="st6"/>
    <path id="svg_274" d="m2445,611.8c0,1.4 0.8,2.7 2,3.5l48.7,28.2l0,-56.5c0,-1.3 -0.7,-2.5 -1.7,-3.2l-28,-16.1l-17,-9.8c-0.4,-0.2 -0.9,-0.4 -1.3,-0.4c-1.4,0 -2.7,1.1 -2.7,2.7l0,51.6z" class="st6"/>
    <g id="svg_275">
     <path id="svg_276" d="m2653.5,536.8l-47.5,-27.4c0,0.1 0,0.3 0,0.4c0,1.7 -0.9,3.2 -2.3,4l-45.7,26.4l46.8,27c1.2,0.7 2.8,0.7 4,0l44.7,-25.8c1.8,-1 1.8,-3.6 0,-4.6z" class="st6"/>
    </g>
    <g id="svg_277">
     <g id="svg_278">
      <path id="svg_279" d="m2494.7,584.4c-0.2,-0.2 -0.5,-0.5 -0.7,-0.6l0,0c0.2,0.2 0.5,0.4 0.7,0.6z" class="st6"/>
     </g>
     <g id="svg_280">
      <path id="svg_281" d="m2544.5,613l-47,-27.1c0.1,0.4 0.1,0.8 0.1,1.2l0,56.4l0,1.2l44.8,25.9c1.8,1 4,-0.3 4,-2.3l0,-51.8c0.1,-1.5 -0.6,-2.8 -1.9,-3.5z" class="st6"/>
     </g>
    </g>
    <g id="svg_282">
     <g id="svg_283">
      <path id="svg_284" d="m2509.2,512.1l23.4,13.5l-23.4,-13.5c-0.4,-0.2 -0.7,-0.6 -1,-1c0.3,0.4 0.6,0.7 1,1z" class="st6"/>
     </g>
     <g id="svg_285">
      <path id="svg_286" d="m2508.2,513.8c-1.4,-0.8 -2.2,-2.2 -2.3,-3.8c0,-0.2 0,-0.4 0,-0.6l-47.4,27.4c-1.8,1 -1.8,3.6 0,4.6l44.7,25.8c1.2,0.7 2.8,0.7 4,0l46.8,-27l-45.8,-26.4z" class="st6"/>
     </g>
    </g>
    <g id="svg_287">
     <path id="svg_288" d="m2494.7,645.2l-48.7,-28.2c-0.4,-0.2 -0.7,-0.5 -1,-0.7l0,54.3c0,1.4 0.8,2.7 2,3.5l44.7,25.8c1.8,1 4,-0.3 4,-2.3l0,-51.8l-1,-0.6z" class="st6"/>
    </g>
    <path id="svg_289" d="m2667,611.8c0,1.4 -0.8,2.7 -2,3.5l-48.7,28.2l0,-56.5c0,-1.3 0.7,-2.5 1.7,-3.2l28,-16.1l17,-9.8c0.4,-0.2 0.9,-0.4 1.3,-0.4c1.4,0 2.7,1.1 2.7,2.7l0,51.6z" class="st6"/>
    <g id="svg_290">
     <g id="svg_291">
      <path id="svg_292" d="m2617.3,584.4c0.2,-0.2 0.5,-0.5 0.7,-0.6l0,0c-0.3,0.2 -0.5,0.4 -0.7,0.6z" class="st6"/>
     </g>
     <g id="svg_293">
      <path id="svg_294" d="m2567.5,613l47,-27.1c-0.1,0.4 -0.1,0.8 -0.1,1.2l0,56.4l0,1.2l-44.8,25.9c-1.8,1 -4,-0.3 -4,-2.3l0,-51.8c-0.1,-1.5 0.6,-2.8 1.9,-3.5z" class="st6"/>
     </g>
    </g>
    <g id="svg_295">
     <path id="svg_296" d="m2617.3,645.2l48.7,-28.2c0.4,-0.2 0.7,-0.5 1,-0.7l0,54.3c0,1.4 -0.8,2.7 -2,3.5l-44.7,25.8c-1.8,1 -4,-0.3 -4,-2.3l0,-51.8l1,-0.6z" class="st6"/>
    </g>
   </g>
  </g>
  <g id="svg_297">
   <g id="svg_298">
    <path id="svg_299" d="m1569.2,507.5l-44.7,-25.8c-0.6,-0.4 -1.3,-0.5 -2,-0.5s-1.4,0.2 -2,0.5l-45,26c-1.6,1.1 -1.5,3.5 0.2,4.5l46.8,27l46.7,-27c1.8,-1.1 1.8,-3.7 0,-4.7z" class="st6"/>
    <path id="svg_300" d="m1411.5,611.8c0,1.4 0.8,2.7 2,3.5l48.7,28.2l0,-56.5c0,-1.3 -0.7,-2.5 -1.7,-3.2l-28,-16.1l-17,-9.8c-0.4,-0.2 -0.9,-0.4 -1.3,-0.4c-1.4,0 -2.7,1.1 -2.7,2.7l0,51.6z" class="st6"/>
    <g id="svg_301">
     <path id="svg_302" d="m1620,536.8l-47.5,-27.4c0,0.1 0,0.3 0,0.4c0,1.7 -0.9,3.2 -2.3,4l-45.7,26.4l46.8,27c1.2,0.7 2.8,0.7 4,0l44.7,-25.8c1.8,-1 1.8,-3.6 0,-4.6z" class="st6"/>
    </g>
    <g id="svg_303">
     <g id="svg_304">
      <path id="svg_305" d="m1461.2,584.4c-0.2,-0.2 -0.5,-0.5 -0.7,-0.6l0,0c0.2,0.2 0.5,0.4 0.7,0.6z" class="st6"/>
     </g>
     <g id="svg_306">
      <path id="svg_307" d="m1511,613l-47,-27.1c0.1,0.4 0.1,0.8 0.1,1.2l0,56.4l0,1.2l44.8,25.9c1.8,1 4,-0.3 4,-2.3l0,-51.8c0.1,-1.5 -0.7,-2.8 -1.9,-3.5z" class="st6"/>
     </g>
    </g>
    <g id="svg_308">
     <g id="svg_309">
      <path id="svg_310" d="m1475.7,512.1l23.4,13.5l-23.4,-13.5c-0.4,-0.2 -0.7,-0.6 -1,-1c0.3,0.4 0.6,0.7 1,1z" class="st6"/>
     </g>
     <g id="svg_311">
      <path id="svg_312" d="m1474.7,513.8c-1.4,-0.8 -2.2,-2.2 -2.3,-3.8c0,-0.2 0,-0.4 0,-0.6l-47.4,27.4c-1.8,1 -1.8,3.6 0,4.6l44.7,25.8c1.2,0.7 2.8,0.7 4,0l46.8,-27l-45.8,-26.4z" class="st6"/>
     </g>
    </g>
    <g id="svg_313">
     <path id="svg_314" d="m1461.2,645.2l-48.7,-28.2c-0.4,-0.2 -0.7,-0.5 -1,-0.7l0,54.3c0,1.4 0.8,2.7 2,3.5l44.7,25.8c1.8,1 4,-0.3 4,-2.3l0,-51.8l-1,-0.6z" class="st6"/>
    </g>
    <path id="svg_315" d="m1633.5,611.8c0,1.4 -0.8,2.7 -2,3.5l-48.7,28.2l0,-56.5c0,-1.3 0.7,-2.5 1.7,-3.2l28,-16.1l17,-9.8c0.4,-0.2 0.9,-0.4 1.3,-0.4c1.4,0 2.7,1.1 2.7,2.7l0,51.6z" class="st6"/>
    <g id="svg_316">
     <g id="svg_317">
      <path id="svg_318" d="m1583.8,584.4c0.2,-0.2 0.5,-0.5 0.7,-0.6l0,0c-0.3,0.2 -0.5,0.4 -0.7,0.6z" class="st6"/>
     </g>
     <g id="svg_319">
      <path id="svg_320" d="m1533.9,613l47,-27.1c-0.1,0.4 -0.1,0.8 -0.1,1.2l0,56.4l0,1.2l-44.8,25.9c-1.8,1 -4,-0.3 -4,-2.3l0,-51.8c-0.1,-1.5 0.7,-2.8 1.9,-3.5z" class="st6"/>
     </g>
    </g>
    <g id="svg_321">
     <path id="svg_322" d="m1583.8,645.2l48.7,-28.2c0.4,-0.2 0.7,-0.5 1,-0.7l0,54.3c0,1.4 -0.8,2.7 -2,3.5l-44.7,25.8c-1.8,1 -4,-0.3 -4,-2.3l0,-51.8l1,-0.6z" class="st6"/>
    </g>
   </g>
   <g id="svg_323">
    <g id="svg_324">
     <path id="svg_325" d="m1684.2,560.2l20.6,0l29.9,54.4l29.7,-54.4l20.8,0l0,96.3l-20.8,0l0,-60l-29.7,54.4l-29.9,-54.4l0,60l-20.6,0l0,-96.3z" class="st6"/>
    </g>
    <g id="svg_326">
     <path id="svg_327" d="m1796,620.2c0,-20.6 18.1,-37.9 39.7,-37.9c21.5,0 39.4,17.2 39.4,37.9s-17.9,38 -39.4,38c-21.6,0 -39.7,-17.4 -39.7,-38zm59.6,0c0,-11.2 -9.1,-20.6 -19.9,-20.6c-10.9,0 -20.1,9.4 -20.1,20.6s9.1,20.8 20.1,20.8c10.8,-0.1 19.9,-9.6 19.9,-20.8z" class="st6"/>
    </g>
    <g id="svg_328">
     <path id="svg_329" d="m1955,610.4l0,46.1l-19.8,0l0,-41.8c0,-9 -5.6,-15.1 -13.7,-15.1c-8.6,0 -15.1,6.2 -15.1,14l-0.1,-0.4l0,43.3l-20.5,0l0,-72.5l20.5,0l0,9.1c4.3,-6.6 12.5,-10.8 21.9,-10.8c15.6,0 26.8,11.7 26.8,28.1z" class="st6"/>
    </g>
    <g id="svg_330">
     <path id="svg_331" d="m2019.9,633.6l13,13.3c-6.4,6.7 -18.9,11.2 -29.6,11.2c-21.6,0 -38.4,-15.8 -38.4,-38.1c0,-21.9 16.1,-37.7 37.3,-37.7c22.7,0 36,17.2 36,44.6l-52.2,0c2.4,7.9 8.7,13.2 17.2,13.2c5.8,0 12.8,-2.7 16.7,-6.5zm-33.7,-21.4l32.4,0c-2,-7.2 -7.3,-11.8 -15.6,-11.8c-7.6,0 -14.1,4.5 -16.8,11.8z" class="st6"/>
    </g>
    <g id="svg_332">
     <path id="svg_333" d="m2089.3,651.9c-4.2,3.8 -10.8,6.3 -16.7,6.3c-12.8,0 -21.7,-9.1 -21.7,-22.2l0,-35.5l-10,0l0,-16.5l10,0l0,-19.9l19.6,0l0,19.9l15.7,0l0,16.5l-15.7,0l0,32.3c0,4.8 3.1,8.1 6.9,8.1c2.8,0 5.6,-1 7,-2.4l4.9,13.4z" class="st6"/>
    </g>
    <g id="svg_334">
     <path id="svg_335" d="m2134.3,651.9c-4.2,3.8 -10.8,6.3 -16.7,6.3c-12.8,0 -21.7,-9.1 -21.7,-22.2l0,-35.5l-10,0l0,-16.5l10,0l0,-19.9l19.6,0l0,19.9l15.7,0l0,16.5l-15.7,0l0,32.3c0,4.8 3.1,8.1 6.9,8.1c2.8,0 5.6,-1 7,-2.4l4.9,13.4z" class="st6"/>
    </g>
    <g id="svg_336">
     <path id="svg_337" d="m2209.3,613.2l0,43.3l-19.8,0l0,-7.3c-5.2,5.9 -13.5,9 -21.3,9c-15.4,0 -27.3,-9.3 -27.3,-23.1c0,-14.3 13.3,-24.1 30.2,-24.1c5.9,0 12.3,1.3 18.5,3.6l0,-1.4c0,-7.7 -4.8,-14.4 -16.7,-14.4c-6.7,0 -13,2.2 -18.8,5.2l-6.9,-13.6c10.2,-5.2 20.2,-8 30.3,-8c18.9,-0.1 31.8,11.8 31.8,30.8zm-19.8,20.4l0,-6.7c-4.6,-1.7 -10,-2.7 -15.6,-2.7c-7.4,0 -13.3,4.3 -13.3,10.2c0,5.9 5.2,9.5 12.2,9.5c7.9,0.1 15.3,-3.5 16.7,-10.3z" class="st6"/>
    </g>
   </g>
   <g id="svg_338">
    <g id="svg_339">
     <path id="svg_340" d="m1693.7,685.9l7.2,0l0,6.8c-1.6,1.7 -4.2,2.7 -6.7,2.7c-4.8,0 -8.9,-4 -8.9,-8.7c0,-4.7 4.1,-8.7 8.9,-8.7c2.4,0 5.1,1 6.7,2.7l-2.2,2c-1.1,-1.2 -2.9,-2 -4.5,-2c-3.1,0 -5.8,2.7 -5.8,5.9c0,3.2 2.6,5.9 5.8,5.9c1.3,0 2.6,-0.4 3.7,-1.2l0,-3.1l-4.2,0l0,-2.3z" class="st6"/>
    </g>
    <g id="svg_341">
     <path id="svg_342" d="m1712.8,691.6l1.9,2c-1.1,1.2 -3.3,2 -5.1,2c-3.6,0 -6.6,-2.8 -6.6,-6.7c0,-3.8 2.8,-6.6 6.4,-6.6c3.9,0 6.2,3 6.2,7.6l-9.6,0c0.4,1.7 1.7,3 3.5,3c1.1,-0.1 2.5,-0.6 3.3,-1.3zm-6.8,-4l6.7,0c-0.3,-1.6 -1.4,-2.7 -3.2,-2.7c-1.7,0 -3.1,1 -3.5,2.7z" class="st6"/>
    </g>
    <g id="svg_343">
     <path id="svg_344" d="m1724.8,694.5c-0.7,0.6 -1.7,1 -2.7,1c-2.1,0 -3.6,-1.5 -3.6,-3.6l0,-6.9l-1.8,0l0,-2.5l1.8,0l0,-3.5l2.9,0l0,3.5l2.9,0l0,2.5l-2.9,0l0,6.5c0,0.9 0.5,1.5 1.2,1.5c0.5,0 1,-0.2 1.2,-0.5l1,2z" class="st6"/>
    </g>
    <g id="svg_345">
     <path id="svg_346" d="m1752.3,687.1l0,8.1l-2.9,0l0,-7.6c0,-1.7 -1,-2.8 -2.4,-2.8c-1.6,0 -2.8,1.1 -2.8,2.6l0,7.8l-2.9,0l0,-7.6c0,-1.7 -1,-2.8 -2.5,-2.8c-1.6,0 -2.8,1.1 -2.8,2.6l0,7.8l-3,0l0,-12.7l3,0l0,1.7c0.6,-1.2 1.9,-2 3.5,-2c1.8,0 3.3,0.9 4,2.4c0.6,-1.5 2.2,-2.4 4.1,-2.4c2.8,0 4.7,2.1 4.7,4.9z" class="st6"/>
    </g>
    <g id="svg_347">
     <path id="svg_348" d="m1754.4,688.8c0,-3.6 3.1,-6.6 6.8,-6.6c3.7,0 6.8,3 6.8,6.6c0,3.6 -3.1,6.6 -6.8,6.6c-3.7,0.1 -6.8,-3 -6.8,-6.6zm10.7,0c0,-2.2 -1.8,-4.1 -3.8,-4.1c-2.1,0 -3.9,1.9 -3.9,4.1c0,2.2 1.8,4.1 3.9,4.1c2,0 3.8,-1.8 3.8,-4.1z" class="st6"/>
    </g>
    <g id="svg_349">
     <path id="svg_350" d="m1777.7,682.2l0,2.5c-2.7,0 -4.5,1.6 -4.5,4l0,6.4l-3,0l0,-12.7l3,0l0,2.4c0.8,-1.5 2.4,-2.6 4.5,-2.6z" class="st6"/>
    </g>
    <g id="svg_351">
     <path id="svg_352" d="m1788.6,691.6l1.9,2c-1.1,1.2 -3.3,2 -5.1,2c-3.6,0 -6.6,-2.8 -6.6,-6.7c0,-3.8 2.8,-6.6 6.4,-6.6c3.9,0 6.2,3 6.2,7.6l-9.6,0c0.4,1.7 1.7,3 3.5,3c1.2,-0.1 2.6,-0.6 3.3,-1.3zm-6.8,-4l6.7,0c-0.3,-1.6 -1.4,-2.7 -3.2,-2.7c-1.7,0 -3,1 -3.5,2.7z" class="st6"/>
    </g>
    <g id="svg_353">
     <path id="svg_354" d="m1799.3,688.8c0,-3.6 3.1,-6.6 6.8,-6.6c3.7,0 6.8,3 6.8,6.6c0,3.6 -3.1,6.6 -6.8,6.6c-3.7,0.1 -6.8,-3 -6.8,-6.6zm10.6,0c0,-2.2 -1.8,-4.1 -3.8,-4.1c-2.1,0 -3.9,1.9 -3.9,4.1c0,2.2 1.8,4.1 3.9,4.1c2,0 3.8,-1.8 3.8,-4.1z" class="st6"/>
    </g>
    <g id="svg_355">
     <path id="svg_356" d="m1826.5,682.5l0,12.7l-3,0l0,-1.7c-0.8,1.2 -2.3,2 -3.9,2c-2.8,0 -4.7,-2 -4.7,-4.9l0,-8.1l2.9,0l0,7.5c0,1.7 1.1,2.9 2.7,2.9s2.9,-1.1 3.1,-2.4l0,-8l2.9,0z" class="st6"/>
    </g>
    <g id="svg_357">
     <path id="svg_358" d="m1836.5,694.5c-0.7,0.6 -1.7,1 -2.7,1c-2.1,0 -3.6,-1.5 -3.6,-3.6l0,-6.9l-1.8,0l0,-2.5l1.8,0l0,-3.5l2.9,0l0,3.5l2.9,0l0,2.5l-2.9,0l0,6.5c0,0.9 0.5,1.5 1.2,1.5c0.5,0 1,-0.2 1.2,-0.5l1,2z" class="st6"/>
    </g>
    <g id="svg_359">
     <path id="svg_360" d="m1844.1,688.8c0,-3.6 3.1,-6.6 6.8,-6.6c3.7,0 6.8,3 6.8,6.6c0,3.6 -3.1,6.6 -6.8,6.6c-3.7,0.1 -6.8,-3 -6.8,-6.6zm10.6,0c0,-2.2 -1.8,-4.1 -3.8,-4.1c-2.1,0 -3.9,1.9 -3.9,4.1c0,2.2 1.8,4.1 3.9,4.1c2.1,0 3.8,-1.8 3.8,-4.1z" class="st6"/>
    </g>
    <g id="svg_361">
     <path id="svg_362" d="m1863.6,682.5l2.9,0l0,2.5l-2.9,0l0,10.2l-2.9,0l0,-10.2l-1.8,0l0,-2.5l1.8,0l0,-1.3c0,-2.1 1.5,-3.7 3.6,-3.7c1,0 2,0.4 2.7,1l-0.9,1.9c-0.3,-0.3 -0.7,-0.5 -1.2,-0.5c-0.7,0 -1.2,0.6 -1.2,1.5l0,1.1l-0.1,0z" class="st6"/>
    </g>
    <g id="svg_363">
     <path id="svg_364" d="m1874.6,698.9l0.6,-2.2c0.5,0.3 1.2,0.5 1.6,0.5c0.7,0 1.2,-0.2 1.6,-0.8l0.5,-1.1l-5.4,-12.8l3.2,0l3.7,9.5l3.5,-9.5l3.1,0l-5.4,13.5c-1,2.4 -2.4,3.5 -4.3,3.5c-0.9,0.1 -2,-0.2 -2.7,-0.6z" class="st6"/>
    </g>
    <g id="svg_365">
     <path id="svg_366" d="m1887.7,688.8c0,-3.6 3.1,-6.6 6.8,-6.6c3.7,0 6.8,3 6.8,6.6c0,3.6 -3.1,6.6 -6.8,6.6c-3.7,0.1 -6.8,-3 -6.8,-6.6zm10.6,0c0,-2.2 -1.8,-4.1 -3.8,-4.1c-2.1,0 -3.9,1.9 -3.9,4.1c0,2.2 1.8,4.1 3.9,4.1c2.1,0 3.8,-1.8 3.8,-4.1z" class="st6"/>
    </g>
    <g id="svg_367">
     <path id="svg_368" d="m1915,682.5l0,12.7l-3,0l0,-1.7c-0.8,1.2 -2.3,2 -3.9,2c-2.8,0 -4.7,-2 -4.7,-4.9l0,-8.1l2.9,0l0,7.5c0,1.7 1.1,2.9 2.7,2.9s2.9,-1.1 3.1,-2.4l0,-8l2.9,0z" class="st6"/>
    </g>
    <g id="svg_369">
     <path id="svg_370" d="m1925.3,682.2l0,2.5c-2.7,0 -4.5,1.6 -4.5,4l0,6.4l-3,0l0,-12.7l3,0l0,2.4c0.8,-1.5 2.5,-2.6 4.5,-2.6z" class="st6"/>
    </g>
    <g id="svg_371">
     <path id="svg_372" d="m1952.8,687.1l0,8.1l-2.9,0l0,-7.6c0,-1.7 -1,-2.8 -2.4,-2.8c-1.6,0 -2.8,1.1 -2.8,2.6l0,7.8l-2.9,0l0,-7.6c0,-1.7 -1,-2.8 -2.5,-2.8c-1.6,0 -2.8,1.1 -2.8,2.6l0,7.8l-3,0l0,-12.7l3,0l0,1.7c0.6,-1.2 1.9,-2 3.5,-2c1.8,0 3.3,0.9 4,2.4c0.6,-1.5 2.2,-2.4 4.1,-2.4c2.7,0 4.7,2.1 4.7,4.9z" class="st6"/>
    </g>
    <g id="svg_373">
     <path id="svg_374" d="m1964.7,691.6l1.9,2c-1.1,1.2 -3.3,2 -5.1,2c-3.6,0 -6.6,-2.8 -6.6,-6.7c0,-3.8 2.8,-6.6 6.4,-6.6c3.9,0 6.2,3 6.2,7.6l-9.6,0c0.4,1.7 1.7,3 3.5,3c1.2,-0.1 2.6,-0.6 3.3,-1.3zm-6.8,-4l6.7,0c-0.3,-1.6 -1.4,-2.7 -3.2,-2.7c-1.7,0 -3,1 -3.5,2.7z" class="st6"/>
    </g>
    <g id="svg_375">
     <path id="svg_376" d="m1978.7,691.6l1.9,2c-1.1,1.2 -3.3,2 -5.1,2c-3.6,0 -6.6,-2.8 -6.6,-6.7c0,-3.8 2.8,-6.6 6.4,-6.6c3.9,0 6.2,3 6.2,7.6l-9.6,0c0.4,1.7 1.7,3 3.5,3c1.2,-0.1 2.6,-0.6 3.3,-1.3zm-6.7,-4l6.7,0c-0.3,-1.6 -1.4,-2.7 -3.2,-2.7c-1.7,0 -3.1,1 -3.5,2.7z" class="st6"/>
    </g>
    <g id="svg_377">
     <path id="svg_378" d="m1990.8,694.5c-0.7,0.6 -1.7,1 -2.7,1c-2.1,0 -3.6,-1.5 -3.6,-3.6l0,-6.9l-1.8,0l0,-2.5l1.8,0l0,-3.5l2.9,0l0,3.5l2.9,0l0,2.5l-2.9,0l0,6.5c0,0.9 0.5,1.5 1.2,1.5c0.5,0 1,-0.2 1.2,-0.5l1,2z" class="st6"/>
    </g>
    <g id="svg_379">
     <path id="svg_380" d="m1992.4,678.9c0,-0.9 0.8,-1.7 1.7,-1.7c0.9,0 1.7,0.8 1.7,1.7s-0.8,1.7 -1.7,1.7c-0.9,0 -1.7,-0.8 -1.7,-1.7zm0.2,3.6l3,0l0,12.7l-3,0l0,-12.7z" class="st6"/>
    </g>
    <g id="svg_381">
     <path id="svg_382" d="m2010.1,687.1l0,8.1l-2.9,0l0,-7.5c0,-1.7 -1.1,-2.9 -2.7,-2.9s-2.9,1.1 -3.1,2.4l0,8l-3,0l0,-12.7l3,0l0,1.7c0.8,-1.2 2.3,-2 3.9,-2c2.8,0 4.8,2.1 4.8,4.9z" class="st6"/>
    </g>
    <g id="svg_383">
     <path id="svg_384" d="m2025.2,682.5l0,11.3c0,3.3 -2.7,5.6 -6.6,5.6c-2.2,0 -4.2,-0.7 -5.4,-1.7l1.1,-2.2c0.9,0.8 2.4,1.3 3.9,1.3c2.5,0 4.1,-1.2 4.1,-3.1l0,-1.6c-1,1.3 -2.5,2.2 -4.3,2.2c-3.3,0 -5.7,-2.5 -5.7,-6c0,-3.5 2.4,-6 5.7,-6c1.8,0 3.4,0.8 4.3,2.2l0,-1.9l2.9,0l0,-0.1zm-3,5.7c0,-2 -1.4,-3.5 -3.5,-3.5c-2,0 -3.5,1.4 -3.5,3.5c0,2 1.4,3.5 3.5,3.5c2.1,0 3.5,-1.4 3.5,-3.5z" class="st6"/>
    </g>
    <g id="svg_385">
     <path id="svg_386" d="m2027.2,693.6l1.3,-2.1c1.2,0.9 2.6,1.5 4.2,1.5c1.2,0 2,-0.5 2,-1.3c0,-1 -1.1,-1.3 -2.5,-1.7c-2.7,-0.7 -4.5,-1.5 -4.5,-3.7c0,-2.4 2,-4 4.8,-4c1.7,0 3.5,0.6 4.9,1.5l-1.2,2.2c-1.2,-0.8 -2.5,-1.2 -3.6,-1.2c-1.1,0 -1.9,0.4 -1.9,1.1c0,0.8 0.7,1.1 2.6,1.6c2.1,0.6 4.4,1.3 4.4,4c0,2.4 -2,4 -5,4c-1.9,0 -4,-0.7 -5.5,-1.9z" class="st6"/>
    </g>
    <g id="svg_387">
     <path id="svg_388" d="m2040.2,697.8c0.7,-0.7 1.2,-1.5 1.4,-2.3c-1,0 -1.9,-0.9 -1.9,-1.9c0,-1 0.9,-1.9 1.9,-1.9c1.2,0 2.1,1.1 2.1,2.7c0,1.3 -0.7,2.6 -2.4,4.4l-1.1,-1z" class="st6"/>
    </g>
    <g id="svg_389">
     <path id="svg_390" d="m2066,688.8c0,3.9 -2.4,6.6 -5.8,6.6c-1.9,0 -3.4,-0.9 -4.4,-2.3l0,2l-3,0l0,-17.1l3,0l0,6.5c1,-1.4 2.5,-2.3 4.4,-2.3c3.4,0 5.8,2.8 5.8,6.6zm-3,0c0,-2.4 -1.5,-4.1 -3.6,-4.1c-2.1,0 -3.6,1.7 -3.6,4.1c0,2.4 1.5,4.1 3.6,4.1c2.1,0 3.6,-1.7 3.6,-4.1z" class="st6"/>
    </g>
    <g id="svg_391">
     <path id="svg_392" d="m2068,698.9l0.6,-2.2c0.5,0.3 1.2,0.5 1.6,0.5c0.7,0 1.2,-0.2 1.6,-0.8l0.5,-1.1l-5.4,-12.8l3.2,0l3.7,9.5l3.5,-9.5l3.1,0l-5.4,13.5c-1,2.4 -2.4,3.5 -4.3,3.5c-0.9,0.1 -1.9,-0.2 -2.7,-0.6z" class="st6"/>
    </g>
    <g id="svg_393">
     <path id="svg_394" d="m2101.5,678.1l0,17.1l-3,0l0,-2c-1,1.4 -2.5,2.3 -4.4,2.3c-3.4,0 -5.8,-2.7 -5.8,-6.6c0,-3.9 2.4,-6.6 5.8,-6.6c1.9,0 3.4,0.8 4.4,2.3l0,-6.4l3,0l0,-0.1zm-3,10.7c0,-2.4 -1.5,-4.1 -3.6,-4.1c-2.1,0 -3.6,1.7 -3.6,4.1c0,2.4 1.5,4.1 3.6,4.1c2.1,0 3.6,-1.7 3.6,-4.1z" class="st6"/>
    </g>
    <g id="svg_395">
     <path id="svg_396" d="m2103.7,688.8c0,-3.6 3.1,-6.6 6.8,-6.6c3.7,0 6.8,3 6.8,6.6c0,3.6 -3.1,6.6 -6.8,6.6c-3.7,0.1 -6.8,-3 -6.8,-6.6zm10.6,0c0,-2.2 -1.8,-4.1 -3.8,-4.1c-2.1,0 -3.9,1.9 -3.9,4.1c0,2.2 1.8,4.1 3.9,4.1c2,0 3.8,-1.8 3.8,-4.1z" class="st6"/>
    </g>
    <g id="svg_397">
     <path id="svg_398" d="m2119.1,678.9c0,-0.9 0.8,-1.7 1.7,-1.7c0.9,0 1.7,0.8 1.7,1.7s-0.8,1.7 -1.7,1.7c-0.9,0 -1.7,-0.8 -1.7,-1.7zm0.2,3.6l3,0l0,12.7l-3,0l0,-12.7z" class="st6"/>
    </g>
    <g id="svg_399">
     <path id="svg_400" d="m2136.8,687.1l0,8.1l-2.9,0l0,-7.5c0,-1.7 -1.1,-2.9 -2.7,-2.9c-1.6,0 -2.9,1.1 -3.1,2.4l0,8l-3,0l0,-12.7l3,0l0,1.7c0.8,-1.2 2.3,-2 3.9,-2c2.8,0 4.8,2.1 4.8,4.9z" class="st6"/>
    </g>
    <g id="svg_401">
     <path id="svg_402" d="m2151.9,682.5l0,11.3c0,3.3 -2.7,5.6 -6.6,5.6c-2.2,0 -4.2,-0.7 -5.4,-1.7l1.1,-2.2c0.9,0.8 2.4,1.3 3.9,1.3c2.5,0 4.1,-1.2 4.1,-3.1l0,-1.6c-1,1.3 -2.5,2.2 -4.3,2.2c-3.3,0 -5.7,-2.5 -5.7,-6c0,-3.5 2.4,-6 5.7,-6c1.8,0 3.4,0.8 4.3,2.2l0,-1.9l2.9,0l0,-0.1zm-3,5.7c0,-2 -1.4,-3.5 -3.5,-3.5c-2,0 -3.5,1.4 -3.5,3.5c0,2 1.4,3.5 3.5,3.5c2.1,0 3.5,-1.4 3.5,-3.5z" class="st6"/>
    </g>
    <g id="svg_403">
     <path id="svg_404" d="m2161.2,678.1l3,0l0,17.1l-3,0l0,-17.1z" class="st6"/>
    </g>
    <g id="svg_405">
     <path id="svg_406" d="m2176.2,691.6l1.9,2c-1.1,1.2 -3.3,2 -5.1,2c-3.6,0 -6.6,-2.8 -6.6,-6.7c0,-3.8 2.8,-6.6 6.4,-6.6c3.9,0 6.2,3 6.2,7.6l-9.6,0c0.4,1.7 1.7,3 3.5,3c1.2,-0.1 2.6,-0.6 3.3,-1.3zm-6.7,-4l6.7,0c-0.3,-1.6 -1.4,-2.7 -3.2,-2.7c-1.7,0 -3.1,1 -3.5,2.7z" class="st6"/>
    </g>
    <g id="svg_407">
     <path id="svg_408" d="m2180.2,693.6l1.3,-2.1c1.2,0.9 2.6,1.5 4.2,1.5c1.2,0 2,-0.5 2,-1.3c0,-1 -1.1,-1.3 -2.5,-1.7c-2.7,-0.7 -4.5,-1.5 -4.5,-3.7c0,-2.4 2,-4 4.8,-4c1.7,0 3.5,0.6 4.9,1.5l-1.3,2.2c-1.2,-0.8 -2.5,-1.2 -3.6,-1.2c-1.1,0 -1.9,0.4 -1.9,1.1c0,0.8 0.7,1.1 2.6,1.6c2.1,0.6 4.4,1.3 4.4,4c0,2.4 -2,4 -5,4c-1.8,0 -3.8,-0.7 -5.4,-1.9z" class="st6"/>
    </g>
    <g id="svg_409">
     <path id="svg_410" d="m2192,693.6l1.3,-2.1c1.2,0.9 2.6,1.5 4.2,1.5c1.2,0 2,-0.5 2,-1.3c0,-1 -1.1,-1.3 -2.5,-1.7c-2.7,-0.7 -4.5,-1.5 -4.5,-3.7c0,-2.4 2,-4 4.8,-4c1.7,0 3.5,0.6 4.9,1.5l-1.2,2.2c-1.2,-0.8 -2.5,-1.2 -3.6,-1.2c-1.1,0 -1.9,0.4 -1.9,1.1c0,0.8 0.7,1.1 2.6,1.6c2.1,0.6 4.4,1.3 4.4,4c0,2.4 -2,4 -5,4c-1.9,0 -4,-0.7 -5.5,-1.9z" class="st6"/>
    </g>
    <g id="svg_411">
     <path id="svg_412" d="m2204.5,693.5c0,-1 0.8,-1.9 2,-1.9c1,0 1.9,0.9 1.9,1.9c0,1.1 -0.9,2 -1.9,2c-1.2,0 -2,-0.9 -2,-2z" class="st6"/>
    </g>
   </g>
  </g>
  <g id="svg_413">
   <g id="svg_414">
    <g id="svg_415">
     <path id="svg_416" d="m2717.7,1044l20.6,0l29.9,54.5l29.8,-54.5l20.8,0l0,96.4l-20.8,0l0,-60.1l-29.8,54.5l-29.9,-54.5l0,60.1l-20.6,0l0,-96.4z" class="st8"/>
    </g>
    <g id="svg_417">
     <path id="svg_418" d="m2829.7,1104.1c0,-20.6 18.1,-37.9 39.7,-37.9c21.5,0 39.4,17.3 39.4,37.9s-18,38 -39.4,38c-21.6,0.1 -39.7,-17.3 -39.7,-38zm59.6,0c0,-11.2 -9.1,-20.6 -19.9,-20.6c-10.9,0 -20.1,9.4 -20.1,20.6s9.1,20.8 20.1,20.8c10.8,0 19.9,-9.6 19.9,-20.8z" class="st8"/>
    </g>
    <g id="svg_419">
     <path id="svg_420" d="m2988.8,1094.3l0,46.2l-19.8,0l0,-41.8c0,-9 -5.6,-15.2 -13.8,-15.2c-8.6,0 -15.2,6.2 -15.2,14l-0.1,-0.4l0,43.4l-20.5,0l0,-72.6l20.5,0l0,9.1c4.3,-6.6 12.5,-10.8 21.9,-10.8c15.8,0 27,11.7 27,28.1z" class="st8"/>
    </g>
    <g id="svg_421">
     <path id="svg_422" d="m3053.7,1117.6l13.1,13.3c-6.5,6.7 -18.9,11.2 -29.6,11.2c-21.6,0 -38.5,-15.9 -38.5,-38.2c0,-21.9 16.1,-37.8 37.3,-37.8c22.7,0 36.1,17.3 36.1,44.6l-52.4,0c2.4,7.9 8.7,13.2 17.3,13.2c5.8,0.1 12.8,-2.5 16.7,-6.3zm-33.7,-21.5l32.4,0c-2,-7.2 -7.3,-11.8 -15.6,-11.8c-7.6,0 -14.1,4.5 -16.8,11.8z" class="st8"/>
    </g>
    <g id="svg_423">
     <path id="svg_424" d="m3123.2,1135.8c-4.2,3.8 -10.8,6.3 -16.7,6.3c-12.8,0 -21.8,-9.1 -21.8,-22.2l0,-35.5l-10,0l0,-16.6l10,0l0,-19.8l19.7,0l0,19.9l15.7,0l0,16.6l-15.7,0l0,32.3c0,4.8 3.1,8.1 6.9,8.1c2.8,0 5.6,-1 7,-2.4l4.9,13.3z" class="st8"/>
    </g>
    <g id="svg_425">
     <path id="svg_426" d="m3168.3,1135.8c-4.2,3.8 -10.8,6.3 -16.7,6.3c-12.8,0 -21.8,-9.1 -21.8,-22.2l0,-35.5l-10,0l0,-16.6l10,0l0,-19.8l19.7,0l0,19.9l15.7,0l0,16.6l-15.7,0l0,32.3c0,4.8 3.1,8.1 6.9,8.1c2.8,0 5.6,-1 7,-2.4l4.9,13.3z" class="st8"/>
    </g>
    <g id="svg_427">
     <path id="svg_428" d="m3243.3,1097.1l0,43.4l-19.8,0l0,-7.3c-5.2,5.9 -13.5,9 -21.3,9c-15.4,0 -27.4,-9.3 -27.4,-23.2c0,-14.3 13.3,-24.1 30.2,-24.1c5.9,0 12.4,1.3 18.5,3.7l0,-1.4c0,-7.7 -4.8,-14.5 -16.7,-14.5c-6.7,0 -13.1,2.2 -18.8,5.2l-6.9,-13.6c10.2,-5.2 20.2,-8 30.3,-8c18.9,-0.1 31.9,11.9 31.9,30.8zm-19.8,20.5l0,-6.7c-4.6,-1.7 -10,-2.7 -15.6,-2.7c-7.4,0 -13.3,4.3 -13.3,10.2c0,5.9 5.2,9.5 12.2,9.5c7.8,0.1 15.3,-3.6 16.7,-10.3z" class="st8"/>
    </g>
   </g>
   <g id="svg_429">
    <g id="svg_430">
     <path id="svg_431" d="m2602.7,991.4l-44.7,-25.8c-0.6,-0.4 -1.3,-0.5 -2,-0.5s-1.4,0.2 -2,0.5l-45,26c-1.6,1.1 -1.5,3.5 0.2,4.5l46.8,27l46.7,-27c1.8,-1.1 1.8,-3.7 0,-4.7z" class="st8"/>
    </g>
    <g id="svg_432">
     <path id="svg_433" d="m2445,1095.7c0,1.4 0.8,2.7 2,3.5l48.7,28.2l0,-56.4c0,-1.3 -0.7,-2.5 -1.7,-3.2l-28,-16.1l-17,-9.8c-0.4,-0.2 -0.9,-0.4 -1.3,-0.4c-1.4,0 -2.7,1.1 -2.7,2.7l0,51.5z" class="st8"/>
    </g>
    <g id="svg_434">
     <path id="svg_435" d="m2653.5,1020.7l-47.5,-27.4c0,0.1 0,0.3 0,0.4c0,1.7 -0.9,3.2 -2.3,4l-45.7,26.4l46.8,27c1.2,0.7 2.8,0.7 4,0l44.7,-25.8c1.8,-1 1.8,-3.6 0,-4.6z" class="st8"/>
    </g>
    <g id="svg_436">
     <g id="svg_437">
      <path id="svg_438" d="m2494.7,1068.3c-0.2,-0.2 -0.5,-0.5 -0.7,-0.6l0,0c0.2,0.2 0.5,0.4 0.7,0.6z" class="st8"/>
     </g>
     <g id="svg_439">
      <path id="svg_440" d="m2544.5,1096.9l-47,-27.1c0.1,0.4 0.1,0.8 0.1,1.2l0,56.4l0,1.2l44.8,25.9c1.8,1 4,-0.3 4,-2.3l0,-51.8c0.1,-1.5 -0.6,-2.8 -1.9,-3.5z" class="st8"/>
     </g>
    </g>
    <g id="svg_441">
     <g id="svg_442">
      <path id="svg_443" d="m2509.2,996l23.4,13.5l-23.4,-13.5c-0.4,-0.2 -0.7,-0.6 -1,-1c0.3,0.4 0.6,0.7 1,1z" class="st8"/>
     </g>
     <g id="svg_444">
      <path id="svg_445" d="m2508.2,997.7c-1.4,-0.8 -2.2,-2.2 -2.3,-3.8c0,-0.2 0,-0.4 0,-0.6l-47.4,27.4c-1.8,1 -1.8,3.6 0,4.6l44.7,25.8c1.2,0.7 2.8,0.7 4,0l46.8,-27l-45.8,-26.4z" class="st8"/>
     </g>
    </g>
    <g id="svg_446">
     <path id="svg_447" d="m2494.7,1129.1l-48.7,-28.2c-0.4,-0.2 -0.7,-0.5 -1,-0.7l0,54.3c0,1.4 0.8,2.7 2,3.5l44.7,25.8c1.8,1 4,-0.3 4,-2.3l0,-51.8l-1,-0.6z" class="st8"/>
    </g>
    <g id="svg_448">
     <path id="svg_449" d="m2667,1095.7c0,1.4 -0.8,2.7 -2,3.5l-48.7,28.2l0,-56.4c0,-1.3 0.7,-2.5 1.7,-3.2l28,-16.1l17,-9.8c0.4,-0.2 0.9,-0.4 1.3,-0.4c1.4,0 2.7,1.1 2.7,2.7l0,51.5z" class="st8"/>
    </g>
    <g id="svg_450">
     <g id="svg_451">
      <path id="svg_452" d="m2617.3,1068.3c0.2,-0.2 0.5,-0.5 0.7,-0.6l0,0c-0.3,0.2 -0.5,0.4 -0.7,0.6z" class="st8"/>
     </g>
     <g id="svg_453">
      <path id="svg_454" d="m2567.5,1096.9l47,-27.1c-0.1,0.4 -0.1,0.8 -0.1,1.2l0,56.4l0,1.2l-44.8,25.9c-1.8,1 -4,-0.3 -4,-2.3l0,-51.8c-0.1,-1.5 0.6,-2.8 1.9,-3.5z" class="st8"/>
     </g>
    </g>
    <g id="svg_455">
     <path id="svg_456" d="m2617.3,1129.1l48.7,-28.2c0.4,-0.2 0.7,-0.5 1,-0.7l0,54.3c0,1.4 -0.8,2.7 -2,3.5l-44.7,25.8c-1.8,1 -4,-0.3 -4,-2.3l0,-51.8l1,-0.6z" class="st8"/>
    </g>
   </g>
  </g>
  <g id="svg_457">
   <g id="svg_458">
    <g id="svg_459">
     <path id="svg_460" d="m1569.2,991.4l-44.7,-25.8c-0.6,-0.4 -1.3,-0.5 -2,-0.5s-1.4,0.2 -2,0.5l-45,26c-1.6,1.1 -1.5,3.5 0.2,4.5l46.8,27l46.7,-27c1.8,-1.1 1.8,-3.7 0,-4.7z" class="st8"/>
    </g>
    <g id="svg_461">
     <path id="svg_462" d="m1411.5,1095.7c0,1.4 0.8,2.7 2,3.5l48.7,28.2l0,-56.4c0,-1.3 -0.7,-2.5 -1.7,-3.2l-28,-16.1l-17,-9.8c-0.4,-0.2 -0.9,-0.4 -1.3,-0.4c-1.4,0 -2.7,1.1 -2.7,2.7l0,51.5z" class="st8"/>
    </g>
    <g id="svg_463">
     <path id="svg_464" d="m1620,1020.7l-47.5,-27.4c0,0.1 0,0.3 0,0.4c0,1.7 -0.9,3.2 -2.3,4l-45.7,26.4l46.8,27c1.2,0.7 2.8,0.7 4,0l44.7,-25.8c1.8,-1 1.8,-3.6 0,-4.6z" class="st8"/>
    </g>
    <g id="svg_465">
     <g id="svg_466">
      <path id="svg_467" d="m1461.2,1068.3c-0.2,-0.2 -0.5,-0.5 -0.7,-0.6l0,0c0.2,0.2 0.5,0.4 0.7,0.6z" class="st8"/>
     </g>
     <g id="svg_468">
      <path id="svg_469" d="m1511,1096.9l-47,-27.1c0.1,0.4 0.1,0.8 0.1,1.2l0,56.4l0,1.2l44.8,25.9c1.8,1 4,-0.3 4,-2.3l0,-51.8c0.1,-1.5 -0.7,-2.8 -1.9,-3.5z" class="st8"/>
     </g>
    </g>
    <g id="svg_470">
     <g id="svg_471">
      <path id="svg_472" d="m1475.7,996l23.4,13.5l-23.4,-13.5c-0.4,-0.2 -0.7,-0.6 -1,-1c0.3,0.4 0.6,0.7 1,1z" class="st8"/>
     </g>
     <g id="svg_473">
      <path id="svg_474" d="m1474.7,997.7c-1.4,-0.8 -2.2,-2.2 -2.3,-3.8c0,-0.2 0,-0.4 0,-0.6l-47.4,27.4c-1.8,1 -1.8,3.6 0,4.6l44.7,25.8c1.2,0.7 2.8,0.7 4,0l46.8,-27l-45.8,-26.4z" class="st8"/>
     </g>
    </g>
    <g id="svg_475">
     <path id="svg_476" d="m1461.2,1129.1l-48.7,-28.2c-0.4,-0.2 -0.7,-0.5 -1,-0.7l0,54.3c0,1.4 0.8,2.7 2,3.5l44.7,25.8c1.8,1 4,-0.3 4,-2.3l0,-51.8l-1,-0.6z" class="st8"/>
    </g>
    <g id="svg_477">
     <path id="svg_478" d="m1633.5,1095.7c0,1.4 -0.8,2.7 -2,3.5l-48.7,28.2l0,-56.4c0,-1.3 0.7,-2.5 1.7,-3.2l28,-16.1l17,-9.8c0.4,-0.2 0.9,-0.4 1.3,-0.4c1.4,0 2.7,1.1 2.7,2.7l0,51.5z" class="st8"/>
    </g>
    <g id="svg_479">
     <g id="svg_480">
      <path id="svg_481" d="m1583.8,1068.3c0.2,-0.2 0.5,-0.5 0.7,-0.6l0,0c-0.3,0.2 -0.5,0.4 -0.7,0.6z" class="st8"/>
     </g>
     <g id="svg_482">
      <path id="svg_483" d="m1533.9,1096.9l47,-27.1c-0.1,0.4 -0.1,0.8 -0.1,1.2l0,56.4l0,1.2l-44.8,25.9c-1.8,1 -4,-0.3 -4,-2.3l0,-51.8c-0.1,-1.5 0.7,-2.8 1.9,-3.5z" class="st8"/>
     </g>
    </g>
    <g id="svg_484">
     <path id="svg_485" d="m1583.8,1129.1l48.7,-28.2c0.4,-0.2 0.7,-0.5 1,-0.7l0,54.3c0,1.4 -0.8,2.7 -2,3.5l-44.7,25.8c-1.8,1 -4,-0.3 -4,-2.3l0,-51.8l1,-0.6z" class="st8"/>
    </g>
   </g>
   <g id="svg_486">
    <g id="svg_487">
     <path id="svg_488" d="m1684.2,1044l20.6,0l29.9,54.4l29.7,-54.4l20.8,0l0,96.3l-20.8,0l0,-60l-29.7,54.4l-29.9,-54.4l0,60l-20.6,0l0,-96.3z" class="st8"/>
    </g>
    <g id="svg_489">
     <path id="svg_490" d="m1796,1104.1c0,-20.6 18.1,-37.9 39.7,-37.9c21.5,0 39.4,17.2 39.4,37.9c0,20.6 -17.9,38 -39.4,38c-21.6,0 -39.7,-17.4 -39.7,-38zm59.6,0c0,-11.2 -9.1,-20.6 -19.9,-20.6c-10.9,0 -20.1,9.4 -20.1,20.6s9.1,20.8 20.1,20.8c10.8,-0.1 19.9,-9.6 19.9,-20.8z" class="st8"/>
    </g>
    <g id="svg_491">
     <path id="svg_492" d="m1955,1094.2l0,46.1l-19.8,0l0,-41.8c0,-9 -5.6,-15.1 -13.7,-15.1c-8.6,0 -15.1,6.2 -15.1,14l-0.1,-0.4l0,43.3l-20.5,0l0,-72.5l20.5,0l0,9.1c4.3,-6.6 12.5,-10.8 21.9,-10.8c15.6,0.1 26.8,11.7 26.8,28.1z" class="st8"/>
    </g>
    <g id="svg_493">
     <path id="svg_494" d="m2019.9,1117.5l13,13.3c-6.4,6.7 -18.9,11.2 -29.6,11.2c-21.6,0 -38.4,-15.8 -38.4,-38.1c0,-21.9 16.1,-37.7 37.3,-37.7c22.7,0 36,17.2 36,44.6l-52.2,0c2.4,7.9 8.7,13.2 17.2,13.2c5.8,0 12.8,-2.7 16.7,-6.5zm-33.7,-21.4l32.4,0c-2,-7.2 -7.3,-11.8 -15.6,-11.8c-7.6,0 -14.1,4.5 -16.8,11.8z" class="st8"/>
    </g>
    <g id="svg_495">
     <path id="svg_496" d="m2089.3,1135.8c-4.2,3.8 -10.8,6.3 -16.7,6.3c-12.8,0 -21.7,-9.1 -21.7,-22.2l0,-35.5l-10,0l0,-16.5l10,0l0,-19.9l19.6,0l0,19.9l15.7,0l0,16.5l-15.7,0l0,32.3c0,4.8 3.1,8.1 6.9,8.1c2.8,0 5.6,-1 7,-2.4l4.9,13.4z" class="st8"/>
    </g>
    <g id="svg_497">
     <path id="svg_498" d="m2134.3,1135.8c-4.2,3.8 -10.8,6.3 -16.7,6.3c-12.8,0 -21.7,-9.1 -21.7,-22.2l0,-35.5l-10,0l0,-16.5l10,0l0,-19.9l19.6,0l0,19.9l15.7,0l0,16.5l-15.7,0l0,32.3c0,4.8 3.1,8.1 6.9,8.1c2.8,0 5.6,-1 7,-2.4l4.9,13.4z" class="st8"/>
    </g>
    <g id="svg_499">
     <path id="svg_500" d="m2209.3,1097.1l0,43.3l-19.8,0l0,-7.3c-5.2,5.9 -13.5,9 -21.3,9c-15.4,0 -27.3,-9.3 -27.3,-23.1c0,-14.3 13.3,-24.1 30.2,-24.1c5.9,0 12.3,1.3 18.5,3.6l0,-1.4c0,-7.7 -4.8,-14.4 -16.7,-14.4c-6.7,0 -13,2.2 -18.8,5.2l-6.9,-13.6c10.2,-5.2 20.2,-8 30.3,-8c18.9,-0.1 31.8,11.8 31.8,30.8zm-19.8,20.4l0,-6.7c-4.6,-1.7 -10,-2.7 -15.6,-2.7c-7.4,0 -13.3,4.3 -13.3,10.2c0,5.9 5.2,9.5 12.2,9.5c7.9,0.1 15.3,-3.5 16.7,-10.3z" class="st8"/>
    </g>
   </g>
   <g id="svg_501">
    <g id="svg_502">
     <path id="svg_503" d="m1693.7,1169.8l7.2,0l0,6.8c-1.6,1.7 -4.2,2.7 -6.7,2.7c-4.8,0 -8.9,-4 -8.9,-8.7c0,-4.7 4.1,-8.7 8.9,-8.7c2.4,0 5.1,1 6.7,2.7l-2.2,2c-1.1,-1.2 -2.9,-2 -4.5,-2c-3.1,0 -5.8,2.7 -5.8,5.9c0,3.2 2.6,5.9 5.8,5.9c1.3,0 2.6,-0.4 3.7,-1.2l0,-3.1l-4.2,0l0,-2.3z" class="st8"/>
    </g>
    <g id="svg_504">
     <path id="svg_505" d="m1712.8,1175.4l1.9,2c-1.1,1.2 -3.3,2 -5.1,2c-3.6,0 -6.6,-2.8 -6.6,-6.7c0,-3.8 2.8,-6.6 6.4,-6.6c3.9,0 6.2,3 6.2,7.6l-9.6,0c0.4,1.7 1.7,3 3.5,3c1.1,0 2.5,-0.5 3.3,-1.3zm-6.8,-3.9l6.7,0c-0.3,-1.6 -1.4,-2.7 -3.2,-2.7c-1.7,0 -3.1,1 -3.5,2.7z" class="st8"/>
    </g>
    <g id="svg_506">
     <path id="svg_507" d="m1724.8,1178.4c-0.7,0.6 -1.7,1 -2.7,1c-2.1,0 -3.6,-1.5 -3.6,-3.6l0,-6.8l-1.8,0l0,-2.5l1.8,0l0,-3.5l2.9,0l0,3.5l2.9,0l0,2.5l-2.9,0l0,6.5c0,0.9 0.5,1.5 1.2,1.5c0.5,0 1,-0.2 1.2,-0.5l1,1.9z" class="st8"/>
    </g>
    <g id="svg_508">
     <path id="svg_509" d="m1752.3,1171l0,8.1l-2.9,0l0,-7.6c0,-1.7 -1,-2.8 -2.4,-2.8c-1.6,0 -2.8,1.1 -2.8,2.6l0,7.8l-2.9,0l0,-7.6c0,-1.7 -1,-2.8 -2.5,-2.8c-1.6,0 -2.8,1.1 -2.8,2.6l0,7.8l-3,0l0,-12.7l3,0l0,1.7c0.6,-1.2 1.9,-2 3.5,-2c1.8,0 3.3,0.9 4,2.4c0.6,-1.5 2.2,-2.4 4.1,-2.4c2.8,0 4.7,2 4.7,4.9z" class="st8"/>
    </g>
    <g id="svg_510">
     <path id="svg_511" d="m1754.4,1172.7c0,-3.6 3.1,-6.6 6.8,-6.6c3.7,0 6.8,3 6.8,6.6c0,3.6 -3.1,6.6 -6.8,6.6c-3.7,0.1 -6.8,-3 -6.8,-6.6zm10.7,0c0,-2.2 -1.8,-4.1 -3.8,-4.1c-2.1,0 -3.9,1.9 -3.9,4.1c0,2.2 1.8,4.1 3.9,4.1c2,0 3.8,-1.9 3.8,-4.1z" class="st8"/>
    </g>
    <g id="svg_512">
     <path id="svg_513" d="m1777.7,1166.1l0,2.5c-2.7,0 -4.5,1.6 -4.5,4l0,6.4l-3,0l0,-12.7l3,0l0,2.4c0.8,-1.5 2.4,-2.6 4.5,-2.6z" class="st8"/>
    </g>
    <g id="svg_514">
     <path id="svg_515" d="m1788.6,1175.4l1.9,2c-1.1,1.2 -3.3,2 -5.1,2c-3.6,0 -6.6,-2.8 -6.6,-6.7c0,-3.8 2.8,-6.6 6.4,-6.6c3.9,0 6.2,3 6.2,7.6l-9.6,0c0.4,1.7 1.7,3 3.5,3c1.2,0 2.6,-0.5 3.3,-1.3zm-6.8,-3.9l6.7,0c-0.3,-1.6 -1.4,-2.7 -3.2,-2.7c-1.7,0 -3,1 -3.5,2.7z" class="st8"/>
    </g>
    <g id="svg_516">
     <path id="svg_517" d="m1799.3,1172.7c0,-3.6 3.1,-6.6 6.8,-6.6c3.7,0 6.8,3 6.8,6.6c0,3.6 -3.1,6.6 -6.8,6.6c-3.7,0.1 -6.8,-3 -6.8,-6.6zm10.6,0c0,-2.2 -1.8,-4.1 -3.8,-4.1c-2.1,0 -3.9,1.9 -3.9,4.1c0,2.2 1.8,4.1 3.9,4.1c2,0 3.8,-1.9 3.8,-4.1z" class="st8"/>
    </g>
    <g id="svg_518">
     <path id="svg_519" d="m1826.5,1166.4l0,12.7l-3,0l0,-1.7c-0.8,1.2 -2.3,2 -3.9,2c-2.8,0 -4.7,-2 -4.7,-4.9l0,-8.1l2.9,0l0,7.5c0,1.7 1.1,2.9 2.7,2.9s2.9,-1.1 3.1,-2.4l0,-8l2.9,0z" class="st8"/>
    </g>
    <g id="svg_520">
     <path id="svg_521" d="m1836.5,1178.4c-0.7,0.6 -1.7,1 -2.7,1c-2.1,0 -3.6,-1.5 -3.6,-3.6l0,-6.8l-1.8,0l0,-2.5l1.8,0l0,-3.5l2.9,0l0,3.5l2.9,0l0,2.5l-2.9,0l0,6.5c0,0.9 0.5,1.5 1.2,1.5c0.5,0 1,-0.2 1.2,-0.5l1,1.9z" class="st8"/>
    </g>
    <g id="svg_522">
     <path id="svg_523" d="m1844.1,1172.7c0,-3.6 3.1,-6.6 6.8,-6.6c3.7,0 6.8,3 6.8,6.6c0,3.6 -3.1,6.6 -6.8,6.6c-3.7,0.1 -6.8,-3 -6.8,-6.6zm10.6,0c0,-2.2 -1.8,-4.1 -3.8,-4.1c-2.1,0 -3.9,1.9 -3.9,4.1c0,2.2 1.8,4.1 3.9,4.1c2.1,0 3.8,-1.9 3.8,-4.1z" class="st8"/>
    </g>
    <g id="svg_524">
     <path id="svg_525" d="m1863.6,1166.4l2.9,0l0,2.5l-2.9,0l0,10.2l-2.9,0l0,-10.2l-1.8,0l0,-2.5l1.8,0l0,-1.3c0,-2.1 1.5,-3.7 3.6,-3.7c1,0 2,0.4 2.7,1l-0.9,1.9c-0.3,-0.3 -0.7,-0.5 -1.2,-0.5c-0.7,0 -1.2,0.6 -1.2,1.5l0,1.1l-0.1,0z" class="st8"/>
    </g>
    <g id="svg_526">
     <path id="svg_527" d="m1874.6,1182.8l0.6,-2.2c0.5,0.3 1.2,0.5 1.6,0.5c0.7,0 1.2,-0.2 1.6,-0.8l0.5,-1.1l-5.4,-12.8l3.2,0l3.7,9.5l3.5,-9.5l3.1,0l-5.4,13.5c-1,2.4 -2.4,3.5 -4.3,3.5c-0.9,0.1 -2,-0.2 -2.7,-0.6z" class="st8"/>
    </g>
    <g id="svg_528">
     <path id="svg_529" d="m1887.7,1172.7c0,-3.6 3.1,-6.6 6.8,-6.6c3.7,0 6.8,3 6.8,6.6c0,3.6 -3.1,6.6 -6.8,6.6c-3.7,0.1 -6.8,-3 -6.8,-6.6zm10.6,0c0,-2.2 -1.8,-4.1 -3.8,-4.1c-2.1,0 -3.9,1.9 -3.9,4.1c0,2.2 1.8,4.1 3.9,4.1c2.1,0 3.8,-1.9 3.8,-4.1z" class="st8"/>
    </g>
    <g id="svg_530">
     <path id="svg_531" d="m1915,1166.4l0,12.7l-3,0l0,-1.7c-0.8,1.2 -2.3,2 -3.9,2c-2.8,0 -4.7,-2 -4.7,-4.9l0,-8.1l2.9,0l0,7.5c0,1.7 1.1,2.9 2.7,2.9s2.9,-1.1 3.1,-2.4l0,-8l2.9,0z" class="st8"/>
    </g>
    <g id="svg_532">
     <path id="svg_533" d="m1925.3,1166.1l0,2.5c-2.7,0 -4.5,1.6 -4.5,4l0,6.4l-3,0l0,-12.7l3,0l0,2.4c0.8,-1.5 2.5,-2.6 4.5,-2.6z" class="st8"/>
    </g>
    <g id="svg_534">
     <path id="svg_535" d="m1952.8,1171l0,8.1l-2.9,0l0,-7.6c0,-1.7 -1,-2.8 -2.4,-2.8c-1.6,0 -2.8,1.1 -2.8,2.6l0,7.8l-2.9,0l0,-7.6c0,-1.7 -1,-2.8 -2.5,-2.8c-1.6,0 -2.8,1.1 -2.8,2.6l0,7.8l-3,0l0,-12.7l3,0l0,1.7c0.6,-1.2 1.9,-2 3.5,-2c1.8,0 3.3,0.9 4,2.4c0.6,-1.5 2.2,-2.4 4.1,-2.4c2.7,0 4.7,2 4.7,4.9z" class="st8"/>
    </g>
    <g id="svg_536">
     <path id="svg_537" d="m1964.7,1175.4l1.9,2c-1.1,1.2 -3.3,2 -5.1,2c-3.6,0 -6.6,-2.8 -6.6,-6.7c0,-3.8 2.8,-6.6 6.4,-6.6c3.9,0 6.2,3 6.2,7.6l-9.6,0c0.4,1.7 1.7,3 3.5,3c1.2,0 2.6,-0.5 3.3,-1.3zm-6.8,-3.9l6.7,0c-0.3,-1.6 -1.4,-2.7 -3.2,-2.7c-1.7,0 -3,1 -3.5,2.7z" class="st8"/>
    </g>
    <g id="svg_538">
     <path id="svg_539" d="m1978.7,1175.4l1.9,2c-1.1,1.2 -3.3,2 -5.1,2c-3.6,0 -6.6,-2.8 -6.6,-6.7c0,-3.8 2.8,-6.6 6.4,-6.6c3.9,0 6.2,3 6.2,7.6l-9.6,0c0.4,1.7 1.7,3 3.5,3c1.2,0 2.6,-0.5 3.3,-1.3zm-6.7,-3.9l6.7,0c-0.3,-1.6 -1.4,-2.7 -3.2,-2.7c-1.7,0 -3.1,1 -3.5,2.7z" class="st8"/>
    </g>
    <g id="svg_540">
     <path id="svg_541" d="m1990.8,1178.4c-0.7,0.6 -1.7,1 -2.7,1c-2.1,0 -3.6,-1.5 -3.6,-3.6l0,-6.8l-1.8,0l0,-2.5l1.8,0l0,-3.5l2.9,0l0,3.5l2.9,0l0,2.5l-2.9,0l0,6.5c0,0.9 0.5,1.5 1.2,1.5c0.5,0 1,-0.2 1.2,-0.5l1,1.9z" class="st8"/>
    </g>
    <g id="svg_542">
     <path id="svg_543" d="m1992.4,1162.8c0,-0.9 0.8,-1.7 1.7,-1.7c0.9,0 1.7,0.8 1.7,1.7c0,0.9 -0.8,1.7 -1.7,1.7c-0.9,0 -1.7,-0.8 -1.7,-1.7zm0.2,3.6l3,0l0,12.7l-3,0l0,-12.7z" class="st8"/>
    </g>
    <g id="svg_544">
     <path id="svg_545" d="m2010.1,1171l0,8.1l-2.9,0l0,-7.5c0,-1.7 -1.1,-2.9 -2.7,-2.9s-2.9,1.1 -3.1,2.4l0,8l-3,0l0,-12.7l3,0l0,1.7c0.8,-1.2 2.3,-2 3.9,-2c2.8,0 4.8,2 4.8,4.9z" class="st8"/>
    </g>
    <g id="svg_546">
     <path id="svg_547" d="m2025.2,1166.4l0,11.3c0,3.3 -2.7,5.6 -6.6,5.6c-2.2,0 -4.2,-0.7 -5.4,-1.7l1.1,-2.2c0.9,0.8 2.4,1.3 3.9,1.3c2.5,0 4.1,-1.2 4.1,-3.1l0,-1.6c-1,1.3 -2.5,2.2 -4.3,2.2c-3.3,0 -5.7,-2.5 -5.7,-6s2.4,-6 5.7,-6c1.8,0 3.4,0.8 4.3,2.2l0,-1.9l2.9,0l0,-0.1zm-3,5.7c0,-2 -1.4,-3.5 -3.5,-3.5c-2,0 -3.5,1.4 -3.5,3.5c0,2 1.4,3.5 3.5,3.5c2.1,0 3.5,-1.5 3.5,-3.5z" class="st8"/>
    </g>
    <g id="svg_548">
     <path id="svg_549" d="m2027.2,1177.4l1.3,-2.1c1.2,0.9 2.6,1.5 4.2,1.5c1.2,0 2,-0.5 2,-1.3c0,-1 -1.1,-1.3 -2.5,-1.7c-2.7,-0.7 -4.5,-1.5 -4.5,-3.7c0,-2.4 2,-4 4.8,-4c1.7,0 3.5,0.6 4.9,1.5l-1.2,2.2c-1.2,-0.8 -2.5,-1.2 -3.6,-1.2c-1.1,0 -1.9,0.4 -1.9,1.1c0,0.8 0.7,1.1 2.6,1.6c2.1,0.6 4.4,1.3 4.4,4c0,2.4 -2,4 -5,4c-1.9,0.1 -4,-0.6 -5.5,-1.9z" class="st8"/>
    </g>
    <g id="svg_550">
     <path id="svg_551" d="m2040.2,1181.7c0.7,-0.7 1.2,-1.5 1.4,-2.3c-1,0 -1.9,-0.9 -1.9,-1.9c0,-1 0.9,-1.9 1.9,-1.9c1.2,0 2.1,1.1 2.1,2.7c0,1.3 -0.7,2.6 -2.4,4.4l-1.1,-1z" class="st8"/>
    </g>
    <g id="svg_552">
     <path id="svg_553" d="m2066,1172.7c0,3.9 -2.4,6.6 -5.8,6.6c-1.9,0 -3.4,-0.9 -4.4,-2.3l0,2l-3,0l0,-17.1l3,0l0,6.5c1,-1.4 2.5,-2.3 4.4,-2.3c3.4,0 5.8,2.7 5.8,6.6zm-3,0c0,-2.4 -1.5,-4.1 -3.6,-4.1c-2.1,0 -3.6,1.7 -3.6,4.1c0,2.4 1.5,4.1 3.6,4.1c2.1,0 3.6,-1.7 3.6,-4.1z" class="st8"/>
    </g>
    <g id="svg_554">
     <path id="svg_555" d="m2068,1182.8l0.6,-2.2c0.5,0.3 1.2,0.5 1.6,0.5c0.7,0 1.2,-0.2 1.6,-0.8l0.5,-1.1l-5.4,-12.8l3.2,0l3.7,9.5l3.5,-9.5l3.1,0l-5.4,13.5c-1,2.4 -2.4,3.5 -4.3,3.5c-0.9,0.1 -1.9,-0.2 -2.7,-0.6z" class="st8"/>
    </g>
    <g id="svg_556">
     <path id="svg_557" d="m2101.5,1161.9l0,17.1l-3,0l0,-2c-1,1.4 -2.5,2.3 -4.4,2.3c-3.4,0 -5.8,-2.7 -5.8,-6.6c0,-3.9 2.4,-6.6 5.8,-6.6c1.9,0 3.4,0.8 4.4,2.3l0,-6.4l3,0l0,-0.1zm-3,10.8c0,-2.4 -1.5,-4.1 -3.6,-4.1c-2.1,0 -3.6,1.7 -3.6,4.1c0,2.4 1.5,4.1 3.6,4.1c2.1,0 3.6,-1.7 3.6,-4.1z" class="st8"/>
    </g>
    <g id="svg_558">
     <path id="svg_559" d="m2103.7,1172.7c0,-3.6 3.1,-6.6 6.8,-6.6c3.7,0 6.8,3 6.8,6.6c0,3.6 -3.1,6.6 -6.8,6.6c-3.7,0.1 -6.8,-3 -6.8,-6.6zm10.6,0c0,-2.2 -1.8,-4.1 -3.8,-4.1c-2.1,0 -3.9,1.9 -3.9,4.1c0,2.2 1.8,4.1 3.9,4.1c2,0 3.8,-1.9 3.8,-4.1z" class="st8"/>
    </g>
    <g id="svg_560">
     <path id="svg_561" d="m2119.1,1162.8c0,-0.9 0.8,-1.7 1.7,-1.7c0.9,0 1.7,0.8 1.7,1.7c0,0.9 -0.8,1.7 -1.7,1.7c-0.9,0 -1.7,-0.8 -1.7,-1.7zm0.2,3.6l3,0l0,12.7l-3,0l0,-12.7z" class="st8"/>
    </g>
    <g id="svg_562">
     <path id="svg_563" d="m2136.8,1171l0,8.1l-2.9,0l0,-7.5c0,-1.7 -1.1,-2.9 -2.7,-2.9c-1.6,0 -2.9,1.1 -3.1,2.4l0,8l-3,0l0,-12.7l3,0l0,1.7c0.8,-1.2 2.3,-2 3.9,-2c2.8,0 4.8,2 4.8,4.9z" class="st8"/>
    </g>
    <g id="svg_564">
     <path id="svg_565" d="m2151.9,1166.4l0,11.3c0,3.3 -2.7,5.6 -6.6,5.6c-2.2,0 -4.2,-0.7 -5.4,-1.7l1.1,-2.2c0.9,0.8 2.4,1.3 3.9,1.3c2.5,0 4.1,-1.2 4.1,-3.1l0,-1.6c-1,1.3 -2.5,2.2 -4.3,2.2c-3.3,0 -5.7,-2.5 -5.7,-6s2.4,-6 5.7,-6c1.8,0 3.4,0.8 4.3,2.2l0,-1.9l2.9,0l0,-0.1zm-3,5.7c0,-2 -1.4,-3.5 -3.5,-3.5c-2,0 -3.5,1.4 -3.5,3.5c0,2 1.4,3.5 3.5,3.5c2.1,0 3.5,-1.5 3.5,-3.5z" class="st8"/>
    </g>
    <g id="svg_566">
     <path id="svg_567" d="m2161.2,1161.9l3,0l0,17.1l-3,0l0,-17.1z" class="st8"/>
    </g>
    <g id="svg_568">
     <path id="svg_569" d="m2176.2,1175.4l1.9,2c-1.1,1.2 -3.3,2 -5.1,2c-3.6,0 -6.6,-2.8 -6.6,-6.7c0,-3.8 2.8,-6.6 6.4,-6.6c3.9,0 6.2,3 6.2,7.6l-9.6,0c0.4,1.7 1.7,3 3.5,3c1.2,0 2.6,-0.5 3.3,-1.3zm-6.7,-3.9l6.7,0c-0.3,-1.6 -1.4,-2.7 -3.2,-2.7c-1.7,0 -3.1,1 -3.5,2.7z" class="st8"/>
    </g>
    <g id="svg_570">
     <path id="svg_571" d="m2180.2,1177.4l1.3,-2.1c1.2,0.9 2.6,1.5 4.2,1.5c1.2,0 2,-0.5 2,-1.3c0,-1 -1.1,-1.3 -2.5,-1.7c-2.7,-0.7 -4.5,-1.5 -4.5,-3.7c0,-2.4 2,-4 4.8,-4c1.7,0 3.5,0.6 4.9,1.5l-1.3,2.2c-1.2,-0.8 -2.5,-1.2 -3.6,-1.2c-1.1,0 -1.9,0.4 -1.9,1.1c0,0.8 0.7,1.1 2.6,1.6c2.1,0.6 4.4,1.3 4.4,4c0,2.4 -2,4 -5,4c-1.8,0.1 -3.8,-0.6 -5.4,-1.9z" class="st8"/>
    </g>
    <g id="svg_572">
     <path id="svg_573" d="m2192,1177.4l1.3,-2.1c1.2,0.9 2.6,1.5 4.2,1.5c1.2,0 2,-0.5 2,-1.3c0,-1 -1.1,-1.3 -2.5,-1.7c-2.7,-0.7 -4.5,-1.5 -4.5,-3.7c0,-2.4 2,-4 4.8,-4c1.7,0 3.5,0.6 4.9,1.5l-1.2,2.2c-1.2,-0.8 -2.5,-1.2 -3.6,-1.2c-1.1,0 -1.9,0.4 -1.9,1.1c0,0.8 0.7,1.1 2.6,1.6c2.1,0.6 4.4,1.3 4.4,4c0,2.4 -2,4 -5,4c-1.9,0.1 -4,-0.6 -5.5,-1.9z" class="st8"/>
    </g>
    <g id="svg_574">
     <path id="svg_575" d="m2204.5,1177.4c0,-1 0.8,-1.9 2,-1.9c1,0 1.9,0.9 1.9,1.9c0,1.1 -0.9,2 -1.9,2c-1.2,0 -2,-0.9 -2,-2z" class="st8"/>
    </g>
   </g>
  </g>
  <g id="svg_576">
   <g id="svg_577">
    <path id="svg_578" d="m948.8,991.4l-44.7,-25.8c-0.6,-0.4 -1.3,-0.5 -2,-0.5s-1.4,0.2 -2,0.5l-45,26c-1.6,1.1 -1.5,3.5 0.2,4.5l46.8,27l46.7,-27c1.8,-1.1 1.8,-3.7 0,-4.7z" class="st8"/>
    <path id="svg_579" d="m791.1,1095.7c0,1.4 0.8,2.7 2,3.5l48.7,28.2l0,-56.4c0,-1.3 -0.7,-2.5 -1.7,-3.2l-28,-16.1l-17,-9.8c-0.4,-0.2 -0.9,-0.4 -1.3,-0.4c-1.4,0 -2.7,1.1 -2.7,2.7l0,51.5z" class="st8"/>
    <g id="svg_580">
     <path id="svg_581" d="m999.6,1020.7l-47.5,-27.4c0,0.1 0,0.3 0,0.4c0,1.7 -0.9,3.2 -2.3,4l-45.7,26.4l46.8,27c1.2,0.7 2.8,0.7 4,0l44.7,-25.8c1.7,-1 1.7,-3.6 0,-4.6z" class="st8"/>
    </g>
    <g id="svg_582">
     <g id="svg_583">
      <path id="svg_584" d="m840.8,1068.3c-0.2,-0.2 -0.5,-0.5 -0.7,-0.6l0,0c0.2,0.2 0.5,0.4 0.7,0.6z" class="st8"/>
     </g>
     <g id="svg_585">
      <path id="svg_586" d="m890.6,1096.9l-47,-27.1c0.1,0.4 0.1,0.8 0.1,1.2l0,56.4l0,1.2l44.8,25.9c1.8,1 4,-0.3 4,-2.3l0,-51.8c0.1,-1.5 -0.7,-2.8 -1.9,-3.5z" class="st8"/>
     </g>
    </g>
    <g id="svg_587">
     <g id="svg_588">
      <path id="svg_589" d="m855.3,996l23.4,13.5l-23.4,-13.5c-0.4,-0.2 -0.7,-0.6 -1,-1c0.3,0.4 0.6,0.7 1,1z" class="st8"/>
     </g>
     <g id="svg_590">
      <path id="svg_591" d="m854.3,997.7c-1.4,-0.8 -2.2,-2.2 -2.3,-3.8c0,-0.2 0,-0.4 0,-0.6l-47.4,27.4c-1.8,1 -1.8,3.6 0,4.6l44.7,25.8c1.2,0.7 2.8,0.7 4,0l46.8,-27l-45.8,-26.4z" class="st8"/>
     </g>
    </g>
    <g id="svg_592">
     <path id="svg_593" d="m840.8,1129.1l-48.7,-28.2c-0.4,-0.2 -0.7,-0.5 -1,-0.7l0,54.3c0,1.4 0.8,2.7 2,3.5l44.7,25.8c1.8,1 4,-0.3 4,-2.3l0,-51.8l-1,-0.6z" class="st8"/>
    </g>
    <path id="svg_594" d="m1013.1,1095.7c0,1.4 -0.8,2.7 -2,3.5l-48.7,28.2l0,-56.4c0,-1.3 0.7,-2.5 1.7,-3.2l28,-16.1l17,-9.8c0.4,-0.2 0.9,-0.4 1.3,-0.4c1.4,0 2.7,1.1 2.7,2.7l0,51.5z" class="st8"/>
    <g id="svg_595">
     <g id="svg_596">
      <path id="svg_597" d="m963.4,1068.3c0.2,-0.2 0.5,-0.5 0.7,-0.6l0,0c-0.3,0.2 -0.5,0.4 -0.7,0.6z" class="st8"/>
     </g>
     <g id="svg_598">
      <path id="svg_599" d="m913.5,1096.9l47,-27.1c-0.1,0.4 -0.1,0.8 -0.1,1.2l0,56.4l0,1.2l-44.8,25.9c-1.8,1 -4,-0.3 -4,-2.3l0,-51.8c-0.1,-1.5 0.7,-2.8 1.9,-3.5z" class="st8"/>
     </g>
    </g>
    <g id="svg_600">
     <path id="svg_601" d="m963.4,1129.1l48.7,-28.2c0.4,-0.2 0.7,-0.5 1,-0.7l0,54.3c0,1.4 -0.8,2.7 -2,3.5l-44.7,25.8c-1.8,1 -4,-0.3 -4,-2.3l0,-51.8l1,-0.6z" class="st8"/>
    </g>
   </g>
   <g id="svg_602">
    <path id="svg_603" d="m702.1,1218.8l15.7,0l22.8,41.5l22.6,-41.5l15.8,0l0,73.4l-15.8,0l0,-45.7l-22.6,41.5l-22.8,-41.5l0,45.7l-15.7,0l0,-73.4z" class="st8"/>
    <path id="svg_604" d="m787.3,1264.5c0,-15.7 13.8,-28.8 30.2,-28.8c16.3,0 30,13.1 30,28.8s-13.7,29 -30,29c-16.5,0 -30.2,-13.3 -30.2,-29zm45.4,0c0,-8.5 -6.9,-15.7 -15.2,-15.7c-8.3,0 -15.3,7.2 -15.3,15.7s6.9,15.8 15.3,15.8c8.2,0 15.2,-7.2 15.2,-15.8z" class="st8"/>
    <path id="svg_605" d="m908.4,1257l0,35.1l-15.1,0l0,-31.8c0,-6.8 -4.3,-11.5 -10.5,-11.5c-6.5,0 -11.5,4.7 -11.5,10.7l-0.1,-0.3l0,33l-15.6,0l0,-55.2l15.6,0l0,6.9c3.3,-5 9.5,-8.2 16.7,-8.2c11.9,0 20.5,8.8 20.5,21.3z" class="st8"/>
    <path id="svg_606" d="m957.8,1274.8l9.9,10.1c-4.9,5.1 -14.4,8.5 -22.5,8.5c-16.5,0 -29.3,-12.1 -29.3,-29.1c0,-16.7 12.3,-28.7 28.4,-28.7c17.3,0 27.5,13.1 27.5,34l-39.8,0c1.8,6 6.6,10 13.1,10c4.4,0.1 9.7,-1.9 12.7,-4.8zm-25.6,-16.4l24.7,0c-1.5,-5.4 -5.6,-9 -11.9,-9c-5.9,0.1 -10.8,3.5 -12.8,9z" class="st8"/>
    <path id="svg_607" d="m1010.7,1288.7c-3.2,2.9 -8.2,4.8 -12.7,4.8c-9.7,0 -16.6,-6.9 -16.6,-16.9l0,-27l-7.6,0l0,-12.6l7.6,0l0,-15.2l15,0l0,15.2l12,0l0,12.6l-12,0l0,24.6c0,3.6 2.4,6.2 5.2,6.2c2.1,0 4.3,-0.7 5.3,-1.8l3.8,10.1z" class="st8"/>
    <path id="svg_608" d="m1045,1288.7c-3.2,2.9 -8.2,4.8 -12.7,4.8c-9.7,0 -16.6,-6.9 -16.6,-16.9l0,-27l-7.6,0l0,-12.6l7.6,0l0,-15.2l15,0l0,15.2l12,0l0,12.6l-12,0l0,24.6c0,3.6 2.4,6.2 5.2,6.2c2.1,0 4.3,-0.7 5.3,-1.8l3.8,10.1z" class="st8"/>
    <path id="svg_609" d="m1102.1,1259.2l0,33l-15.1,0l0,-5.6c-4,4.5 -10.3,6.8 -16.2,6.8c-11.8,0 -20.8,-7.1 -20.8,-17.6c0,-10.9 10.2,-18.4 23,-18.4c4.5,0 9.4,1 14.1,2.8l0,-1.1c0,-5.9 -3.6,-11 -12.7,-11c-5.1,0 -9.9,1.7 -14.3,4l-5.2,-10.4c7.8,-4 15.4,-6.1 23.1,-6.1c14.2,0.1 24.1,9.2 24.1,23.6zm-15.1,15.6l0,-5.1c-3.5,-1.3 -7.6,-2 -11.9,-2c-5.7,0 -10.1,3.3 -10.1,7.8c0,4.5 4,7.3 9.3,7.3c6,-0.1 11.6,-2.9 12.7,-8z" class="st8"/>
   </g>
  </g>
  <g id="svg_610">
   <g id="svg_611">
    <path id="svg_612" d="m246.7,991.4l-44.7,-25.9c-0.6,-0.4 -1.3,-0.5 -2,-0.5s-1.4,0.2 -2,0.5l-45,26c-1.6,1.1 -1.5,3.5 0.2,4.5l46.8,27l46.7,-27c1.8,-1 1.8,-3.6 0,-4.6z" class="st8"/>
    <path id="svg_613" d="m89,1095.7c0,1.4 0.8,2.7 2,3.5l48.7,28.2l0,-56.4c0,-1.3 -0.7,-2.5 -1.7,-3.2l-28,-16.1l-17,-9.8c-0.4,-0.2 -0.9,-0.4 -1.3,-0.4c-1.4,0 -2.7,1.1 -2.7,2.7l0,51.5z" class="st8"/>
    <g id="svg_614">
     <path id="svg_615" d="m297.5,1020.7l-47.5,-27.4c0,0.1 0,0.3 0,0.4c0,1.7 -0.9,3.2 -2.3,4l-45.7,26.4l46.8,27c1.2,0.7 2.8,0.7 4,0l44.7,-25.8c1.8,-1 1.8,-3.6 0,-4.6z" class="st8"/>
    </g>
    <g id="svg_616">
     <g id="svg_617">
      <path id="svg_618" d="m138.7,1068.3c-0.2,-0.2 -0.5,-0.5 -0.7,-0.6l0,0c0.2,0.2 0.5,0.4 0.7,0.6z" class="st8"/>
     </g>
     <g id="svg_619">
      <path id="svg_620" d="m188.5,1096.9l-47,-27.1c0.1,0.4 0.1,0.8 0.1,1.2l0,56.4l0,1.2l44.8,25.9c1.8,1 4,-0.3 4,-2.3l0,-51.8c0.1,-1.5 -0.6,-2.8 -1.9,-3.5z" class="st8"/>
     </g>
    </g>
    <g id="svg_621">
     <g id="svg_622">
      <path id="svg_623" d="m153.2,996l23.4,13.5l-23.4,-13.5c-0.4,-0.2 -0.7,-0.6 -1,-1c0.3,0.4 0.6,0.7 1,1z" class="st8"/>
     </g>
     <g id="svg_624">
      <path id="svg_625" d="m152.2,997.7c-1.4,-0.8 -2.2,-2.2 -2.3,-3.8c0,-0.2 0,-0.4 0,-0.6l-47.4,27.4c-1.8,1 -1.8,3.6 0,4.6l44.7,25.8c1.2,0.7 2.8,0.7 4,0l46.8,-27l-45.8,-26.4z" class="st8"/>
     </g>
    </g>
    <g id="svg_626">
     <path id="svg_627" d="m138.7,1129.1l-48.7,-28.2c-0.4,-0.2 -0.7,-0.5 -1,-0.7l0,54.3c0,1.4 0.8,2.7 2,3.5l44.7,25.8c1.8,1 4,-0.3 4,-2.3l0,-51.8l-1,-0.6z" class="st8"/>
    </g>
    <path id="svg_628" d="m311,1095.7c0,1.4 -0.8,2.7 -2,3.5l-48.7,28.2l0,-56.4c0,-1.3 0.7,-2.5 1.7,-3.2l28,-16.1l17,-9.8c0.4,-0.2 0.9,-0.4 1.3,-0.4c1.4,0 2.7,1.1 2.7,2.7l0,51.5z" class="st8"/>
    <g id="svg_629">
     <g id="svg_630">
      <path id="svg_631" d="m261.3,1068.3c0.2,-0.2 0.5,-0.5 0.7,-0.6l0,0c-0.2,0.2 -0.5,0.4 -0.7,0.6z" class="st8"/>
     </g>
     <g id="svg_632">
      <path id="svg_633" d="m211.5,1096.9l47,-27.1c-0.1,0.4 -0.1,0.8 -0.1,1.2l0,56.4l0,1.2l-44.8,25.9c-1.8,1 -4,-0.3 -4,-2.3l0,-51.8c-0.1,-1.5 0.6,-2.8 1.9,-3.5z" class="st8"/>
     </g>
    </g>
    <g id="svg_634">
     <path id="svg_635" d="m261.3,1129.1l48.7,-28.2c0.4,-0.2 0.7,-0.5 1,-0.7l0,54.3c0,1.4 -0.8,2.7 -2,3.5l-44.7,25.8c-1.8,1 -4,-0.3 -4,-2.3l0,-51.8l1,-0.6z" class="st8"/>
    </g>
   </g>
   <g id="svg_636">
    <g id="svg_637">
     <path id="svg_638" d="m0,1218.8l15.7,0l22.8,41.5l22.6,-41.5l15.8,0l0,73.4l-15.8,0l0,-45.7l-22.6,41.5l-22.8,-41.5l0,45.7l-15.7,0l0,-73.4z" class="st8"/>
    </g>
    <g id="svg_639">
     <path id="svg_640" d="m85.2,1264.5c0,-15.7 13.8,-28.8 30.2,-28.8c16.3,0 30,13.1 30,28.8s-13.7,29 -30,29c-16.4,0 -30.2,-13.3 -30.2,-29zm45.4,0c0,-8.5 -6.9,-15.7 -15.2,-15.7c-8.3,0 -15.3,7.2 -15.3,15.7s6.9,15.8 15.3,15.8c8.3,0 15.2,-7.2 15.2,-15.8z" class="st8"/>
    </g>
    <g id="svg_641">
     <path id="svg_642" d="m206.3,1257l0,35.1l-15.1,0l0,-31.8c0,-6.8 -4.3,-11.5 -10.5,-11.5c-6.5,0 -11.5,4.7 -11.5,10.7l-0.1,-0.3l0,33l-15.6,0l0,-55.2l15.6,0l0,6.9c3.3,-5 9.5,-8.2 16.7,-8.2c12,0 20.5,8.8 20.5,21.3z" class="st8"/>
    </g>
    <g id="svg_643">
     <path id="svg_644" d="m255.7,1274.8l9.9,10.1c-4.9,5.1 -14.4,8.5 -22.5,8.5c-16.5,0 -29.3,-12.1 -29.3,-29.1c0,-16.7 12.3,-28.7 28.4,-28.7c17.3,0 27.5,13.1 27.5,34l-39.8,0c1.8,6 6.6,10 13.1,10c4.4,0.1 9.7,-1.9 12.7,-4.8zm-25.6,-16.4l24.7,0c-1.5,-5.4 -5.6,-9 -11.9,-9c-5.9,0.1 -10.8,3.5 -12.8,9z" class="st8"/>
    </g>
    <g id="svg_645">
     <path id="svg_646" d="m308.6,1288.7c-3.2,2.9 -8.2,4.8 -12.7,4.8c-9.7,0 -16.6,-6.9 -16.6,-16.9l0,-27l-7.6,0l0,-12.6l7.6,0l0,-15.2l15,0l0,15.2l12,0l0,12.6l-12,0l0,24.6c0,3.6 2.4,6.2 5.2,6.2c2.1,0 4.3,-0.7 5.3,-1.8l3.8,10.1z" class="st8"/>
    </g>
    <g id="svg_647">
     <path id="svg_648" d="m342.9,1288.7c-3.2,2.9 -8.2,4.8 -12.7,4.8c-9.7,0 -16.6,-6.9 -16.6,-16.9l0,-27l-7.6,0l0,-12.6l7.6,0l0,-15.2l15,0l0,15.2l12,0l0,12.6l-12,0l0,24.6c0,3.6 2.4,6.2 5.2,6.2c2.1,0 4.3,-0.7 5.3,-1.8l3.8,10.1z" class="st8"/>
    </g>
    <g id="svg_649">
     <path id="svg_650" d="m400,1259.2l0,33l-15.1,0l0,-5.6c-4,4.5 -10.3,6.8 -16.2,6.8c-11.8,0 -20.8,-7.1 -20.8,-17.6c0,-10.9 10.1,-18.4 23,-18.4c4.5,0 9.4,1 14.1,2.8l0,-1.1c0,-5.9 -3.6,-11 -12.7,-11c-5.1,0 -9.9,1.7 -14.3,4l-5.2,-10.4c7.8,-4 15.4,-6.1 23.1,-6.1c14.3,0.1 24.1,9.2 24.1,23.6zm-15.1,15.6l0,-5.1c-3.5,-1.3 -7.6,-2 -11.9,-2c-5.7,0 -10.1,3.3 -10.1,7.8c0,4.5 4,7.3 9.3,7.3c6,-0.1 11.7,-2.9 12.7,-8z" class="st8"/>
    </g>
   </g>
   <g id="svg_651">
    <g id="svg_652">
     <path id="svg_653" d="m7.2,1314.6l5.5,0l0,5.2c-1.2,1.3 -3.2,2.1 -5.1,2.1c-3.7,0 -6.8,-3 -6.8,-6.6s3.1,-6.6 6.8,-6.6c1.9,0 3.9,0.8 5.1,2.1l-1.7,1.5c-0.8,-0.9 -2.2,-1.5 -3.4,-1.5c-2.4,0 -4.4,2.1 -4.4,4.5c0,2.5 2,4.5 4.4,4.5c1,0 2,-0.3 2.8,-0.9l0,-2.3l-3.2,0l0,-2z" class="st8"/>
    </g>
    <g id="svg_654">
     <path id="svg_655" d="m21.7,1318.9l1.4,1.5c-0.8,0.9 -2.5,1.5 -3.9,1.5c-2.8,0 -5,-2.1 -5,-5.1c0,-2.9 2.2,-5 4.9,-5c3,0 4.7,2.3 4.7,5.8l-7.3,0c0.3,1.3 1.3,2.3 2.7,2.3c0.9,0 2,-0.5 2.5,-1zm-5.1,-3l5.1,0c-0.3,-1.2 -1.1,-2.1 -2.4,-2.1c-1.3,0 -2.4,0.8 -2.7,2.1z" class="st8"/>
    </g>
    <g id="svg_656">
     <path id="svg_657" d="m30.9,1321.1c-0.5,0.5 -1.3,0.8 -2.1,0.8c-1.6,0 -2.7,-1.2 -2.7,-2.8l0,-5.2l-1.4,0l0,-1.9l1.4,0l0,-2.6l2.2,0l0,2.6l2.2,0l0,1.9l-2.2,0l0,4.9c0,0.7 0.4,1.1 1,1.1c0.4,0 0.7,-0.1 1,-0.4l0.6,1.6z" class="st8"/>
    </g>
    <g id="svg_658">
     <path id="svg_659" d="m51.9,1315.5l0,6.1l-2.2,0l0,-5.8c0,-1.3 -0.8,-2.2 -1.9,-2.2c-1.3,0 -2.1,0.8 -2.1,2l0,5.9l-2.2,0l0,-5.8c0,-1.3 -0.8,-2.2 -1.9,-2.2c-1.2,0 -2.1,0.8 -2.1,2l0,5.9l-2.3,0l0,-9.6l2.3,0l0,1.3c0.5,-0.9 1.5,-1.5 2.7,-1.5c1.4,0 2.5,0.7 3.1,1.8c0.5,-1.1 1.7,-1.8 3.1,-1.8c2,0.2 3.5,1.7 3.5,3.9z" class="st8"/>
    </g>
    <g id="svg_660">
     <path id="svg_661" d="m53.5,1316.8c0,-2.7 2.4,-5 5.2,-5c2.8,0 5.2,2.3 5.2,5s-2.4,5.1 -5.2,5.1c-2.8,0 -5.2,-2.3 -5.2,-5.1zm8.1,0c0,-1.7 -1.3,-3.1 -2.9,-3.1c-1.6,0 -2.9,1.4 -2.9,3.1c0,1.7 1.3,3.1 2.9,3.1c1.5,0 2.9,-1.4 2.9,-3.1z" class="st8"/>
    </g>
    <g id="svg_662">
     <path id="svg_663" d="m71.2,1311.8l0,1.9c-2.1,0 -3.5,1.2 -3.5,3.1l0,4.9l-2.3,0l0,-9.6l2.3,0l0,1.9c0.7,-1.4 1.9,-2.2 3.5,-2.2z" class="st8"/>
    </g>
    <g id="svg_664">
     <path id="svg_665" d="m79.5,1318.9l1.4,1.5c-0.8,0.9 -2.5,1.5 -3.9,1.5c-2.8,0 -5,-2.1 -5,-5.1c0,-2.9 2.2,-5 4.9,-5c3,0 4.7,2.3 4.7,5.8l-7.3,0c0.3,1.3 1.3,2.3 2.7,2.3c0.9,0 2,-0.5 2.5,-1zm-5.1,-3l5.1,0c-0.3,-1.2 -1.1,-2.1 -2.4,-2.1c-1.4,0 -2.4,0.8 -2.7,2.1z" class="st8"/>
    </g>
    <g id="svg_666">
     <path id="svg_667" d="m87.6,1316.8c0,-2.7 2.4,-5 5.2,-5c2.8,0 5.2,2.3 5.2,5s-2.4,5.1 -5.2,5.1c-2.8,0 -5.2,-2.3 -5.2,-5.1zm8.1,0c0,-1.7 -1.3,-3.1 -2.9,-3.1c-1.6,0 -2.9,1.4 -2.9,3.1c0,1.7 1.3,3.1 2.9,3.1c1.6,0 2.9,-1.4 2.9,-3.1z" class="st8"/>
    </g>
    <g id="svg_668">
     <path id="svg_669" d="m108.4,1312l0,9.6l-2.3,0l0,-1.3c-0.6,0.9 -1.7,1.5 -3,1.5c-2.1,0 -3.6,-1.5 -3.6,-3.7l0,-6.1l2.2,0l0,5.7c0,1.3 0.8,2.2 2,2.2s2.2,-0.8 2.3,-1.8l0,-6.1l2.4,0z" class="st8"/>
    </g>
    <g id="svg_670">
     <path id="svg_671" d="m116,1321.1c-0.5,0.5 -1.3,0.8 -2.1,0.8c-1.6,0 -2.7,-1.2 -2.7,-2.8l0,-5.2l-1.4,0l0,-1.9l1.4,0l0,-2.6l2.2,0l0,2.6l2.2,0l0,1.9l-2.2,0l0,4.9c0,0.7 0.4,1.1 1,1.1c0.4,0 0.7,-0.1 1,-0.4l0.6,1.6z" class="st8"/>
    </g>
    <g id="svg_672">
     <path id="svg_673" d="m121.8,1316.8c0,-2.7 2.4,-5 5.2,-5c2.8,0 5.2,2.3 5.2,5s-2.4,5.1 -5.2,5.1c-2.8,0 -5.2,-2.3 -5.2,-5.1zm8.1,0c0,-1.7 -1.3,-3.1 -2.9,-3.1c-1.6,0 -2.9,1.4 -2.9,3.1c0,1.7 1.3,3.1 2.9,3.1c1.5,0 2.9,-1.4 2.9,-3.1z" class="st8"/>
    </g>
    <g id="svg_674">
     <path id="svg_675" d="m136.6,1312l2.2,0l0,1.9l-2.2,0l0,7.8l-2.2,0l0,-7.8l-1.4,0l0,-1.9l1.4,0l0,-1c0,-1.6 1.1,-2.8 2.7,-2.8c0.7,0 1.5,0.3 2.1,0.8l-0.7,1.5c-0.2,-0.2 -0.6,-0.4 -1,-0.4c-0.5,0 -1,0.5 -1,1.1l0,0.8l0.1,0z" class="st8"/>
    </g>
    <g id="svg_676">
     <path id="svg_677" d="m145,1324.5l0.5,-1.6c0.4,0.2 0.9,0.4 1.2,0.4c0.5,0 1,-0.2 1.2,-0.6l0.4,-0.9l-4.1,-9.7l2.4,0l2.8,7.2l2.6,-7.2l2.4,0l-4.1,10.3c-0.7,1.8 -1.8,2.7 -3.3,2.7c-0.6,-0.1 -1.4,-0.3 -2,-0.6z" class="st8"/>
    </g>
    <g id="svg_678">
     <path id="svg_679" d="m155,1316.8c0,-2.7 2.4,-5 5.2,-5c2.8,0 5.2,2.3 5.2,5s-2.4,5.1 -5.2,5.1c-2.8,0 -5.2,-2.3 -5.2,-5.1zm8.1,0c0,-1.7 -1.3,-3.1 -2.9,-3.1c-1.6,0 -2.9,1.4 -2.9,3.1c0,1.7 1.3,3.1 2.9,3.1c1.6,0 2.9,-1.4 2.9,-3.1z" class="st8"/>
    </g>
    <g id="svg_680">
     <path id="svg_681" d="m175.8,1312l0,9.6l-2.3,0l0,-1.3c-0.6,0.9 -1.7,1.5 -3,1.5c-2.1,0 -3.6,-1.5 -3.6,-3.7l0,-6.1l2.2,0l0,5.7c0,1.3 0.8,2.2 2,2.2s2.2,-0.8 2.3,-1.8l0,-6.1l2.4,0z" class="st8"/>
    </g>
    <g id="svg_682">
     <path id="svg_683" d="m183.7,1311.8l0,1.9c-2.1,0 -3.5,1.2 -3.5,3.1l0,4.9l-2.2,0l0,-9.6l2.3,0l0,1.9c0.6,-1.4 1.8,-2.2 3.4,-2.2z" class="st8"/>
    </g>
    <g id="svg_684">
     <path id="svg_685" d="m204.6,1315.5l0,6.1l-2.2,0l0,-5.8c0,-1.3 -0.8,-2.2 -1.9,-2.2c-1.3,0 -2.1,0.8 -2.1,2l0,5.9l-2.2,0l0,-5.8c0,-1.3 -0.8,-2.2 -1.9,-2.2c-1.2,0 -2.1,0.8 -2.1,2l0,5.9l-2.3,0l0,-9.6l2.3,0l0,1.3c0.5,-0.9 1.5,-1.5 2.7,-1.5c1.4,0 2.5,0.7 3.1,1.8c0.5,-1.1 1.7,-1.8 3.1,-1.8c2,0.2 3.5,1.7 3.5,3.9z" class="st8"/>
    </g>
    <g id="svg_686">
     <path id="svg_687" d="m213.7,1318.9l1.4,1.5c-0.8,0.9 -2.5,1.5 -3.9,1.5c-2.8,0 -5,-2.1 -5,-5.1c0,-2.9 2.2,-5 4.9,-5c3,0 4.7,2.3 4.7,5.8l-7.3,0c0.3,1.3 1.3,2.3 2.7,2.3c0.9,0 1.9,-0.5 2.5,-1zm-5.2,-3l5.1,0c-0.3,-1.2 -1.1,-2.1 -2.4,-2.1c-1.3,0 -2.3,0.8 -2.7,2.1z" class="st8"/>
    </g>
    <g id="svg_688">
     <path id="svg_689" d="m224.4,1318.9l1.4,1.5c-0.8,0.9 -2.5,1.5 -3.9,1.5c-2.8,0 -5,-2.1 -5,-5.1c0,-2.9 2.2,-5 4.9,-5c3,0 4.7,2.3 4.7,5.8l-7.3,0c0.3,1.3 1.3,2.3 2.7,2.3c0.9,0 1.9,-0.5 2.5,-1zm-5.2,-3l5.1,0c-0.3,-1.2 -1.1,-2.1 -2.4,-2.1c-1.3,0 -2.3,0.8 -2.7,2.1z" class="st8"/>
    </g>
    <g id="svg_690">
     <path id="svg_691" d="m233.6,1321.1c-0.5,0.5 -1.3,0.8 -2.1,0.8c-1.6,0 -2.7,-1.2 -2.7,-2.8l0,-5.2l-1.4,0l0,-1.9l1.4,0l0,-2.6l2.2,0l0,2.6l2.2,0l0,1.9l-2.2,0l0,4.9c0,0.7 0.4,1.1 1,1.1c0.4,0 0.7,-0.1 1,-0.4l0.6,1.6z" class="st8"/>
    </g>
    <g id="svg_692">
     <path id="svg_693" d="m234.8,1309.2c0,-0.7 0.6,-1.3 1.3,-1.3c0.7,0 1.3,0.6 1.3,1.3s-0.6,1.3 -1.3,1.3c-0.7,0 -1.3,-0.6 -1.3,-1.3zm0.2,2.8l2.3,0l0,9.6l-2.3,0l0,-9.6z" class="st8"/>
    </g>
    <g id="svg_694">
     <path id="svg_695" d="m248.2,1315.5l0,6.1l-2.2,0l0,-5.7c0,-1.3 -0.8,-2.2 -2,-2.2s-2.2,0.8 -2.3,1.8l0,6.1l-2.3,0l0,-9.6l2.3,0l0,1.3c0.6,-0.9 1.7,-1.5 3,-1.5c2.1,0 3.5,1.5 3.5,3.7z" class="st8"/>
    </g>
    <g id="svg_696">
     <path id="svg_697" d="m259.8,1312l0,8.6c0,2.5 -2.1,4.2 -5,4.2c-1.7,0 -3.2,-0.5 -4.1,-1.3l0.8,-1.7c0.7,0.6 1.8,1 3,1c1.9,0 3.1,-0.9 3.1,-2.4l0,-1.3c-0.8,1 -1.9,1.6 -3.3,1.6c-2.5,0 -4.3,-1.9 -4.3,-4.6s1.8,-4.6 4.3,-4.6c1.4,0 2.6,0.6 3.3,1.7l0,-1.4l2.2,0l0,0.2zm-2.3,4.4c0,-1.5 -1.1,-2.6 -2.6,-2.6c-1.5,0 -2.6,1.1 -2.6,2.6c0,1.5 1.1,2.6 2.6,2.6c1.5,0 2.6,-1.1 2.6,-2.6z" class="st8"/>
    </g>
    <g id="svg_698">
     <path id="svg_699" d="m261.3,1320.4l1,-1.6c0.9,0.7 2,1.1 3.2,1.1c0.9,0 1.5,-0.4 1.5,-1c0,-0.7 -0.8,-1 -1.9,-1.3c-2.1,-0.5 -3.4,-1.1 -3.4,-2.9c0,-1.8 1.5,-3 3.6,-3c1.3,0 2.7,0.5 3.7,1.2l-1,1.7c-0.9,-0.6 -1.9,-0.9 -2.7,-0.9c-0.8,0 -1.4,0.3 -1.4,0.9c0,0.6 0.5,0.8 2,1.2c1.6,0.4 3.4,1 3.4,3c0,1.8 -1.5,3 -3.8,3c-1.4,0.1 -3,-0.4 -4.2,-1.4z" class="st8"/>
    </g>
    <g id="svg_700">
     <path id="svg_701" d="m271.2,1323.6c0.6,-0.6 0.9,-1.2 1.1,-1.8c-0.8,0 -1.4,-0.7 -1.4,-1.5c0,-0.8 0.7,-1.5 1.5,-1.5c1,0 1.6,0.9 1.6,2c0,1 -0.5,2 -1.8,3.3l-1,-0.5z" class="st8"/>
    </g>
    <g id="svg_702">
     <path id="svg_703" d="m290.9,1316.8c0,3 -1.9,5.1 -4.4,5.1c-1.4,0 -2.6,-0.7 -3.4,-1.8l0,1.5l-2.3,0l0,-13l2.3,0l0,4.9c0.8,-1.1 1.9,-1.8 3.4,-1.8c2.5,0.1 4.4,2.2 4.4,5.1zm-2.3,0c0,-1.8 -1.2,-3.1 -2.8,-3.1c-1.6,0 -2.7,1.3 -2.7,3.1c0,1.8 1.1,3.1 2.7,3.1c1.6,0 2.8,-1.3 2.8,-3.1z" class="st8"/>
    </g>
    <g id="svg_704">
     <path id="svg_705" d="m292.4,1324.5l0.5,-1.6c0.4,0.2 0.9,0.4 1.2,0.4c0.5,0 1,-0.2 1.2,-0.6l0.4,-0.9l-4.1,-9.7l2.4,0l2.8,7.2l2.6,-7.2l2.4,0l-4.1,10.3c-0.7,1.8 -1.8,2.7 -3.3,2.7c-0.6,-0.1 -1.4,-0.3 -2,-0.6z" class="st8"/>
    </g>
    <g id="svg_706">
     <path id="svg_707" d="m317.9,1308.6l0,13l-2.3,0l0,-1.5c-0.8,1.1 -1.9,1.7 -3.3,1.7c-2.6,0 -4.4,-2.1 -4.4,-5.1c0,-2.9 1.9,-5 4.4,-5c1.4,0 2.6,0.6 3.3,1.7l0,-4.9l2.3,0l0,0.1zm-2.3,8.2c0,-1.8 -1.1,-3.1 -2.7,-3.1c-1.6,0 -2.8,1.3 -2.8,3.1c0,1.8 1.2,3.1 2.8,3.1c1.6,0 2.7,-1.3 2.7,-3.1z" class="st8"/>
    </g>
    <g id="svg_708">
     <path id="svg_709" d="m319.5,1316.8c0,-2.7 2.4,-5 5.2,-5c2.8,0 5.2,2.3 5.2,5s-2.4,5.1 -5.2,5.1c-2.8,0 -5.2,-2.3 -5.2,-5.1zm8.1,0c0,-1.7 -1.3,-3.1 -2.9,-3.1c-1.6,0 -2.9,1.4 -2.9,3.1c0,1.7 1.3,3.1 2.9,3.1c1.6,0 2.9,-1.4 2.9,-3.1z" class="st8"/>
    </g>
    <g id="svg_710">
     <path id="svg_711" d="m331.3,1309.2c0,-0.7 0.6,-1.3 1.3,-1.3c0.7,0 1.3,0.6 1.3,1.3s-0.6,1.3 -1.3,1.3c-0.7,0 -1.3,-0.6 -1.3,-1.3zm0.2,2.8l2.3,0l0,9.6l-2.3,0l0,-9.6z" class="st8"/>
    </g>
    <g id="svg_712">
     <path id="svg_713" d="m344.8,1315.5l0,6.1l-2.2,0l0,-5.7c0,-1.3 -0.8,-2.2 -2,-2.2s-2.2,0.8 -2.3,1.8l0,6.1l-2.3,0l0,-9.6l2.3,0l0,1.3c0.6,-0.9 1.7,-1.5 3,-1.5c2,0 3.5,1.5 3.5,3.7z" class="st8"/>
    </g>
    <g id="svg_714">
     <path id="svg_715" d="m356.3,1312l0,8.6c0,2.5 -2.1,4.2 -5,4.2c-1.7,0 -3.2,-0.5 -4.1,-1.3l0.8,-1.7c0.7,0.6 1.8,1 3,1c1.9,0 3.1,-0.9 3.1,-2.4l0,-1.3c-0.8,1 -1.9,1.6 -3.3,1.6c-2.5,0 -4.3,-1.9 -4.3,-4.6s1.8,-4.6 4.3,-4.6c1.4,0 2.6,0.6 3.3,1.7l0,-1.4l2.2,0l0,0.2zm-2.3,4.4c0,-1.5 -1.1,-2.6 -2.6,-2.6c-1.5,0 -2.6,1.1 -2.6,2.6c0,1.5 1.1,2.6 2.6,2.6c1.5,0 2.6,-1.1 2.6,-2.6z" class="st8"/>
    </g>
    <g id="svg_716">
     <path id="svg_717" d="m363.4,1308.6l2.3,0l0,13l-2.3,0l0,-13z" class="st8"/>
    </g>
    <g id="svg_718">
     <path id="svg_719" d="m374.8,1318.9l1.4,1.5c-0.8,0.9 -2.5,1.5 -3.9,1.5c-2.8,0 -5,-2.1 -5,-5.1c0,-2.9 2.2,-5 4.9,-5c3,0 4.7,2.3 4.7,5.8l-7.3,0c0.3,1.3 1.3,2.3 2.7,2.3c0.9,0 2,-0.5 2.5,-1zm-5.1,-3l5.1,0c-0.3,-1.2 -1.1,-2.1 -2.4,-2.1c-1.4,0 -2.4,0.8 -2.7,2.1z" class="st8"/>
    </g>
    <g id="svg_720">
     <path id="svg_721" d="m377.9,1320.4l1,-1.6c0.9,0.7 2,1.1 3.2,1.1c0.9,0 1.5,-0.4 1.5,-1c0,-0.7 -0.8,-1 -1.9,-1.3c-2.1,-0.5 -3.4,-1.1 -3.4,-2.9c0,-1.8 1.5,-3 3.6,-3c1.3,0 2.7,0.5 3.7,1.2l-1,1.7c-0.9,-0.6 -1.9,-0.9 -2.7,-0.9c-0.8,0 -1.4,0.3 -1.4,0.9c0,0.6 0.5,0.8 2,1.2c1.6,0.4 3.4,1 3.4,3c0,1.8 -1.5,3 -3.8,3c-1.5,0.1 -3.1,-0.4 -4.2,-1.4z" class="st8"/>
    </g>
    <g id="svg_722">
     <path id="svg_723" d="m386.8,1320.4l1,-1.6c0.9,0.7 2,1.1 3.2,1.1c0.9,0 1.5,-0.4 1.5,-1c0,-0.7 -0.8,-1 -1.9,-1.3c-2.1,-0.5 -3.4,-1.1 -3.4,-2.9c0,-1.8 1.5,-3 3.6,-3c1.3,0 2.7,0.5 3.7,1.2l-1,1.7c-0.9,-0.6 -1.9,-0.9 -2.7,-0.9c-0.8,0 -1.4,0.3 -1.4,0.9c0,0.6 0.5,0.8 2,1.2c1.6,0.4 3.4,1 3.4,3c0,1.8 -1.5,3 -3.8,3c-1.4,0.1 -3,-0.4 -4.2,-1.4z" class="st8"/>
    </g>
    <g id="svg_724">
     <path id="svg_725" d="m396.3,1320.4c0,-0.8 0.6,-1.4 1.5,-1.4c0.8,0 1.4,0.7 1.4,1.4c0,0.8 -0.7,1.5 -1.4,1.5c-0.8,0 -1.5,-0.7 -1.5,-1.5z" class="st8"/>
    </g>
   </g>
  </g>
 </g>
</svg>